<?xml version="1.0" encoding="utf-8"?>
<!-- Generator: Adobe Illustrator 28.0.0, SVG Export Plug-In . SVG Version: 6.00 Build 0)  -->
<svg version="1.1" id="Layer_1" xmlns="http://www.w3.org/2000/svg" xmlns:xlink="http://www.w3.org/1999/xlink" x="0px" y="0px"
	 viewBox="0 0 1929 1021.8" style="enable-background:new 0 0 1929 1021.8;" xml:space="preserve">
<style type="text/css">
	.st0{display:none;fill:url(#Path_2511_00000011026497007717971290000000277471264627708828_);}
	.st1{display:none;fill:url(#Path_2512_00000134218180198896661190000010051950613199426701_);}
	.st2{fill:url(#Path_2512_00000085224410439506385800000012284738969143994027_);}
	.st3{fill:url(#Path_2512_00000091015359105599290460000001995971411588712857_);}
	.st4{clip-path:url(#SVGID_00000021090569937314930890000007029334552523813303_);}
	.st5{opacity:0.11;fill:url(#Polygon_21_00000150063095592438897180000000501094228193065908_);enable-background:new    ;}
	.st6{opacity:0.11;fill:url(#Polygon_25_00000026146525223895358710000009218467435078478991_);enable-background:new    ;}
	.st7{opacity:0.25;fill:url(#Polygon_22_00000142162150877847716850000010810317786141545092_);enable-background:new    ;}
	.st8{opacity:0.25;fill:url(#Polygon_23_00000165192690372216916570000016154087880229092021_);enable-background:new    ;}
	.st9{opacity:0.12;fill:url(#Polygon_24_00000051345409759755815610000001207563852137017274_);enable-background:new    ;}
</style>
<g id="about-heading-bg" transform="translate(0 11.028)">
	
		<linearGradient id="Path_2511_00000152250091028197845670000012284709879108749956_" gradientUnits="userSpaceOnUse" x1="185.7818" y1="1215.7297" x2="185.7818" y2="1214.7297" gradientTransform="matrix(1964.8934 -102.9757 -55.0039 -1049.5369 -297237.0938 1295024.125)">
		<stop  offset="0" style="stop-color:#ACDAFF;stop-opacity:0.62"/>
		<stop  offset="1" style="stop-color:#008CFF;stop-opacity:0.169"/>
	</linearGradient>
	<path id="Path_2511" style="display:none;fill:url(#Path_2511_00000152250091028197845670000012284709879108749956_);" d="M2,943
		c0,0,716.3,225.8,1345-142.2s575-812.9,575-812.9L2.2-11.1L2,943z"/>
	
		<radialGradient id="Path_2512_00000062186614150348647820000008657378848875490209_" cx="185.7181" cy="1215.4244" r="0.7537" gradientTransform="matrix(1078.4912 -910.7781 -1090.9602 -339.7421 1126651.75 582544.3125)" gradientUnits="userSpaceOnUse">
		<stop  offset="0" style="stop-color:#C2E2FB"/>
		<stop  offset="1" style="stop-color:#CCE2F3"/>
	</radialGradient>
	
		<path id="Path_2512_00000036211169706711337270000001993018833186699904_" style="display:none;fill:url(#Path_2512_00000062186614150348647820000008657378848875490209_);" d="
		M2,945c0,0,667.1,243.1,1313.9-122.7C1808.2,582.4,1940.1-12,1940.1-12L2-12L2,945z"/>
	
		<radialGradient id="Path_2512_00000168105020488593356660000008957179468718056379_" cx="185.7183" cy="1215.4293" r="0.7507" gradientTransform="matrix(1078.4912 -910.7781 -1090.9602 -339.7421 1126651.75 582544.3125)" gradientUnits="userSpaceOnUse">
		<stop  offset="0" style="stop-color:#C2E2FB"/>
		<stop  offset="1" style="stop-color:#C9E7FF"/>
	</radialGradient>
	
		<path id="Path_2512_00000070821986752665840210000012364624639871037102_" style="fill:url(#Path_2512_00000168105020488593356660000008957179468718056379_);" d="
		M506.3,1010.4c-154.2,0-284.3-19.4-366.3-35.6C50.9,957.1-0.9,939.7-3,939l3.2-0.7l0-950.5l1928.7,0.9c0.1,1.2,0.5,27-4.6,74.5
		c-4.7,43.5-17.7,112.5-53,194c-39.6,91.4-98.6,179.7-175.4,262.5c-95.7,103.2-219.5,198.1-367.9,282
		c-133.1,75.3-277.8,131-429.9,165.7C772.4,995.9,640.6,1010.4,506.3,1010.4C506.3,1010.4,506.3,1010.4,506.3,1010.4z"/>
	
		<radialGradient id="Path_2512_00000105415965524200598050000003572058151787103669_" cx="185.7202" cy="1215.4352" r="0.7453" gradientTransform="matrix(1078.4912 -910.7781 -1090.9602 -339.7421 1126651.75 582544.3125)" gradientUnits="userSpaceOnUse">
		<stop  offset="0" style="stop-color:#C2E2FB"/>
		<stop  offset="1" style="stop-color:#70B9F3"/>
	</radialGradient>
	<path id="Path_2512" style="fill:url(#Path_2512_00000105415965524200598050000003572058151787103669_);" d="M0,930.8
		c0,0,676.1,229.2,1322.9-136.6s593-805.2,593-805.2L0-11L0,930.8z"/>
	<g id="shapes_folder">
		<g>
			<defs>
				<path id="SVGID_1_" d="M-52.7,928.6c0,0,730.8,230.4,1377.6-135.3s596.9-803.9,596.9-803.9L-50.9-7L-52.7,928.6z"/>
			</defs>
			<clipPath id="SVGID_00000012470352922997559100000002484791023310027139_">
				<use xlink:href="#SVGID_1_"  style="overflow:visible;"/>
			</clipPath>
			<g id="Mask_Group_10" style="clip-path:url(#SVGID_00000012470352922997559100000002484791023310027139_);">
				<g id="shapes">
					
						<linearGradient id="Polygon_21_00000071532542249493221960000010720330839163971480_" gradientUnits="userSpaceOnUse" x1="185.6195" y1="1214.7241" x2="185.6195" y2="1213.7241" gradientTransform="matrix(233.4736 210.2206 185.3492 -205.8511 -268037.0625 211394.5469)">
						<stop  offset="0" style="stop-color:#FFFFFF"/>
						<stop  offset="1" style="stop-color:#FFFFFF;stop-opacity:0.329"/>
					</linearGradient>
					
						<path id="Polygon_21" style="opacity:0.11;fill:url(#Polygon_21_00000071532542249493221960000010720330839163971480_);enable-background:new    ;" d="
						M497.5,407.5c6.6,6,9.6,15,7.7,23.7l-26.9,128.5c-1.8,8.8-8.3,15.9-16.8,18.7l-125,40.2c-8.5,2.7-17.8,0.7-24.4-5.2l-98.3-88.5
						c-6.6-6-9.6-15-7.7-23.7L233,372.7c1.8-8.8,8.3-15.9,16.8-18.7l125-40.2c8.5-2.7,17.8-0.7,24.4,5.2L497.5,407.5z"/>
					
						<linearGradient id="Polygon_25_00000080188174115817170140000010017348999546899093_" gradientUnits="userSpaceOnUse" x1="185.6195" y1="1214.7241" x2="185.6195" y2="1213.7241" gradientTransform="matrix(233.4736 210.2206 185.3492 -205.8511 -267473.0625 211183.8906)">
						<stop  offset="0" style="stop-color:#FFFFFF"/>
						<stop  offset="1" style="stop-color:#FFFFFF;stop-opacity:0.329"/>
					</linearGradient>
					
						<path id="Polygon_25" style="opacity:0.11;fill:url(#Polygon_25_00000080188174115817170140000010017348999546899093_);enable-background:new    ;" d="
						M1061.5,196.9c6.6,6,9.6,15,7.7,23.7l-26.9,128.5c-1.8,8.8-8.3,15.9-16.8,18.7l-125,40.2c-8.5,2.7-17.8,0.7-24.4-5.2
						l-98.3-88.5c-6.6-6-9.6-15-7.7-23.7L797,162c1.8-8.8,8.3-15.9,16.8-18.7l125-40.2c8.5-2.7,17.8-0.7,24.4,5.2L1061.5,196.9z"/>
					
						<linearGradient id="Polygon_22_00000168079674164452747740000001086908269277077152_" gradientUnits="userSpaceOnUse" x1="185.6195" y1="1214.7241" x2="185.6195" y2="1213.7241" gradientTransform="matrix(233.4736 210.2206 185.3492 -205.8511 -267324.0625 211681.5469)">
						<stop  offset="0" style="stop-color:#FFFFFF"/>
						<stop  offset="1" style="stop-color:#FFFFFF;stop-opacity:0.329"/>
					</linearGradient>
					
						<path id="Polygon_22" style="opacity:0.25;fill:url(#Polygon_22_00000168079674164452747740000001086908269277077152_);enable-background:new    ;" d="
						M1210.5,694.5c6.6,6,9.6,15,7.7,23.7l-26.9,128.5c-1.8,8.8-8.3,15.9-16.8,18.7l-125,40.2c-8.5,2.7-17.8,0.7-24.4-5.2
						l-98.3-88.5c-6.6-6-9.6-15-7.7-23.7L946,659.7c1.8-8.8,8.3-15.9,16.8-18.7l125-40.2c8.5-2.7,17.8-0.7,24.4,5.2L1210.5,694.5z"
						/>
					
						<linearGradient id="Polygon_23_00000180325402431928468360000003167507398120416403_" gradientUnits="userSpaceOnUse" x1="186.9842" y1="1216.0664" x2="186.9842" y2="1215.0664" gradientTransform="matrix(-291.2931 117.69 103.766 256.8299 -71379.6562 -333265.8125)">
						<stop  offset="0" style="stop-color:#FFFFFF"/>
						<stop  offset="1" style="stop-color:#FFFFFF;stop-opacity:0.329"/>
					</linearGradient>
					
						<path id="Polygon_23" style="opacity:0.25;fill:url(#Polygon_23_00000180325402431928468360000003167507398120416403_);enable-background:new    ;" d="
						M278.2,1087.4c-8.3,3.3-17.7,2-24.7-3.4l-103.7-80.5c-7.1-5.5-10.7-14.4-9.4-23.3l18.6-129.9c1.3-8.8,7.1-16.3,15.4-19.6
						L297.1,781c8.3-3.3,17.7-2,24.7,3.4L425.4,865c7.1,5.5,10.7,14.4,9.4,23.3l-18.6,129.9c-1.3,8.8-7.1,16.3-15.4,19.6
						L278.2,1087.4z"/>
					
						<linearGradient id="Polygon_24_00000077326005883364244060000005614408298109798066_" gradientUnits="userSpaceOnUse" x1="186.9842" y1="1216.0664" x2="186.9842" y2="1215.0664" gradientTransform="matrix(-291.2931 117.69 103.766 256.8299 -70014.6562 -333870.8125)">
						<stop  offset="0" style="stop-color:#FFFFFF"/>
						<stop  offset="1" style="stop-color:#FFFFFF;stop-opacity:0.329"/>
					</linearGradient>
					
						<path id="Polygon_24" style="opacity:0.12;fill:url(#Polygon_24_00000077326005883364244060000005614408298109798066_);enable-background:new    ;" d="
						M1643.2,482.4c-8.3,3.3-17.7,2-24.7-3.4l-103.7-80.5c-7.1-5.5-10.7-14.4-9.4-23.3l18.6-129.9c1.3-8.8,7.1-16.3,15.4-19.6
						l122.6-49.5c8.3-3.3,17.7-2,24.7,3.4l103.7,80.5c7.1,5.5,10.7,14.4,9.4,23.3l-18.6,129.9c-1.3,8.8-7.1,16.3-15.4,19.6
						L1643.2,482.4z"/>
				</g>
			</g>
		</g>
	</g>
</g>
</svg>
