<svg xmlns="http://www.w3.org/2000/svg" xmlns:xlink="http://www.w3.org/1999/xlink" width="55" height="55" viewBox="0 0 55 55">
  <defs>
    <filter id="icon-base-drk" x="0" y="0" width="55" height="55" filterUnits="userSpaceOnUse">
      <feOffset dy="2" input="SourceAlpha"/>
      <feGaussianBlur stdDeviation="2.5" result="blur"/>
      <feFlood flood-color="#020d18" flood-opacity="0.431"/>
      <feComposite operator="in" in2="blur"/>
    </filter>
    <filter id="icon-base-drk-2" x="0" y="0" width="55" height="55" filterUnits="userSpaceOnUse">
      <feOffset dy="1" input="SourceAlpha"/>
      <feGaussianBlur stdDeviation="1.5" result="blur-2"/>
      <feFlood flood-color="#001224" result="color"/>
      <feComposite operator="out" in="SourceGraphic" in2="blur-2"/>
      <feComposite operator="in" in="color"/>
      <feComposite operator="in" in2="SourceGraphic"/>
    </filter>
    <linearGradient id="linear-gradient" x1="0.5" x2="0.5" y2="1" gradientUnits="objectBoundingBox">
      <stop offset="0" stop-color="#bae1ff"/>
      <stop offset="1" stop-color="#85c2ff"/>
    </linearGradient>
  </defs>
  <g id="btn-Add_Survey-drk" data-name="btn-Add=Survey-drk" transform="translate(-8 -13)">
    <g id="Icon-Home" transform="translate(0 -1)">
      <g id="icon-base-drk-3" data-name="icon-base-drk" transform="translate(16 20)">
        <g data-type="innerShadowGroup">
          <g transform="matrix(1, 0, 0, 1, -8, -6)" filter="url(#icon-base-drk)">
            <rect id="icon-base-drk-4" data-name="icon-base-drk" width="39" height="39" rx="19.5" transform="translate(8 6)" fill="#003363" stroke="#002c57" stroke-width="1"/>
          </g>
          <rect id="icon-base-drk-5" data-name="icon-base-drk" width="39" height="39" rx="19.5" fill="#003363"/>
          <g transform="matrix(1, 0, 0, 1, -8, -6)" filter="url(#icon-base-drk-2)">
            <rect id="icon-base-drk-6" data-name="icon-base-drk" width="39" height="39" rx="19.5" transform="translate(8 6)" fill="#fff"/>
          </g>
          <rect id="icon-base-drk-7" data-name="icon-base-drk" width="39" height="39" rx="19.5" fill="none" stroke="#002c57" stroke-width="1"/>
        </g>
      </g>
      <path id="Icon_awesome-plus-circle" data-name="Icon awesome-plus-circle" d="M13.083.563A12.521,12.521,0,1,0,25.6,13.083,12.519,12.519,0,0,0,13.083.563ZM20.354,14.5a.608.608,0,0,1-.606.606H15.1v4.645a.608.608,0,0,1-.606.606H11.67a.608.608,0,0,1-.606-.606V15.1H6.419a.608.608,0,0,1-.606-.606V11.67a.608.608,0,0,1,.606-.606h4.645V6.419a.608.608,0,0,1,.606-.606H14.5a.608.608,0,0,1,.606.606v4.645h4.645a.608.608,0,0,1,.606.606Z" transform="translate(22.417 26.417)" fill="url(#linear-gradient)"/>
    </g>
  </g>
</svg>
