<svg xmlns="http://www.w3.org/2000/svg" xmlns:xlink="http://www.w3.org/1999/xlink" width="55" height="55" viewBox="0 0 55 55">
  <defs>
    <filter id="Base" x="0" y="0" width="55" height="55" filterUnits="userSpaceOnUse">
      <feOffset dy="2" input="SourceAlpha"/>
      <feGaussianBlur stdDeviation="2.5" result="blur"/>
      <feFlood flood-color="#26334d" flood-opacity="0.031"/>
      <feComposite operator="in" in2="blur"/>
    </filter>
    <filter id="Base-2" x="0" y="0" width="55" height="55" filterUnits="userSpaceOnUse">
      <feOffset dy="1" input="SourceAlpha"/>
      <feGaussianBlur stdDeviation="1.5" result="blur-2"/>
      <feFlood flood-color="#8590a4" result="color"/>
      <feComposite operator="out" in="SourceGraphic" in2="blur-2"/>
      <feComposite operator="in" in="color"/>
      <feComposite operator="in" in2="SourceGraphic"/>
    </filter>
    <linearGradient id="linear-gradient" x1="0.5" x2="0.5" y2="1" gradientUnits="objectBoundingBox">
      <stop offset="0" stop-color="#b4bed5"/>
      <stop offset="1" stop-color="#829cd1"/>
    </linearGradient>
  </defs>
  <g id="btn-Profile" transform="translate(-8.5 -13.5)">
    <g id="Icon-Home" transform="translate(0 -1)">
      <g data-type="innerShadowGroup">
        <g transform="matrix(1, 0, 0, 1, 8.5, 14.5)" filter="url(#Base)">
          <rect id="Base-3" data-name="Base" width="39" height="39" rx="19.5" transform="translate(8 6)" fill="#fff" stroke="rgba(255,255,255,0.25)" stroke-width="1"/>
        </g>
        <rect id="Base-4" data-name="Base" width="39" height="39" rx="19.5" transform="translate(16.5 20.5)" fill="#fff"/>
        <g transform="matrix(1, 0, 0, 1, 8.5, 14.5)" filter="url(#Base-2)">
          <rect id="Base-5" data-name="Base" width="39" height="39" rx="19.5" transform="translate(8 6)" fill="#fff"/>
        </g>
        <rect id="Base-6" data-name="Base" width="39" height="39" rx="19.5" transform="translate(16.5 20.5)" fill="none" stroke="rgba(255,255,255,0.25)" stroke-width="1"/>
      </g>
      <path id="Icon_awesome-user-tie" data-name="Icon awesome-user-tie" d="M9.857,11.265A5.632,5.632,0,1,0,4.224,5.632,5.632,5.632,0,0,0,9.857,11.265ZM14.072,12.7l-2.1,8.422-1.408-5.984,1.408-2.464H7.744l1.408,2.464L7.744,21.121,5.641,12.7A5.9,5.9,0,0,0,0,18.587v1.831a2.113,2.113,0,0,0,2.112,2.112H17.6a2.113,2.113,0,0,0,2.112-2.112V18.587A5.9,5.9,0,0,0,14.072,12.7Z" transform="translate(26 28)" fill="url(#linear-gradient)"/>
    </g>
  </g>
</svg>
