<svg xmlns="http://www.w3.org/2000/svg" xmlns:xlink="http://www.w3.org/1999/xlink" width="55" height="55" viewBox="0 0 55 55">
  <defs>
    <filter id="Base" x="0" y="0" width="55" height="55" filterUnits="userSpaceOnUse">
      <feOffset dy="2" input="SourceAlpha"/>
      <feGaussianBlur stdDeviation="2.5" result="blur"/>
      <feFlood flood-color="#26334d" flood-opacity="0.031"/>
      <feComposite operator="in" in2="blur"/>
    </filter>
    <filter id="Base-2" x="0" y="0" width="55" height="55" filterUnits="userSpaceOnUse">
      <feOffset dy="1" input="SourceAlpha"/>
      <feGaussianBlur stdDeviation="1.5" result="blur-2"/>
      <feFlood flood-color="#8590a4" result="color"/>
      <feComposite operator="out" in="SourceGraphic" in2="blur-2"/>
      <feComposite operator="in" in="color"/>
      <feComposite operator="in" in2="SourceGraphic"/>
    </filter>
    <linearGradient id="linear-gradient" x1="0.5" x2="0.5" y2="1" gradientUnits="objectBoundingBox">
      <stop offset="0" stop-color="#99acd3"/>
      <stop offset="1" stop-color="#798298"/>
    </linearGradient>
  </defs>
  <g id="btn-Credits" transform="translate(8 6)">
    <g id="Icon-Home">
      <g data-type="innerShadowGroup">
        <g transform="matrix(1, 0, 0, 1, -8, -6)" filter="url(#Base)">
          <rect id="Base-3" data-name="Base" width="39" height="39" rx="19.5" transform="translate(8 6)" fill="#fff" stroke="rgba(255,255,255,0.25)" stroke-width="1"/>
        </g>
        <rect id="Base-4" data-name="Base" width="39" height="39" rx="19.5" fill="#fff"/>
        <g transform="matrix(1, 0, 0, 1, -8, -6)" filter="url(#Base-2)">
          <rect id="Base-5" data-name="Base" width="39" height="39" rx="19.5" transform="translate(8 6)" fill="#fff"/>
        </g>
        <rect id="Base-6" data-name="Base" width="39" height="39" rx="19.5" fill="none" stroke="rgba(255,255,255,0.25)" stroke-width="1"/>
      </g>
      <path id="Icon_awesome-dollar-sign" data-name="Icon awesome-dollar-sign" d="M8.945,11.684,4.328,10.1a1.469,1.469,0,0,1-.906-1.417A1.381,1.381,0,0,1,4.683,7.208H7.517a2.351,2.351,0,0,1,1.462.526.6.6,0,0,0,.834-.1l1.488-1.7a.9.9,0,0,0-.077-1.226,5.513,5.513,0,0,0-3.7-1.5V.8A.752.752,0,0,0,6.842,0H5.474A.752.752,0,0,0,4.79.8V3.2H4.683C1.959,3.2-.23,5.942.022,9.191a5.537,5.537,0,0,0,3.583,4.836l4.382,1.5a1.474,1.474,0,0,1,.906,1.417,1.381,1.381,0,0,1-1.261,1.477H4.8A2.351,2.351,0,0,1,3.336,17.9.6.6,0,0,0,2.5,18L1.014,19.7a.9.9,0,0,0,.077,1.226,5.513,5.513,0,0,0,3.7,1.5v2.4a.752.752,0,0,0,.684.8H6.842a.752.752,0,0,0,.684-.8V22.416a4.918,4.918,0,0,0,4.519-3.639c.919-3.084-.624-6.247-3.1-7.093Z" transform="translate(13.342 6.685)" fill="url(#linear-gradient)"/>
    </g>
  </g>
</svg>
