<svg xmlns="http://www.w3.org/2000/svg" xmlns:xlink="http://www.w3.org/1999/xlink" width="55" height="55" viewBox="0 0 55 55">
  <defs>
    <filter id="icon-base-drk" x="0" y="0" width="55" height="55" filterUnits="userSpaceOnUse">
      <feOffset dy="2" input="SourceAlpha"/>
      <feGaussianBlur stdDeviation="2.5" result="blur"/>
      <feFlood flood-color="#26334d" flood-opacity="0.031"/>
      <feComposite operator="in" in2="blur"/>
    </filter>
    <filter id="icon-base-drk-2" x="0" y="0" width="55" height="55" filterUnits="userSpaceOnUse">
      <feOffset dy="1" input="SourceAlpha"/>
      <feGaussianBlur stdDeviation="1.5" result="blur-2"/>
      <feFlood flood-color="#001224" result="color"/>
      <feComposite operator="out" in="SourceGraphic" in2="blur-2"/>
      <feComposite operator="in" in="color"/>
      <feComposite operator="in" in2="SourceGraphic"/>
    </filter>
    <linearGradient id="linear-gradient" x1="0.5" x2="0.5" y2="1" gradientUnits="objectBoundingBox">
      <stop offset="0" stop-color="#b4bed5"/>
      <stop offset="1" stop-color="#829cd1"/>
    </linearGradient>
  </defs>
  <g id="btn-Email-list-drk" transform="translate(-8 -15)">
    <g id="Icon-Home" transform="translate(0 -1)">
      <g id="icon-base-drk-3" data-name="icon-base-drk" transform="translate(16 22)">
        <g data-type="innerShadowGroup">
          <g transform="matrix(1, 0, 0, 1, -8, -6)" filter="url(#icon-base-drk)">
            <rect id="icon-base-drk-4" data-name="icon-base-drk" width="39" height="39" rx="19.5" transform="translate(8 6)" fill="#003363" stroke="#162f47" stroke-width="1"/>
          </g>
          <rect id="icon-base-drk-5" data-name="icon-base-drk" width="39" height="39" rx="19.5" fill="#003363"/>
          <g transform="matrix(1, 0, 0, 1, -8, -6)" filter="url(#icon-base-drk-2)">
            <rect id="icon-base-drk-6" data-name="icon-base-drk" width="39" height="39" rx="19.5" transform="translate(8 6)" fill="#fff"/>
          </g>
          <rect id="icon-base-drk-7" data-name="icon-base-drk" width="39" height="39" rx="19.5" fill="none" stroke="#162f47" stroke-width="1"/>
        </g>
      </g>
      <path id="Icon_material-email" data-name="Icon material-email" d="M23.95,6H5.328A2.325,2.325,0,0,0,3.012,8.328L3,22.294a2.335,2.335,0,0,0,2.328,2.328H23.95a2.335,2.335,0,0,0,2.328-2.328V8.328A2.335,2.335,0,0,0,23.95,6Zm0,4.655-9.311,5.819L5.328,10.655V8.328l9.311,5.819L23.95,8.328Z" transform="translate(21 26)" fill="url(#linear-gradient)"/>
    </g>
  </g>
</svg>
