<svg xmlns="http://www.w3.org/2000/svg" xmlns:xlink="http://www.w3.org/1999/xlink" width="65" height="65" viewBox="0 0 65 65">
  <defs>
    <filter id="Base" x="0" y="0" width="65" height="65" filterUnits="userSpaceOnUse">
      <feOffset dy="2" input="SourceAlpha"/>
      <feGaussianBlur stdDeviation="2.5" result="blur"/>
      <feFlood flood-color="#26334d" flood-opacity="0.031"/>
      <feComposite operator="in" in2="blur"/>
      <feComposite in="SourceGraphic"/>
    </filter>
  </defs>
  <g id="btn-add" transform="translate(7.5 5.5)">
    <g transform="matrix(1, 0, 0, 1, -7.5, -5.5)" filter="url(#Base)">
      <rect id="Base-2" data-name="Base" width="50" height="50" rx="25" transform="translate(7.5 5.5)" fill="#fff"/>
    </g>
    <g id="Icon" transform="translate(15 15)">
      <path id="Icon-2" data-name="Icon" d="M10,20A10,10,0,1,1,20,10,10.011,10.011,0,0,1,10,20ZM6,9a1,1,0,1,0,0,2H9v3a1,1,0,1,0,2,0V11h3a1,1,0,1,0,0-2H11V6A1,1,0,1,0,9,6V9Z" fill="#c3cad9"/>
    </g>
  </g>
</svg>
