<?xml version="1.0" encoding="UTF-8"?><svg id="uuid-315abe86-66e6-4901-bf3c-0d5597f4962c" xmlns="http://www.w3.org/2000/svg" xmlns:xlink="http://www.w3.org/1999/xlink" viewBox="0 0 1869.79 1762.72"><defs><linearGradient id="uuid-437fda50-b2c8-4461-b56b-f116008139ad" x1="931.42" y1="1889.57" x2="938.13" y2="-5.32" gradientUnits="userSpaceOnUse"><stop offset="0" stop-color="#0e3ac9"/><stop offset=".78" stop-color="#94caff"/></linearGradient><linearGradient id="uuid-c2df1fcc-c562-4c36-938d-7be95e423e6c" x1="935.02" y1="1473.93" x2="935.02" y2="350.65" gradientUnits="userSpaceOnUse"><stop offset="0" stop-color="#6398d1"/><stop offset="1" stop-color="#85c2ff"/></linearGradient></defs><path d="M1869.79,874.25c-31.89-43.77-82.6-66.85-125.57-97.54-7.34-27.09-13.08-54.58-23.89-80.46-11.48-64.05,51.77-109.69,52.84-171.47-14.95-39.9-36.03-78.6-64.05-110.76-46.57-22.02-100.48-12.14-149.99-21.35-29.36-24.02-53.91-53.24-82.47-78.33-2.14-21.22-4.4-42.57-6.67-63.78-2-30.02,2.94-63.78-14.28-90.07-32.16-26.42-68.72-50.44-108.89-62.18-53.51.93-97.41,38.43-146.12,56.85-35.23-10.81-70.99-20.28-106.89-28.96-28.82-38.96-50.44-84.2-85.67-117.69-45.24-11.61-95.28-10.28-141.05-2.27-32.29,21.88-47.1,60.58-70.32,90.87-24.69,47.1-85.67,40.97-129.57,56.58-44.43-21.35-87.27-48.71-135.98-59.51-40.97,13.61-79.66,36.03-113.29,63.12-18.81,32.69-18.15,74.06-16.41,110.89,2.94,57.51-54.84,82.73-84.87,122.9-50.57,8.54-105.82-.93-153.32,20.28-29.62,32.03-49.64,72.46-65.65,112.76,4.14,50.04,40.7,89.81,54.71,137.04-1.33,43.1-19.08,83.8-32.03,124.37l-13.34,4c-34.83,23.22-75.79,41.5-101.28,75.93-8.81,41.1-5.6,84.47-2.94,126.23,9.34,25.09,35.49,37.63,55.24,53.38,25.62,20.28,66.45,30.96,73.93,66.72,8.94,38.96,33.09,80.73,10.14,119.16-18.15,38.03-50.84,76.73-42.7,121.03,17.35,36.43,35.36,73.93,63.25,103.55,47.91,18.81,101.81,12.14,152.26,18.41,14.54,16.41,29.09,32.83,44.03,48.97,10.14,8.54,30.56,25.75,40.7,34.43l-.8,83,.02.72c.9,39.17,21.58,75.22,55.28,96l1.91,1.18c45.52,28.07,102.58,29.97,149.71,4.71,12-6.43,23.9-12.9,35.94-18,0-63.25-.67-126.5.67-189.75-21.22-13.21-42.7-26.02-64.32-38.56-22.55-16.15-44.97-32.16-65.92-50.31-68.72-58.98-125.43-131.7-164.53-213.5-32.69-67.65-53.91-140.65-62.05-215.37-10.14-90.47,1.6-182.55,28.42-269.28,59.38-177.74,195.89-328.66,369.49-400.59,179.34-75.53,390.85-64.45,561.92,28.16,121.83,66.05,220.44,172.54,280.49,297.17,33.09,69.66,52.58,145.45,60.05,222.31,7.74,82.73-3.2,166.67-27.09,246.2-32.96,105.42-92.47,202.7-172.27,279.16-10.68,10.01-21.62,19.88-32.69,29.49-38.03,32.83-80.6,59.78-124.9,83.27-.27,64.05-.27,128.24-.53,192.42,12.66,5.79,25.16,12.83,37.81,19.66,42.11,22.77,93.08,23.33,135.05.31.39-.21.78-.43,1.17-.64,38.42-21.27,63.67-59.97,67.15-103.75,2.33-29.4,2.11-59.39,6.62-88.25,30.82-25.09,56.18-56.31,87.54-80.86,46.7-1.73,95.94,3.07,140.51-13.61,31.76-32.69,54.31-74.99,68.59-118.09-6.94-49.24-40.43-89.4-56.45-135.71,1.47-23.35,9.61-45.5,14.55-68.19,6.81-77.53,110.09-79.93,136.11-145.18,4.4-38.83,1.33-78.2,2.67-117.16Z" fill="url(#uuid-437fda50-b2c8-4461-b56b-f116008139ad)" stroke-width="0"/><path d="M1230.22,1473.93c123.3-73.79,223.91-188.02,270.22-325.06,13.08-38.83,24.02-78.73,27.89-119.83,14.14-90.61,4-184.28-24.82-271.15-52.18-157.46-173.61-289.16-324.93-356.42-168.4-74.99-372.03-66.72-533.23,22.95-138.38,77.26-247,210.03-287.16,364.29-39.5,134.77-27.09,283.69,32.96,410.59,7.87,17.21,16.15,34.16,25.09,50.84,52.31,93.41,132.37,169.07,224.45,222.84.5-37.2,2.17-74.41,3.44-111.62-268.74-205.02-224.95-491.4-182.91-604.42,54.31-144.65,177.07-262.48,325.73-306.51,159.73-50.44,343.61-13.74,471.31,94.88,83.4,68.19,141.31,164.26,169.47,267.81,16.41,74.19,71.14,340.34-195.41,557.24,0,0,.08,22.57-2.08,103.55Z" fill="url(#uuid-c2df1fcc-c562-4c36-938d-7be95e423e6c)" stroke-width="0"/><path d="M1161.81,997.67l-.18-.68c-7.62-23.16-21.98-42.84-38.03-61-12.37-14-27.66-25.12-44.56-33.07l-.48-.23c-14.01-6.59-28.98-11.04-44.38-12.62-64.47-6.62-129.74-6.76-194.14-.64-71.52,7.61-131.57,68.99-138.51,140.51-7.47,70.99-.93,142.38-2.67,213.64,1.05,51.84-5.08,265.01,5.73,316.09,2.95,13.96,10.2,26.67,20.19,36.87l.3.3c7.26,7.41,15.97,13.06,25.53,16.83,12.11,4.78,24.55,8.87,36.87,13.28,25.22,35.63,45.64,75.66,79,104.75,44.44,4.27,89.14,4.14,133.57,1.87,36.7-29.89,57.51-73.79,85.4-111.02,3.47-.43,9.73-1.93,16.31-3.66,22.83-6.02,43.81-19.07,56.92-38.7,8.37-12.54,13.58-186.96,13.64-203.03,3.49-93.55.14-187.32,1.71-281.02.56-33.23-3.68-66.35-12.2-98.47Z" fill="#6fa1fb" stroke-width="0"/><circle cx="935.02" cy="690.87" r="139.13" transform="translate(-214.66 863.51) rotate(-45)" fill="#6fa1fb" stroke-width="0"/></svg>