<?xml version="1.0" encoding="UTF-8"?><svg id="uuid-bb5e7591-ab9e-4d70-87fa-b88c4bf73d47" xmlns="http://www.w3.org/2000/svg" viewBox="0 0 1812.54 1451.2"><path d="m906.28,0C601.06,0,353.64,247.43,353.64,552.64s247.43,552.64,552.64,552.64,552.64-247.43,552.64-552.64S1211.5,0,906.28,0Zm-.83,371.83c-16.56-21.26-42.4-34.93-71.44-34.93-49.99,0-90.52,40.53-90.52,90.52s40.53,90.52,90.52,90.52c31.91,0,59.97-16.52,76.08-41.47,713.94-4.37,326.06,501.77-3.81,501.77-207.12,0-379.65-147.96-417.74-343.94,94.41,113.84,287.78,88.27,422.51,88.27,16.56,21.26,42.4,34.93,71.44,34.93,49.99,0,90.52-40.53,90.52-90.52s-40.53-90.52-90.52-90.52c-31.91,0-59.97,16.52-76.08,41.47-709.38,4.35-329.8-490.89-.13-490.89,199.88,0,367.55,137.8,413.26,323.58-97.54-102.99-282.5-78.78-414.09-78.78Zm-26.99,55.59c0,24.55-19.9,44.45-44.45,44.45s-44.45-19.9-44.45-44.45,19.9-44.45,44.45-44.45,44.45,19.9,44.45,44.45Zm59.58,239.56c0-24.55,19.9-44.45,44.45-44.45s44.45,19.9,44.45,44.45-19.9,44.45-44.45,44.45-44.45-19.9-44.45-44.45Z" fill="#dbecff" fill-rule="evenodd" stroke-width="0"/><path d="m87.46,1219.93H0v226.74h86.16c81.63,0,129.24-48.59,129.24-114.02v-.65c0-65.43-46.97-112.07-127.95-112.07Zm63.49,113.7c0,36.6-24.94,57.33-62.51,57.33h-25.59v-115.32h25.59c37.57,0,62.51,21.06,62.51,57.33v.65Z" fill="#dbecff" stroke-width="0"/><path d="m309.98,1218.31l-96.53,228.36h66.08l16.2-40.49h87.46l16.52,40.49h67.38l-96.53-228.36h-60.57Zm4.21,138.96l25.59-64.46,25.26,64.46h-50.85Z" fill="#dbecff" stroke-width="0"/><polygon points="447.3 1274.99 515.32 1274.99 515.32 1446.67 578.16 1446.67 578.16 1274.99 646.19 1274.99 646.19 1219.93 447.3 1219.93 447.3 1274.99" fill="#dbecff" stroke-width="0"/><path d="m722.95,1218.31l-96.53,228.36h66.08l16.2-40.49h87.46l16.52,40.49h67.38l-96.53-228.36h-60.57Zm4.21,138.96l25.59-64.46,25.26,64.46h-50.85Z" fill="#dbecff" stroke-width="0"/><polygon points="964.9 1219.93 902.06 1219.93 902.06 1446.67 1074.7 1446.67 1074.7 1391.6 964.9 1391.6 964.9 1219.93" fill="#dbecff" stroke-width="0"/><path d="m1203.29,1215.39c-69.97,0-122.44,52.8-122.44,117.9v.65c0,65.11,51.83,117.26,121.79,117.26s122.44-52.8,122.44-117.9v-.65c0-65.11-51.83-117.25-121.79-117.25Zm57.65,118.55c0,32.72-23,60.57-57.65,60.57s-57.98-28.51-57.98-61.22v-.65c0-32.72,23-60.57,57.33-60.57s58.3,28.51,58.3,61.22v.65Z" fill="#dbecff" stroke-width="0"/><path d="m1468.88,1393.87c-31.74,0-54.09-26.56-54.09-60.57v-.65c0-33.04,22.35-59.92,54.09-59.92,21.7,0,36.6,10.36,49.56,26.56l47.29-36.6c-20.08-27.86-49.88-47.29-96.2-47.29-68.67,0-119.52,51.82-119.52,117.9v.65c0,67.7,52.15,117.26,116.93,117.26,50.21,0,79.03-21.7,100.41-51.18l-47.29-33.69c-13.6,16.52-27.53,27.53-51.18,27.53Z" fill="#dbecff" stroke-width="0"/><polygon points="1809.63 1219.93 1735.13 1219.93 1657.06 1311.92 1657.06 1219.93 1594.23 1219.93 1594.23 1446.67 1657.06 1446.67 1657.06 1388.04 1680.06 1362.45 1737.07 1446.67 1812.54 1446.67 1723.79 1317.42 1809.63 1219.93" fill="#dbecff" stroke-width="0"/></svg>