<?xml version="1.0" encoding="UTF-8"?><svg id="uuid-49fa7449-9c27-49f9-8f78-e5c02bb1afa0" xmlns="http://www.w3.org/2000/svg" xmlns:xlink="http://www.w3.org/1999/xlink" viewBox="0 0 752 499.12"><defs><clipPath id="uuid-ae175740-c286-4fd4-8fc7-0fac134a4415"><path d="m292.54,267.08c55.41,16.98,97.21,29.85,158.42,48.58,53.96-29.2,93.2-49.75,141.35-75.54l-4.22-40.58-299.34,31.12,3.79,36.42Z" fill="none" stroke-width="0"/></clipPath></defs><g id="uuid-558015b1-f71c-4c1c-bc80-197a927c239f"><g id="uuid-f3fc3cef-ee28-4b5c-a92e-8a9080d100fc"><path d="m314.55,463.13c-31.1,0-64.95-2.08-102.2-6.54-68.78-8.23-142.06-89.46-142.06-189.89,0-53.96,30.55-183.17,180.54-183.17,64.06,0,73.26,21.22,130.32,21.22,82.7,0,173.3-47.12,253.84-47.12,109.58,0,117,85.59,117,113.02,0,170.2-244.52,292.47-437.45,292.47Z" fill="#f1f5fb" stroke-width="0"/><path d="m520.98,33.51c0-18.34-24.16-33.51-84.79-33.51-9.09,0-147.43.21-147.43,46.31,0,24.75,43.37,50.84,104.57,50.84,72.82,0,127.65-36.23,127.65-63.64Z" fill="#f1f5fb" stroke-width="0"/></g><g id="uuid-b3c34f28-aa12-4740-a5e1-af28e64c414b"><path d="m156.6,76.67c-.12,0-.26-.03-.41-.1-1,.91-2.35.51-3.48.94-.53-.15-1.07-.41-1.6-.41-.36,0-.71.11-1.06.45-.1.07-.19.1-.27.1-.36,0-.54-.55-.96-.55-.23,0-1.57.6-2.14.6-.41,0-.51-.28-.51-.95,0-.37.03-.85.06-1.47.04-.8-.02-.96.51-.96.2,0,.37.02.55.02.91,0,1.85-.35,2.77-.53.43.04.85.07,1.28.07.8,0,1.58-.11,2.34-.45h1.03c.13.58.74.3,1.04.58.72.42,1.56.8,1.56,1.74s-.68.91-.71.91Z" fill="#333" stroke-width="0"/><path d="m153.68,73.44c-.75.43-1.48,1.06-2.27,1.06-.43,0-.87-.18-1.35-.69,0-.05-.01-.11-.01-.16,0-.07,0-.15.02-.22h3.61Z" fill="#333" stroke-width="0"/><path d="m334.43,131.97c.43,0,.85.18,1.28.3.76.11,1.51.16,2.25.16,5.47,0,11.46-3.56,11.46-4.69s-1.35-.66-2.34-4.27c.01-.06.02-.12.02-.18,0-.34-.15-.67-.15-1,0-.13.02-.25.08-.38.05-3.27,2.24-8.45,5.68-8.45,2.95,0,5.07,4.23,5.07,7.25,0,2.85-1.36,4.13-1.36,4.94,0,.17.04.37.13.6.4-.16.79-.22,1.19-.22,1.48,0,2.69.78,4.44.78,2.82,0,4.3-2.04,6.28-3.35.49-.32.71-.73.71-1.17,0-1.54-2.48-2.06-2.48-6.29,0-4.52,3.46-9.43,6.48-9.43,2.22,0,4.57,2.18,4.57,4.6,0,.65-.14.76-.14,1.62,0,.79.13,1.57.13,2.35,0,1.12-.1,1.14-1.82,5.65.63.34,1.23.46,1.82.46,1.43,0,2.74-.72,4.05-.72.1,0,.14,0,.29,0,2.6,0,4.6-1.47,6.15-2.73,4.14-3.35,4.95-6.48,5-6.54.72-.83,1.03-2.49,2.23-2.49.26,0,2.07.34,2.07,1.99,0,1.56-3.65,9.44-9.44,12.09-2.9,1.33-5.92,2.91-9.21,2.91-2.77,0-3.47-.93-4.98-.93-4.36,0-4.05,6-11.72,6-.88,0-1.78-.08-2.71-.21-.43-.22-.87-.28-1.32-.28-.49,0-.99.07-1.48.07-.44,0-.87-.05-1.28-.26-.48-.33-.9-.48-1.3-.48-2.04,0-5.23,6.8-16.84,6.8-.35,0-.72-.38-1.08-.58-.26-1.57-2.47-1.83-2.47-3.58,0-.03,0-.06,0-.09h0c.26-.19.52-.25.78-.25Z" fill="#88a9ba" stroke-width="0"/><path d="m715.18,272.53c.27.07.52.1.76.1,2.12,0,3.53-2.39,5.86-2.39,1.4,0,10.49,3.67,16.55,7.54-7.79,1.77-15.46,3.8-23.09,6.03-3.59,1.01-7.33,1.24-10.94,2.16-3.65.52-7.17,1.63-10.71,2.6-1.65.46-3.41.44-4.98,1.2-.23.1-.47.17-.72.23-2.76.26-8.33,2.07-10.98,2.07-.25,0-.5-.03-.75-.1-.39-.14-.69-.38-.8-.79.12-1.49,1.36-1.69,2.43-2.08,1.54-.54,2.94-1.42,4.48-1.95.2-.1.41-.19.62-.28,1.32-.62,2.71-1.09,3.96-1.86,1.07-.36,2.05-.88,2.99-1.49,1.03-.38,2.18-.48,2.97-1.38.19-.14.39-.25.6-.33,1.61-.28,3.07-.97,4.5-1.73.8-.59,1.69-.97,2.67-1.15,2.94-1.19,5.79-2.6,8.73-3.78,2.06-.63,3.69-2.21,5.83-2.65Z" fill="#c8e7f0" stroke-width="0"/><path d="m704.44,285.36c10.66-2.16,8.99-2,9.56-2,.42,0,.84.12,1.26.46,2.08,4.52,4.42,13.08,4.42,13.22,0,.75-.48,1.49-1.35,1.49-13.09,0-16.31-.8-16.49-.84-1.98-.01-3.93-.47-5.92-.47-1.26,0-1.57.15-2.14.15-1.39,0-2.75-.78-4.27-.78-1.18,0-2.95.68-4.5.68-.46,0-.91-.06-1.36-.2-5.46-1.81-9.39.52-9.39-2.42,0-2.59,4.27-1.34,14.18-5.17h0c5.49-.76,10.84-2.07,16-4.12Z" fill="#88a9b9" stroke-width="0"/><path d="m220.56,99.82c-.13,0-.26-.05-.39-.17-1.2-1.87-3.28-2.28-5.14-2.9-5.28-1.74-10.23-4.31-15.87-5.62.69-1.34,1.62-1.51,2.46-1.76,4.56-1.35,11.88-3.8,13.75-3.8,3.01,0,3.62,2.98,5.8,2.98.21,0,.43-.03.67-.09,2.27.95,4.01,2.8,6.3,3.72,2.58,1.4,4.84,3.33,7.58,4.45,1.41.78,2.66,1.81,4.07,2.58.63.46,1.41.64,2.05,1.07.19.12.37.25.55.38.69.57,1.62.76,2.29,1.37.71.74,1.57,1.23,2.52,1.58,1.87.75,3.26,2.28,5.1,3.06,1.08.84,2.63,1.25,2.67,3.01-.14.41-.44.65-.84.78-.11,0-.22,0-.32,0-3.36,0-12.62-4.25-15.43-5.07-1.75-.7-3.53-1.32-5.24-2.12-.77-.57-1.63-.91-2.61-.91-.24-.02-.47-.08-.7-.14-2.65-1.3-5.3-2.6-8.34-2.6-.13,0-.25,0-.38,0-.18.09-.37.18-.55.18Z" fill="#c8e7f0" stroke-width="0"/><path d="m229.58,101.95c.14,0,.28-.03.44-.1.13-.04.27-.06.41-.06.03,0,.06,0,.09,0,.83.44,1.71.73,2.59,1.02,1.8.48,3.53,1.12,5.14,2.07,15.98,7.08,17.88,6.09,20.71,9.26.4.45.79.86.79,1.35,0,.25-.11.53-.37.84h-.25s-.25-.05-.25-.05c-2.22-.39-4.4-1.12-6.65-1.12-1.69,0-2.19.35-2.83.35-.17,0-.33-.02-.48-.07-3.05-.97-6.31-.78-9.37-1.72-.32-.1-.65-.14-.97-.14-.98,0-1.96.34-2.94.34-.12,0-.16,0-.38,0-.62,0-1.24.05-1.86.05-.66,0-1.31-.05-1.95-.27-.61.23-1.21.31-1.82.31-.14,0,.59.15-13.23-1.35-1.04-.11-1.64-.53-1.64-1.31,0-1.25,3.77-8.85,5.39-11.7.19-.14.39-.27.58-.41,5.43.34,8.32,2.71,8.83,2.71Z" fill="#88a9b9" stroke-width="0"/><path d="m670.07,289.31c0-.3.12-.59.33-.87,3.08-2.66,5.53-6,9.32-7.89,1.42-.71,2.05-2.51,3.36-3.64,14.34-12.33,15.86-15.71,18.26-15.71.89,0,1.94.44,3.72,1.24,7.77,3.48,9.15,2.98,9.15,4.37,0,0,0,.01,0,.02-.95.77-2.3.74-3.18,1.65-.18.14-.37.27-.57.39-1.62.9-3.27,1.72-4.84,2.7-.19.1-.4.19-.6.28-.61.25-1.02.76-1.48,1.21-.2.12-.41.19-.63.23-3.17,1.42-6.22,3.03-9.18,4.84-6.84,3.8-13.91,7.18-20.61,11.23-.7.22-1.34.79-2.08.79-.25,0-.52-.07-.81-.24-.11-.21-.16-.41-.16-.61Z" fill="#c8e7f0" stroke-width="0"/><path d="m225.34,83.4s0-.09,0-.14c2.81-3.05,6.94-2.7,10.43-3.99.15-.06.31-.08.46-.08.81,0,1.57.75,2.15,1.43,27.52,32.22,27.19,30.9,27.24,31.97-.14.15-.31.22-.5.22-.03,0-.06,0-.09,0-.82-.36-1.41-1.05-2.2-1.45-.56-.39-1.13-.75-1.74-1.05-6.63-4.85-13.23-9.75-20.15-14.2-1.37-1.67-3.32-2.58-5.04-3.79-10.67-7.33-10.56-7.66-10.56-8.9Z" fill="#c8e7f0" stroke-width="0"/><path d="m688.45,289.47c-4.57,3.89-13.73,2.86-13.73,5.26,0,.96.87.73,1.54.96.29.1.59.15.89.15,1.05,0,2.14-.5,3.21-.5,2.3,0,1.51,1.66,3.99,1.66,2.76,0,2.86-1.33,4.66-1.33,1.18,0,4.13.93,5.5.93.55,0,.7-.08,1.36-.08,1.95,0,4,.78,6,1.17-4.15-.07-8.3-.23-12.45-.23-2.01,0-2.54.03-3.47.03-4.15,0-8.27-.56-12.44-.56-1.04,0-1.35.03-1.76.03-1.73,0-3.5-.41-5.3-.41-.94,0-1.29.1-1.54.1-.8,0-1.45-.67-1.45-1.29s.73-.9,1.2-1.26c.85-.73,1.68-1.49,2.76-1.49.8,0,1.14.35,1.42.35.32,0,.6-.3.84-.55.31-.3.65-.52,1.08-.52.05,0,.1,0,.15,0,.51.29,1.04.48,1.59.48.31,0,.63-.06.96-.2.84-.36,1.77-.36,2.63-.61,10.96-2.1,9.62-2.04,12.36-2.09Z" fill="#91b0c0" stroke-width="0"/><path d="m225.34,83.26c4,4.75,9.85,6.87,10.86,8.72.19.38.27.73.27,1.06,0,1-.72,1.8-1.34,2.49-.25.28-.5.38-.74.38-.64,0-1.25-.74-1.89-.92-1.75-.47-2.71-2.32-4.59-2.45-2.37-.84-4.42-2.16-6.08-4.08.48-1.75.96-3.5,1.45-5.25.35-.25.69-.39,1.03-.39s.69.14,1.03.44h0Z" fill="#8cadbd" stroke-width="0"/><path d="m263.22,111.49c.74,0,.85,1.15,1.59,1.15.08,0,.18-.02.28-.05.17,0,.35-.01.52-.02,2.01,2.4,2.47,2.81,2.47,3.53,0,.62-.5,1-1.1,1-.56,0-.83-.39-3.39-.39-.36,0-.72,0-1.08,0-1.06,0-2.11-.04-3.13-.4-.23-1.96-1.72-2.51-3.29-3.08-.92-.34-1.69-1.06-2.6-1.46-5.58-2.43-12.8-4.39-15.23-6.91,4.9,1.03,4.49,1.8,15.95,5.21.87.32,1.83.3,2.68.69.61.29,1.63.98,1.95.98.06,0,.09-.03.09-.08,0-.14-.23-.46-.23-.6,0-.05.03-.08.09-.08.01,0,.03,0,.04,0,.34-.23.66-.32.97-.32.98,0,1.86.89,2.84.89.14,0,.28-.02.43-.06.05-.01.11-.02.15-.02Z" fill="#92b1c1" stroke-width="0"/><path d="m715.18,272.53c-1.59,1.5-3.5,2.4-5.55,3.04-3.86.56-6.83,3.21-8.29,3.21-.67,0-1.15-.42-1.65-1.17-.02-.08-.03-.16-.03-.25,0-.36.15-.71.15-1.07,0-.12-.02-.24-.06-.36.08-2.39,2.36-2.08,3.66-2.98h-.01c1.02-.01,1.15-.91,1.55-1.54h0c.18-.13.39-.22.61-.22.11,0,1.54.17,2.29.17,1.62,0,1.85-.61,2.77-3.05h0c.89-.57,1.81-1.03,2.86-1.03.22,0,.45.02.68.06.92,1.61.87,3.42,1.04,5.18Z" fill="#8aabbb" stroke-width="0"/><path d="m120.42,79.57c0-.39.26-.67.8-.83,9.11-2.4,10.15-2.77,11.8-2.77,1.97,0,2.5.54,2.5,2.4,0,2.38-6.87.65-12.6,3.73-.29.16-.55.23-.76.23-.91,0-1.23-1.2-1.55-2.11-.12-.24-.19-.46-.19-.65Z" fill="#333" stroke-width="0"/><path d="m103.62,88.3c-1.18.45-2.52.69-3.51,1.4-.55.4-.99.56-1.37.56-.78,0-1.27-.72-1.82-1.56-.26-.4-.44-.72-.44-1.01,0-1.48,7.29-2.54,11.78-5.21.29-.17.8-.39,1.23-.39.41,0,.74.19.77.81.03.59.61,1.38.61,2.07,0,.49-.3.92-1.31,1.18-1.14.29-2.22.81-3.33,1.22-.81.49-1.99-.07-2.63.93Z" fill="#333" stroke-width="0"/><path d="m39.56,137.72c-.57-.34-2.3-1.05-2.3-1.77,0-.46.73-.75.96-1.12,1.96-3.33,4.74-6.03,7.04-9.11.35-.47.64-.64.9-.64.64,0,1.07,1.07,1.67,1.23.53.14.78.48.78.84,0,.32-.18.66-.53.92-5.09,3.85-6.44,9.58-8.52,9.65Z" fill="#333" stroke-width="0"/><path d="m56.18,114.63c1.95-2.88,5.12-4.44,7.53-6.82.25-.25.46-.34.64-.34.54,0,.87.83,1.31,1.19.48.39.73.78.73,1.17,0,1.26-7.16,6.19-8.05,7.58-.55.86-1.06,1.25-1.54,1.25-.55,0-1.06-.5-1.57-1.4.34-.87.59-1.76.95-2.62Z" fill="#333" stroke-width="0"/><path d="m19.41,178.71c0,.98-.38,1.26-.93,1.26-.65,0-1.53-.39-2.27-.43,4.22-13.15,3.98-13.24,4.87-13.24.13,0,.28.03.45.09.53.19,1.51,0,1.51,1.19,0,.17-.02.36-.06.58-1.35,7.22-3.64,9.58-3.64,9.69,0,.04.07.44.07.87Z" fill="#333" stroke-width="0"/><path d="m32.33,149.7c-.59,0-.74.23-.74.53s.13.65.13.94c0,.22-.08.4-.34.49-1.12,1.86-2.55,3.61-3.28,5.61-.35.97-.8,1.26-1.27,1.26s-1-.29-1.49-.45c-.64-.21-.86-.51-.86-.83,0-.47.45-1.01.68-1.39,6.07-10.36,4.8-10.21,5.62-10.21.2,0,.46.1.79.35.55.42,1.72.75,1.72,1.53,0,.31-.18.69-.67,1.17-.2.2-.16.65-.23.99-.02,0-.04,0-.06,0Z" fill="#333" stroke-width="0"/><path d="m80.38,100.21c-1.37,1.2-2.09,1.82-2.77,1.82-.74,0-1.45-.72-2.93-2.21,1.25-.84,2.47-1.66,3.69-2.48.75-.11,1.24-.54,1.54-1.22,1.92-.98,3.83-1.95,5.75-2.93.79,1.29,1.24,2.01,1.24,2.56,0,.83-.85,1.22-4.39,3.47-.77.2-1.45.6-2.13.99Z" fill="#333" stroke-width="0"/><path d="m30,280.37c-.35,0-.69-.19-1.03-.75-4.58-8.36-4.57-8.74-4.57-9.25,0-.81.66-1.2,1.5-1.67.36-.2.63-.28.82-.28.74,0,.54,1.15.82,1.63,5.37,9.36,4.92,8.85,4.92,8.97,0,.22-.13.44-.49.68-.65.02-1.32.67-1.98.67Z" fill="#333" stroke-width="0"/><path d="m13.18,211.9c.35,0,.77.23,1.3.83-.05.79-.07,1.58-.07,2.37,0,3.81.52,7.06.52,7.67,0,1.35-.92,1.44-2.12,1.6-.15.02-.29.03-.41.03-.82,0-1-.45-1-.96s.18-.94.18-2.12c0-1.84-.46-3.68-.46-5.51,0-.7.07-1.41.25-2.11.6-.63,1.03-1.79,1.82-1.79Z" fill="#333" stroke-width="0"/><path d="m57.33,307.55c.29,0,.69.86,1,1.26-.19.96-.94,1.33-1.45,1.87-.2.21-.37.29-.53.29-.36,0-.66-.39-.97-.59-.64-.41-1.41-.75-1.85-1.33-2.57-3.33-5.41-4.49-5.41-5.46,0-.71,1.42-1.73,2.03-1.73.92,0,1.42,1.09,4.95,3.99.66.54.8,1.72,1.97,1.72.15,0,.25-.02.27-.02Z" fill="#333" stroke-width="0"/><path d="m23.2,260.53c0,1.33-1.67,1.58-2.53,2.93-.89-4.16-3.61-8.84-3.61-10.71,0-1.31,1.53-1.47,1.97-1.47.82,0,1.26.51,1.57,1.6,1.06,3.8,2.6,6.76,2.6,7.65Z" fill="#333" stroke-width="0"/><path d="m13.75,200.19c-.42,0-.93-.09-1.53-.28.46-2.96.23-6.03,2.03-8.89.4-.64-.03-1.61,1.3-1.61.59,0,1.57.21,1.57.99,0,.18-.06.37-.17.57-2.04,3.49.03,9.21-3.18,9.21Z" fill="#333" stroke-width="0"/><path d="m86.78,327.07c-.93.3-.59,1.94-1.87,1.94-1.62,0-5.96-2.78-8.05-3.74-.26-.12-.93-.25-.93-.66,0-.14.08-.32.28-.54.46-.5.84-1.51,1.49-1.51.51,0,1.6,1.1,8.59,3.73.17.06.25.39.48.78Z" fill="#333" stroke-width="0"/><path d="m231.46,113.7c.11,0,.23,0,.34,0,4.33,0,6.41-1.08,7.05-1.08.95,0,1.72,1.02,2.76,1.02.47,0,.71-.19.84-.19.31,0,.78.48,1.18.48.26,0,.5-.21.65-.89,0-.03.03-.04.07-.04.86,0,1.77,2.15,4.24,2.15,1.62,0,1.66-.65,3.27-.65,2.07,0,5.65.85,7.02,1.78-27.42-2.07-26.91-2.04-27.42-2.58Z" fill="#92b1c1" stroke-width="0"/><path d="m99.24,334.96c-.11,0-.22,0-.34,0-2.21-.31-4.46-1.33-6.6-2.47-.32-.17-.44-.4-.44-.67,0-.57.54-1.3.61-1.89.05-.44.28-.58.56-.58s.6.14.87.27c6.05,2.98,7.12,1.61,7.12,3.88,0,1.48-.78,1.46-1.78,1.46Z" fill="#333" stroke-width="0"/><path d="m15.91,235.36c.35,1.69,1.29,3.93,1.29,5.52s-1.31,1.31-2,1.65c-.19.09-.34.13-.47.13-.66,0-.61-1.06-.71-1.47-.57-2.35-1.51-7.48-1.51-7.85,0-.55.28-.67.63-.67.27,0,.59.07.86.07.13,0,.25-.02.35-.07,1.8.15,1.03,1.8,1.57,2.68Z" fill="#333" stroke-width="0"/><path d="m72.15,319.38c-.29,1.16-.72,1.88-1.46,1.88-.41,0-.91-.22-1.54-.71-1.38-1.08-3.25-1.35-4.5-2.74-.39-.43-1.18-.6-1.18-1.22,0-.66,1.03-1.88,1.89-1.88.14,0,.28.03.4.11,1.69,1.05,4.07,1.19,4.97,3.39.32.57,1.11.59,1.42,1.18Z" fill="#333" stroke-width="0"/><path d="m40.6,294.09c-.5,0-.96-.17-1.39-.49-1.6-1.35-2.19-3.59-4.13-4.64-.18-.39-.31-.77-.31-1.16,0-.34.1-.69.34-1.03.12.01.23.04.34.07.34-.31.68-.53,1.02-.53.28,0,.56.15.85.51.24.05.63.03.69.16,1.19,2.38,3.39,3.95,4.86,6.1-.46.54-1.12.7-1.75.94-.18.04-.35.06-.52.06Z" fill="#333" stroke-width="0"/><path d="m697.89,242.13c0,.13-.11.32-.21.67.1.95.82,1.97.82,3.13,0,.15-.01.3-.04.46-.15.86-.22,2.04-1.37,2.04-.97,0-1.08-.64-1.08-1.36,0-.28.02-.52.02-.84,0-2.57-.88-5.1-.88-5.56,0-.35.17-1.17,1.23-1.17.2,0,.36.03.4.1.55.93,1.11,2.5,1.11,2.53Z" fill="#97b3c2" stroke-width="0"/><path d="m690.84,226.77c.41.44.84.75,1.09,1.17,3.5,5.94,3.13,5.79,3.13,5.86,0,.62-.89.98-1.41.98-.61,0-1.09-.4-1.22-1.02-.74-3.45-3.26-4.38-3.26-5.28,0-.46.52-.75,1.66-1.71Z" fill="#96b3c2" stroke-width="0"/><path d="m175.08,75.88c0,.17-.08.36-.26.59-.3.52-.41,1.17-1.19,1.17-.42,0-1.56-.33-2.86-.33-.5,0-1,.05-1.5.18-.23-.19-.49-.23-.75-.23-.24,0-.48.04-.72.04-.25,0-.5-.04-.72-.21-.01-.15-.02-.29-.02-.42,0-1.53.69-2.22,2.49-2.22,1.68,0,3.16.57,4.78.67.42.19.75.42.75.76Z" fill="#333" stroke-width="0"/><path d="m680.08,218.21c0-.61.51-1.16.91-1.58,0,0,0,0,0,0,.8,0,5.06,3.8,5.06,4.35,0,.22-.62,1.36-1.54,1.36-.75,0-4.44-2.94-4.44-4.13Z" fill="#93b1c0" stroke-width="0"/><path d="m668.84,209.58c.29-.07.56-.11.82-.11,1.8,0,2.94,1.59,4.44,2.3.28.13.43.37.43.63,0,.58-.86,1.26-1.3,1.26-1.1,0-4.79-1.89-4.79-2.81,0-.41.29-.87.43-1.3l-.03.04Z" fill="#95b2c1" stroke-width="0"/><path d="m668.84,209.58l.03-.04c-.95.02-1.98.67-2.93.67-.62,0-1.21-.28-1.73-1.18-.02,0-.03,0-.05,0-.33,0-.67-.52-1-.52-.17,0-.34.14-.5.56-.76-.01-1.46-.1-1.46-.98,0-.34.06-1.2,1.08-1.2.19,0,4.65.45,6.56,2.69h0Z" fill="#95b2c1" stroke-width="0"/><path d="m156.19,76.57c.5-.32.69-.59.69-.83,0-.59-1.15-.99-1.15-1.58,0-.05,0-.09.02-.14.49,0,1.01-.1,1.49-.1.72,0,.72.17,1.07.17s.82-.17,1.19-.17.65.17.65.86c0,.47-.08,2.4-1.94,2.4-.14,0-.28-.01-.44-.03-.55-.08-1.24.11-1.58-.58Z" fill="#333" stroke-width="0"/><path d="m180.13,77.42c-.31,0-.47.39-.71.56-.11.04-.22.05-.32.05-.61,0-1.06-.59-1.66-.59-.01,0-.02,0-.04,0,0-.07,0-.14,0-.21,0-.95.61-1.41,1.5-1.64,1.71.35,3.43.7,5.22,1.07-.36,1.28-.9,1.69-1.52,1.69-.65,0-1.39-.44-2.1-.8-.14-.11-.26-.15-.36-.15Z" fill="#333" stroke-width="0"/><path d="m670.09,290.82c0,.47-.26.92-.26,1.39,0,.12.02.24.06.37.01.11.02.21.02.31,0,.55-.19.91-.62.91-.54,0-.89-.51-1.91-.51-.95,0-1.82.49-2.72.81.27-1.24,1.68-1.46,2.19-2.48.77-.57,1.42-1.4,2.46-1.4.12,0,.24.01.36.03.22.09.36.26.42.48,0,.02,0,.05,0,.07Z" fill="#95b6c5" stroke-width="0"/><path d="m178.89,75.6c-.5.62-.99,1.23-1.49,1.85-.86-.33-1.72-.65-2.58-.98-.17-.45-.33-.9-.5-1.35,1.53.06,3.08,0,4.57.49Z" fill="#333" stroke-width="0"/><path d="m332.63,133.07c0-.33.27-.64,1.02-.85,2.61,2.33,2.97,2.6,2.97,3,0,.2-.13.42-.5.67-1.17-.16-1.86-1.11-2.72-1.74-.42-.3-.77-.7-.77-1.08Z" fill="#9bb7c5" stroke-width="0"/><path d="m39.2,293.6c.63-.01,1.26-.02,1.89-.04.46.03.91.09,1.17.55.04.15.06.28.06.41,0,.73-.64,1.1-1.18,1.1-1.1,0-1.55-1.02-1.94-2.02Z" fill="#333" stroke-width="0"/><path d="m669.88,290.48c-1.01.38-2.02.76-3.04,1.14.77-1.52,2.05-2.48,3.55-3.18,0,.5,0,1.01,0,1.51-.04.31-.22.48-.52.53Z" fill="#d3e9f0" stroke-width="0"/><path d="m14.33,211.63c.22,0,.39.08.39.33,0,.17-.07.41-.24.76-.37-.38-.68-.52-.94-.52-.83,0-1.2,1.51-2.03,1.51-.05,0-.1,0-.16-.02-.09-.3-.12-.54-.12-.75,0-1.16,1.21-1.06,2.17-1.16.25-.02.64-.15.93-.15Z" fill="#333" stroke-width="0"/><path d="m54.65,116.15c0-.69.89-1.06,1.53-1.53.15.46.29.92.29,1.33,0,.58-.28,1.06-1.24,1.29-.42-.45-.58-.8-.58-1.1Z" fill="#333" stroke-width="0"/><path d="m358.81,130.47c-.71,0-1.47.43-2.18.43-.46,0-.89-.18-1.28-.76.64-.11,1.29-.22,1.92-.22.75,0,1.48.16,2.17.69-.2-.1-.41-.14-.62-.14Z" fill="#9eb9c6" stroke-width="0"/><path d="m36.33,284.87c.78,0,1.18.46,1.18,1.1,0,.26-.06.55-.19.85-.32-.09-.65-.15-.97-.15-.3,0-.6.05-.9.17.03-.13.04-.29.04-.44,0-.17-.01-.36-.01-.53,0-.56.11-1,.85-1Z" fill="#333" stroke-width="0"/><path d="m30,281.14c-.36,0-.7-.38-1.03-1.53.25.16.5.22.75.22.55,0,1.11-.27,1.66-.27.2,0,.4.04.6.13-.65.2-1.33,1.45-1.98,1.45Z" fill="#333" stroke-width="0"/><path d="m714.14,267.35c-1.18.32-2.35.65-3.53.97.74-1.12,1.77-1.53,2.98-1.53.2,0,.41.01.62.03-.02.17-.05.35-.07.52Z" fill="#96b6c5" stroke-width="0"/><path d="m500.4,161.15c.44,0,.67-.63,1.1-.63.08,0,.17.02.27.08-.07.07-.1.15-.1.23,0,.34.51.73.51,1.06,0,.37-.76.53-1.03.53-.67,0-.89-.58-.95-1.3.07.03.13.04.19.04Z" fill="#e6f4f7" stroke-width="0"/><path d="m596.68,183.5c0,.39-.07.79-.07,1.18,0,.04,0,.08,0,.11-.88-.18-1.15-.46-1.15-.8,0-.54.71-1.2.72-1.73.41.37.51.8.51,1.24Z" fill="#e5ccad" stroke-width="0"/><path d="m43.02,294.42c-.25,0-.51-.26-.76-.3-.05,0-.11,0-.16,0-.43,0-.79-.13-1.01-.56.34-.4.74-.54,1.19-.54.19,0,.39.03.59.07.4.12.67.33.67.63,0,.21-.2.69-.52.69Z" fill="#333" stroke-width="0"/><path d="m15.96,234.02c0,.34-.02.78-.05,1.34-.7-.79-.53-2.09-1.57-2.68,1.33.05,1.61.06,1.61,1.35Z" fill="#333" stroke-width="0"/><path d="m103.62,88.3c.03-1.03.32-1.31.71-1.31.49,0,1.14.45,1.63.45.1,0,.2-.02.28-.07-.84.4-1.65.91-2.63.93Z" fill="#333" stroke-width="0"/><path d="m34.02,286.67c0-.13.09-.21.25-.21.19,0,.48.1.83.31-.01.73-.02,1.46-.03,2.19-.7-.53-.76-1.4-1.02-2.14-.02-.06-.03-.11-.03-.16Z" fill="#333" stroke-width="0"/><path d="m71.26,318.15c.56,0,.91.25.91.92,0,.09,0,.2-.02.31-.1,0-.21.01-.3.01-.64,0-1.13-.19-1.13-.97,0-.07,0-.14.01-.21.19-.04.37-.06.53-.06Z" fill="#333" stroke-width="0"/><path d="m150.05,77.55c.28-.78.57-1.04.87-1.04.58,0,1.18,1,1.76,1,.01,0,.02,0,.03,0-.89.01-1.77.03-2.66.04Z" fill="#333" stroke-width="0"/><path d="m31.38,151.66c.08-.06.11-.15.11-.25,0-.41-.5-1.06-.5-1.47,0-.21.14-.36.55-.36.21,0,.48.04.84.11-.02.81-.37,1.46-1.01,1.96Z" fill="#333" stroke-width="0"/><path d="m293.68,169.88c.26,0,.52.17.78.5-.22.69-.43.95-.65.95-.3,0-.6-.47-.9-.94.26-.34.51-.51.77-.51Z" fill="#e9f5f8" stroke-width="0"/><path d="m80.89,100.23c-.17,0-.34,0-.52-.02.35-.59.56-1.46,1.18-1.46.24,0,.55.14.95.48-.3.86-.92,1.01-1.62,1.01Z" fill="#333" stroke-width="0"/><path d="m225.34,83.26c-.69-.02-1.38-.03-2.06-.05.07-.68.45-.96,1.07-.96s.97.23,1,1.01Z" fill="#c8e7f0" stroke-width="0"/><path d="m605.47,218.72c0,.34-.22.74-.54,1.16-.31-.55-.54-1.11-.54-1.74,0-.11,0-.23.02-.34.77.2,1.06.52,1.06.92Z" fill="#e2f2f7" stroke-width="0"/><path d="m79.92,96.12c-.12.65-.07,1.52-.7,1.52-.2,0-.47-.09-.84-.3.2-.8.94-.92,1.54-1.22Z" fill="#333" stroke-width="0"/><path d="m616.22,265.27c-.32.06-.57.09-.77.09-.46,0-.61-.15-.61-.38,0-.42.51-1.08.51-1.5,0-.12-.04-.21-.14-.28.71.5.58,1.42,1.01,2.06Z" fill="#dbeff5" stroke-width="0"/><path d="m663.21,209.48c-.18,0-.36-.1-.54-.39.18-.6.38-.8.58-.8.32,0,.65.51.97.76-.34.07-.67.44-1.01.44Z" fill="#abc2ce" stroke-width="0"/><path d="m346.56,122.67c0-.25.15-.51.44-.77.15.32.47.64.47.97,0,.19-.11.39-.41.59-.33-.26-.5-.52-.5-.79Z" fill="#d0dde4" stroke-width="0"/><path d="m334.58,131.67c.38,0,.75.24,1.12.6-.17.12-.35.16-.52.16-.42,0-.83-.24-1.25-.24-.1,0-.19.01-.29.04.31-.39.62-.56.93-.56Z" fill="#9bb7c5" stroke-width="0"/><path d="m647.18,401.9c-.66-.13-1-.36-1-.71,0-.24.16-.52.48-.86.17.52.35,1.05.52,1.57Z" fill="#e2f2f7" stroke-width="0"/><path d="m119.98,79.32c0-.36.52-.51,1.24-.57-.2.49-.41.99-.61,1.48-.44-.4-.63-.69-.63-.91Z" fill="#333" stroke-width="0"/><path d="m179.42,77.98c.14-.38-.07-1.18.63-1.18.13,0,.3.5.45.76-.36.14-.72.28-1.07.42Z" fill="#333" stroke-width="0"/><path d="m168.17,77.61c-.4,0-.78-.11-1.1-.52.1.09.2.13.31.13.4,0,.88-.45,1.28-.45.25,0,.46.17.61.72-.37.03-.74.12-1.1.12Z" fill="#333" stroke-width="0"/><path d="m622.24,436.75c.38,0,.52.38.65.72-.02.28.04.66-.3.66-.27,0-1.04-.32-1.04-.8,0-.35.37-.58.69-.58Z" fill="#f7fbfc" stroke-width="0"/><path d="m320.38,172.49c.21.24.36.4.51.57-.15.11-.32.33-.45.33-.17,0-.38-.28-.51-.39.13-.15.27-.3.44-.5Z" fill="#eaf5f9" stroke-width="0"/><path d="m387.47,167.68c.16,0,.37.15.63.24-.45.42-.61.57-.77.71-.12-.15-.37-.33-.37-.44,0-.16.3-.51.51-.51Z" fill="#f3f9fb" stroke-width="0"/><path d="m374,111.65c0,.34-.16.73-.16,1.12,0,0,0,.02,0,.03.05.19.07.38.07.57,0,1.16-.78,2.27-.78,3.51,0,.24.02.3.02.42,0,.62-.59.68-.97.83-.11.05-.21.07-.3.07-.69,0-1.18-1.78-1.18-2.76,0-.09.48-4.63,2.26-4.63.21,0,1.04.13,1.04.84Z" fill="#fbfcfc" stroke-width="0"/><path d="m354.3,122.93c-.13,0-.26.04-.38.04-.12,0-.13-.02-.23-.02-.68,0-.95,1.51-1.6,1.51-.48,0-1.39-.97-1.39-2.85,0-.55.21-3.69,1.85-3.69.85,0,1.18.92,1.18,1.79,0,.33-.06.87-.06,1.35,0,.67.11,1.31.6,1.9l.03-.03Z" fill="#f7f9fa" stroke-width="0"/><path d="m368.57,124.87c.07,0,.16.01.26.04.16.18.57.42.57.82,0,.24-.21.31-.44.31-.12,0-.71.01-.71-.69,0-.31.05-.49.32-.49Z" fill="#e3eaee" stroke-width="0"/><path d="m354.3,122.93l-.03.03c.08,0,.17,0,.26,0,.41,0,.81.05.91.6,0,0,0,0,0,.01,0,.08-.23.38-.51.38-.57,0-.63-.4-.63-.83,0-.06,0-.13,0-.19h0Z" fill="#f1f5f7" stroke-width="0"/><path d="m669.88,292.58c-.68-.22-.93-.44-.93-.66,0-.3.47-.6.93-.89.87-.93,2.16-1.26,3.08-2.12,6.53-4.37,13.72-7.56,20.59-11.31.32-.05.63-.08.95-.08,1.85,0,3.61.8,5.46.8.41,0,.89.37.89.94,0,.11-.02.23-.06.36-.96.12-1.89.31-2.57,1.1-1.8.23-3.33,1.29-5.11,1.59h.02c-.89.8-2.09,1.01-3.11,1.56-.71,1.14-1.84,1.44-3.07,1.52-1.23,1-3.17.58-4.15,2.07h0c-.21.15-.46.23-.7.23-.29,0-.55-.15-1.19-.15-1.26,0-2.13.74-2.76,1.98-.72.74-2.1.37-2.57,1.53-.54.6-1.18,1-2.02,1.01-.48.08-.97.14-1.45.14-.4,0-.8-.04-1.2-.14l-1.03.52Z" fill="#8bacbd" stroke-width="0"/><path d="m700.79,279.61c-.22-.45-.56-.91-1.04-.91-.14,0-.57.06-1.35.06-1.69,0-3.31-.31-4.85-1.17,2.35-1.91,5.43-2.56,7.73-4.56.32-.28.67-.4,1.03-.4s.72.12,1.08.33c-1,.73-1.61,2-3.13,2.04-.15,0-.2.09-.2.22,0,.24.18.61.25.85-.12.38-.45.66-.51,1.07.6,1,1.3,1.34,1.97,1.34,1.04,0,2.05-.83,2.63-1.39,1.64-1.58,3.44-1.22,5.22-1.52-2.94,1.35-5.89,2.69-8.83,4.04Z" fill="#93b4c3" stroke-width="0"/><path d="m704.44,285.36c-.43.8-.84,1.21-1.97,1.49-8.16,2.01-10.29,2.9-12.2,2.9-.61,0-1.2-.08-1.82-.27.63-1.02,1.55-1.1,2.5-1.1.18,0,.36,0,.54,0,2.09,0,6.6-2.28,12.96-3.02Z" fill="#91b0c0" stroke-width="0"/><path d="m678.15,289.52c.05-2.06.79-2.58,1.76-2.58.89,0,1.97.43,2.89.5-1.55.69-3.1,1.38-4.65,2.07Z" fill="#96b6c5" stroke-width="0"/><path d="m682.8,287.45c.45-2.54,2.76-1.38,4.14-2.07-1.08,1.3-2.72,1.46-4.14,2.07Z" fill="#96b6c5" stroke-width="0"/><path d="m672.47,292.28c0-.54.76-.4,1.04-.73.69-.17,1.38-.34,2.07-.51.17.17.34.34.51.52-.69.79-1.6,1.02-2.6,1.05-.18.11-.39.19-.57.19-.36,0-.45-.31-.45-.52Z" fill="#b3d2de" stroke-width="0"/><path d="m693.59,282.32c-.16,0-.32,0-.49-.03,1.47-.69,2.87-1.62,4.55-1.62.18,0,.37.01.56.03-1.49.69-2.91,1.61-4.62,1.61Z" fill="#96b6c5" stroke-width="0"/><path d="m690.01,283.86c.74-1.08,1.77-1.57,3.06-1.57.02,0,.04,0,.06,0-.45,1.68-1.87,1.46-3.11,1.57Z" fill="#96b6c5" stroke-width="0"/><path d="m263.01,111.6c-.06.5-.22.87-.56.87-.6,0-1.59-1.39-3.33-1.39-.08,0-.16,0-.24,0-.23.21-.46.29-.67.29-.34,0-.66-.2-.99-.4-.51-.31-.96-.7-1.38-1.13-1.23-.83-1.52-2.87-3.4-2.87-.09,0-.18,0-.27.01-2.13-.35-3.44-2.06-5.17-3.09-.62-.46-1.54-.5-1.89-1.34-.78-1.16-2.19-1.17-3.26-1.79h0c-.34-1.03-1.43-.58-2.06-1.04-1.52-.63-2.86-1.55-4.12-2.59-.42-.42-.59-.78-.59-1.07,0-.52.54-.81,1.05-.81s.75.31,2.55.31c.53,0,1.06-.02,1.59-.02.36,0,.71.01,1.07.05.77.53,20.11,13.58,21.51,15.7.05.09.1.19.15.28Z" fill="#8cadbd" stroke-width="0"/><path d="m241.35,95.61c-.9.41-1.76.82-2.68.82-1.41,0-1.83-.84-2.46-.84-.4,0-.7.31-.7.83,0,.21.05.45.17.72-2.94-.94-5.29-2.88-7.76-4.62.32-.13.6-.18.86-.18,1.57,0,2.25,2.01,3.72,2.23.59.09,1.36.79,1.94.79.42,0,.73-.38.77-1.68,0-.24,1-.82,1-1.64,0-.03,0-.06,0-.08,1.9.95,3.73,1.99,5.14,3.64Z" fill="#97b7c6" stroke-width="0"/><path d="m230.02,101.85c-.23.54-.5.73-.78.73-.84,0-2.23-2.03-3.69-2.03-.9,0-1.29.57-1.65.57-.89,0-.13-1.87-3.15-1.88.12-.36.37-.79.69-.79.06,0,.11.01.17.04,2.72,1.35,6.02,1.23,8.41,3.35Z" fill="#9fbecc" stroke-width="0"/><path d="m252.16,107c.53-.37,1.06-.65,1.5-.65.49,0,.88.34,1.06,1.31.19,1,1.08,1.22,1.59,1.85-.26.23-.51.35-.77.35s-.51-.12-.76-.36c-.49-1.24-2.04-1.36-2.63-2.5Z" fill="#9fbfcd" stroke-width="0"/><path d="m254.79,109.49c.51,0,1.02,0,1.53,0,.33.36.67.72,1,1.07.03.1.04.19.04.27,0,.21-.1.32-.31.32-.07,0-.16-.01-.26-.04-.98-.04-2.03.08-2.59-1.04.2-.2.39-.39.59-.59Z" fill="#bfdde6" stroke-width="0"/><path d="m241.85,100.78c.22-.04.44-.06.65-.06,1.22,0,2.14.68,2.97,1.6-.17.16-.35.23-.52.23s-.36-.07-.54-.21c-.8-.6-2.12-.36-2.55-1.56Z" fill="#98b8c7" stroke-width="0"/><path d="m231.09,101.78c.81,0,1.57.13,2.03,1.03-.34.24-.63.33-.87.33-.75,0-1.16-.87-1.72-1.35.19,0,.38-.01.57-.01Z" fill="#a1c1ce" stroke-width="0"/><path d="m246.87,103.91c-1.14,0-1.92-.59-2.46-1.57.35,0,.71-.01,1.06-.02.51.53,1.02,1.06,1.53,1.59-.04,0-.09,0-.13,0Z" fill="#9ebecc" stroke-width="0"/><path d="m239.8,99.74c.09,0,.18.01.27.01.2,0,.41-.02.62-.02.57,0,1.07.12,1.17,1.04-.69-.35-1.37-.69-2.06-1.04Z" fill="#98b8c7" stroke-width="0"/><path d="m710.61,268.32c-.07.1-.1.2-.1.31,0,.51.69,1.03.69,1.57,0,.27-.18.55-.71.84-.99.52-1.89,1.16-2.88,1.16-.53,0-1.08-.18-1.67-.66-.12-.09-.29-.11-.48-.11-.11,0-.23,0-.35,0-.06,0-.11,0-.17,0,1.79-1.22,3.61-2.39,5.67-3.1Z" fill="#96b6c5" stroke-width="0"/><path d="m704.94,271.42c.04.45.25.94.25,1.38,0,.78-.71,1.01-.82,1.01-.43,0-.55-.75-.98-.85.08-.96.54-1.53,1.55-1.54Z" fill="#96b6c5" stroke-width="0"/><path d="m672.96,288.91c-.7,1.17-1.79,1.79-3.08,2.12,0-.18,0-.36-.01-.55.17-.18.35-.35.52-.53.86-.35,1.71-.7,2.57-1.05Z" fill="#91b0c0" stroke-width="0"/><path d="m265.09,112.59c-.64.15-.38,1.39-1.05,1.39-.18,0-.75-.16-.75-.51,0-.33.46-.72.46-1.07s-.47-.57-.74-.81h0s0,0,0,0c-.11-.09-.17-.18-.17-.27,0-.09.1-.27.18-.27,1.02.06,1.58.75,2.08,1.53Z" fill="#a2c1cf" stroke-width="0"/><path d="m235.04,81.53c0-.15.16-.36.26-.61.38.42.53.58.67.74-.15.12-.32.37-.44.37-.16,0-.5-.29-.5-.5Z" fill="#dff1f6" stroke-width="0"/><path d="m263.02,111.06c0,.18,0,.36,0,.53-.7-.34-1.23-.85-1.54-1.56.73.02,1.23.4,1.55,1.03Z" fill="#92b1c1" stroke-width="0"/><path d="m672.2,291.53c.33,0,.66.05.99.05.11,0,.21,0,.32-.02.01.02.02.04.02.06,0,.22-.74.43-.74.65,0,.11.18.22.7.34-.5.32-.99.57-1.42.57-.46,0-.87-.29-1.15-1.12.38-.44.82-.53,1.29-.53Z" fill="#95b6c5" stroke-width="0"/><path d="m256.79,111.12c.18-.18.35-.36.53-.54.52.17,1.03.34,1.55.51.22.58,1.12.51,1.19,1.44-1.27-.14-2.49-.19-3.27-1.4Z" fill="#adccd9" stroke-width="0"/><path d="m700.69,276.68c0,.29-.46.37-.89.46-.27-.28-.38-.47-.38-.62,0-.29.43-.38.89-.45.27.27.38.47.38.61Z" fill="#aecfda" stroke-width="0"/><path d="m713.63,270.45c-.32.19-.47.38-.7.38-.28,0-.51-.14-.51-.41,0-.05,0-.11.03-.17.04-.13.36-.25.56-.25s.33.21.62.44Z" fill="#96b6c5" stroke-width="0"/></g><g id="uuid-dfd7642b-089a-4e35-92fb-911ea0e9867e"><path d="m250.81,263.31l19.54,187.99c.16,1.55.54,3.03,1.1,4.4,2.62,6.39,9.21,10.57,16.42,9.82l352.06-36.6c6.38-.66,11.49-5.01,13.45-10.7.66-1.91.96-3.97.83-6.09-.02-.24-.04-.49-.06-.73l-19.54-187.99c-.12-1.2-.38-2.35-.75-3.44-.39-1.17-.91-2.27-1.54-3.29l-1.43-.91-10.34-6.56c-1.13-.13-2.28-.14-3.46-.02l-352.06,36.6c-1.19.12-2.33.37-3.42.74l-6.75,6.6-3.19,3.12c-.41,1.13-.69,2.31-.83,3.54-.14,1.15-.15,2.33-.02,3.53Z" fill="#bcd8f4" stroke-width="0"/><path d="m250.84,259.78c.33.38.81.61,1.37.55l380.43-39.54c.56-.06.98-.38,1.23-.82.49-.84.34-2.09-.61-2.7l-.93-.59-11.77-7.47-193.41-122.77c-.63-.4-1.41-.32-1.94.21l-163.58,159.89-9.94,9.72-.79.77c-.8.79-.69,2.04-.04,2.76Z" fill="#bcd8f4" stroke-width="0"/><path d="m450.96,315.66c67.22-36.37,111.58-59.33,178.8-95.7-1.32-.08-367.8,37.75-367.8,37.75,71.94,22.01,117.06,35.93,189,57.95Z" fill="#225081" stroke-width="0"/><path d="m292.54,267.08c55.41,16.98,97.21,29.85,158.42,48.58,53.96-29.2,93.2-49.75,141.35-75.54l-4.22-40.58-299.34,31.12,3.79,36.42Z" fill="#fff" stroke-width="0"/><g clip-path="url(#uuid-ae175740-c286-4fd4-8fc7-0fac134a4415)"><path d="m570.05,281.32l-248.15,26.35c-2.49.26-4.56-.1-4.64-.8l-.23-2.17c-.07-.71,1.88-1.49,4.37-1.76l248.15-26.35c2.49-.26,4.56.1,4.64.8l.23,2.17c.07.71-1.88,1.49-4.37,1.76Zm6.5,18.62l-.23-2.17c-.07-.71-2.15-1.07-4.64-.8l-248.15,26.35c-2.49.26-4.44,1.05-4.37,1.76l.23,2.17c.07.71,2.15,1.07,4.64.8l248.15-26.35c2.49-.26,4.44-1.05,4.37-1.76Zm2.14,20.38l-.23-2.17c-.07-.71-2.15-1.07-4.64-.8l-248.15,26.35c-2.49.26-4.44,1.05-4.37,1.76l.23,2.17c.07.71,2.15,1.07,4.64.8l248.15-26.35c2.49-.26,4.44-1.05,4.37-1.76Zm-16.36-69.53h0c-.11-1.06-1.92-1.74-4.04-1.51l-240.52,25.62c-2.12.23-3.75,1.27-3.64,2.33h0c.11,1.06,1.92,1.74,4.04,1.51l240.52-25.61c2.12-.23,3.75-1.27,3.64-2.33Zm3.25-18.27l-.49-4.71c-.07-.71-.74-1.22-1.49-1.14l-245.49,26.08c-.75.08-1.3.72-1.22,1.43l.49,4.71c.07.71.74,1.22,1.49,1.14l245.49-26.08c.75-.08,1.3-.72,1.22-1.43Z" fill="#bfd3ff" stroke-width="0"/></g><path d="m270.15,449.36l.2,1.94c.16,1.55.54,3.03,1.1,4.4l179.45-135.77,202.48,98.29c.66-1.91.96-3.97.83-6.09l-203.99-99.02-1.43,1.08-178.65,135.16Z" fill="#fff" stroke-width="0"/></g><g id="uuid-6ec65e30-19d1-4004-90d5-be1d52820fb1"><path d="m70.23,490.54c-7.73-4.98-15.84-9.27-24.27-12.94-.1-.1-.14-.2-.14-.31,0-.26.22-.54.22-.8,0-.12-.04-.23-.17-.34-3.52-.17-6.77-1.29-10.05-2.52-11.79-4.4-11.38-3.05-15.85-6.08-.17-.47-.38-.65-.62-.65s-.52.19-.81.43c-.06,0-.11,0-.17,0-2.58,0-9.98-4.08-14.87-6.47-.72-.35-1.4-.89-1.4-1.58,0-.22.05-.79.71-.79.36,0,.78.14,1.12.14.14,0,1.14-.12,2.68-.12,17.04,0,61.2,20.08,77.67,39.38-.35.81-1.58-.04-1.78.93h-1.55c-2.51-3.15-5.79-5.32-9.25-7.26-.2-.77-1.05-.59-1.48-1.03Z" fill="#f5a55c" stroke-width="0"/><path d="m57.2,469.44c.18.16.37.32.55.48.57.64,1.35.84,2.13,1.02,1.44.35,2.79.81,3.04,2.56.62.49,1.43.2,2.1.51h0c.33.35.4.96,1.02,1.01.12-.01.24-.02.35-.02,2.15,0,16.8,12.82,18.16,15.76.43.07.64.33.64.67,0,.2-.08.36-.08.66,0,.54.35.62.77.62.18,0,.37-.02.56-.02.02,0,.03,0,.05,0,.15.7.52,1.25,1.16,1.59.25.5.35.89.35,1.18,0,1.14-1.57.96-2.47,1.34-13.83-13.55-46.99-39.21-85.54-40.26v-1.03c3.53-2.69,7.2-3.66,10.98-3.66,8.86,0,24.18,6.46,28.2,8.33.28.69,1.09.57,1.54,1,.35.2.7.4,1.04.59.45.17.32.96.92.96.04,0,.08,0,.12,0,3.24,1.01,6.47,2.06,9.32,3.99.61.93,1.48,1.46,2.56,1.66h0c.48,1.22,1.77.5,2.52,1.05Z" fill="#f5a55c" stroke-width="0"/><path d="m53.54,441.14c-.5-.5-1-1.01-1.5-1.51-.23-.64-.98-1.13-.98-1.72,0-.05,0-.11,0-.23,0-.36-.08-.47-.2-.47-.21,0-.53.36-.71.36-.05,0-.09-.03-.12-.11-5.05-4.59-9.93-9.33-13.99-14.85-.49-.54-1.15-.94-1.44-1.65-8.67-9.41-13.31-18.37-13.31-20.19,0-.31.02-.62.02-.93,0-.62-.1-.76-.1-1.22,0-.58.22-.84.59-.84,12.86,0,76.19,80.62,76.19,98.27,0,.66-.85,1.08-1.43,1.08-1.35,0-1.59-.97-7.39-11.22.28-.2.27-.22.36-.22.07,0,.15.02.22.02.08,0,.15-.03.2-.13-.09.05-.19.07-.29.07-.13,0-.26-.03-.39-.05-.57-.2-.89-.64-1.16-1.13-13.45-19.87-13.33-18.16-13.33-20.56,0-.02,0-.05,0-.07-2.37-.85-3.7-2.88-5.02-4.77-2.55-3.64-6.26-6.29-8.43-10.23-.31-.56-1.09-.38-1.59-.91-1.68-1.78-3.32-3.54-4.04-5.96-.58-.64-1.4-.67-2.17-.84Z" fill="#f5a55c" stroke-width="0"/><path d="m52.6,409.11c6.48,7.05,22.57,28.21,27.29,36.18,2.88,4.86,13.97,26.45,14,26.64.64,1.59.82,3.38,2.03,4.72h0c.39,1.09,1.45,1.86,1.54,3.1.19.34.37.68.56,1.02-.24.33-.33.6-.33.83,0,.76,1,1.13,1.35,1.76,2.81,4.7,2.9,9.8,2.9,10.34,0,1.09-1.1,1.3-1.34,1.3-.7,0-.8-.81-.97-1.29-20.72-56.12-76.87-97.79-77.03-97.98.33-.53.81-.95,1.15-1.48.15-.06.31-.09.48-.09,0,0,.01,0,.02,0,.65-.32,1.49.08,2.05-.57.57-.21,1.13-.37,1.7-.37.44,0,.88.1,1.33.34.13-.03.27-.04.39-.04.65,0,1.21.34,1.79.62,12.86,4.68,19.54,13.26,20.06,13.94.1.6.74.65,1.05,1.04Z" fill="#f5a55c" stroke-width="0"/><path d="m222.84,462.92c0-.32-.4-.48-.62-.71-.13-.44-.42-.9-.42-1.32,0-.29.39-1.86.39-5.68,0-2.42-.14-4.85-.14-7.29,0-1.8,1.92-25.46,3.3-31.6,1.12-1.56.64-5.57,2.2-6.78.04-.01.07-.02.1-.02.09,0,.16.06.2.18.03-.04.05-.08.05-.12,0-.07-.07-.11-.21-.14-.2-.19-.32-.4-.32-.59,0-.55.91-.5.91-1.31,0-.33-.18-.67-.35-1.03,1.5-2.44,1.57-5.36,2.98-7.95,2.17-3.97,4.1-7.64,6.12-7.64.3,0,.63.07,1,.22-.12-.28-.17-.53-.17-.75,0-1.03,1.12-1.41,1.83-1.88.86-.58,2.89-.59,2.92-.59.73,0,1.15.19,1.15.81,0,.27-.08.63-.26,1.1-7.48,19.45-9.03,40.81-14.65,61.66-1.54,5.73-2.14,18.63-3.42,19.49-.2.15-.38.22-.56.22-.28,0-.52-.16-.76-.42-.44-2.3-1.3-4.53-1.3-6.91,0-.56.05-.92.05-.97Z" fill="#f5a55c" stroke-width="0"/><path d="m245.46,413.16c-.18.09-.24.2-.24.31,0,.2.2.42.2.62,0,.06-.01.11-.05.16-.68.91-.28,2.14-.94,3.06-.16,2.88-1.1,5.59-1.78,8.35-.85,3.43-2.64,2.91-2.64,3.76,0,.5,1.13.79,1.13,1.21,0,.19-14.5,46.39-14.5,50.98,0,.21,0,.42,0,.63,0,.39-.03.77-.18,1.14-.24.16-.39.53-.69.53-.09,0-.18-.03-.3-.1-.07-.87-.1-1.73-.1-2.59,0-5.17,13.4-79.18,19.19-91.15,2.52.91,3.67,2.78,3.67,6.03,0,.38-.02.78-.05,1.19.04.82.06,1.65.06,2.47,0,3.38-.39,6.71-1.84,9.89-.75,1.06-.46,2.39-.92,3.52Z" fill="#f5a55c" stroke-width="0"/><path d="m262.32,440.7c.32.84.46,1.64.46,2.42,0,6.13-10.27,18.36-12.14,20.65-6.11,7.47-14.11,24.26-17.3,24.26-.28,0-1.24-.15-1.24-.71,0-.84,9.45-28.9,30.22-46.62Z" fill="#f5a55c" stroke-width="0"/><path d="m105.07,467.67c0-.31.34-.7.34-1,0-.21-.15-.38-.65-.47-.05-2.89-2.6-5.49-2.6-8.07,0-.22.05-.49.05-.73,0-.35-.11-.68-.65-.82.25-.53.36-1.01.36-1.45,0-1.54-1.32-2.58-2.34-3.73-.07-.1-.1-.21-.1-.33,0-.04,0-.08.01-.11-.3-1.56.56-3.64-1.91-4.22-.05-.51-.09-1.02-.14-1.52.06-.33.08-.66.08-.98,0-1.68-.72-3.23-1.16-4.82-.02-.04-.03-.09-.03-.13s.01-.09.03-.13c-.05-.76-.64-1.41-.64-2.18,0-.2.04-.41.14-.63.16-.37.49-.68.49-1.1,0-.09-.02-.19-.05-.29.18-.58.28-1.25.98-1.25.1,0,.22.01.36.05,8.05,12.86,19.65,53.35,19.65,60.33,0,.58-.54.63-1.38.63-1.77,0-.54,1.69-10.77-26.83-.05-.06-.07-.14-.07-.21Z" fill="#f5a55c" stroke-width="0"/><path d="m688.43,448.83s0-.04,0-.07c1.17-.83,17.55-11.17,26.24-11.36.17-.08.33-.11.5-.11.37,0,.74.14,1.12.14.13,0,.48-.04.91-.04,1,0,1.37.23,1.37,1,0,.38-.09.89-.24,1.56-7.95,2.13-36.87,21.09-47.93,27.22-.03-.19-.05-.37-.05-.52,0-1.22.98-1.4,1.54-1.91.57-.34.93-.84,1.13-1.47.62-1.67,1.96-2.79,3.09-4.07.25-.3.82-.11.93-.63,2.54-3,5.71-5.3,8.71-7.79,1.03-.48,2.69-.13,2.69-1.97Z" fill="#f5a65d" stroke-width="0"/><path d="m118.5,482.43c0,.85,1.13,1.36,1.13,2.21,0,.09-.01.18-.04.27.13.85.19,1.7.19,2.54,0,1.59-.23,3.18-.72,4.77-2.19-13.95-14.32-51.39-20.6-61.04.97-.22,1.8-.34,2.53-.34,2.43,0,3.75,1.29,5.12,4.41,1.53,3.49,3.92,6.61,4.81,10.34.86,3.62,3.16,6.74,3.24,10.67.02,1.21,1.45,2.49,1.49,4.06.01.57.42,1.18.42,1.75,0,.95-1.04.95-1.04,1.35,0,.19.19.39.37.53,1.85,1.36,1.46,5.78,2.58,8.54-.17.21-.24.34-.24.42,0,.1.1.12.22.12.1,0,.23-.01.33-.01.13,0,.22.02.22.12,0,.01,0,.03,0,.05,1.15,8.5,1.04,7.68,1.04,7.77,0,.52-.24.84-.89.88-.12.22-.17.41-.17.59Z" fill="#f5a55c" stroke-width="0"/><path d="m682.57,463.44c-.54,0-.85-.34-.85-1.13,0-.04,0-.08,0-.13.19-.11,32.96-21.42,39.91-21.42.47,0,.74.24.74.67,0,.88-2.12,6.04-6.86,7.87-1.11.43-1.72,1.31-2.63,1.89-6.57,4.14-29.77,12.25-30.31,12.25Z" fill="#f5a65c" stroke-width="0"/><path d="m679.76,446.88c-5.99,9.3-16.78,19.59-18.71,19.59-.56,0-1.74-.34-1.74-1.18,0-.5.39-1.04.64-1.36,1.49-1.9.29-4.51,1.83-6.34.51-2.45,3.23-2.94,4.3-4.88.43-.17.88-.31.88-.84,0-.06,0-.13-.02-.21,0-.35.1-.67.35-.93.16.02.31.03.45.03,3.08,0,1.5-5.71,6.87-6.92.79-.5,1.15-1.36,1.77-2.01.25-.25.54-.46.87-.6.32-.12.65-.17.99-.17.14,0,.27,0,.41.03.28.06.56.21.86.21.12,0,.25-.02.38-.09-1.1-.04-1.29-.83-1.46-1.64,0-.02,0-.05,0-.07,0-.51.47-.73.73-1.08.68-.55,1.48-1.06,2.25-1.06,1.24,0,2.04,1.36,2.04,2.42,0,.67-.24,1.36-.7,1.99-.79,1.09-.8,2.62-2.02,3.44-.52.44-.75,1.06-.97,1.68Z" fill="#f5a65c" stroke-width="0"/><path d="m259.08,439.33c.51,0,.79.37.79,1.14,0,.15-.01.31-.03.49-.81,1.02-21.64,21.85-28.4,44.94-1.19-.04-1.55-.05-1.55-.89,0-.36.06-.87.15-1.59.13-.16.25-.32.38-.48-.05-.13-.07-.24-.07-.35,0-.46.35-.79.61-1.15.25-.25.33-.5.33-.76,0-.52-.34-1.04-.34-1.56,0-.13.02-.26.08-.39.78-1.08.52-2.46,1.02-3.62.5-.88,1.3-1.48,2.01-2.16-.3-.49-.42-.95-.42-1.4s-.23-.6,3.12-7.25c.61-.77,2.04-.91,2.04-2.14,0-.13-.02-.28-.05-.45.3-1.4.74-2.73,1.93-3.66.76-.62,1.02-1.78,2.05-2.09.47-.14.63-.24.63-.32,0-.18-.76-.27-.76-.49,0-1.24.13-1.45.3-1.66.5-.53,1.01-1.05,1.51-1.58.8-.46,1.69-.77,2.4-1.39,2.06-1.62,3.36-3.84,4.79-5.96.15-.14.29-.28.44-.41,1.05-1.19,2.19-2.27,3.65-2.97,1.11-.55,2.37-1.83,3.37-1.83Z" fill="#f5a55c" stroke-width="0"/><path d="m180.48,490.06c-.04-.1-.06-.2-.06-.3,0-.03,0-.06,0-.09-.12-.33-.31-.69-.31-1.02,0-.59.86-1.06.86-2.17,0-.93-.8-1.58-2.02-2.09-.17-1.37-.34-2.75-.51-4.12.01-.34.77-.25.77-.59,0-.38-.56-.4-.56-1.75,0-.2,0-.41,0-.61,0-.41-.04-.81-.25-1.18h0c-.01-.11-.02-.23-.02-.35,0-1.51.79-2.95.79-4.45,0-.47-.08-.94-.27-1.42.23-.24.64-.47.65-.72.14-2.27,1.54-2.41,2-2.41,1.64,0,1.59,1.82,1.86,2.78.72,2.55.98,5.14.98,7.76,0,3.26-.31,4.2-.31,6.81,0,1.52.08,3.05.08,4.58,0,.46,0,.62,0,.73,0,.36.05.76.05,1.14,0,.82-.22,1.55-1.61,1.58-.11.02-.21.03-.3.03-.82,0-1.03-.69-1.08-1.37-.04-.58-.37-.64-.75-.76Z" fill="#f5a55c" stroke-width="0"/><path d="m675.05,444.18c-4.88,1.33-4.54,7.13-6.45,7.13-.39,0-.81-.19-1.27-.42-.07-.05-.1-.13-.1-.22,0-.14.06-.32.06-.46,0-.16-.07-.29-.39-.29-.03,0-.06,0-.09,0-.49-.29-.78-.64-.78-1.09,0-.2.06-.42.18-.66,1.35-2.41,3.85-3.64,5.69-5.56.38-.21.7-.3.99-.3.89,0,1.45.82,2.06,1.52.03.12.07.24.1.36Z" fill="#f5aa65" stroke-width="0"/><path d="m222.52,472.12c0-.85.38-1.51,1.81-1.65.24.43.65.5,1.08.53-.24,3.82-1.12,7.59-1.12,11.42,0,1.91.21,2.89.21,3.04,0,.4-.42.51-.59.51-.32,0-1.83-.76-1.83-3.05,0-3.56,1.21-6.5,1.21-6.91,0-.75-.62-1.3-.62-1.97,0-.14.03-.28.09-.43-.12-.52-.23-1.04-.23-1.5Z" fill="#f5a55c" stroke-width="0"/><path d="m192.61,483.74c.69,0,1.04.23,1.04.7,0,.24-.09.54-.27.91-.49.9-1.09,1.73-1.09,2.86,0,.02,0,.03,0,.05,0,1.72-2.21,3.2-3.63,3.2-.3,0-1.04-.02-1.04-1.08,0-1.34.88-1.2.88-2.38,0-.54-.19-1.09-.19-1.61,0-.35.09-.69.38-.99.39-.09.35-1.06.74-1.06.34,0,.71.73,1.1.73s.37-.88.72-.88c0,0,0,0,0,0,.31-.22.66-.35,1.04-.43.12,0,.22-.01.32-.01Z" fill="#f5a55c" stroke-width="0"/><path d="m666.21,448.15s0,.05,0,.07c0,.78.72,1.08,1.1,1.61-.23.36-.28.74-.28,1.12,0,.25.02.5.02.75,0,.06,0,.11,0,.17,0,.03,0,.05,0,.08,0,.52-.35.78-.77.98,0,.02,0,.04,0,.07,0,.4.15.89.15,1.28s-.15.69-.76.69c-.48,0-.79-.14-1.07-.14-.72,0-1.59.67-1.65,1.7-.05.81-.55.96-1.17,1.06.66-3.53,2.63-6.45,4.44-9.44Z" fill="#f6af6d" stroke-width="0"/><path d="m223.42,464.05c0,1.94.97,3.74.97,5.63,0,.26-.02.52-.06.79-1.23.55-1.59,1.54-1.59,2.71,0,.14,0,.29.02.44-.47-2.52-.69-5.05-.69-7.59,0-1.27.06-2.54.16-3.81.32-.05.85-.3,1.18-.3.18,0,.3.07.3.29,0,.3-.28.75-.28,1.85Z" fill="#f5a55c" stroke-width="0"/><path d="m193.37,485.35c0-.13,0-.26,0-.39,0-.4-.05-.75-.43-.75-.15,0-.34.05-.6.17-.23-.3-.37-.6-.37-.91,0-.23.08-.46.25-.7.12-.53.47-1.96.47-2.26,0-.4-.27-.93-.27-1.3,0-.26.14-.44.58-.44.77,0,1.89.73,1.89,1.89,0,.14-.21,3.13-1.51,4.69Z" fill="#f5a55c" stroke-width="0"/><path d="m677.02,441.58c-.31,0-.3.35-.43.54-.43.75-.62,1.67-1.54,2.06h0,0s0,0,0,0c-.49-.74-1.18-1.42-1.18-2.33,0-.24.05-.49.15-.76,1.47-1.35,3.27-2.07,5.13-2.66-.17.34-.33.68-.5,1.02.08.33.11.66.11.99,0,.38-.04.76-.08,1.14-.51,0-1.02.01-1.53.02-.05-.01-.09-.02-.13-.02Z" fill="#f5aa65" stroke-width="0"/><path d="m251.61,444.54c-.44,2.9-2.36,4.73-4.6,6.34-.44-.23-.53-.65-.6-1.08,1.53-1.95,2.88-4.08,5.19-5.25Z" fill="#f5a55c" stroke-width="0"/><path d="m248.5,395.33c0,.73-.11,1.41-.34,1.96-.3-2.86-1.04-5.51-3.63-7.22.31-.34.19-1.3.73-1.3.9,0,3.24,2.54,3.24,6.56Z" fill="#f5a55c" stroke-width="0"/><path d="m191.7,482.88c0,.19.02.39.02.58,0,.3-.06.59-.37.81-.09.86-.41,1.62-.96,2.23-.11.05-.19.07-.26.07-.59,0-.06-1.64-.64-1.64-.16,0-.42.13-.81.47-.01-.11-.02-.21-.02-.32,0-1.51,1.12-2.6,1.87-3.65.26-.36.46-.5.61-.5.4,0,.53.89.68,1.38-.11.17-.13.36-.13.56Z" fill="#f5a55c" stroke-width="0"/><path d="m177.89,473.73c0-1.3.43-2.57,1.03-3.82.61.51,1.63.85,1.63,1.51,0,.34-.27.77-.99,1.36-.64.51-.1,2.41-1.14,3.36-.37-.82-.53-1.62-.53-2.41Z" fill="#f5a55c" stroke-width="0"/><path d="m178.95,484.38c2.08.25,2.98.49,2.98,1.3,0,.51-.36,1.25-1.02,2.36-.32.55-.39,1.07-.49,1.63-1.33-1.53-.37-3.7-1.47-5.29Z" fill="#f5a55c" stroke-width="0"/><path d="m227.93,409.63c-.98.9-1.36,2.12-1.36,3.29,0,.54.07.73.07,1.13,0,1.08-.56,1.65-1.3,2.28.1-3.46,1.44-6.6,2.57-9.79.63.35,1.2.71,1.2,1.1,0,.28-.29.59-1.06.93-.23.1-.31.24-.31.4,0,.21.14.44.2.66h-.01Z" fill="#f5a55c" stroke-width="0"/><path d="m99.59,451.39c2.41,1.37,3.29,2.74,3.29,3.62,0,.64-.44,1.15-1.3,1.56-1.38-1.45-1.08-3.55-1.99-5.18Z" fill="#f5a55c" stroke-width="0"/><path d="m718.33,439.96c-.15-1.05-.05-2.35-1.18-2.35-.58,0-1.07.3-1.26.3-.34,0-.82-.35-1.22-.5.73-.41,1.5-.65,2.23-.65,1.88,0,1.95,1.24,2.94,1.24.36,0,.71-.15,1.08-.15.16,0,.32.03.49.11-.51,1.51-1.99,1.49-3.08,2.01Z" fill="#f6b272" stroke-width="0"/><path d="m261.26,439.69c0,.67-.72,1.04-1.43,1.26-.26-.6-.51-1.13-.94-1.13-.82,0-1.44,1.77-3.03,1.77-.03,0-.05,0-.08,0-.2-.16-.51-.21-.55-.53,1.09-1.07,2.25-1.98,3.88-2.13.4-.04.86-.18,1.25-.18.73,0,.9.6.9.95Z" fill="#f5a55c" stroke-width="0"/><path d="m681.72,462.17c.3.72.87,1.05,1.62,1.1-1.79,1.11-3.69,1.89-6.35,2.06,1.81-1.3,3.02-2.57,4.73-3.16Z" fill="#f6b070" stroke-width="0"/><path d="m96.19,440.7c0-.42.06-.85.19-1.29,1.22.96,1.73,2.06,1.73,3.25,0,.81-.24,1.66-.66,2.55-.46-1.5-1.26-2.93-1.26-4.51Z" fill="#f5a55c" stroke-width="0"/><path d="m97.59,446.73c1.91.09,2.65.24,2.65,1.04,0,.43-.21,1.04-.57,1.93-.15.38-.12.83-.18,1.25-.68-1.39-.93-2.97-1.91-4.22Z" fill="#f5a55c" stroke-width="0"/><path d="m242.9,453.48c.02.06.03.13.03.21,0,.24-.07.53-.07.77,0,.32.13.57.7.57.15,0,.27-.02.28-.02.13,0,.32.42.32.75,0,.22-.08.4-.32.41-1.5.03-1.88,1.67-3.16,1.88.35-1.71,1.67-2.95,2.22-4.57Z" fill="#f5a55c" stroke-width="0"/><path d="m95.98,476.08c0,.18-.02.37-.05.57-1.66-.2-1.99-.97-1.99-1.88,0-.61.15-1.29.15-1.9,0-.34-.05-.66-.19-.94.66,1.4,2.09,2.47,2.09,4.15Z" fill="#f5a55c" stroke-width="0"/><path d="m87.02,497.8c-.63,0-1.13-.33-1.48-.99.15-1.18,2.17-.8,2.17-2.11,0-.12-.02-.26-.05-.41.2.14.4.28.6.41.1.57.37,1.18.37,1.73,0,.49-.22.94-.98,1.28-.22.06-.43.09-.63.09Z" fill="#f5a55c" stroke-width="0"/><path d="m84.59,490.76c1.28,0,1.52,1.04,1.9,1.94-.47.21-.48,1.18-1.05,1.18-.36,0-1.23-.52-1.23-1.21,0-.62.53-.96.53-1.17,0-.19-.14-.51-.18-.74.01,0,.02,0,.04,0Z" fill="#f5a55c" stroke-width="0"/><path d="m178.16,478.96c0-.84.27-1.69.27-2.53,0-.1,0-.19-.01-.29,1.01.88.45,2.34,1.49,3.46.15.16.21.28.21.35,0,.15-.24.17-.54.17-.12,0-.25,0-.39,0-.3,0-.59.02-.75.14-.22-.43-.29-.87-.29-1.31Z" fill="#f5a55c" stroke-width="0"/><path d="m688.43,448.76c.32.75.54,1.25.54,1.58,0,.42-.36.54-1.29.54-.48,0-1.12-.03-1.94-.07.9-.68,1.79-1.36,2.69-2.04Z" fill="#f6b172" stroke-width="0"/><path d="m674.02,441.08c.34,1.03.68,2.06,1.03,3.09-1.09-.25-1.64-1.6-2.85-1.6-.09,0-.19,0-.29.02.44-.87,1.37-1.07,2.12-1.51Z" fill="#f6b67b" stroke-width="0"/><path d="m255.23,441.05c.18.18.37.35.55.53-1.24.85-2.49,1.7-3.73,2.54.72-1.38,1.65-2.53,3.18-3.08Z" fill="#f5a55c" stroke-width="0"/><path d="m99.04,483.35c-.82-.42-1.64-.84-2.58-1.33.61-.49,1.09-.88,1.57-1.26,1,.6.92,1.63,1.02,2.59Z" fill="#f5a55c" stroke-width="0"/><path d="m181.89,492.27c-1.2,0-1.17-1.24-1.41-2.22.49-.07.73-.69,1.38-.69.11,0,.23.02.37.06-.2.53-.57,1.13-.57,1.66,0,.42.23.8.95,1.07-.28.08-.52.11-.72.11Z" fill="#f5a55c" stroke-width="0"/><path d="m54.68,468.39c-.58.26-1.17.53-1.8.81-.27-.88-.51-1.68-.76-2.48.93.44,2.03.61,2.56,1.66Z" fill="#f5a55c" stroke-width="0"/><path d="m50.04,437.45c.74-.29.17-1.27.94-1.71.37,1.35.71,2.61,1.06,3.88-.67-.72-1.33-1.45-2-2.17Z" fill="#f5a55c" stroke-width="0"/><path d="m246.51,410.66c0,.92-.34,1.76-1.05,2.5-.03-.62-.25-1.29-.25-1.91s.24-1.22,1.17-1.62c.09.35.13.69.13,1.02Z" fill="#f5a55c" stroke-width="0"/><path d="m229.5,484.76c0-.45.17-.89.55-1.35.28.14.35.39.35.68,0,.32-.09.7-.09,1.02,0,.44.17.79.95.79.06,0,.12,0,.18,0-.23.32-.26,1.2-.6,1.2s-1.34-1.37-1.34-2.33Z" fill="#f5a55c" stroke-width="0"/><path d="m88.54,498.13c-.21,0-.5-.12-.9-.42.69-.9.53-1.98.61-3,.51.49.94,1.09.94,1.77,0,.06,0,.13-.01.2-.07.57-.06,1.46-.64,1.46Z" fill="#f5a55c" stroke-width="0"/><path d="m96.77,432.49c.45,0,.64.8.88,1.25-.45.4-.89.8-1.34,1.21-.5-.33-.68-.7-.68-1.04,0-.7.8-1.42,1.14-1.42Z" fill="#f5a55c" stroke-width="0"/><path d="m246.42,449.8c.47.21.58.62.6,1.08-.4.91-1.11,1.03-1.87,1.03-.24,0-.49-.01-.73-.01.52-.84,1.17-1.55,2.01-2.09Z" fill="#f5a55c" stroke-width="0"/><path d="m238.75,461.7c.21.61.36,1.01.36,1.31,0,.6-.58.77-2.35,1.28.19-1.22,1.55-1.55,1.99-2.59Z" fill="#f5a55c" stroke-width="0"/><path d="m233.15,472.75c.23,0,.53.06.91.19-.23,1.13-.97,1.78-2.01,2.16.32-.82-.11-2.35,1.1-2.35Z" fill="#f5a55c" stroke-width="0"/><path d="m230.55,479.79c0-.41.08-.79.48-1.07.35.68,1.05,1.29,1.05,2.03,0,.33-.14.68-.51,1.08-.79-.23-.72-1-1-1.56-.01-.16-.02-.32-.02-.48Z" fill="#f5a55c" stroke-width="0"/><path d="m57.2,469.44c-.06-.03-.13-.05-.21-.05-.52,0-1.33.69-1.86.69-.3,0-.51-.23-.51-.95,0-.21.02-.45.05-.74.94.11,1.83.36,2.52,1.05Z" fill="#f5a55c" stroke-width="0"/><path d="m97.5,479.23c0,.17,0,.34-.03.52-.01-1.06-1.8-1.25-1.8-2.32,0-.22.08-.48.26-.79,1.12.56,1.57,1.46,1.57,2.58Z" fill="#f5a55c" stroke-width="0"/><path d="m54.96,442.11c-.6,0-1.08-.3-1.42-.97.52-.57.91-.8,1.21-.8.53,0,.78.74.96,1.65-.26.09-.51.13-.75.13Z" fill="#f5a55c" stroke-width="0"/><path d="m245.48,415.11c0,.85-.38,1.57-1.06,2.21.05-.15.07-.32.07-.49,0-.41-.1-.85-.1-1.26,0-.54.17-1.02.97-1.32.08.3.12.58.12.85Z" fill="#f5a55c" stroke-width="0"/><path d="m119.77,484.21c0,.22-.05.45-.18.7-.6-.53-.69-1.39-1.43-1.92-.32-.23-.45-.44-.45-.62,0-.3.38-.5.96-.54.18.85,1.1,1.47,1.1,2.37Z" fill="#f5a55c" stroke-width="0"/><path d="m42.08,461.75c.49,0,.74.26.74.79,0,.06,0,.12,0,.19.02.3.04.59.06.89-1.03-.23-.8.31-1.1-1.84.11-.02.22-.03.32-.03Z" fill="#f5a55c" stroke-width="0"/><path d="m58.2,469.86c.74,0,1.24.48,1.69,1.08-.47.33-.85.49-1.16.49-.57,0-.88-.54-.98-1.52.16-.04.3-.05.44-.05Z" fill="#f5a55c" stroke-width="0"/><path d="m118.52,473.19c-.48.06-.95.4-1.45.4-.23,0-.47-.08-.71-.29.16-.71.61-.82,1.11-.82.17,0,.34.01.51.02.33.11.53.33.53.69Z" fill="#f5a55c" stroke-width="0"/><path d="m63.96,473.1c.43,0,.79.27,1.06.91-.39.26-.77.43-1.1.43-.41,0-.76-.26-1-.94.37-.26.72-.4,1.04-.4Z" fill="#f5a55c" stroke-width="0"/><path d="m230.04,482.14c0-.59.55-1.15.55-1.74,0-.04,0-.09,0-.13.33.52.66,1.04,1,1.56-.55.19-.89.6-1.14,1.1-.29-.27-.39-.53-.39-.78Z" fill="#f5a55c" stroke-width="0"/><path d="m18.55,467.33c.08-.53.14-1.22.73-1.22.75,0,.76.76.76.91,0,.17-.02.35-.06.52-.48-.07-.95-.14-1.43-.22Z" fill="#f5a55c" stroke-width="0"/><path d="m22.31,394.98c0-.62,1-.45,1.43-.74,0,.03,0,.07,0,.1,0,.76-.18,1.38-1.15,1.38-.2-.33-.28-.57-.28-.74Z" fill="#f5a55c" stroke-width="0"/><path d="m40.71,461.19s-.08-.02-.13-.02c-.35,0-.91.31-1.27.31-.2,0-.33-.1-.33-.4,0-.2.06-.49.2-.9.72.01,1.27.29,1.53,1Z" fill="#f5a55c" stroke-width="0"/><path d="m66.04,475.02c-.16.28-.39.74-.64.74-.02,0-.38.01-.38-.92,0-.18,0-.37,0-.55,0-.09,0-.19,0-.27.64.04.98.37,1.02,1.01Z" fill="#f5a55c" stroke-width="0"/><path d="m673.02,463.29c.21.38.3.66.3.88,0,.46-.42.6-1.02.6-.13,0-.27,0-.41-.02.05-.74.46-1.2,1.13-1.47Z" fill="#f7bf8b" stroke-width="0"/><path d="m191.35,484.26c-.01-.27-.05-.54-.05-.8,0-.42.09-.83.53-1.14.13.15.26.3.39.45.04.54.08,1.07.12,1.61-.33-.04-.66-.08-1-.12Z" fill="#f5a55c" stroke-width="0"/><path d="m52.6,409.11c-.35.06-.81.26-1.11.26s-.44-.28-.44-.46c0-.29.25-.59.49-.83.68.01,1.04.34,1.05,1.04Z" fill="#f5a55c" stroke-width="0"/><path d="m95.49,437.26c0-.29.11-.59.38-.92.09.79.56,1.51.56,2.32,0,.16-.02.32-.06.48-.29-.63-.88-1.2-.88-1.88Z" fill="#f5a55c" stroke-width="0"/><path d="m30.27,393.14c.49,0,.89.38,1.22.99-.12.02-.24.02-.36.02-.66,0-1.26-.23-1.82-.6.36-.28.68-.41.96-.41Z" fill="#f5a55c" stroke-width="0"/><path d="m104.69,466.96c0-.25.05-.51.07-.76.93.02,1.22.18,1.22.41,0,.36-.74.89-.84,1.28-.36-.26-.45-.58-.45-.92Z" fill="#f5a55c" stroke-width="0"/><path d="m677.03,458.59c.13.31.57.61.57.93,0,.29-.4.5-.53.5-.39,0-.52-.8-.96-.8,0,0,0,0,0,0,.11-.5.49-.6.93-.63Z" fill="#fdede0" stroke-width="0"/><path d="m44.99,477.16c0-.31.88-.68.88-1,0,0,0-.01,0-.02.34.16.44.33.44.51,0,.3-.31.63-.35.94-.73-.12-.97-.27-.97-.43Z" fill="#f5a55c" stroke-width="0"/><path d="m87.95,485.12c0-.17.05-.39.15-.64.59.05.83.51,1.11.94.14.09.22.19.22.3,0,.06-.05.27-.13.27l-.13-.07c-.71-.04-1.22-.23-1.22-.8Z" fill="#f5a55c" stroke-width="0"/><path d="m680.73,445.22c0,.74-.4,1.24-.97,1.65-.02-.21-.04-.42-.04-.61,0-.55.17-1,1.01-1.06,0,0,0,.01,0,.02Z" fill="#f6b374" stroke-width="0"/><path d="m26.28,393.58c-.33.53-.74.8-1.22.8-.26,0-.53-.08-.84-.24.55-.68,1.32-.53,2.05-.57Z" fill="#f5a55c" stroke-width="0"/><path d="m226.03,484.94c-.36,0-.5-.68-.57-1.13.33-.14.66-.29.99-.43-.01.08-.02.17-.02.25,0,.22.03.45.03.66,0,.6-.33.64-.43.64Z" fill="#f5a55c" stroke-width="0"/><path d="m70.23,490.54c.08.06.19.08.31.08.24,0,.54-.08.78-.08.27,0,.47.09.47.47,0,.14-.03.32-.09.55-.59-.2-1.15-.45-1.48-1.03Z" fill="#f5a55c" stroke-width="0"/><path d="m34.61,421.01s0-.04,0-.06c.68.38,1.23.86,1.44,1.65-.89-.17-1.44-.64-1.44-1.59Z" fill="#f5a55c" stroke-width="0"/><path d="m90.67,486.02c-.35,0-.69-.13-.99-.13-.13,0-.26.03-.37.1-.03-.19-.06-.38-.09-.57h2.51c-.36.48-.72.6-1.06.6Z" fill="#f5a55c" stroke-width="0"/><path d="m227.93,409.63h0s.01-.01.01-.01c.38.08.76.15,1.15.23-.17.31-.13.62-.64.62-.41,0-.44-.45-.51-.84h0Z" fill="#f5a55c" stroke-width="0"/><path d="m243.93,412.47c.14,0,.32.24.51.4-.25.39-.22.63-.55.63-.27,0-.39-.23-.39-.48,0-.31.31-.55.43-.55Z" fill="#f5a55c" stroke-width="0"/><path d="m698.75,446.86c-.3.09-.52.21-.67.21-.22,0-.37-.33-.53-.52.18-.07.38-.21.55-.21.21,0,.36.26.66.53Z" fill="#f7b87f" stroke-width="0"/><path d="m679.51,441.71c-.25,0-.53-.05-.83-.13-.27-.35-.41-.71-.41-1.07s.13-.71.37-1.07c.34.52.61,1.19,1.13,1.19.26,0,.58-.17,1.01-.63-.04,1.27-.53,1.71-1.27,1.71Z" fill="#f9d1ab" stroke-width="0"/><path d="m667.19,453.3c-.31,0-.61-.29-.91-.37.17-.33.35-.67.52-1,.08-.14.17-.21.25-.21s.17.06.26.18c.28.21.48.46.48.73s-.28.66-.6.66Z" fill="#f5aa65" stroke-width="0"/><path d="m667.31,451.9c-.17,0-.35.02-.52.03.06-.09.08-.18.08-.28,0-.37-.31-.81-.31-1.18,0-.27.17-.5.74-.63.2.12.27.24.27.36,0,.23-.23.46-.24.69,0,.34-.01.68-.02,1.02Z" fill="#f7b87d" stroke-width="0"/><path d="m676.59,442.12c-.05-.3-.37-.65-.37-.94,0-.27.32-.41.46-.41.31,0,.38.51.47.83-.19.17-.37.35-.56.52Z" fill="#f8c799" stroke-width="0"/><path d="m237.23,466.63c0,.81-.57,1.03-1.47,1.42.34-1.05.84-1.36,1.45-1.7.01.1.02.19.02.27Z" fill="#f5a55c" stroke-width="0"/><path d="m181.51,473.25c.36,0,.46.31.48.74-.17.14-.26.34-.49.34-.32,0-.46-.24-.46-.52,0-.34.29-.57.46-.57Z" fill="#f5a55c" stroke-width="0"/></g><g id="uuid-27d203f5-4c35-4d65-9ab9-f55b092c27c4"><path d="m148.63,148.15s-2.97-4.59-5.99-7.88c-4.87-5.31-11.7-11.86-11.7-16.87,0-3.61,2.4-6.85,4.68-7.8,0,0-.2-1.09-.2-2.58,0-8.45,5.93-8.43,7-8.43,7.92,0,21.23,9.56,26.79,11.22,2.65.79,3.79,2.61,3.79,4.54,0,2.27-1.58,4.69-4.12,5.77l-20.25,22.03Z" fill="#ab4a55" fill-rule="evenodd" stroke-width="0"/><path d="m165.27,124.59c1.6,0,3.13-2.3,3.17-2.3.19,0,1.39,11.23,1.39,19.54,0,5.13-.61,10.13-6.17,10.13-.25,0-.5,0-.77-.03,0,0-.07.61-.07,1.8,0,1.9.19,5.3,1.16,10.1,0,0-3.39,12.14-7.82,12.14-4.39,0-10.48-13.43-10.48-13.43,0,0,2.75-6.01,2.75-15.73,0-.54,0-1.1-.03-1.66,0,0-.69.2-1.75.2-3.76,0-7.62-2.72-7.62-6.58,0-1.73,1.27-6.4,5.54-6.4,1.94,0,3.74,1.09,4.01,2.92l2.88-.02s-.62-3.66-.62-7.88c0-3.03.39-4.14.39-4.14,0,0,.2,1.76,1.64,1.76.88,0,2.22-.65,4.25-2.74,0,0,.29,2.55,2.23,2.55.89,0,2.13-.54,3.84-2.1,0,0,.62,1.87,2.07,1.87Z" fill="#f6a88a" fill-rule="evenodd" stroke-width="0"/><path d="m140.93,169.09c-.19,0-26.04,8.67-26.68,10.72-1.75,5.61-9.7,66.08-10.2,67.14-.1.21-.15.43-.15.66,0,1.97,7.76,9.23,13.09,9.23.58,0,1.08-.1,1.44-.3,0,0,.04,1.22.04,2.94,0,12.68-2.61,12.61-2.61,15.79,0,.72.33,1.17,1.24,1.17.31,0,.68-.05,1.14-.16,0,0,20.64-6.38,33.47-9.82,12.83-3.45,26.77-5.11,26.77-5.11l1.12-14.53s3.18,4.48,5.36,4.48c1.78,0,23.18-6.36,23.18-6.36,0,0,1.15-5.9,2.29-10.21,1.14-4.31,3.26-11.84,3.26-11.84,0,0-6.63,3.51-7.92,3.51-.97,0,.04-5.53-1.16-5.53-.81,0-3.2,2.88-3.89,2.88-.88,0-8.53-45.98-10.71-45.98-.33,0-.79.17-1.62.17-4.46,0-20.28-9.57-20.28-9.57,0,0-10.17,7.55-11.81,7.55-1.02,0-11.56-6.83-15.37-6.83Z" fill="#f6c15c" fill-rule="evenodd" stroke-width="0"/><path d="m183.64,209.58s1.76-13.78,1.98-15.07c.2-1.21.17-2.26,2.74-2.26.18,0,.38,0,.59.02l-3.06,17.97-2.25-.65Z" fill="#548492" fill-rule="evenodd" stroke-width="0"/><path d="m235.02,207.86l6.31,26.82,13.52-1.79-.02-28.06-19.81,3.03Z" fill="#e35b5b" fill-rule="evenodd" stroke-width="0"/><path d="m184.3,216.23s2.46-21.01,2.62-22.32c.15-1.2,1.23-1.79,2.97-1.79.61,0,.67.06,2.93.06,1.55,0,3.32-.03,4.55-.03,1.6,0,2.17-.11,2.17,1.43,0,.74-1.39,14.95-1.56,16.61-.37,3.54-13.69,6.03-13.69,6.03Z" fill="#225081" fill-rule="evenodd" stroke-width="0"/><path d="m153.36,222.18s18.21-7.07,22.79-12.04c3.01-3.27,5.3-5.47,8.19-5.8,0,0-.31,1.02-.31,2.01s.28,1.87,1.39,1.87c.26,0,9.36-.78,11.44-3.5,1.76-2.3,1.96-3.18,1.96-3.18,0,0,1.26.55,1.26,2.1,0,.17-.01.35-.05.54,0,0,.76.69.76,1.84,0,.5-.14,1.09-.55,1.74,0,0,.18.35.18,1.03s-.19,1.75-.99,3.1c0,0-1.82,4.8-3.72,6.15-4.09,2.92-11.74-1.61-30.11,11.63-5.29,3.82-12.68,8.51-12.68,8.51l.44-16Z" fill="#f6a88a" fill-rule="evenodd" stroke-width="0"/><path d="m219.62,222.77s5.98-1.15,10.63-3.28c4.65-2.14,4.87-4.11,7.63-4.72,3.88-.85,5.41-1.91,9.54-1.91,2.43,0,5.14.27,5.14.27,0,0,0,.01,0,.03,0,.3-.07,2.68-2.39,3.1-2.47.45-4.94,1.36-4.94,1.36,0,0-2.16,4.37-5.47,7.84l.86,5.67s-2.71,1.15-7.83,1.42c-5.12.27-15.36,5.48-15.36,5.48l2.19-15.26Z" fill="#f6a88a" fill-rule="evenodd" stroke-width="0"/><path d="m148.68,136.02l2.9-.14.19,1.02-2.89.47-.19-1.36Z" fill="#ab4a55" fill-rule="evenodd" stroke-width="0"/><path d="m145.77,162.63s4.52,9.31,10.55,13.17l-4.9,14.37s-11.03-19.89-11.03-21.05c0-2.32,5.01-8.17,5.99-8.39l-.61,1.9Z" fill="#fcf8ef" fill-rule="evenodd" stroke-width="0"/><path d="m163.95,163.65s-.9,4.07-2.79,7.11c-1.89,3.05-4.7,5.04-4.7,5.04l6.97,12.67s4.76-17.72,4.76-21.14c0-.26-.02-.5-.05-.72-.23-1.55-4.52-4.38-4.52-4.38l.33,1.41Z" fill="#fcf8ef" fill-rule="evenodd" stroke-width="0"/><path d="m146.95,221.76l6.62-2.71s-.55,16.16-.73,21.33c-.18,5.17-.36,8.66-.36,8.66,0,0-5.68,2.37-8.01,2.87,0,0,.91-8.08,1.09-16.01.18-7.93,1.38-14.14,1.38-14.14Z" fill="#fcf8ef" fill-rule="evenodd" stroke-width="0"/><path d="m220.12,220.61s-3.32,21.37-3.96,24.77l-8.4,1.07s1.02-5.72,2.83-12.86c1.82-7.13,3.46-11.92,3.46-11.92l6.07-1.07Z" fill="#fcf8ef" fill-rule="evenodd" stroke-width="0"/><path d="m118.5,276.28c-.13.79-.19,2.51-.19,4.86,0,37.79,4.3,70.51,4.3,82.99,0,1.57-.08,2.61-.28,2.94-.66,1.12-1.02,2.08-1.02,2.86,0,2.12,2.51,1.85,2.51,3.56,0,1.2-.54,1.01-.54,4.01,0,9.11,4.82,69.57,4.82,69.57,0,0,6.62-.32,12.67-.65,6.05-.32,12.35-.32,12.35-.32,0,0,.49-17.1.49-32.42,0-12.62-.44-22.55-.44-30.38,0-10.89,1.15-9.18,1.15-12.35,0-1.99-1.03-2.12-1.03-5.66,0-8.95,2.62-39.78,2.62-39.78,0,0,2.03,1.97,3.37,10.53,1.3,8.31,5.32,14.08,5.32,18.24,0,.37-.03.48-.03.98l23.21,82.18s19.89-4.88,26.18-8.36c0,0-18.5-61.3-19.08-70.62-.25-4.08-3.77-4.45-3.77-8.14,0-1.3.93-1.48.93-3.02,0-.65-.17-1.54-.63-2.85-4.68-13.09-12.88-83.19-12.88-83.19,0,0-10.87,1.12-27.86,5.45-16.99,4.33-32.07,9-32.17,9.57Z" fill="#225081" fill-rule="evenodd" stroke-width="0"/><path d="m127.16,447s11.44-.97,26.76-.97c.53,0,.81,0,.81,0l-.31,5.04s-5.64.09-12.38.38c-6.74.3-14.05,1.27-14.05,1.27l-.83-5.72Z" fill="#548492" fill-rule="evenodd" stroke-width="0"/><path d="m186.69,437.49s4.5-.6,12.89-3.3c8.39-2.7,15.59-5.61,15.59-5.61l1.59,5.29s-6.69,2.81-13.14,4.79c-6.46,1.98-15.25,4.2-15.25,4.2l-1.67-5.37Z" fill="#548492" fill-rule="evenodd" stroke-width="0"/><path d="m203.39,464.64s-.24.34-.24.86c0,1.13,1.65,1.61,6.23,17.11,0,0,6.59-3.11,15.4-7.29,8.81-4.18,15.75-8.38,15.75-8.38,0,0,.64-5.11,4.01-7.04,0,0-8,2.28-15.25,2.28-9.29,0-14.8-3.96-14.8-3.96l-11.1,6.42Z" fill="#e35b5b" fill-rule="evenodd" stroke-width="0"/><path d="m134.9,476.15s-1.23.6-1.23,1.72c0,1.5.95-.39.95,7.39,0,4.16-.28,8.77-.28,8.77,0,0,7.31-.34,15.89-1.19,8.58-.85,13.56-1.3,13.56-1.3,0,0,.72-4.71,4.52-5.75,0,0-7.83-.37-13.19-3.83-5.35-3.46-8.31-7.67-8.31-7.67l-11.92,1.87Z" fill="#e35b5b" fill-rule="evenodd" stroke-width="0"/><path d="m132.62,452.09h0c2.36,20.37,2.18,25.09,2.18,25.09,0,0,1.75,2.25,4.72,2.25,1.98,0,4.49-1,7.39-4.33,0,0-.65-9.05-.74-14.67-.09-5.62-.14-9.26-.14-9.26,0,0-13.41.87-13.41.92Z" fill="#2b2b2b" fill-rule="evenodd" stroke-width="0"/><path d="m193.48,441.49s2.47,5.03,4.88,11.14c2.41,6.11,5.31,13.12,5.31,13.12,0,0,.32.04.86.04,1.32,0,3.95-.26,6.49-2.08,3.58-2.56,3.62-4.95,3.62-4.95,0,0-1.37-2.76-3.99-9.62-2.62-6.86-4.59-11.43-4.59-11.43,0,0-3.07,1.14-6.56,2.12-3.49.98-6.01,1.66-6.01,1.66Z" fill="#2b2b2b" fill-rule="evenodd" stroke-width="0"/><path d="m209.55,482.42l2.19,6.65s6.13-3.37,14.84-8.09l30.63-16.94s-1.97-3.88-4.79-4.44c-1.42-.28-3.04-.46-4.52-.46s-2.78.18-3.67.62c-1.68.84-3.79,4.97-3.79,6.82,0,.11,0,.21.02.31,0,0-12.42,6.39-17.82,9.35-5.4,2.95-13.1,6.18-13.1,6.18Z" fill="#fcf8ef" fill-rule="evenodd" stroke-width="0"/><path d="m134.39,493.82s-.01,0-.01,0l.48,5.3s2.02-.08,7.64-1.26c1.72-.36,30.37-4.6,30.37-4.6,0,0,2.89-2.8,2.89-4.28s-5.85-3.36-7.74-3.39c0,0-3.82,2.05-4.36,5.83,0,0-21.7,2.4-29.27,2.4Z" fill="#fcf8ef" fill-rule="evenodd" stroke-width="0"/><path d="m236.66,466.09c-.83,0-1.01-.77-1.01-1.73,0-3.87,3.96-4.5,4.32-4.5.48,0,.95.37.95.93,0,1.63-3.41.43-3.41,3.57,0,.49.08.58.08.8,0,.55-.45.93-.93.93Z" fill="#fcf8ef" stroke-width="0"/><path d="m231.44,466.17c-.82,0-1.01-.75-1.01-1.73,0-3.88,3.97-4.5,4.32-4.5.46,0,.94.37.94.93,0,1.64-3.41.42-3.41,3.56,0,.48.08.58.08.8,0,.46-.37.93-.93.93Z" fill="#fcf8ef" stroke-width="0"/><path d="m225.8,466.3c-.83,0-1.01-.77-1.01-1.73,0-3.87,3.96-4.5,4.32-4.5.47,0,.95.36.95.93,0,1.63-3.41.43-3.41,3.57,0,.49.08.58.08.8,0,.55-.45.93-.93.93Z" fill="#fcf8ef" stroke-width="0"/><path d="m220.24,465.72c-.83,0-1.01-.76-1.01-1.73,0-3.87,3.97-4.5,4.32-4.5.47,0,.94.36.94.93,0,1.64-3.41.42-3.41,3.56,0,.48.08.58.08.8,0,.46-.37.93-.93.93Z" fill="#fcf8ef" stroke-width="0"/><path d="m160.6,489.21c-.8,0-.93-.76-.93-.92,0-1.07,1.13-4.06,4.48-4.06.17,0,1.33-.08,1.33.95,0,.35-.28.93-.91.93-.07,0-.16-.01-.36-.01-2.21,0-2.66,2.08-2.7,2.32-.07.46-.47.8-.92.8Z" fill="#fcf8ef" stroke-width="0"/><path d="m156.73,487.51c-.8,0-.93-.76-.93-.92,0-1.07,1.14-4.06,4.5-4.06.15,0,.3,0,.45.02.49.03.86.44.86.93,0,.36-.28.93-.93.93-.09,0-.15-.01-.35-.01-2.2,0-2.65,2.08-2.69,2.33-.07.46-.47.8-.92.8Z" fill="#fcf8ef" stroke-width="0"/><path d="m152.33,485.59c-.8,0-.93-.76-.93-.92,0-1.07,1.13-4.06,4.49-4.06.15,0,.3,0,.46.02.49.04.86.44.86.93,0,.66-.6.93-.96.93-.06,0-.14-.01-.33-.01-2.28,0-2.64,2.08-2.67,2.32-.07.46-.47.8-.92.8Z" fill="#fcf8ef" stroke-width="0"/><path d="m148.27,482.93c-.8,0-.93-.76-.93-.92,0-1.07,1.14-4.06,4.51-4.06.14,0,.29,0,.44.02.49.04.86.44.86.93,0,.35-.27.93-.9.93-.08,0-.16-.01-.36-.01-2.23,0-2.66,2.08-2.7,2.32-.07.46-.47.8-.92.8Z" fill="#fcf8ef" stroke-width="0"/><path d="m118.18,256.77c0-.05,27.15-14.81,27.15-14.81l-.83,10.08,4.97-1.78-.21,2.71s-12.16,5.17-12.16,15.5c0,1.07.18,1.67.18,1.67l-18.55,5.84s-1.05.77-1.87.77c-.51,0-.93-.31-.93-1.31,0-2.21,1.51-3.14,2.25-18.68Z" fill="#f6a65c" fill-rule="evenodd" stroke-width="0"/><path d="m132.77,224.03c5.14,0,14.02-1.54,14.02-1.54,0,0-16.97,4.81-18.21,5.05,0,0-.07-2.25-1.13-2.25-.28,0-.62.15-1.05.55l.29-22.55s4.7-2.29,5.76-3.82c0,0-1.41,2.88-2.88,4.4-.71.74-.97,4.81-.97,9.04,0,4.47.29,9.14.62,10.28.18.61,1.59.84,3.54.84Z" fill="#f6a65c" fill-rule="evenodd" stroke-width="0"/><path d="m179.36,246.9c-.11-1.1-.15-2.49-.15-4.04,0-8.38,1.33-21.71,1.33-21.71l2.47-.83s.22,8.25.57,13.29c.48,6.99,5.56,11.27,9.11,11.27,4.24,0,10.63-2.57,12.14-3.29,1.91-.91,7.53-14.83,7.53-14.83l-4.3,18.17s-21.36,6.45-22.73,6.45c-.97,0-5.68-1.63-5.97-4.48Z" fill="#f6a65c" fill-rule="evenodd" stroke-width="0"/><path d="m155.83,325.33c0-4.33.91-19.88.91-19.88l3.92-6.59s-1.6,3.57-2.11,7.61c-.12.93-.16,2.84-.16,5.22,0,7.95.5,21.17.5,21.17,0,0-3.06-7.24-3.06-7.54Z" fill="#2b2b2b" fill-rule="evenodd" stroke-width="0"/><path d="m137.28,446.02c-.13,0-.23-.1-.23-.23,0-.55-.07-49.24-.07-62.1,0-1.54,0-2.56,0-2.93.02-3.65,2.68-3.39,2.68-6.05,0-.76-.49-.96-1.49-.96-.74,0-1.64.12-2.48.12-1.99,0-2.94-.84-2.94-1.66,0-1.79,4.19-4.28,4.19-13.84,0-17.37-5.01-86.47-5.01-86.67,0-.13.11-.23.23-.23.5,0,5.25,72.14,5.25,86.92,0,9.77-4.19,12.24-4.19,13.8,0,.55.72,1.21,2.48,1.21.83,0,1.73-.12,2.49-.12,1.21,0,1.94.37,1.94,1.43,0,1.36-.7,2.16-1.33,2.83-1.6,1.7-1.36,2.33-1.36,6.15,0,12.85.07,61.54.07,62.09,0,.13-.1.23-.23.23h0Z" fill="#c9e8f1" stroke-width="0"/><path d="m197.66,434.98c-1.59,0-11.59-69.68-17.38-73.92l-.69-.5c-.93-.69-1.26-1.18-1.26-1.72,0-.88,1.38-2.89,1.38-4.87,0-5.46-12.92-46.71-12.92-46.91,0-.03.03-.23.23-.23.37,0,13.15,42.05,13.15,47.17,0,2.15-1.37,4.1-1.37,4.83,0,.42.28.78,1.07,1.36l.69.5c3.62,2.65,3.76,2.76,4.41,8.54.74,6.6,12.93,65.3,12.93,65.53,0,.14-.12.23-.23.23Z" fill="#c9e8f1" stroke-width="0"/><path d="m147.22,367.93s-.03.02-.03.05c0,.24.27.5.27,2.18,0,2.12-.45,5.1-1.04,6.71,0,0,1.31-.92,1.93-2.25l.44,3.8s.73-1.7,1.07-3.36l1.34.74s.52-1.93.52-4.06c0-.26,0-.51-.02-.77l-1.04,1.17-.81-4.6s-.18,2.33-.56,3.59c0,0-1.82-3.18-2.07-3.18Z" fill="#c9e8f1" fill-rule="evenodd" stroke-width="0"/><path d="m189.07,355.14s.01-.03.04-.03c.07,0,.25.09.58.31,3.21,2.16,3.6-.56,3.6,6.81,0,.78,0,1.32,0,1.32l-1.43-2.92-1.34,2.34s.53-1.18.53-2.41c0-2.58-2.73-3.13-3.04-3.13-.13,0-.2.02-.2.02l3.04-.3s-1.77-1.74-1.77-2Z" fill="#c9e8f1" fill-rule="evenodd" stroke-width="0"/><path d="m115.25,185.85s-.03-.03-.03-.11c0-.06,0-.15.03-.27.23-1.55.04-4.15,1.09-4.99,1.06-.83,3.97-1.62,3.97-1.62l-1.51,1.25,2.08-.26s-2.23.87-3.17,1.85c-.45.46-.56,1.33-.56,2.12,0,.88.15,1.66.15,1.66l-.91-2.15s-.93,2.53-1.12,2.53Z" fill="#fcf8ef" fill-rule="evenodd" stroke-width="0"/><path d="m111.81,251.43c-.38,0-.68.08-.68.34,0,.99,3.44,3.15,5.92,3.15,1.7,0,5.46-3.29,5.46-3.29l-2.97.98,2.47-3.21s-1.69,2.88-3.94,2.88c-.71,0-2.69-.39-2.69-2.73,0-.18.02-.3.02-.3l-.49,2.75-2-3.04.36,2.69s-.82-.22-1.44-.22Z" fill="#fcf8ef" fill-rule="evenodd" stroke-width="0"/><path d="m162.93,152.81c0-.49,0-.85-.03-.85-2.99-.66-7.55-2.92-7.55-2.92,0,0,3.84,6.15,7.55,6.42,0,0,.03-1.61.03-2.64Z" fill="#e27c6b" fill-rule="evenodd" stroke-width="0"/><path d="m161.4,137.33c-2.67,0-3.59.95-3.59,1.49,0,1.02,2.61,1.13,3.64,1.13,2.41,0,4.14-.63,4.14-1.21,0-1.06-1.63-1.4-4.19-1.4Z" fill="#e27c6b" fill-rule="evenodd" stroke-width="0"/><path d="m147.52,141.91c-.17,0-.46-.13-.46-.46,0-.06.02-.27.02-.65,0-1.6-.48-4.69-4.78-4.69-.54,0-.8.05-.86.05-.22,0-.46-.19-.46-.47,0-.23.16-.42.39-.46.04,0,.41-.06.95-.06.62,0,5.69-.04,5.69,5.61,0,.22,0,.45-.02.69-.02.25-.22.43-.46.43Z" fill="#e27c6b" stroke-width="0"/><path d="m143.04,141.38c-.23,0-.43-.17-.46-.41,0,0,0-.08,0-.22,0-3.36,3.28-4.3,3.62-4.3.35,0,.46.32.46.47,0,.2-.13.39-.34.45-2.6.74-2.81,2.71-2.81,3.33,0,.14,0,.18,0,.23,0,.08-.06.46-.47.46Z" fill="#e27c6b" stroke-width="0"/><path d="m153.53,222.22c.42,3.42,1.42,7.68,3.68,13.22l-4.21,2.67.53-15.89Z" fill="#e27c6b" fill-rule="evenodd" stroke-width="0"/><path d="m219.84,222.76l-2.47,15.36,4.02-1.94-1.55-13.42Z" fill="#e27c6b" fill-rule="evenodd" stroke-width="0"/><path d="m197.08,193.14c-.75,0-1.56.11-1.56.84,0,.01,0,.09,0,.23,0,1.49-.07,2.14-.07,2.25,0,.64.53.68,1.16.68.49,0,.84-.05,1.27-.05.06,0,.1,0,.1,0,.48,0,.48-1.23.48-3.09,0-.9-.27-.86-1.39-.86Z" fill="#2b2b2b" fill-rule="evenodd" stroke-width="0"/><path d="m233.39,206.38l.98,2.08,21.69-3.74-.25-1.96-22.41,3.62Z" fill="#fcf8ef" fill-rule="evenodd" stroke-width="0"/></g><g id="uuid-62e5e90f-90b8-456d-b61e-a74997c42fd1"><path d="m666.48,215.22l-24.75,3.53-2.78-33.68,25.28-2.55,2.25,32.71Z" fill="#e35b5b" fill-rule="evenodd" stroke-width="0"/><path d="m603.66,91.54c1.99,0,3.86,2.52,4.12,2.52.76,0,5.49-.26,10.94-.26,7.39,0,16.07.48,17.89,2.72,4.31,5.33,10.43,42.28,10.43,42.28l-8.87.15-.6-7.42-2.65,8.37s-5.38-.07-6.94-.49l.29-5.74-2.6,5.49-2.08-.79-21.51-13.5-8.45-2.33s6.08-25.19,7.79-29.15c.59-1.37,1.39-1.86,2.23-1.86Z" fill="#2b2b2b" fill-rule="evenodd" stroke-width="0"/><path d="m607.54,97.18c-1.4,0-5.66,13.92-5.66,25.61,0,.84.03,1.69.11,2.58.17,2.02,7.1,8.78,8.78,8.78l-2.47,6.53s0,7.57,2.77,15.15c0,0,10.88-6.73,13.52-10.52,0,0-1.19-2.83-1.19-6.62,0-4.83,3.24-13.4,3.24-13.4,0,0,.63.21,1.56.21,3.6,0,6.27-3.23,6.27-6.1,0-.6-.31-4-3.9-4-2.19,0-4.2,1.6-4.2,3.39,0,.1,0,.21.02.31l-6.17.04s-.91-2.44-1.48-5.06l-.8,6.48s-.56.03-1.4.03c-1.35,0-3.4-.09-4.91-.54,0,0-1.31-5.57-2.33-12.61-.99-6.81-1.54-10.26-1.76-10.26Z" fill="#f6a88a" fill-rule="evenodd" stroke-width="0"/><path d="m605.01,144.94c-.24,0-.49.05-.73.17-24.3,11.41-28.94,11.09-30.07,13.8-.81,1.96-13.18,45.41-13.18,45.41,0,0-1.23-1.38-2.32-1.38-.71,0-1.35.58-1.57,2.47l-18.52-5.12-1.68,22.66,37.18,8.09c.4,0,.73-.07,1.01-.22,1.5-.82,5.03-8.73,5.03-8.73,0,0,1.98,16.67,1.98,18.48s-.16,3.58-.16,5.04c0,1.86.27,3.15,1.48,3.15.02,0,.1,0,.33,0,35.67,0,62.05,1.66,62.05,1.66h0s1.05,0,1.05-.87c0-1.11-1.11-1.25-1.11-4.38,0-1.64.33-3.13.33-3.13,0,0,9.8-1.52,10.18-2.66.09-.29.15-.8.15-1.75,0-8.68-5.38-74.13-7.93-76.54-1.35-1.28-21.39-12.38-21.39-12.38l-15.63,5.69s-3.21-9.47-6.47-9.47Z" fill="#225081" fill-rule="evenodd" stroke-width="0"/><path d="m614.29,228.72s-3.22,1.11-5.27,1.21c-1.49.07-3.53.72-6.16.72-3.54,0-7.29-1.61-9.81-1.61-2.26,0-9.62,4.14-9.62,5.64s2.03,4.03,4.14,4.03c.12,0,.17,0,.36,0,1.93,0,2.91,1.18,6.17,3.15,3.19,1.92,8.45,4.6,10.21,4.6.67,0,17.65-6.38,17.65-6.38l-7.67-11.34Z" fill="#f6a88a" fill-rule="evenodd" stroke-width="0"/><path d="m532.76,200.44s-3.83-1.89-6.4-3.33c-4.97-2.79-13.63-12.96-13.63-12.96,0,0-1.66.7-1.66,2.11,0,1.6,4.19,6.03,4.19,8.09,0,.51-.28.82-1,.82-.27,0-.6-.04-1-.14-11.86-2.81-13.76-8.67-17.15-8.67-.65,0-1.04.36-1.04,1.12,0,2.6,3.66,4.8,3.66,6.4,0,.19-.05.24-.05.55,0,1.53,1.52,3.79,3.52,4.84,0,0,.12,3.03,3.17,4.23,3.05,1.2,5.3,1.88,5.3,1.88,0,0-3.35.03-5.89.66-1.81.46-2.86,2.39-2.86,3.45,0,.42.16.7.5.7,1.24,0,1.74-1.12,6.28-1.12,13.08,0,22.28,4.82,22.28,4.82l1.77-13.45Z" fill="#f6a88a" fill-rule="evenodd" stroke-width="0"/><path d="m624.13,144.07s-.91,1.81-4.62,4.98c-3.7,3.16-7.86,5.13-7.86,5.13l1.79,12.39s14.07-15.21,14.07-18.92c0-1.37-3.62-4.7-3.62-4.7l.25,1.12Z" fill="#fcf8ef" fill-rule="evenodd" stroke-width="0"/><path d="m608.28,140.77s1.41,9.84,3.41,13.59l-8.61,8.22s.91-13.07,1.15-16.92c.25-3.85,4.4-5.9,4.4-5.9l-.35,1.01Z" fill="#fcf8ef" fill-rule="evenodd" stroke-width="0"/><path d="m529.99,223.28l2.87-26.24,5.79,1.3s-.04,8.15-.93,16.03c-.77,6.89-.82,9.73-.82,10.33,0,.09,0,.13,0,.13l-6.92-1.54Z" fill="#fcf8ef" fill-rule="evenodd" stroke-width="0"/><path d="m680.45,427.93l5.93,1.82s-9.52,16.06-12.73,21.51c-3.2,5.45-6.71,11.38-6.71,11.38l-14.97,1.73-.81-3.32s2.24-5.1,6.82-5.38c4.58-.27,22.47-27.74,22.47-27.74Z" fill="#fcf8ef" fill-rule="evenodd" stroke-width="0"/><path d="m628.09,249.25l-17.94-26.39,9.53-1.45,16.06,25.05-7.64,2.79Z" fill="#fcf8ef" fill-rule="evenodd" stroke-width="0"/><path d="m660.45,418.86s.23-.17.65-.17c.63,0,1.69.37,3.03,2.24,2.24,3.11,16.4,6.93,16.4,6.93,0,0-7.19,11.28-10.34,17.84-3.14,6.56-7.73,11.77-7.73,11.77,0,0-2-1.83-4.09-1.83-.17,0-.34.01-.52.04,0,0,1.02-.71,1.02-3.53,0-5.81-4.3-15.22-4.3-15.22l5.87-18.08Z" fill="#f6c15c" fill-rule="evenodd" stroke-width="0"/><path d="m638.7,390.9s16,25.35,22.49,28.4c0,0,.85,1.53.85,4.13,0,3.25-1.32,8.17-7.28,13.88,0,0-2.49-3.78-9.39-11.65-6.9-7.87-15.62-18.9-15.62-18.9l8.96-15.86Z" fill="#2b2b2b" fill-rule="evenodd" stroke-width="0"/><path d="m590.3,248.69c-4.51,0-5.96.09-5.96.09,0,0-1.71,28.06-2.54,41.37-.74,11.82-4.02,27.97-4.02,32.87,0,2.31,1.75,2.83,1.75,4.1,0,1.45-3.16,3.48-3.16,5.56,0,1.86,5.01,2.39,12.48,23.95,4.13,11.91,19.62,36.21,19.62,36.21l.43,15.61,25.09.4,5.67-67.41c0-1.82-.23-2.9-.78-3.35-1.13-.92-1.99-2.18-1.99-3.05,0-1.81,2.9.07,2.9-3.08,0-1.69-.62-2.12-.62-4.07,0-3.3,5.5-76.72,5.5-77.52,0-.01,0-.02,0-.03,0,0-32.21-1.64-54.37-1.64Z" fill="#548492" fill-rule="evenodd" stroke-width="0"/><path d="m605.49,408.38l31.36.44-.23,7.42s-2.99-.12-8.86-.12c-13.43,0-22.56.7-22.56.7l.3-8.43Z" fill="#c9e8f1" fill-rule="evenodd" stroke-width="0"/><path d="m634.71,398.11s9.32-16.55,9.32-18.37c0-.41-7.46-5.33-7.46-5.33l-1.85,23.69Z" fill="#c9e8f1" fill-rule="evenodd" stroke-width="0"/><path d="m592.81,461.77c6.47,0,41.69,1.25,41.79,2.21.1.99.38,5.59.38,5.59,0,0-10.66.51-19.59,1.19-8.93.67-31.78,2.36-31.78,2.36,0,0-1.3-4.1-1.3-5.09,0-.61,4.95-6.26,10.49-6.26Z" fill="#fcf8ef" fill-rule="evenodd" stroke-width="0"/><path d="m631.78,442.99s.23-.06.53-.06c.53,0,1.27.2,1.27,1.3,0,1.63-.86,1.46-.86,5.26,0,5.58,1.86,14.49,1.86,14.49,0,0-12,.81-18.55,1.04-6.56.23-17.02,1.76-17.02,1.76,0,0-1.97-4.14-6.69-4.95,0,0,3.92-1.02,11.44-7.22,7.52-6.2,11.53-9.91,11.53-9.91l16.48-1.73Z" fill="#f6c15c" fill-rule="evenodd" stroke-width="0"/><path d="m628.07,416.07c2.63,0,3.79.05,3.79.05,0,0,.06,2.74.06,6.23,0,6.73-.19,6.94-.19,12.83,0,4.39.12,8.08.12,8.19,0,2.02-5.82,7.3-9.42,7.3-1.32,0-7.36-1.45-7.36-6.17,0-2.19.42-8.86.42-12.98,0-7.12-.95-15.2-.95-15.2,0,0,8.62-.24,13.52-.24Z" fill="#2b2b2b" fill-rule="evenodd" stroke-width="0"/><path d="m602.22,462.87c-1.25,0-1.01-2.55-4.49-2.55-.72,0-.93.11-1.15.11-.56,0-.92-.47-.92-.93,0-.79.7-1.04,2.04-1.04,3.4,0,5.45,2.52,5.45,3.48,0,.54-.44.93-.93.93Z" fill="#fcf8ef" stroke-width="0"/><path d="m606.2,459.21c-1.25,0-1.01-2.55-4.49-2.55-.73,0-.92.11-1.15.11-.56,0-.92-.46-.92-.93,0-.79.71-1.04,2.04-1.04,3.41,0,5.45,2.52,5.45,3.48,0,.54-.44.93-.93.93Z" fill="#fcf8ef" stroke-width="0"/><path d="m610.23,455.74c-1.25,0-1.01-2.55-4.49-2.55-.72,0-.93.11-1.15.11-.46,0-.93-.37-.93-.93,0-.79.7-1.04,2.04-1.04,3.4,0,5.45,2.52,5.45,3.48,0,.54-.44.93-.93.93Z" fill="#fcf8ef" stroke-width="0"/><path d="m614.68,452.51c-1.26,0-1.01-2.55-4.49-2.55-.72,0-.92.11-1.15.11-.56,0-.93-.47-.93-.93,0-.81.75-1.04,2.04-1.04,3.4,0,5.45,2.52,5.45,3.48,0,.55-.45.93-.93.93Z" fill="#fcf8ef" stroke-width="0"/><path d="m658.52,454.75c-.48,0-.93-.38-.93-.93,0-.88,1.88-2.9,4.13-2.9.68,0,2.11.11,2.11,1.13,0,.52-.42.93-.93.93-.32,0-.54-.19-1.18-.19-1.49,0-2.3,1.32-2.4,1.5-.17.3-.49.47-.81.47Z" fill="#fcf8ef" stroke-width="0"/><path d="m658.02,450.84c-.47,0-.93-.38-.93-.93,0-.88,1.88-2.91,4.13-2.91.68,0,2.11.11,2.11,1.13,0,.1-.01.19-.05.29-.13.39-.49.64-.88.64-.32,0-.54-.19-1.18-.19-1.49,0-2.3,1.32-2.4,1.5-.17.3-.49.47-.81.47Z" fill="#fcf8ef" stroke-width="0"/><path d="m657.35,446.84c-.48,0-.93-.38-.93-.93,0-.88,1.88-2.9,4.13-2.9.68,0,2.11.11,2.11,1.13,0,.1-.01.19-.05.29-.13.39-.49.64-.88.64-.32,0-.54-.19-1.18-.19-1.49,0-2.3,1.32-2.4,1.5-.17.3-.49.47-.81.47Z" fill="#fcf8ef" stroke-width="0"/><path d="m656.32,442.86c-.48,0-.93-.38-.93-.93,0-.89,1.89-2.9,4.14-2.9.68,0,2.1.1,2.1,1.12,0,.1-.01.19-.05.29-.13.39-.49.64-.88.64-.32,0-.53-.19-1.17-.19-1.55,0-2.36,1.42-2.4,1.49-.17.31-.49.48-.81.48Z" fill="#fcf8ef" stroke-width="0"/><path d="m608.51,392.76l1.43-32.17,1.72-79.5-7.75-14.59s4.73,13.28,4.73,19.33c0,2.01-6.3,42.73-6.3,42.73l2.79,58.95s3.32,5.24,3.38,5.24Z" fill="#335c68" fill-rule="evenodd" stroke-width="0"/><path d="m621.99,408.22h-.01c-.12,0-.22-.11-.22-.23,0-.19,3.65-58.9,4.17-64.36.58-6.08,2.94-2.59,2.94-7.77,0-1.23-.45-1.34-.87-1.34-.66,0-1.53.38-2.34.38-1.25,0-1.74-1-1.74-2.63,0-1.38.5-2.44,1.1-3.73,4.03-8.62,2.69-79.34,3.92-79.34.13,0,.23.1.23.23,0,.19-1.38,60.19-1.53,69.62-.13,8.45-3.25,9.9-3.25,13.21,0,1.83.6,2.17,1.28,2.17.73,0,1.62-.38,2.34-.38,1.03,0,1.33.78,1.33,1.81,0,2.93-1.04,3.62-1.44,3.93-2.9,2.21-4.93,68.42-5.9,68.42Z" fill="#c9e8f1" stroke-width="0"/><path d="m604.34,363.06c-.27,0-8.92-23.7-8.92-27.08,0-1.65.87-1.44.87-2.48,0-.2-.03-.45-.1-.77-.17-.82-.52-.99-1-.99-.33,0-.72.08-1.11.08-.22,0-1.6.08-1.6-2.35,0-.99.42-1.56.89-2.19,2.59-3.48,8.78-50.97,9.57-50.97.12,0,.24.09.24.23,0,.18-7.36,44.76-7.92,47.71-.62,3.24-2.31,3.43-2.31,5.21,0,1.98.95,1.9,1.13,1.9.34,0,.76-.09,1.12-.09,1.5,0,1.55,1.81,1.55,2.23,0,1.35-.87.95-.87,2.5,0,3.5,8.69,26.39,8.69,26.83,0,.13-.1.23-.23.23Z" fill="#c9e8f1" stroke-width="0"/><path d="m646.11,242.07h0s0,0,0,0c-.19,0-11.79,2.21-11.79,2.21l1.4,2.15-5.69,2.16.82.53,6.93-2.32.18-1.48,7.84-.99s.03-.94.3-2.26Z" fill="#2b2b2b" fill-rule="evenodd" stroke-width="0"/><path d="m580.28,222.19c0-1.59-1.13-13.02-1.13-13.02l-2,18.88s3.12-5.48,3.12-5.86Z" fill="#2b2b2b" fill-rule="evenodd" stroke-width="0"/><path d="m634.23,218.25l-24.76,3.53-2.77-33.68,25.28-2.55,2.25,32.71Z" fill="#e35b5b" fill-rule="evenodd" stroke-width="0"/><path d="m610.75,134.18c3.43-.11,5.79-2.53,5.79-2.53,0,0-1.92,4.7-6.97,5.64,0,0,1.15-3.11,1.18-3.11Z" fill="#e27c6b" fill-rule="evenodd" stroke-width="0"/><path d="m618.91,122.79c0-1.11-2.2-1.73-4.2-1.73-1.1,0-3.19.26-3.19,1.34,0,.96,2.41,1.6,4.47,1.6,2.23,0,2.91-.64,2.91-1.2Z" fill="#e27c6b" fill-rule="evenodd" stroke-width="0"/><path d="m605.12,121.22c0-.92-1.76-1.45-3.36-1.45-.91,0-2.55.22-2.55,1.12,0,.8,1.93,1.33,3.58,1.33.84,0,2.33-.16,2.33-1.01Z" fill="#e27c6b" fill-rule="evenodd" stroke-width="0"/><path d="m627.82,123.32c-.21,0-.4-.14-.45-.35-.01-.05-.16-.67-.16-1.49,0-.63-.03-4.59,4.91-4.59.08,0,.17,0,.25,0,.25,0,.45.21.45.46s-.21.47-.47.47c-.02,0-.05,0-.07,0-.06,0-.12,0-.18,0-4.1,0-3.97,3.13-3.97,3.66,0,.8.15,1.26.15,1.38,0,.28-.24.46-.46.46Z" fill="#e27c6b" stroke-width="0"/><path d="m631,121.13c-.23,0-.43-.17-.46-.4-.26-2.06-2.45-1.07-2.45-2.04,0-.42.39-.46.49-.46,2.27.14,2.88,1.72,2.88,2.44,0,.08-.06.46-.47.46Z" fill="#e27c6b" stroke-width="0"/><path d="m532.48,200.38s0,0,0,0c-.21,0-1.29,6.55-4.06,12.45,0,0,1.9.74,2.59,1.09,0,0,1.47-13.48,1.47-13.53Z" fill="#e27c6b" fill-rule="evenodd" stroke-width="0"/><path d="m613.73,228.91s1.25,1.66,2.72,5.44c1.48,3.78,2.16,7,2.16,7l3.28-1.25s-2.53-3.68-4.78-7.07c-2.25-3.39-2.94-4.28-2.94-4.28l-.44.16Z" fill="#e27c6b" fill-rule="evenodd" stroke-width="0"/><path d="m574.92,163.41s-.03-.02-.03-.07c0-.06.7-3.73,1.43-4.34.68-.57,3.12-1.4,3.12-1.4l-.99,1.07,1.31.23s-1.51.35-2.16.9c-.23.19-.3.54-.3.91,0,.7.26,1.48.26,1.48l-.69-.95-.45,2.62-.52-1.95s-.81,1.5-.98,1.5Z" fill="#c79464" fill-rule="evenodd" stroke-width="0"/><path d="m576.09,227.7s-.32,2.44-1.98,2.44c-1.32,0-3.33-.66-3.33-.66l2.55-.15-2.03-1.47s1.4.88,2.49.88c.71,0,2.3-1.04,2.3-1.04Z" fill="#c79464" fill-rule="evenodd" stroke-width="0"/><path d="m655.67,237.59s.17.61.17,1.11c0,.22-.03.42-.13.52-.32.34-1.39.71-1.39.71l.36-.47-1.21.08s1.73-.18,1.73-1.2c0-.36-.3-.58-.3-.58l.63.39.14-.55Z" fill="#c79464" fill-rule="evenodd" stroke-width="0"/><path d="m644.14,160.3s2.69.86,3.34,1.46c.57.52.6,2.29.6,2.69,0,.05,0,.08,0,.08l-.98-1.84-.06,2.26s0-.01,0-.04c0-2.42-.77-3.15-2.03-3.15-.73,0-1.4.26-1.4.26l1.33-.82-.8-.91Z" fill="#c79464" fill-rule="evenodd" stroke-width="0"/><path d="m614.02,331.01l-.57,7.46,1.29-1.9.31,4.63.72-3.91,1.23-6.74-1.65,3.04-1.34-2.57Z" fill="#c9e8f1" fill-rule="evenodd" stroke-width="0"/><path d="m581.17,323.99s.9,1.57.9,2.83c0,1.38-2.35,3.53-2.35,4.64,0,.52,2.74,2.54,2.74,2.54l-.95-2.44,2.93.53s-1.64-1.47-1.64-2.45c0-.15.04-.28.12-.4.65-.91,1.83-4.22,1.83-4.22l-1.41,1.33-2.17-2.36Z" fill="#c9e8f1" fill-rule="evenodd" stroke-width="0"/><path d="m590.18,231.47c-.17,0-.33-.09-.41-.25-5.81-11.26-11.73-18.03-11.73-18.31,0-.13.1-.46.46-.46,1.39,0,12.15,17.64,12.15,18.55,0,.24-.19.47-.46.47Z" fill="#498851" stroke-width="0"/><path d="m588.91,231.97c-.12,0-.23-.04-.32-.13-7.61-7.4-14.92-8.67-14.92-9.55,0-.25.21-.46.47-.46,2.88,0,15.24,8.56,15.24,9.68,0,.17-.13.46-.46.46Z" fill="#498851" stroke-width="0"/><path d="m577.52,213.58s2.38,6.78,4.66,6.78c1.13,0,2.24-1.04,2.24-2.28,0-2.34-5.41-5.51-5.41-5.51l-1.49,1.01Z" fill="#f6c15c" fill-rule="evenodd" stroke-width="0"/><path d="m578.88,210.78s3.61-1.89,5.7-1.89c1.24,0,1.49.63,1.49,1.62,0,1.74-1.56,2.32-3.22,2.32s-3.9-.34-3.9-.34l-.07-1.71Z" fill="#f6c15c" fill-rule="evenodd" stroke-width="0"/><path d="m577.14,209.81s.35-2.44.97-4.33c.47-1.42,1.6-2.04,2.57-2.04.85,0,1.62.47,1.62,1.38,0,.57-.29,1.27-.84,2.04-1.06,1.47-2.58,3.74-2.58,3.74l-1.73-.79Z" fill="#f6c15c" fill-rule="evenodd" stroke-width="0"/><path d="m575.69,211.02l1.36-1.25s-2.25-5.2-4.39-5.2c-.95,0-1.82.69-1.82,1.72,0,.51.22,1.11.75,1.75,2.12,2.55,4.11,2.98,4.11,2.98Z" fill="#f6c15c" fill-rule="evenodd" stroke-width="0"/><path d="m575.91,212.59l-.29-1.52s-.47-.02-1.14-.02c-.42,0-5.09-.23-5.09,2.23,0,.08,0,.16.03.23.14.61.7,1.16,1.52,1.16.31,0,.66-.08,1.04-.27,1.39-.68,3.92-1.82,3.92-1.82Z" fill="#f6c15c" fill-rule="evenodd" stroke-width="0"/><path d="m577.54,213.57l-1.57-.78s-3.55,4.09-3.55,6.32c0,1.31,1.3,1.6,1.67,1.6,2.71,0,3.44-7.14,3.44-7.14Z" fill="#f6c15c" fill-rule="evenodd" stroke-width="0"/><path d="m575.36,211.72c0-1.11.89-2,1.99-2s2,.89,2,2-.89,2-2,2-1.99-.9-1.99-2Z" fill="#e35b5b" fill-rule="evenodd" stroke-width="0"/><path d="m574.62,224.07s2.38,6.78,4.66,6.78c1.13,0,2.24-1.04,2.24-2.28,0-2.34-5.41-5.52-5.41-5.52l-1.49,1.01Z" fill="#f6c15c" fill-rule="evenodd" stroke-width="0"/><path d="m575.98,221.27s3.62-1.89,5.7-1.89c1.24,0,1.49.63,1.49,1.62,0,1.74-1.56,2.32-3.22,2.32s-3.9-.34-3.9-.34l-.07-1.71Z" fill="#f6c15c" fill-rule="evenodd" stroke-width="0"/><path d="m574.24,220.3s.35-2.44.97-4.33c.47-1.42,1.6-2.04,2.57-2.04.85,0,1.62.47,1.62,1.38,0,.57-.29,1.27-.84,2.04-1.06,1.47-2.59,3.74-2.59,3.74l-1.74-.79Z" fill="#f6c15c" fill-rule="evenodd" stroke-width="0"/><path d="m572.79,221.51l1.36-1.25s-2.25-5.2-4.39-5.2c-.95,0-1.82.69-1.82,1.72,0,.51.22,1.11.75,1.75,2.12,2.55,4.1,2.98,4.1,2.98Z" fill="#f6c15c" fill-rule="evenodd" stroke-width="0"/><path d="m573.01,223.07l-.29-1.52s-.47-.02-1.14-.02c-.42,0-5.09-.23-5.09,2.23,0,.08,0,.16.03.23.14.61.7,1.16,1.52,1.16.31,0,.66-.08,1.04-.27,1.39-.68,3.92-1.82,3.92-1.82Z" fill="#f6c15c" fill-rule="evenodd" stroke-width="0"/><path d="m574.64,224.06l-1.57-.78s-3.55,4.09-3.55,6.32c0,1.31,1.3,1.6,1.67,1.6,2.71,0,3.44-7.14,3.44-7.14Z" fill="#f6c15c" fill-rule="evenodd" stroke-width="0"/><path d="m572.46,222.2c0-1.11.89-2,2-2s2,.89,2,2-.89,2-2,2-2-.9-2-2Z" fill="#e35b5b" fill-rule="evenodd" stroke-width="0"/></g></g></svg>