<?xml version="1.0" encoding="UTF-8"?><svg xmlns="http://www.w3.org/2000/svg" xmlns:xlink="http://www.w3.org/1999/xlink" viewBox="0 0 522.88 498.64"><defs><clipPath id="uuid-4e89f9f2-aa4e-4073-9720-20b89e3c4173"><circle cx="249.32" cy="249.32" r="234.32" transform="translate(-103.27 249.32) rotate(-45)" fill="none" stroke-width="0"/></clipPath><linearGradient id="uuid-ea2ee110-818c-4f79-a1df-1af3f37db483" x1="249.32" y1="359.38" x2="249.32" y2="91.4" gradientUnits="userSpaceOnUse"><stop offset="0" stop-color="#cfcfca"/><stop offset=".4" stop-color="#dbdbd4"/><stop offset="1" stop-color="#f5f5eb"/></linearGradient><linearGradient id="uuid-bdbc4e66-cd20-4fa7-8342-ce07359594d7" x1="249.32" y1="340.49" x2="249.32" y2="107.49" gradientUnits="userSpaceOnUse"><stop offset="0" stop-color="#ecece6"/><stop offset=".7" stop-color="#f8f8ef"/><stop offset="1" stop-color="#fffff5"/></linearGradient><linearGradient id="uuid-3b4fbb25-8528-43e7-a4b0-8b08bd7aabc6" x1="249.32" y1="332.43" x2="249.32" y2="126.06" gradientUnits="userSpaceOnUse"><stop offset="0" stop-color="#ccc3a7"/><stop offset=".23" stop-color="#d9d3b7"/><stop offset=".72" stop-color="#f1f0d6"/><stop offset="1" stop-color="#fbfbe2"/></linearGradient><linearGradient id="uuid-02b2c941-d47c-4484-b24e-bb4f39bd54e1" x1="249.32" y1="711.35" x2="249.32" y2="166.91" gradientUnits="userSpaceOnUse"><stop offset="0" stop-color="#d5d5d0"/><stop offset=".12" stop-color="#e0e0d9"/><stop offset=".34" stop-color="#efefe6"/><stop offset=".61" stop-color="#f8f8ee"/><stop offset="1" stop-color="#fbfbf1"/></linearGradient><linearGradient id="uuid-5c5bb2d9-e045-4326-abb1-d818001dcb3a" x1="248.62" y1="74.83" x2="248.62" y2="359.88" gradientUnits="userSpaceOnUse"><stop offset="0" stop-color="#d5d5d0"/><stop offset=".4" stop-color="#e1e1da"/><stop offset="1" stop-color="#fbfbf1"/></linearGradient><linearGradient id="uuid-92ebc65c-8cdd-4feb-8460-5cd53d6bfc37" x1="248.75" y1="75.47" x2="248.75" y2="360.51" gradientUnits="userSpaceOnUse"><stop offset="0" stop-color="#d0d0cc"/><stop offset=".43" stop-color="#dcdcd6"/><stop offset="1" stop-color="#f3f3ea"/></linearGradient><linearGradient id="uuid-f4940df0-4b87-431d-9ee7-5d1c54867af1" x1="248.88" y1="76.1" x2="248.88" y2="361.15" gradientUnits="userSpaceOnUse"><stop offset="0" stop-color="#ccccc8"/><stop offset=".48" stop-color="#d8d8d2"/><stop offset="1" stop-color="#ebebe3"/></linearGradient><linearGradient id="uuid-869aef7e-f1d8-4ca4-a6d1-9285e41c0f33" x1="249" y1="76.73" x2="249" y2="361.78" gradientUnits="userSpaceOnUse"><stop offset="0" stop-color="#c7c7c4"/><stop offset=".51" stop-color="#d2d3ce"/><stop offset="1" stop-color="#e2e3dc"/></linearGradient><linearGradient id="uuid-3a76b319-6eb9-4847-befb-e92f50450eee" x1="249.13" y1="77.37" x2="249.13" y2="362.41" gradientUnits="userSpaceOnUse"><stop offset="0" stop-color="#c2c3c1"/><stop offset=".58" stop-color="#cecfcb"/><stop offset="1" stop-color="#dadbd6"/></linearGradient><linearGradient id="uuid-552815f1-e27e-4583-89f6-3370aa002842" x1="249.26" y1="78" x2="249.26" y2="363.05" gradientUnits="userSpaceOnUse"><stop offset="0" stop-color="#bdbebd"/><stop offset=".65" stop-color="#c9cac7"/><stop offset="1" stop-color="#d2d3cf"/></linearGradient><linearGradient id="uuid-88e09288-2f06-46f6-9071-795b7da63dbe" x1="249.38" y1="78.64" x2="249.38" y2="363.68" gradientUnits="userSpaceOnUse"><stop offset="0" stop-color="#b9bab9"/><stop offset=".77" stop-color="#c5c6c3"/><stop offset="1" stop-color="#cacbc8"/></linearGradient><linearGradient id="uuid-11d2d992-d2a0-47d5-901f-fafbb87fe0c7" x1="249.51" y1="79.27" x2="249.51" y2="364.32" gradientUnits="userSpaceOnUse"><stop offset="0" stop-color="#b4b5b5"/><stop offset=".9" stop-color="#c0c1bf"/><stop offset="1" stop-color="#c2c3c1"/></linearGradient><linearGradient id="uuid-69849d5b-3921-4d90-8474-d463c2c0d87e" x1="249.64" y1="79.9" x2="249.64" y2="364.95" gradientUnits="userSpaceOnUse"><stop offset="0" stop-color="#afb1b1"/><stop offset="1" stop-color="#babbba"/></linearGradient><linearGradient id="uuid-196ced08-33e8-45a0-bd64-1749a510b2b0" x1="249.77" y1="80.54" x2="249.77" y2="365.58" gradientUnits="userSpaceOnUse"><stop offset="0" stop-color="#aaacad"/><stop offset="1" stop-color="#b1b3b3"/></linearGradient><linearGradient id="uuid-64484d7e-2824-4e90-a98f-a5156740ed3a" x1="249.89" y1="81.17" x2="249.89" y2="366.22" gradientUnits="userSpaceOnUse"><stop offset="0" stop-color="#a6a8aa"/><stop offset="1" stop-color="#a9abad"/></linearGradient><linearGradient id="uuid-01f9c1a2-a373-43a0-98da-fb448bb907fd" x1="239.18" y1="-320.03" x2="239.18" y2="-33.26" gradientTransform="translate(10.14 311.53) scale(1 -1)" xlink:href="#uuid-5c5bb2d9-e045-4326-abb1-d818001dcb3a"/></defs><g isolation="isolate"><g id="uuid-5ffe9672-ceea-41d3-9ac4-d6bc7018b0ec"><circle cx="249.32" cy="249.32" r="249.32" transform="translate(-103.27 249.32) rotate(-45)" fill="#668ec4" stroke-width="0"/><circle cx="249.32" cy="249.32" r="234.32" transform="translate(-103.27 249.32) rotate(-45)" fill="#85b8ff" stroke-width="0"/><g clip-path="url(#uuid-4e89f9f2-aa4e-4073-9720-20b89e3c4173)"><g mix-blend-mode="multiply"><path d="m509.94,258.04c-12.95-10.13-127.76-82.17-132.83-84.99-4.22-2.34-11.7-6.15-17.16-6.15s-12.95,3.81-17.16,6.15c-5.07,2.81-119.88,74.85-132.83,84.99-12.95,10.13-12.95,23.08-12.95,23.08v208h325.87v-208h0s0-12.95-12.94-23.08Z" fill="#fff" opacity="0" stroke-width="0"/><path d="m508.57,256.63c-12.95-10.13-127.76-82.17-132.83-84.99-4.22-2.34-11.7-6.15-17.16-6.15s-12.95,3.81-17.16,6.15c-5.07,2.81-119.88,74.85-132.83,84.99-12.95,10.13-12.95,23.08-12.95,23.08v208h325.87v-208h0s0-12.95-12.94-23.08Z" fill="#fefefe" opacity=".01" stroke-width="0"/><path d="m507.21,255.22c-12.95-10.13-127.76-82.17-132.83-84.99-4.22-2.34-11.7-6.15-17.16-6.15s-12.95,3.81-17.16,6.15c-5.07,2.81-119.88,74.85-132.83,84.99-12.95,10.13-12.95,23.08-12.95,23.08v208h325.87v-208h0s0-12.95-12.94-23.08Z" fill="#fefefe" opacity=".02" stroke-width="0"/><path d="m505.84,253.81c-12.95-10.13-127.76-82.17-132.83-84.99-4.22-2.34-11.7-6.15-17.16-6.15s-12.95,3.81-17.16,6.15c-5.07,2.81-119.88,74.85-132.83,84.99-12.95,10.13-12.95,23.08-12.95,23.08v208h325.87v-208h0s0-12.95-12.94-23.08Z" fill="#fdfdfd" opacity=".04" stroke-width="0"/><path d="m504.48,252.4c-12.95-10.13-127.76-82.17-132.83-84.99-4.22-2.34-11.7-6.15-17.16-6.15s-12.95,3.81-17.16,6.15c-5.07,2.81-119.88,74.85-132.83,84.99-12.95,10.13-12.95,23.08-12.95,23.08v208h325.87v-208h0s0-12.95-12.94-23.08Z" fill="#fcfcfc" opacity=".05" stroke-width="0"/><path d="m503.11,250.99c-12.95-10.13-127.76-82.17-132.83-84.99-4.22-2.34-11.7-6.15-17.16-6.15s-12.95,3.81-17.16,6.15c-5.07,2.81-119.88,74.85-132.83,84.99-12.95,10.13-12.95,23.08-12.95,23.08v208h325.87v-208h0s0-12.95-12.94-23.08Z" fill="#fcfcfc" opacity=".06" stroke-width="0"/><path d="m501.75,249.58c-12.95-10.13-127.76-82.17-132.83-84.99-4.22-2.34-11.7-6.15-17.16-6.15s-12.95,3.81-17.16,6.15c-5.07,2.81-119.88,74.85-132.83,84.99-12.95,10.13-12.95,23.08-12.95,23.08v208h325.87v-208h0s0-12.95-12.94-23.08Z" fill="#fbfbfb" opacity=".07" stroke-width="0"/><path d="m500.38,248.17c-12.95-10.13-127.76-82.17-132.83-84.99-4.22-2.34-11.7-6.15-17.16-6.15s-12.95,3.81-17.16,6.15c-5.07,2.81-119.88,74.85-132.83,84.99-12.95,10.13-12.95,23.08-12.95,23.08v208h325.87v-208h0s0-12.95-12.94-23.08Z" fill="#fbfbfb" opacity=".09" stroke-width="0"/><path d="m499.01,246.76c-12.95-10.13-127.76-82.17-132.83-84.99-4.22-2.34-11.7-6.15-17.16-6.15s-12.95,3.81-17.16,6.15c-5.07,2.81-119.88,74.85-132.83,84.99-12.95,10.13-12.95,23.08-12.95,23.08v208h325.87v-208h0s0-12.95-12.94-23.08Z" fill="#fafafa" opacity=".1" stroke-width="0"/><path d="m497.65,245.35c-12.95-10.13-127.76-82.17-132.83-84.99-4.22-2.34-11.7-6.15-17.16-6.15s-12.95,3.81-17.16,6.15c-5.07,2.81-119.88,74.85-132.83,84.99-12.95,10.13-12.95,23.08-12.95,23.08v208h325.87v-208h0s0-12.95-12.94-23.08Z" fill="#f9f9f9" opacity=".11" stroke-width="0"/><path d="m496.28,243.94c-12.95-10.13-127.76-82.17-132.83-84.99-4.22-2.34-11.7-6.15-17.16-6.15s-12.95,3.81-17.16,6.15c-5.07,2.81-119.88,74.85-132.83,84.99-12.95,10.13-12.95,23.08-12.95,23.08v208h325.87v-208h0s0-12.95-12.94-23.08Z" fill="#f9f9f9" opacity=".12" stroke-width="0"/><path d="m494.92,242.54c-12.95-10.13-127.76-82.17-132.83-84.99-4.22-2.34-11.7-6.15-17.16-6.15s-12.95,3.81-17.16,6.15c-5.07,2.81-119.88,74.85-132.83,84.99-12.95,10.13-12.95,23.08-12.95,23.08v208h325.87v-208h0s0-12.95-12.94-23.08Z" fill="#f8f8f8" opacity=".14" stroke-width="0"/><path d="m493.55,241.13c-12.95-10.13-127.76-82.17-132.83-84.99-4.22-2.34-11.7-6.15-17.16-6.15s-12.95,3.81-17.16,6.15c-5.07,2.81-119.88,74.85-132.83,84.99-12.95,10.13-12.95,23.08-12.95,23.08v208h325.87v-208h0s0-12.95-12.94-23.08Z" fill="#f7f7f7" opacity=".15" stroke-width="0"/><path d="m492.19,239.72c-12.95-10.13-127.76-82.17-132.83-84.99-4.22-2.34-11.7-6.15-17.16-6.15s-12.95,3.81-17.16,6.15c-5.07,2.81-119.88,74.85-132.83,84.99-12.95,10.13-12.95,23.08-12.95,23.08v208h325.87v-208h0s0-12.95-12.94-23.08Z" fill="#f7f7f7" opacity=".16" stroke-width="0"/><path d="m490.82,238.31c-12.95-10.13-127.76-82.17-132.83-84.99-4.22-2.34-11.7-6.15-17.16-6.15s-12.95,3.81-17.16,6.15c-5.07,2.81-119.88,74.85-132.83,84.99-12.95,10.13-12.95,23.08-12.95,23.08v208h325.87v-208h0s0-12.95-12.94-23.08Z" fill="#f6f6f6" opacity=".17" stroke-width="0"/><path d="m489.45,236.9c-12.95-10.13-127.76-82.17-132.83-84.99-4.22-2.34-11.7-6.15-17.16-6.15s-12.95,3.81-17.16,6.15c-5.07,2.81-119.88,74.85-132.83,84.99-12.95,10.13-12.95,23.08-12.95,23.08v208h325.87v-208h0s0-12.95-12.94-23.08Z" fill="#f6f6f6" opacity=".19" stroke-width="0"/><path d="m488.09,235.49c-12.95-10.13-127.76-82.17-132.83-84.99-4.22-2.34-11.7-6.15-17.16-6.15s-12.95,3.81-17.16,6.15c-5.07,2.81-119.88,74.85-132.83,84.99-12.95,10.13-12.95,23.08-12.95,23.08v208h325.87v-208h0s0-12.95-12.94-23.08Z" fill="#f5f5f5" opacity=".2" stroke-width="0"/><path d="m486.72,234.08c-12.95-10.13-127.76-82.17-132.83-84.99-4.22-2.34-11.7-6.15-17.16-6.15s-12.95,3.81-17.16,6.15c-5.07,2.81-119.88,74.85-132.83,84.99-12.95,10.13-12.95,23.08-12.95,23.08v208h325.87v-208h0s0-12.95-12.94-23.08Z" fill="#f4f4f4" opacity=".21" stroke-width="0"/><path d="m485.36,232.67c-12.95-10.13-127.76-82.17-132.83-84.99-4.22-2.34-11.7-6.15-17.16-6.15s-12.95,3.81-17.16,6.15c-5.07,2.81-119.88,74.85-132.83,84.99-12.95,10.13-12.95,23.08-12.95,23.08v208h325.87v-208h0s0-12.95-12.94-23.08Z" fill="#f4f4f4" opacity=".22" stroke-width="0"/><path d="m483.99,231.26c-12.95-10.13-127.76-82.17-132.83-84.99-4.22-2.34-11.7-6.15-17.16-6.15s-12.95,3.81-17.16,6.15c-5.07,2.81-119.88,74.85-132.83,84.99-12.95,10.13-12.95,23.08-12.95,23.08v208h325.87v-208h0s0-12.95-12.94-23.08Z" fill="#f3f3f3" opacity=".23" stroke-width="0"/><path d="m482.63,229.85c-12.95-10.13-127.76-82.17-132.83-84.99-4.22-2.34-11.7-6.15-17.16-6.15s-12.95,3.81-17.16,6.15c-5.07,2.81-119.88,74.85-132.83,84.99-12.95,10.13-12.95,23.08-12.95,23.08v208h325.87v-208h0s0-12.95-12.94-23.08Z" fill="#f2f2f2" opacity=".25" stroke-width="0"/><path d="m481.26,228.44c-12.95-10.13-127.76-82.17-132.83-84.99-4.22-2.34-11.7-6.15-17.16-6.15s-12.95,3.81-17.16,6.15c-5.07,2.81-119.88,74.85-132.83,84.99-12.95,10.13-12.95,23.08-12.95,23.08v208h325.87v-208h0s0-12.95-12.94-23.08Z" fill="#f2f2f2" opacity=".26" stroke-width="0"/><path d="m479.89,227.03c-12.95-10.13-127.76-82.17-132.83-84.99-4.22-2.34-11.7-6.15-17.16-6.15s-12.95,3.81-17.16,6.15c-5.07,2.81-119.88,74.85-132.83,84.99-12.95,10.13-12.95,23.08-12.95,23.08v208h325.87v-208h0s0-12.95-12.94-23.08Z" fill="#f1f1f1" opacity=".27" stroke-width="0"/><path d="m478.53,225.62c-12.95-10.13-127.76-82.17-132.83-84.99-4.22-2.34-11.7-6.15-17.16-6.15s-12.95,3.81-17.16,6.15c-5.07,2.81-119.88,74.85-132.83,84.99-12.95,10.13-12.95,23.08-12.95,23.08v208h325.87v-208h0s0-12.95-12.94-23.08Z" fill="#f1f1f1" opacity=".28" stroke-width="0"/><path d="m477.16,224.21c-12.95-10.13-127.76-82.17-132.83-84.99-4.22-2.34-11.7-6.15-17.16-6.15s-12.95,3.81-17.16,6.15c-5.07,2.81-119.88,74.85-132.83,84.99-12.95,10.13-12.95,23.08-12.95,23.08v208h325.87v-208h0s0-12.95-12.94-23.08Z" fill="#f0f0f0" opacity=".3" stroke-width="0"/><path d="m475.8,222.8c-12.95-10.13-127.76-82.17-132.83-84.99-4.22-2.34-11.7-6.15-17.16-6.15s-12.95,3.81-17.16,6.15c-5.07,2.81-119.88,74.85-132.83,84.99-12.95,10.13-12.95,23.08-12.95,23.08v208h325.87v-208h0s0-12.95-12.94-23.08Z" fill="#efefef" opacity=".31" stroke-width="0"/><path d="m474.43,221.39c-12.95-10.13-127.76-82.17-132.83-84.99-4.22-2.34-11.7-6.15-17.16-6.15s-12.95,3.81-17.16,6.15c-5.07,2.81-119.88,74.85-132.83,84.99-12.95,10.13-12.95,23.08-12.95,23.08v208h325.87v-208h0s0-12.95-12.94-23.08Z" fill="#efefef" opacity=".32" stroke-width="0"/><path d="m473.06,219.98c-12.95-10.13-127.76-82.17-132.83-84.99-4.22-2.34-11.7-6.15-17.16-6.15s-12.95,3.81-17.16,6.15c-5.07,2.81-119.88,74.85-132.83,84.99-12.95,10.13-12.95,23.08-12.95,23.08v208h325.87v-208h0s0-12.95-12.94-23.08Z" fill="#eee" opacity=".33" stroke-width="0"/><path d="m471.7,218.57c-12.95-10.13-127.76-82.17-132.83-84.99-4.22-2.34-11.7-6.15-17.16-6.15s-12.95,3.81-17.16,6.15c-5.07,2.81-119.88,74.85-132.83,84.99-12.95,10.13-12.95,23.08-12.95,23.08v208h325.87v-208h0s0-12.95-12.94-23.08Z" fill="#ededed" opacity=".35" stroke-width="0"/><path d="m470.33,217.16c-12.95-10.13-127.76-82.17-132.83-84.99-4.22-2.34-11.7-6.15-17.16-6.15s-12.95,3.81-17.16,6.15c-5.07,2.81-119.88,74.85-132.83,84.99-12.95,10.13-12.95,23.08-12.95,23.08v208h325.87v-208h0s0-12.95-12.94-23.08Z" fill="#ededed" opacity=".36" stroke-width="0"/><path d="m468.97,215.76c-12.95-10.13-127.76-82.17-132.83-84.99-4.22-2.34-11.7-6.15-17.16-6.15s-12.95,3.81-17.16,6.15c-5.07,2.81-119.88,74.85-132.83,84.99-12.95,10.13-12.95,23.08-12.95,23.08v208h325.87v-208h0s0-12.95-12.94-23.08Z" fill="#ececec" opacity=".37" stroke-width="0"/><path d="m467.6,214.35c-12.95-10.13-127.76-82.17-132.83-84.99-4.22-2.34-11.7-6.15-17.16-6.15s-12.95,3.81-17.16,6.15c-5.07,2.81-119.88,74.85-132.83,84.99-12.95,10.13-12.95,23.08-12.95,23.08v208h325.87v-208h0s0-12.95-12.94-23.08Z" fill="#ebebeb" opacity=".38" stroke-width="0"/><path d="m466.24,212.94c-12.95-10.13-127.76-82.17-132.83-84.99-4.22-2.34-11.7-6.15-17.16-6.15s-12.95,3.81-17.16,6.15c-5.07,2.81-119.88,74.85-132.83,84.99-12.95,10.13-12.95,23.08-12.95,23.08v208h325.87v-208h0s0-12.95-12.94-23.08Z" fill="#ebebeb" opacity=".4" stroke-width="0"/><path d="m464.87,211.53c-12.95-10.13-127.76-82.17-132.83-84.99-4.22-2.34-11.7-6.15-17.16-6.15s-12.95,3.81-17.16,6.15c-5.07,2.81-119.88,74.85-132.83,84.99-12.95,10.13-12.95,23.08-12.95,23.08v208h325.87v-208h0s0-12.95-12.94-23.08Z" fill="#eaeaea" opacity=".41" stroke-width="0"/><path d="m463.5,210.12c-12.95-10.13-127.76-82.17-132.83-84.99-4.22-2.34-11.7-6.15-17.16-6.15s-12.95,3.81-17.16,6.15c-5.07,2.81-119.88,74.85-132.83,84.99-12.95,10.13-12.95,23.08-12.95,23.08v208h325.87v-208h0s0-12.95-12.94-23.08Z" fill="#eaeaea" opacity=".42" stroke-width="0"/><path d="m462.14,208.71c-12.95-10.13-127.76-82.17-132.83-84.99-4.22-2.34-11.7-6.15-17.16-6.15s-12.95,3.81-17.16,6.15c-5.07,2.81-119.88,74.85-132.83,84.99-12.95,10.13-12.95,23.08-12.95,23.08v208h325.87v-208h0s0-12.95-12.94-23.08Z" fill="#e9e9e9" opacity=".43" stroke-width="0"/><path d="m460.77,207.3c-12.95-10.13-127.76-82.17-132.83-84.99-4.22-2.34-11.7-6.15-17.16-6.15s-12.95,3.81-17.16,6.15c-5.07,2.81-119.88,74.85-132.83,84.99-12.95,10.13-12.95,23.08-12.95,23.08v208h325.87v-208h0s0-12.95-12.94-23.08Z" fill="#e8e8e8" opacity=".44" stroke-width="0"/><path d="m459.41,205.89c-12.95-10.13-127.76-82.17-132.83-84.99-4.22-2.34-11.7-6.15-17.16-6.15s-12.95,3.81-17.16,6.15c-5.07,2.81-119.88,74.85-132.83,84.99-12.95,10.13-12.95,23.08-12.95,23.08v208h325.87v-208h0s0-12.95-12.94-23.08Z" fill="#e8e8e8" opacity=".46" stroke-width="0"/><path d="m458.04,204.48c-12.95-10.13-127.76-82.17-132.83-84.99-4.22-2.34-11.7-6.15-17.16-6.15s-12.95,3.81-17.16,6.15c-5.07,2.81-119.88,74.85-132.83,84.99-12.95,10.13-12.95,23.08-12.95,23.08v208h325.87v-208h0s0-12.95-12.94-23.08Z" fill="#e7e7e7" opacity=".47" stroke-width="0"/><path d="m456.68,203.07c-12.95-10.13-127.76-82.17-132.83-84.99-4.22-2.34-11.7-6.15-17.16-6.15s-12.95,3.81-17.16,6.15c-5.07,2.81-119.88,74.85-132.83,84.99-12.95,10.13-12.95,23.08-12.95,23.08v208h325.87v-208h0s0-12.95-12.94-23.08Z" fill="#e6e6e6" opacity=".48" stroke-width="0"/><path d="m455.31,201.66c-12.95-10.13-127.76-82.17-132.83-84.99-4.22-2.34-11.7-6.15-17.16-6.15s-12.95,3.81-17.16,6.15c-5.07,2.81-119.88,74.85-132.83,84.99-12.95,10.13-12.95,23.08-12.95,23.08v208h325.87v-208h0s0-12.95-12.94-23.08Z" fill="#e6e6e6" opacity=".49" stroke-width="0"/><path d="m453.94,200.25c-12.95-10.13-127.76-82.17-132.83-84.99-4.22-2.34-11.7-6.15-17.16-6.15s-12.95,3.81-17.16,6.15c-5.07,2.81-119.88,74.85-132.83,84.99-12.95,10.13-12.95,23.08-12.95,23.08v208h325.87v-208h0s0-12.95-12.94-23.08Z" fill="#e5e5e5" opacity=".51" stroke-width="0"/><path d="m452.58,198.84c-12.95-10.13-127.76-82.17-132.83-84.99-4.22-2.34-11.7-6.15-17.16-6.15s-12.95,3.81-17.16,6.15c-5.07,2.81-119.88,74.85-132.83,84.99-12.95,10.13-12.95,23.08-12.95,23.08v208h325.87v-208h0s0-12.95-12.94-23.08Z" fill="#e5e5e5" opacity=".52" stroke-width="0"/><path d="m451.21,197.43c-12.95-10.13-127.76-82.17-132.83-84.99-4.22-2.34-11.7-6.15-17.16-6.15s-12.95,3.81-17.16,6.15c-5.07,2.81-119.88,74.85-132.83,84.99-12.95,10.13-12.95,23.08-12.95,23.08v208h325.87v-208h0s0-12.95-12.94-23.08Z" fill="#e4e4e4" opacity=".53" stroke-width="0"/><path d="m449.85,196.02c-12.95-10.13-127.76-82.17-132.83-84.99-4.22-2.34-11.7-6.15-17.16-6.15s-12.95,3.81-17.16,6.15c-5.07,2.81-119.88,74.85-132.83,84.99-12.95,10.13-12.95,23.08-12.95,23.08v208h325.87v-208h0s0-12.95-12.94-23.08Z" fill="#e3e3e3" opacity=".54" stroke-width="0"/><path d="m448.48,194.61c-12.95-10.13-127.76-82.17-132.83-84.99-4.22-2.34-11.7-6.15-17.16-6.15s-12.95,3.81-17.16,6.15c-5.07,2.81-119.88,74.85-132.83,84.99-12.95,10.13-12.95,23.08-12.95,23.08v208h325.87v-208h0s0-12.95-12.94-23.08Z" fill="#e3e3e3" opacity=".56" stroke-width="0"/><path d="m447.12,193.2c-12.95-10.13-127.76-82.17-132.83-84.99-4.22-2.34-11.7-6.15-17.16-6.15s-12.95,3.81-17.16,6.15c-5.07,2.81-119.88,74.85-132.83,84.99-12.95,10.13-12.95,23.08-12.95,23.08v208h325.87v-208h0s0-12.95-12.94-23.08Z" fill="#e2e2e2" opacity=".57" stroke-width="0"/><path d="m445.75,191.79c-12.95-10.13-127.76-82.17-132.83-84.99-4.22-2.34-11.7-6.15-17.16-6.15s-12.95,3.81-17.16,6.15c-5.07,2.81-119.88,74.85-132.83,84.99-12.95,10.13-12.95,23.08-12.95,23.08v208h325.87v-208h0s0-12.95-12.94-23.08Z" fill="#e1e1e1" opacity=".58" stroke-width="0"/><path d="m444.38,190.38c-12.95-10.13-127.76-82.17-132.83-84.99-4.22-2.34-11.7-6.15-17.16-6.15s-12.95,3.81-17.16,6.15c-5.07,2.81-119.88,74.85-132.83,84.99-12.95,10.13-12.95,23.08-12.95,23.08v208h325.87v-208h0s0-12.95-12.94-23.08Z" fill="#e1e1e1" opacity=".59" stroke-width="0"/><path d="m443.02,188.98c-12.95-10.13-127.76-82.17-132.83-84.99-4.22-2.34-11.7-6.15-17.16-6.15s-12.95,3.81-17.16,6.15c-5.07,2.81-119.88,74.85-132.83,84.99-12.95,10.13-12.95,23.08-12.95,23.08v208h325.87v-208h0s0-12.95-12.94-23.08Z" fill="#e0e0e0" opacity=".6" stroke-width="0"/><path d="m441.65,187.57c-12.95-10.13-127.76-82.17-132.83-84.99-4.22-2.34-11.7-6.15-17.16-6.15s-12.95,3.81-17.16,6.15c-5.07,2.81-119.88,74.85-132.83,84.99-12.95,10.13-12.95,23.08-12.95,23.08v208h325.87v-208h0s0-12.95-12.94-23.08Z" fill="#e0e0e0" opacity=".62" stroke-width="0"/><path d="m440.29,186.16c-12.95-10.13-127.76-82.17-132.83-84.99-4.22-2.34-11.7-6.15-17.16-6.15s-12.95,3.81-17.16,6.15c-5.07,2.81-119.88,74.85-132.83,84.99-12.95,10.13-12.95,23.08-12.95,23.08v208h325.87v-208h0s0-12.95-12.94-23.08Z" fill="#dfdfdf" opacity=".63" stroke-width="0"/><path d="m438.92,184.75c-12.95-10.13-127.76-82.17-132.83-84.99-4.22-2.34-11.7-6.15-17.16-6.15s-12.95,3.81-17.16,6.15c-5.07,2.81-119.88,74.85-132.83,84.99-12.95,10.13-12.95,23.08-12.95,23.08v208h325.87v-208h0s0-12.95-12.94-23.08Z" fill="#dedede" opacity=".64" stroke-width="0"/><path d="m437.56,183.34c-12.95-10.13-127.76-82.17-132.83-84.99-4.22-2.34-11.7-6.15-17.16-6.15s-12.95,3.81-17.16,6.15c-5.07,2.81-119.88,74.85-132.83,84.99-12.95,10.13-12.95,23.08-12.95,23.08v208h325.87v-208h0s0-12.95-12.94-23.08Z" fill="#dedede" opacity=".65" stroke-width="0"/><path d="m436.19,181.93c-12.95-10.13-127.76-82.17-132.83-84.99-4.22-2.34-11.7-6.15-17.16-6.15s-12.95,3.81-17.16,6.15c-5.07,2.81-119.88,74.85-132.83,84.99-12.95,10.13-12.95,23.08-12.95,23.08v208h325.87v-208h0s0-12.95-12.94-23.08Z" fill="#ddd" opacity=".67" stroke-width="0"/><path d="m434.82,180.52c-12.95-10.13-127.76-82.17-132.83-84.99-4.22-2.34-11.7-6.15-17.16-6.15s-12.95,3.81-17.16,6.15c-5.07,2.81-119.88,74.85-132.83,84.99-12.95,10.13-12.95,23.08-12.95,23.08v208h325.87v-208h0s0-12.95-12.94-23.08Z" fill="#dcdcdc" opacity=".68" stroke-width="0"/><path d="m433.46,179.11c-12.95-10.13-127.76-82.17-132.83-84.99-4.22-2.34-11.7-6.15-17.16-6.15s-12.95,3.81-17.16,6.15c-5.07,2.81-119.88,74.85-132.83,84.99-12.95,10.13-12.95,23.08-12.95,23.08v208h325.87v-208h0s0-12.95-12.94-23.08Z" fill="#dcdcdc" opacity=".69" stroke-width="0"/><path d="m432.09,177.7c-12.95-10.13-127.76-82.17-132.83-84.99-4.22-2.34-11.7-6.15-17.16-6.15s-12.95,3.81-17.16,6.15c-5.07,2.81-119.88,74.85-132.83,84.99-12.95,10.13-12.95,23.08-12.95,23.08v208h325.87v-208h0s0-12.95-12.94-23.08Z" fill="#dbdbdb" opacity=".7" stroke-width="0"/><path d="m430.73,176.29c-12.95-10.13-127.76-82.17-132.83-84.99-4.22-2.34-11.7-6.15-17.16-6.15s-12.95,3.81-17.16,6.15c-5.07,2.81-119.88,74.85-132.83,84.99-12.95,10.13-12.95,23.08-12.95,23.08v208h325.87v-208h0s0-12.95-12.94-23.08Z" fill="#dadada" opacity=".72" stroke-width="0"/><path d="m429.36,174.88c-12.95-10.13-127.76-82.17-132.83-84.99-4.22-2.34-11.7-6.15-17.16-6.15s-12.95,3.81-17.16,6.15c-5.07,2.81-119.88,74.85-132.83,84.99-12.95,10.13-12.95,23.08-12.95,23.08v208h325.87v-208h0s0-12.95-12.94-23.08Z" fill="#dadada" opacity=".73" stroke-width="0"/><path d="m427.99,173.47c-12.95-10.13-127.76-82.17-132.83-84.99-4.22-2.34-11.7-6.15-17.16-6.15s-12.95,3.81-17.16,6.15c-5.07,2.81-119.88,74.85-132.83,84.99-12.95,10.13-12.95,23.08-12.95,23.08v208h325.87v-208h0s0-12.95-12.94-23.08Z" fill="#d9d9d9" opacity=".74" stroke-width="0"/><path d="m426.63,172.06c-12.95-10.13-127.76-82.17-132.83-84.99-4.22-2.34-11.7-6.15-17.16-6.15s-12.95,3.81-17.16,6.15c-5.07,2.81-119.88,74.85-132.83,84.99-12.95,10.13-12.95,23.08-12.95,23.08v208h325.87v-208h0s0-12.95-12.94-23.08Z" fill="#d9d9d9" opacity=".75" stroke-width="0"/><path d="m425.26,170.65c-12.95-10.13-127.76-82.17-132.83-84.99-4.22-2.34-11.7-6.15-17.16-6.15s-12.95,3.81-17.16,6.15c-5.07,2.81-119.88,74.85-132.83,84.99-12.95,10.13-12.95,23.08-12.95,23.08v208h325.87v-208h0s0-12.95-12.94-23.08Z" fill="#d8d8d8" opacity=".77" stroke-width="0"/><path d="m423.9,169.24c-12.95-10.13-127.76-82.17-132.83-84.99-4.22-2.34-11.7-6.15-17.16-6.15s-12.95,3.81-17.16,6.15c-5.07,2.81-119.88,74.85-132.83,84.99-12.95,10.13-12.95,23.08-12.95,23.08v208h325.87v-208h0s0-12.95-12.94-23.08Z" fill="#d7d7d7" opacity=".78" stroke-width="0"/><path d="m422.53,167.83c-12.95-10.13-127.76-82.17-132.83-84.99-4.22-2.34-11.7-6.15-17.16-6.15s-12.95,3.81-17.16,6.15c-5.07,2.81-119.88,74.85-132.83,84.99-12.95,10.13-12.95,23.08-12.95,23.08v208h325.87v-208h0s0-12.95-12.94-23.08Z" fill="#d7d7d7" opacity=".79" stroke-width="0"/><path d="m421.17,166.42c-12.95-10.13-127.76-82.17-132.83-84.99-4.22-2.34-11.7-6.15-17.16-6.15s-12.95,3.81-17.16,6.15c-5.07,2.81-119.88,74.85-132.83,84.99-12.95,10.13-12.95,23.08-12.95,23.08v208h325.87v-208h0s0-12.95-12.94-23.08Z" fill="#d6d6d6" opacity=".8" stroke-width="0"/><path d="m419.8,165.01c-12.95-10.13-127.76-82.17-132.83-84.99-4.22-2.34-11.7-6.15-17.16-6.15s-12.95,3.81-17.16,6.15c-5.07,2.81-119.88,74.85-132.83,84.99-12.95,10.13-12.95,23.08-12.95,23.08v208h325.87v-208h0s0-12.95-12.94-23.08Z" fill="#d5d5d5" opacity=".81" stroke-width="0"/><path d="m418.43,163.6c-12.95-10.13-127.76-82.17-132.83-84.99-4.22-2.34-11.7-6.15-17.16-6.15s-12.95,3.81-17.16,6.15c-5.07,2.81-119.88,74.85-132.83,84.99-12.95,10.13-12.95,23.08-12.95,23.08v208h325.87v-208h0s0-12.95-12.94-23.08Z" fill="#d5d5d5" opacity=".83" stroke-width="0"/><path d="m417.07,162.2c-12.95-10.13-127.76-82.17-132.83-84.99-4.22-2.34-11.7-6.15-17.16-6.15s-12.95,3.81-17.16,6.15c-5.07,2.81-119.88,74.85-132.83,84.99-12.95,10.13-12.95,23.08-12.95,23.08v208h325.87v-208h0s0-12.95-12.94-23.08Z" fill="#d4d4d4" opacity=".84" stroke-width="0"/><path d="m415.7,160.79c-12.95-10.13-127.76-82.17-132.83-84.99-4.22-2.34-11.7-6.15-17.16-6.15s-12.95,3.81-17.16,6.15c-5.07,2.81-119.88,74.85-132.83,84.99-12.95,10.13-12.95,23.08-12.95,23.08v208h325.87v-208h0s0-12.95-12.94-23.08Z" fill="#d4d4d4" opacity=".85" stroke-width="0"/><path d="m414.34,159.38c-12.95-10.13-127.76-82.17-132.83-84.99-4.22-2.34-11.7-6.15-17.16-6.15s-12.95,3.81-17.16,6.15c-5.07,2.81-119.88,74.85-132.83,84.99-12.95,10.13-12.95,23.08-12.95,23.08v208h325.87v-208h0s0-12.95-12.94-23.08Z" fill="#d3d3d3" opacity=".86" stroke-width="0"/><path d="m412.97,157.97c-12.95-10.13-127.76-82.17-132.83-84.99-4.22-2.34-11.7-6.15-17.16-6.15s-12.95,3.81-17.16,6.15c-5.07,2.81-119.88,74.85-132.83,84.99-12.95,10.13-12.95,23.08-12.95,23.08v208h325.87v-208h0s0-12.95-12.94-23.08Z" fill="#d2d2d2" opacity=".88" stroke-width="0"/><path d="m411.61,156.56c-12.95-10.13-127.76-82.17-132.83-84.99-4.22-2.34-11.7-6.15-17.16-6.15s-12.95,3.81-17.16,6.15c-5.07,2.81-119.88,74.85-132.83,84.99-12.95,10.13-12.95,23.08-12.95,23.08v208h325.87v-208h0s0-12.95-12.94-23.08Z" fill="#d2d2d2" opacity=".89" stroke-width="0"/><path d="m410.24,155.15c-12.95-10.13-127.76-82.17-132.83-84.99-4.22-2.34-11.7-6.15-17.16-6.15s-12.95,3.81-17.16,6.15c-5.07,2.81-119.88,74.85-132.83,84.99-12.95,10.13-12.95,23.08-12.95,23.08v208h325.87v-208h0s0-12.95-12.94-23.08Z" fill="#d1d1d1" opacity=".9" stroke-width="0"/><path d="m408.87,153.74c-12.95-10.13-127.76-82.17-132.83-84.99-4.22-2.34-11.7-6.15-17.16-6.15s-12.95,3.81-17.16,6.15c-5.07,2.81-119.88,74.85-132.83,84.99-12.95,10.13-12.95,23.08-12.95,23.08v208h325.87v-208h0s0-12.95-12.94-23.08Z" fill="#d0d0d0" opacity=".91" stroke-width="0"/><path d="m407.51,152.33c-12.95-10.13-127.76-82.17-132.83-84.99-4.22-2.34-11.7-6.15-17.16-6.15s-12.95,3.81-17.16,6.15c-5.07,2.81-119.88,74.85-132.83,84.99-12.95,10.13-12.95,23.08-12.95,23.08v208h325.87v-208h0s0-12.95-12.94-23.08Z" fill="#d0d0d0" opacity=".93" stroke-width="0"/><path d="m406.14,150.92c-12.95-10.13-127.76-82.17-132.83-84.99-4.22-2.34-11.7-6.15-17.16-6.15s-12.95,3.81-17.16,6.15c-5.07,2.81-119.88,74.85-132.83,84.99-12.95,10.13-12.95,23.08-12.95,23.08v208h325.87v-208h0s0-12.95-12.94-23.08Z" fill="#cfcfcf" opacity=".94" stroke-width="0"/><path d="m404.78,149.51c-12.95-10.13-127.76-82.17-132.83-84.99-4.22-2.34-11.7-6.15-17.16-6.15s-12.95,3.81-17.16,6.15c-5.07,2.81-119.88,74.85-132.83,84.99-12.95,10.13-12.95,23.08-12.95,23.08v208h325.87v-208h0s0-12.95-12.94-23.08Z" fill="#cfcfcf" opacity=".95" stroke-width="0"/><path d="m403.41,148.1c-12.95-10.13-127.76-82.17-132.83-84.99-4.22-2.34-11.7-6.15-17.16-6.15s-12.95,3.81-17.16,6.15c-5.07,2.81-119.88,74.85-132.83,84.99-12.95,10.13-12.95,23.08-12.95,23.08v208h325.87v-208h0s0-12.95-12.94-23.08Z" fill="#cecece" opacity=".96" stroke-width="0"/><path d="m402.05,146.69c-12.95-10.13-127.76-82.17-132.83-84.99-4.22-2.34-11.7-6.15-17.16-6.15s-12.95,3.81-17.16,6.15c-5.07,2.81-119.88,74.85-132.83,84.99-12.95,10.13-12.95,23.08-12.95,23.08v208h325.87v-208h0s0-12.95-12.94-23.08Z" fill="#cdcdcd" opacity=".98" stroke-width="0"/><path d="m400.68,145.28c-12.95-10.13-127.76-82.17-132.83-84.99-4.22-2.34-11.7-6.15-17.16-6.15s-12.95,3.81-17.16,6.15c-5.07,2.81-119.88,74.85-132.83,84.99-12.95,10.13-12.95,23.08-12.95,23.08v208h325.87v-208h0s0-12.95-12.94-23.08Z" fill="#cdcdcd" opacity=".99" stroke-width="0"/><path d="m399.31,143.87c-12.95-10.13-127.76-82.17-132.83-84.99-4.22-2.34-11.7-6.15-17.16-6.15s-12.95,3.81-17.16,6.15c-5.07,2.81-119.88,74.85-132.83,84.99-12.95,10.13-12.95,23.08-12.95,23.08v208h325.87v-208h0s0-12.95-12.94-23.08Z" fill="#ccc" stroke-width="0"/></g></g><path d="m399.31,143.87c-12.95-10.13-127.76-82.17-132.83-84.99-4.22-2.34-11.7-6.15-17.16-6.15s-12.95,3.81-17.16,6.15c-5.07,2.81-119.88,74.86-132.83,84.99-12.95,10.13-12.95,23.08-12.95,23.08v208h325.87v-208h0s0-12.95-12.94-23.08Z" fill="url(#uuid-ea2ee110-818c-4f79-a1df-1af3f37db483)" stroke-width="0"/><path d="m107.31,354.03v-186.36c.16-.93.97-4.23,4.92-7.32,11.52-9.02,123.66-79.43,130.17-83.22,3.57-1.98,5.78-2.87,6.93-3.26,1.15.39,3.36,1.28,6.92,3.26,6.55,3.81,118.67,74.22,130.17,83.22,3.94,3.09,4.76,6.39,4.91,7.32v186.36H107.31Z" fill="url(#uuid-bdbc4e66-cd20-4fa7-8342-ce07359594d7)" stroke-width="0"/><g mix-blend-mode="multiply"><g opacity="0"><rect x="92.68" y="89.81" width="313.27" height="272.85" rx="15.32" ry="15.32" fill="#fff" stroke-width="0"/></g><g opacity=".03"><rect x="93.55" y="90.56" width="311.54" height="271.34" rx="15.3" ry="15.3" fill="#fbfbfb" stroke-width="0"/></g><g opacity=".06"><rect x="94.41" y="91.31" width="309.81" height="269.84" rx="15.28" ry="15.28" fill="#f6f6f6" stroke-width="0"/></g><g opacity=".1"><rect x="95.28" y="92.06" width="308.09" height="268.33" rx="15.26" ry="15.26" fill="#f2f2f2" stroke-width="0"/></g><g opacity=".13"><rect x="96.14" y="92.82" width="306.36" height="266.82" rx="15.24" ry="15.24" fill="#ededed" stroke-width="0"/></g><g opacity=".16"><path d="m112.23,93.57h274.19c8.4,0,15.22,6.82,15.22,15.22v234.88c0,8.4-6.82,15.22-15.22,15.22H112.23c-8.4,0-15.22-6.82-15.22-15.22V108.79c0-8.4,6.82-15.22,15.22-15.22Z" fill="#e9e9e9" stroke-width="0"/></g><g opacity=".19"><rect x="97.87" y="94.32" width="302.9" height="263.81" rx="15.2" ry="15.2" fill="#e4e4e4" stroke-width="0"/></g><g opacity=".23"><path d="m113.92,95.08h270.81c8.38,0,15.18,6.8,15.18,15.18v231.94c0,8.38-6.8,15.18-15.18,15.18H113.92c-8.38,0-15.18-6.8-15.18-15.18V110.26c0-8.38,6.8-15.18,15.18-15.18Z" fill="#e0e0e0" stroke-width="0"/></g><g opacity=".26"><rect x="99.6" y="95.83" width="299.44" height="260.8" rx="15.16" ry="15.16" fill="#dbdbdb" stroke-width="0"/></g><g opacity=".29"><rect x="100.47" y="96.58" width="297.71" height="259.29" rx="15.14" ry="15.14" fill="#d7d7d7" stroke-width="0"/></g><g opacity=".32"><path d="m116.45,97.34h265.74c8.35,0,15.12,6.78,15.12,15.12v227.54c0,8.35-6.78,15.12-15.12,15.12H116.45c-8.35,0-15.12-6.78-15.12-15.12V112.46c0-8.35,6.78-15.12,15.12-15.12Z" fill="#d3d3d3" stroke-width="0"/></g><g opacity=".35"><rect x="102.2" y="98.09" width="294.25" height="256.28" rx="15.1" ry="15.1" fill="#cecece" stroke-width="0"/></g><g opacity=".39"><path d="m118.14,98.84h262.36c8.32,0,15.08,6.76,15.08,15.08v224.61c0,8.32-6.76,15.08-15.08,15.08H118.14c-8.32,0-15.08-6.76-15.08-15.08V113.93c0-8.32,6.76-15.08,15.08-15.08Z" fill="#cacaca" stroke-width="0"/></g><g opacity=".42"><path d="m118.99,99.6h260.67c8.31,0,15.06,6.75,15.06,15.06v223.14c0,8.31-6.75,15.06-15.06,15.06H118.99c-8.31,0-15.06-6.75-15.06-15.06V114.66c0-8.31,6.75-15.06,15.06-15.06Z" fill="#c5c5c5" stroke-width="0"/></g><g opacity=".45"><rect x="104.79" y="100.35" width="289.06" height="251.76" rx="15.04" ry="15.04" fill="#c1c1c1" stroke-width="0"/></g><g opacity=".48"><path d="m120.68,101.1h257.28c8.29,0,15.02,6.73,15.02,15.02v220.21c0,8.29-6.73,15.02-15.02,15.02H120.68c-8.29,0-15.02-6.73-15.02-15.02V116.13c0-8.29,6.73-15.02,15.02-15.02Z" fill="#bcbcbc" stroke-width="0"/></g><g opacity=".52"><path d="m121.52,101.86h255.59c8.28,0,15,6.72,15,15v218.74c0,8.28-6.72,15-15,15H121.52c-8.28,0-15-6.72-15-15V116.86c0-8.28,6.72-15,15-15Z" fill="#b8b8b8" stroke-width="0"/></g><g opacity=".55"><path d="m122.37,102.61h253.9c8.27,0,14.98,6.71,14.98,14.98v217.27c0,8.27-6.71,14.98-14.98,14.98H122.37c-8.27,0-14.98-6.71-14.98-14.98V117.59c0-8.27,6.71-14.98,14.98-14.98Z" fill="#b3b3b3" stroke-width="0"/></g><g opacity=".58"><path d="m123.21,103.36h252.21c8.26,0,14.97,6.71,14.97,14.97v215.81c0,8.26-6.71,14.96-14.96,14.96H123.21c-8.26,0-14.97-6.71-14.97-14.97V118.33c0-8.26,6.71-14.97,14.97-14.97Z" fill="#afafaf" stroke-width="0"/></g><g opacity=".61"><path d="m124.06,104.12h250.52c8.25,0,14.95,6.7,14.95,14.95v214.34c0,8.25-6.7,14.94-14.94,14.94H124.06c-8.25,0-14.95-6.7-14.95-14.95V119.06c0-8.25,6.7-14.95,14.95-14.95Z" fill="#ababab" stroke-width="0"/></g><g opacity=".65"><path d="m124.9,104.87h248.83c8.24,0,14.93,6.69,14.93,14.93v212.87c0,8.24-6.69,14.92-14.92,14.92H124.9c-8.24,0-14.93-6.69-14.93-14.93V119.79c0-8.24,6.69-14.93,14.93-14.93Z" fill="#a6a6a6" stroke-width="0"/></g><g opacity=".68"><path d="m125.75,105.62h247.14c8.23,0,14.91,6.68,14.91,14.91v211.41c0,8.23-6.68,14.91-14.91,14.91H125.75c-8.23,0-14.91-6.68-14.91-14.91V120.53c0-8.23,6.68-14.91,14.91-14.91Z" fill="#a2a2a2" stroke-width="0"/></g><g opacity=".71"><path d="m126.6,106.37h245.45c8.22,0,14.89,6.67,14.89,14.89v209.94c0,8.22-6.67,14.89-14.89,14.89H126.6c-8.22,0-14.89-6.67-14.89-14.89V121.26c0-8.22,6.67-14.89,14.89-14.89Z" fill="#9d9d9d" stroke-width="0"/></g><g opacity=".74"><rect x="112.57" y="107.13" width="273.5" height="238.2" rx="14.87" ry="14.87" fill="#999" stroke-width="0"/></g><g opacity=".77"><path d="m128.29,107.88h242.07c8.19,0,14.85,6.65,14.85,14.85v207c0,8.19-6.65,14.85-14.85,14.85h-242.07c-8.19,0-14.85-6.65-14.85-14.85V122.73c0-8.19,6.65-14.85,14.85-14.85Z" fill="#949494" stroke-width="0"/></g><g opacity=".81"><path d="m129.13,108.63h240.38c8.18,0,14.83,6.64,14.83,14.83v205.54c0,8.18-6.64,14.83-14.83,14.83h-240.38c-8.18,0-14.83-6.64-14.83-14.83V123.46c0-8.18,6.64-14.83,14.83-14.83Z" fill="#909090" stroke-width="0"/></g><g opacity=".84"><path d="m129.98,109.39h238.69c8.17,0,14.81,6.64,14.81,14.81v204.07c0,8.17-6.63,14.81-14.81,14.81h-238.69c-8.17,0-14.81-6.64-14.81-14.81V124.2c0-8.17,6.64-14.81,14.81-14.81Z" fill="#8c8c8c" stroke-width="0"/></g><g opacity=".87"><path d="m130.82,110.14h237c8.16,0,14.79,6.63,14.79,14.79v202.6c0,8.16-6.63,14.79-14.79,14.79h-237c-8.16,0-14.79-6.63-14.79-14.79V124.93c0-8.16,6.63-14.79,14.79-14.79Z" fill="#878787" stroke-width="0"/></g><g opacity=".9"><path d="m131.67,110.89h235.31c8.15,0,14.77,6.62,14.77,14.77v201.14c0,8.15-6.62,14.77-14.77,14.77h-235.31c-8.15,0-14.77-6.62-14.77-14.77V125.66c0-8.15,6.62-14.77,14.77-14.77Z" fill="#838383" stroke-width="0"/></g><g opacity=".94"><path d="m132.51,111.65h233.62c8.14,0,14.75,6.61,14.75,14.75v199.67c0,8.14-6.61,14.75-14.75,14.75h-233.62c-8.14,0-14.75-6.61-14.75-14.75V126.4c0-8.14,6.61-14.75,14.75-14.75Z" fill="#7e7e7e" stroke-width="0"/></g><g opacity=".97"><path d="m133.36,112.4h231.93c8.13,0,14.73,6.6,14.73,14.73v198.2c0,8.13-6.6,14.73-14.73,14.73h-231.93c-8.13,0-14.73-6.6-14.73-14.73V127.13c0-8.13,6.6-14.73,14.73-14.73Z" fill="#7a7a7a" stroke-width="0"/></g><path d="m134.2,113.15h230.24c8.12,0,14.71,6.59,14.71,14.71v196.74c0,8.12-6.59,14.71-14.71,14.71h-230.24c-8.12,0-14.71-6.59-14.71-14.71V127.86c0-8.12,6.59-14.71,14.71-14.71Z" fill="#757575" stroke-width="0"/></g><rect x="106.87" y="102.16" width="284.91" height="248.15" fill="url(#uuid-3b4fbb25-8528-43e7-a4b0-8b08bd7aabc6)" stroke-width="0"/><g mix-blend-mode="multiply"><path d="m383.86,166.43c-13.09,5.96-98.93,62.78-134.53,84.15-35.6-21.38-121.44-78.2-134.54-84.15-14.35-6.53-26.03-3.67-26.03-3.67,0,0,.19,205.9.56,205.89,2.62.09,320.58.02,320.58.02v-205.9s-11.69-2.86-26.04,3.67Z" fill="#fff" opacity="0" stroke-width="0"/><path d="m88.72,162.81h0c0,.08.19,205.94.56,205.92.05,0,.22,0,.5,0,14.17.08,320.11.01,320.15.01h0v-205.94s-.16-.04-.48-.1c-2.33-.44-12.92-1.97-25.6,3.8-13.09,5.96-98.93,62.99-134.53,84.36-35.6-21.38-121.44-78.41-134.54-84.36-12.72-5.79-23.35-4.23-25.62-3.79-.29.06-.45.09-.45.09Z" fill="#fefefe" opacity=".01" stroke-width="0"/><path d="m88.68,162.86s0,0,0,0c0,.08.19,205.97.55,205.95.05,0,.22,0,.5,0,14.03.08,320.15.01,320.23.01h0v-205.97s-.16-.04-.48-.1c-2.33-.44-12.94-1.94-25.63,3.83-13.09,5.96-98.93,63.2-134.53,84.57-35.6-21.38-121.44-78.61-134.54-84.57-12.74-5.8-23.38-4.26-25.65-3.82-.3.06-.45.09-.45.09Z" fill="#fdfdfd" opacity=".02" stroke-width="0"/><path d="m88.65,162.91s0,0,0,0c0,.08.19,206,.54,205.98.05,0,.22,0,.5,0,13.9.08,320.19.02,320.3.01h0v-206s-.16-.04-.48-.1c-2.33-.43-12.95-1.92-25.66,3.86-13.09,5.96-98.93,63.4-134.53,84.78-35.6-21.38-121.44-78.82-134.54-84.78-12.76-5.8-23.41-4.28-25.69-3.86-.3.05-.45.09-.45.09Z" fill="#fcfcfc" opacity=".03" stroke-width="0"/><path d="m88.61,162.96s0,0,0,0c0,.08.19,206.03.54,206.01.05,0,.22,0,.5,0,13.76.08,320.23.02,320.38.01h0v-206.03s-.16-.04-.48-.09c-2.34-.43-12.97-1.9-25.7,3.89-13.09,5.96-98.93,63.61-134.53,84.99-35.6-21.38-121.44-79.03-134.54-84.99-12.78-5.81-23.44-4.31-25.72-3.89-.3.05-.45.09-.45.09Z" fill="#fbfbfb" opacity=".05" stroke-width="0"/><path d="m88.58,163s0,0,0,0c0,.08.18,206.06.53,206.05.05,0,.22,0,.51,0,13.63.08,320.27.02,320.46.01h0v-206.07s-.16-.04-.48-.09c-2.34-.42-12.98-1.88-25.73,3.92-13.09,5.96-98.93,63.82-134.53,85.2-35.6-21.38-121.44-79.24-134.54-85.2-12.79-5.82-23.47-4.34-25.76-3.92-.3.05-.45.09-.45.09Z" fill="#fafafa" opacity=".06" stroke-width="0"/><path d="m88.54,163.05s0,0,0,0c0,.08.18,206.09.52,206.08.05,0,.22,0,.51,0,13.5.08,320.31.02,320.53.01h0v-206.1s-.17-.04-.48-.09c-2.34-.42-13-1.86-25.77,3.95-13.09,5.96-98.93,64.03-134.53,85.41-35.6-21.38-121.44-79.45-134.54-85.41-12.81-5.83-23.5-4.36-25.79-3.95-.3.05-.46.09-.46.09Z" fill="#f9f9f9" opacity=".07" stroke-width="0"/><path d="m88.51,163.1s0,0,0,0c0,.08.18,206.12.52,206.11.05,0,.22,0,.51,0,13.36.08,320.35.02,320.61.01h0v-206.13s-.17-.04-.48-.09c-2.35-.42-13.01-1.83-25.8,3.99-13.09,5.96-98.93,64.24-134.53,85.61-35.6-21.38-121.44-79.66-134.54-85.61-12.83-5.84-23.53-4.39-25.82-3.98-.3.05-.46.09-.46.09Z" fill="#f8f8f8" opacity=".08" stroke-width="0"/><path d="m88.47,163.15s0,0,0,0c0,.07.18,206.16.51,206.14.05,0,.22,0,.51,0,13.23.08,320.39.02,320.68.01h0v-206.16s-.17-.04-.48-.09c-2.35-.41-13.03-1.81-25.84,4.02-13.09,5.96-98.93,64.45-134.53,85.82-35.6-21.38-121.44-79.87-134.54-85.82-12.85-5.85-23.56-4.42-25.86-4.01-.3.05-.46.08-.46.08Z" fill="#f7f7f8" opacity=".09" stroke-width="0"/><path d="m88.44,163.19s0,0,0,0c0,.07.17,206.19.5,206.18.05,0,.22,0,.51,0,13.09.08,320.43.02,320.76.01h0v-206.2s-.17-.04-.48-.09c-2.35-.41-13.04-1.79-25.87,4.05-13.09,5.96-98.93,64.65-134.53,86.03-35.6-21.38-121.44-80.07-134.54-86.03-12.87-5.86-23.59-4.45-25.89-4.04-.3.05-.46.08-.46.08Z" fill="#f6f6f7" opacity=".1" stroke-width="0"/><path d="m88.4,163.24s0,0,0,0c0,.07.17,206.22.5,206.21.04,0,.22,0,.51,0,12.96.08,320.47.02,320.84.01h0v-206.23s-.17-.04-.48-.09c-2.36-.4-13.06-1.77-25.9,4.08-13.09,5.96-98.93,64.86-134.53,86.24-35.6-21.38-121.44-80.28-134.54-86.24-12.89-5.87-23.62-4.47-25.93-4.08-.3.05-.46.08-.46.08Z" fill="#f5f5f6" opacity=".11" stroke-width="0"/><path d="m88.36,163.29s0,0,0,0c0,.07.17,206.25.49,206.24.04,0,.22,0,.51,0,12.82.08,320.51.02,320.91.01h0v-206.26s-.17-.03-.49-.09c-2.36-.4-13.07-1.74-25.94,4.11-13.09,5.96-98.93,65.07-134.53,86.45-35.6-21.38-121.44-80.49-134.54-86.45-12.91-5.87-23.65-4.5-25.96-4.11-.3.05-.46.08-.46.08Z" fill="#f4f4f5" opacity=".13" stroke-width="0"/><path d="m88.33,163.34s0,0,0,0c0,.07.17,206.28.48,206.27.04,0,.22,0,.51,0,12.69.08,320.55.02,320.99.01h0v-206.29s-.17-.03-.49-.08c-2.36-.4-13.09-1.72-25.97,4.14-13.09,5.96-98.93,65.28-134.53,86.66-35.6-21.38-121.44-80.7-134.54-86.66-12.93-5.88-23.68-4.53-25.99-4.14-.3.05-.46.08-.46.08Z" fill="#f3f3f4" opacity=".14" stroke-width="0"/><path d="m88.29,163.38s0,0,0,0c0,.07.17,206.31.48,206.3.04,0,.22,0,.51,0,12.56.08,320.59.02,321.07.01h0v-206.33s-.17-.03-.49-.08c-2.37-.39-13.1-1.7-26.01,4.17-13.09,5.96-98.93,65.49-134.53,86.86-35.6-21.38-121.44-80.91-134.54-86.86-12.95-5.89-23.71-4.56-26.03-4.17-.31.05-.47.08-.47.08Z" fill="#f2f2f3" opacity=".15" stroke-width="0"/><path d="m88.26,163.43s0,0,0,0c0,.07.16,206.35.47,206.34.04,0,.22,0,.51,0,12.42.08,320.63.03,321.14.01h0v-206.36s-.17-.03-.49-.08c-2.37-.39-13.11-1.68-26.04,4.2-13.09,5.96-98.93,65.7-134.53,87.07-35.6-21.38-121.44-81.12-134.54-87.07-12.96-5.9-23.74-4.58-26.06-4.2-.31.05-.47.08-.47.08Z" fill="#f1f2f2" opacity=".16" stroke-width="0"/><path d="m88.22,163.48s0,0,0,0c0,.07.16,206.38.47,206.37.04,0,.22,0,.51,0,12.29.08,320.67.03,321.22.01h0v-206.39s-.17-.03-.49-.08c-2.37-.38-13.13-1.65-26.07,4.24-13.09,5.96-98.93,65.9-134.53,87.28-35.6-21.38-121.44-81.32-134.54-87.28-12.98-5.91-23.77-4.61-26.09-4.23-.31.04-.47.08-.47.08Z" fill="#f0f1f1" opacity=".17" stroke-width="0"/><path d="m88.19,163.53s0,0,0,0c0,.07.16,206.41.46,206.4.04,0,.21,0,.51,0,12.15.08,320.71.03,321.29.01h0v-206.42s-.17-.03-.49-.08c-2.38-.38-13.14-1.63-26.11,4.27-13.09,5.96-98.93,66.11-134.53,87.49-35.6-21.38-121.44-81.53-134.54-87.49-13-5.92-23.8-4.64-26.13-4.26-.31.04-.47.07-.47.07Z" fill="#eff0f0" opacity=".18" stroke-width="0"/><path d="m88.15,163.57s0,0,0,0c0,.07.16,206.44.45,206.43.04,0,.21,0,.51,0,12.02.08,320.75.03,321.37.01h0v-206.46s-.17-.03-.49-.08c-2.38-.38-13.16-1.61-26.14,4.3-13.09,5.96-98.93,66.32-134.53,87.7-35.6-21.38-121.44-81.74-134.54-87.7-13.02-5.93-23.82-4.66-26.16-4.29-.31.04-.47.07-.47.07Z" fill="#eeefef" opacity=".2" stroke-width="0"/><path d="m88.12,163.62s0,0,0,0c0,.07.15,206.47.45,206.47.04,0,.21,0,.51,0,11.88.08,320.79.03,321.45.01h0v-206.49s-.17-.03-.49-.08c-2.38-.37-13.17-1.59-26.18,4.33-13.09,5.96-98.93,66.53-134.53,87.91-35.6-21.38-121.44-81.95-134.54-87.91-13.04-5.93-23.85-4.69-26.2-4.33-.31.04-.47.07-.47.07Z" fill="#edeeee" opacity=".21" stroke-width="0"/><path d="m88.08,163.67s0,0,0,0c0,.06.15,206.5.44,206.5.04,0,.21,0,.51,0,11.75.08,320.83.03,321.52.01h0v-206.52s-.17-.03-.49-.07c-2.39-.37-13.19-1.56-26.21,4.36-13.09,5.96-98.93,66.74-134.53,88.11-35.6-21.38-121.44-82.16-134.54-88.11-13.06-5.94-23.88-4.72-26.23-4.36-.31.04-.47.07-.47.07Z" fill="#eceded" opacity=".22" stroke-width="0"/><path d="m88.05,163.72s0,0,0,0c0,.06.15,206.53.43,206.53.04,0,.21,0,.52,0,11.62.08,320.87.03,321.6.01h0v-206.55s-.17-.03-.49-.07c-2.39-.36-13.2-1.54-26.25,4.39-13.09,5.96-98.93,66.95-134.53,88.32-35.6-21.38-121.44-82.37-134.54-88.32-13.08-5.95-23.91-4.75-26.26-4.39-.31.04-.47.07-.47.07Z" fill="#ebecec" opacity=".23" stroke-width="0"/><path d="m88.01,163.76s0,.01,0,.01c0,.06.15,206.57.43,206.56.04,0,.21,0,.52,0,11.48.08,320.91.03,321.67.01h0v-206.59s-.17-.03-.5-.07c-2.39-.36-13.22-1.52-26.28,4.42-13.09,5.96-98.93,67.16-134.53,88.53-35.6-21.38-121.44-82.57-134.54-88.53-13.1-5.96-23.94-4.77-26.3-4.42-.31.04-.48.07-.48.07Z" fill="#eaebeb" opacity=".24" stroke-width="0"/><path d="m87.98,163.81s0,.01,0,.01c0,.06.15,206.6.42,206.6.04,0,.21,0,.52,0,11.35.08,320.95.03,321.75.01h0v-206.62s-.17-.03-.5-.07c-2.4-.35-13.23-1.5-26.31,4.45-13.09,5.96-98.93,67.36-134.53,88.74-35.6-21.38-121.44-82.78-134.54-88.74-13.12-5.97-23.97-4.8-26.33-4.45-.31.04-.48.07-.48.07Z" fill="#e9eaea" opacity=".25" stroke-width="0"/><path d="m87.94,163.86s0,.01,0,.01c0,.06.14,206.63.41,206.63.04,0,.21,0,.52,0,11.21.08,320.99.03,321.83.01h0v-206.65s-.17-.03-.5-.07c-2.4-.35-13.25-1.47-26.35,4.49-13.09,5.96-98.93,67.57-134.53,88.95-35.6-21.38-121.44-82.99-134.54-88.95-13.13-5.98-24-4.83-26.37-4.48-.31.04-.48.07-.48.07Z" fill="#e8e9ea" opacity=".26" stroke-width="0"/><path d="m87.91,163.91s0,.01,0,.01c0,.06.14,206.66.41,206.66.04,0,.21,0,.52,0,11.08.08,321.03.03,321.9.01h0v-206.68s-.17-.03-.5-.07c-2.4-.35-13.26-1.45-26.38,4.52-13.09,5.96-98.93,67.78-134.53,89.16-35.6-21.38-121.44-83.2-134.54-89.16-13.15-5.99-24.03-4.85-26.4-4.51-.31.04-.48.06-.48.06Z" fill="#e7e8e9" opacity=".28" stroke-width="0"/><path d="m87.87,163.95s0,.01,0,.01c0,.06.14,206.69.4,206.69.04,0,.21,0,.52,0,10.94.08,321.07.03,321.98.01h0v-206.72s-.17-.03-.5-.07c-2.41-.34-13.28-1.43-26.42,4.55-13.09,5.96-98.93,67.99-134.53,89.37-35.6-21.38-121.44-83.41-134.54-89.37-13.17-5.99-24.06-4.88-26.43-4.54-.32.04-.48.06-.48.06Z" fill="#e6e7e8" opacity=".29" stroke-width="0"/><path d="m87.84,164s0,.01,0,.01c0,.06.14,206.72.39,206.72.04,0,.21,0,.52,0,10.81.08,321.11.04,322.06.01h0v-206.75s-.17-.03-.5-.07c-2.41-.34-13.29-1.41-26.45,4.58-13.09,5.96-98.93,68.2-134.53,89.57-35.6-21.38-121.44-83.62-134.54-89.57-13.19-6-24.09-4.91-26.47-4.58-.32.04-.48.06-.48.06Z" fill="#e5e6e7" opacity=".3" stroke-width="0"/><path d="m87.8,164.05s0,.01,0,.01c0,.06.13,206.76.39,206.76.03,0,.21,0,.52,0,10.68.08,321.14.04,322.13.01h0v-206.78s-.17-.03-.5-.06c-2.41-.33-13.31-1.39-26.48,4.61-13.09,5.96-98.93,68.41-134.53,89.78-35.6-21.38-121.44-83.83-134.54-89.78-13.21-6.01-24.12-4.94-26.5-4.61-.32.03-.48.06-.48.06Z" fill="#e4e5e6" opacity=".31" stroke-width="0"/><path d="m87.77,164.1s0,.01,0,.01c0,.06.13,206.79.38,206.79.03,0,.21,0,.52,0,10.54.08,321.18.04,322.21.01h0v-206.81s-.17-.03-.5-.06c-2.42-.33-13.32-1.36-26.52,4.64-13.09,5.96-98.93,68.61-134.53,89.99-35.6-21.38-121.44-84.03-134.54-89.99-13.23-6.02-24.15-4.96-26.54-4.64-.32.03-.48.06-.48.06Z" fill="#e3e4e5" opacity=".32" stroke-width="0"/><path d="m87.73,164.14s0,.01,0,.01c0,.05.13,206.82.37,206.82.03,0,.21,0,.52,0,10.41.08,321.22.04,322.28.01h0v-206.85s-.17-.03-.5-.06c-2.42-.33-13.34-1.34-26.55,4.67-13.09,5.96-98.93,68.82-134.53,90.2-35.6-21.38-121.44-84.24-134.54-90.2-13.25-6.03-24.18-4.99-26.57-4.67-.32.03-.49.06-.49.06Z" fill="#e2e3e4" opacity=".33" stroke-width="0"/><path d="m87.7,164.19s0,.01,0,.01c0,.05.13,206.85.37,206.85.03,0,.21,0,.52,0,10.27.08,321.26.04,322.36.01v-206.88s-.17-.03-.5-.06c-2.43-.32-13.35-1.32-26.59,4.7-13.09,5.96-98.93,69.03-134.53,90.41-35.6-21.38-121.44-84.45-134.54-90.41-13.27-6.04-24.21-5.02-26.6-4.7-.32.03-.49.06-.49.06Z" fill="#e1e2e3" opacity=".34" stroke-width="0"/><path d="m87.66,164.24s0,.01,0,.01c0,.05.13,206.88.36,206.89.03,0,.21,0,.52,0,10.14.08,321.3.04,322.44.01v-206.91s-.17-.03-.51-.06c-2.43-.32-13.37-1.3-26.62,4.74-13.09,5.96-98.93,69.24-134.53,90.62-35.6-21.38-121.44-84.66-134.54-90.62-13.29-6.05-24.24-5.05-26.64-4.73-.32.03-.49.06-.49.06Z" fill="#e0e1e2" opacity=".36" stroke-width="0"/><path d="m87.63,164.29s0,.02,0,.02c0,.05.12,206.91.36,206.92.03,0,.21,0,.52,0,10,.08,321.34.04,322.51.01v-206.95s-.18-.03-.51-.06c-2.43-.31-13.38-1.27-26.66,4.77-13.09,5.96-98.93,69.45-134.53,90.82-35.6-21.38-121.44-84.87-134.54-90.82-13.3-6.05-24.27-5.07-26.67-4.76-.32.03-.49.05-.49.05Z" fill="#dfe0e1" opacity=".37" stroke-width="0"/><path d="m87.59,164.34s0,.02,0,.02c0,.05.12,206.94.35,206.95.03,0,.21,0,.52,0,9.87.08,321.38.04,322.59.01v-206.98s-.18-.02-.51-.06c-2.44-.31-13.39-1.25-26.69,4.8-13.09,5.96-98.93,69.66-134.53,91.03-35.6-21.38-121.44-85.08-134.54-91.03-13.32-6.06-24.3-5.1-26.7-4.8-.32.03-.49.05-.49.05Z" fill="#dedfe0" opacity=".38" stroke-width="0"/><path d="m87.55,164.38s0,.02,0,.02c0,.05.12,206.98.34,206.98.03,0,.21,0,.53,0,9.74.08,321.42.04,322.67.02v-207.01s-.18-.02-.51-.05c-2.44-.31-13.41-1.23-26.72,4.83-13.09,5.96-98.93,69.87-134.53,91.24-35.6-21.38-121.44-85.28-134.54-91.24-13.34-6.07-24.33-5.13-26.74-4.83-.32.03-.49.05-.49.05Z" fill="#dddedf" opacity=".39" stroke-width="0"/><path d="m87.52,164.43s0,.02,0,.02c0,.05.12,207.01.34,207.02.03,0,.21,0,.53,0,9.6.08,321.46.04,322.74.02v-207.04s-.18-.02-.51-.05c-2.44-.3-13.42-1.21-26.76,4.86-13.09,5.96-98.93,70.07-134.53,91.45-35.6-21.38-121.44-85.49-134.54-91.45-13.36-6.08-24.36-5.15-26.77-4.86-.32.03-.49.05-.49.05Z" fill="#dcddde" opacity=".4" stroke-width="0"/><path d="m87.48,164.48s0,.02,0,.02c0,.05.11,207.04.33,207.05.03,0,.21,0,.53,0,9.47.08,321.5.04,322.82.02v-207.08s-.18-.02-.51-.05c-2.45-.3-13.44-1.18-26.79,4.89-13.09,5.96-98.93,70.28-134.53,91.66-35.6-21.38-121.44-85.7-134.54-91.66-13.38-6.09-24.39-5.18-26.81-4.89-.32.03-.5.05-.5.05Z" fill="#dbdcdd" opacity=".41" stroke-width="0"/><path d="m87.45,164.53s0,.02,0,.02c0,.05.11,207.07.32,207.08.03,0,.21,0,.53,0,9.33.08,321.54.04,322.89.02v-207.11s-.18-.02-.51-.05c-2.45-.29-13.45-1.16-26.83,4.92-13.09,5.96-98.93,70.49-134.53,91.87-35.6-21.38-121.44-85.91-134.54-91.87-13.4-6.1-24.42-5.21-26.84-4.92-.33.03-.5.05-.5.05Z" fill="#dadbdc" opacity=".43" stroke-width="0"/><path d="m87.41,164.57s0,.02,0,.02c0,.05.11,207.1.32,207.11.03,0,.21,0,.53,0,9.2.08,321.58.05,322.97.02v-207.14s-.18-.02-.51-.05c-2.45-.29-13.47-1.14-26.86,4.95-13.09,5.96-98.93,70.7-134.53,92.07-35.6-21.38-121.44-86.12-134.54-92.07-13.42-6.11-24.45-5.24-26.87-4.95-.33.03-.5.05-.5.05Z" fill="#d9dadc" opacity=".44" stroke-width="0"/><path d="m87.38,164.62s0,.02,0,.02c0,.05.11,207.13.31,207.14.03,0,.21,0,.53,0,9.06.08,321.62.05,323.05.02v-207.17s-.18-.02-.51-.05c-2.46-.28-13.48-1.12-26.9,4.99-13.09,5.96-98.93,70.91-134.53,92.28-35.6-21.38-121.44-86.33-134.54-92.28-13.44-6.11-24.48-5.26-26.91-4.98-.33.02-.5.05-.5.05Z" fill="#d8d9db" opacity=".45" stroke-width="0"/><path d="m87.34,164.67s0,.02,0,.02c0,.04.11,207.17.3,207.18.03,0,.21,0,.53,0,8.93.08,321.66.05,323.12.02v-207.21s-.18-.02-.51-.05c-2.46-.28-13.5-1.09-26.93,5.02-13.09,5.96-98.93,71.12-134.53,92.49-35.6-21.38-121.44-86.53-134.54-92.49-13.46-6.12-24.51-5.29-26.94-5.01-.33.02-.5.04-.5.04Z" fill="#d8d8da" opacity=".46" stroke-width="0"/><path d="m87.31,164.72s0,.02,0,.02c0,.04.1,207.2.3,207.21.03,0,.21,0,.53,0,8.8.08,321.7.05,323.2.02v-207.24s-.18-.02-.52-.05c-2.46-.28-13.51-1.07-26.96,5.05-13.09,5.96-98.93,71.32-134.53,92.7-35.6-21.38-121.44-86.74-134.54-92.7-13.48-6.13-24.54-5.32-26.98-5.05-.33.02-.5.04-.5.04Z" fill="#d7d8d9" opacity=".47" stroke-width="0"/><path d="m87.27,164.76s0,.02,0,.02c0,.04.1,207.23.29,207.24.03,0,.21,0,.53,0,8.66.08,321.74.05,323.27.02v-207.27s-.18-.02-.52-.04c-2.47-.27-13.53-1.05-27,5.08-13.09,5.96-98.93,71.53-134.53,92.91-35.6-21.38-121.44-86.95-134.54-92.91-13.49-6.14-24.57-5.35-27.01-5.08-.33.02-.5.04-.5.04Z" fill="#d6d7d8" opacity=".48" stroke-width="0"/><path d="m87.24,164.81s0,.02,0,.02c0,.04.1,207.26.28,207.27.03,0,.21,0,.53,0,8.53.08,321.78.05,323.35.02v-207.3s-.18-.02-.52-.04c-2.47-.27-13.54-1.03-27.03,5.11-13.09,5.96-98.93,71.74-134.53,93.12-35.6-21.38-121.44-87.16-134.54-93.12-13.51-6.15-24.6-5.37-27.04-5.11-.33.02-.5.04-.5.04Z" fill="#d5d6d7" opacity=".49" stroke-width="0"/><path d="m87.2,164.86s0,.02,0,.02c0,.04.1,207.29.28,207.31.03,0,.21,0,.53,0,8.39.08,321.82.05,323.43.02v-207.34s-.18-.02-.52-.04c-2.47-.26-13.56-1-27.07,5.14-13.09,5.96-98.93,71.95-134.53,93.33-35.6-21.38-121.44-87.37-134.54-93.33-13.53-6.16-24.63-5.4-27.08-5.14-.33.02-.51.04-.51.04Z" fill="#d4d5d6" opacity=".51" stroke-width="0"/><path d="m87.17,164.91s0,.02,0,.02c0,.04.09,207.32.27,207.34.02,0,.21,0,.53,0,8.26.08,321.86.05,323.5.02v-207.37s-.18-.02-.52-.04c-2.48-.26-13.57-.98-27.1,5.17-13.09,5.96-98.93,72.16-134.53,93.53-35.6-21.38-121.44-87.58-134.54-93.53-13.55-6.17-24.66-5.43-27.11-5.17-.33.02-.51.04-.51.04Z" fill="#d3d4d5" opacity=".52" stroke-width="0"/><path d="m87.13,164.95s0,.02,0,.02c0,.04.09,207.36.27,207.37.02,0,.21,0,.53,0,8.12.08,321.9.05,323.58.02v-207.4s-.18-.02-.52-.04c-2.48-.26-13.59-.96-27.13,5.2-13.09,5.96-98.93,72.37-134.53,93.74-35.6-21.38-121.44-87.79-134.54-93.74-13.57-6.17-24.69-5.45-27.15-5.2-.33.02-.51.04-.51.04Z" fill="#d2d3d4" opacity=".53" stroke-width="0"/><path d="m87.1,165s0,.02,0,.02c0,.04.09,207.39.26,207.4.02,0,.21,0,.53,0,7.99.08,321.94.05,323.66.02v-207.43s-.18-.02-.52-.04c-2.48-.25-13.6-.94-27.17,5.24-13.09,5.96-98.93,72.57-134.53,93.95-35.6-21.38-121.44-87.99-134.54-93.95-13.59-6.18-24.72-5.48-27.18-5.23-.33.02-.51.04-.51.04Z" fill="#d1d2d3" opacity=".54" stroke-width="0"/><path d="m87.06,165.05s0,.02,0,.02c0,.04.09,207.42.25,207.44.02,0,.21,0,.54,0,7.86.08,321.98.05,323.73.02v-207.47s-.18-.02-.52-.04c-2.49-.25-13.62-.92-27.2,5.27-13.09,5.96-98.93,72.78-134.53,94.16-35.6-21.38-121.44-88.2-134.54-94.16-13.61-6.19-24.75-5.51-27.21-5.26-.33.02-.51.03-.51.03Z" fill="#d0d1d2" opacity=".55" stroke-width="0"/><path d="m87.03,165.1s0,.02,0,.02c0,.04.09,207.45.25,207.47.02,0,.21,0,.54,0,7.72.08,322.02.05,323.81.02v-207.5s-.18-.02-.52-.04c-2.49-.24-13.63-.89-27.24,5.3-13.09,5.96-98.93,72.99-134.53,94.37-35.6-21.38-121.44-88.41-134.54-94.37-13.63-6.2-24.78-5.54-27.25-5.3-.34.02-.51.03-.51.03Z" fill="#cfd0d1" opacity=".56" stroke-width="0"/><path d="m86.99,165.14s0,.02,0,.02c0,.04.08,207.48.24,207.5.02,0,.21,0,.54,0,7.59.08,322.06.06,323.88.02v-207.53s-.18-.02-.52-.03c-2.49-.24-13.65-.87-27.27,5.33-13.09,5.96-98.93,73.2-134.53,94.58-35.6-21.38-121.44-88.62-134.54-94.58-13.65-6.21-24.81-5.56-27.28-5.33-.34.02-.51.03-.51.03Z" fill="#cecfd0" opacity=".57" stroke-width="0"/><path d="m86.96,165.19s0,.02,0,.02c0,.03.08,207.51.23,207.53.02,0,.2,0,.54,0,7.45.08,322.1.06,323.96.02v-207.56s-.18-.02-.53-.03c-2.5-.24-13.66-.85-27.31,5.36-13.09,5.96-98.93,73.41-134.53,94.78-35.6-21.38-121.44-88.83-134.54-94.78-13.66-6.22-24.84-5.59-27.31-5.36-.34.01-.52.03-.52.03Z" fill="#cdcecf" opacity=".59" stroke-width="0"/><path d="m86.92,165.24s0,.02,0,.03c0,.03.08,207.54.23,207.56.02,0,.2,0,.54,0,7.32.08,322.14.06,324.04.02v-207.6s-.18-.02-.53-.03c-2.5-.23-13.67-.83-27.34,5.39-13.09,5.96-98.93,73.62-134.53,94.99-35.6-21.38-121.44-89.04-134.54-94.99-13.68-6.23-24.87-5.62-27.35-5.39-.34.01-.52.03-.52.03Z" fill="#cccdce" opacity=".6" stroke-width="0"/><path d="m86.89,165.29s0,.03,0,.03c0,.03.08,207.58.22,207.6.02,0,.2,0,.54,0,7.18.08,322.18.06,324.11.02v-207.63s-.18-.02-.53-.03c-2.5-.23-13.69-.8-27.37,5.42-13.09,5.96-98.93,73.83-134.53,95.2-35.6-21.38-121.44-89.24-134.54-95.2-13.7-6.24-24.9-5.65-27.38-5.42-.34.01-.52.03-.52.03Z" fill="#cbccce" opacity=".61" stroke-width="0"/><path d="m86.85,165.33s0,.03,0,.03c0,.03.07,207.61.21,207.63.02,0,.2,0,.54,0,7.05.08,322.22.06,324.19.02v-207.66s-.18-.02-.53-.03c-2.51-.22-13.7-.78-27.41,5.45-13.09,5.96-98.93,74.03-134.53,95.41-35.6-21.38-121.44-89.45-134.54-95.41-13.72-6.24-24.93-5.67-27.42-5.45-.34.01-.52.03-.52.03Z" fill="#cacbcd" opacity=".62" stroke-width="0"/><path d="m86.82,165.38s0,.03,0,.03c0,.03.07,207.64.21,207.66.02,0,.2,0,.54,0,6.92.08,322.25.06,324.27.02v-207.69s-.18-.01-.53-.03c-2.51-.22-13.72-.76-27.44,5.49-13.09,5.96-98.93,74.24-134.53,95.62-35.6-21.38-121.44-89.66-134.54-95.62-13.74-6.25-24.96-5.7-27.45-5.48-.34.01-.52.03-.52.03Z" fill="#c9cacc" opacity=".63" stroke-width="0"/><path d="m86.78,165.43s0,.03,0,.03c0,.03.07,207.67.2,207.69.02,0,.2,0,.54,0,6.78.08,322.29.06,324.34.02v-207.73s-.18-.01-.53-.03c-2.51-.21-13.73-.74-27.48,5.52-13.09,5.96-98.93,74.45-134.53,95.83-35.6-21.38-121.44-89.87-134.54-95.83-13.76-6.26-24.99-5.73-27.48-5.52-.34.01-.52.02-.52.02Z" fill="#c8c9cb" opacity=".64" stroke-width="0"/><path d="m86.75,165.48s0,.03,0,.03c0,.03.07,207.7.19,207.73.02,0,.2,0,.54-.01,6.65.08,322.33.06,324.42.02v-207.76s-.18-.01-.53-.02c-2.52-.21-13.75-.71-27.51,5.55-13.09,5.96-98.93,74.66-134.53,96.03-35.6-21.38-121.44-90.08-134.54-96.03-13.78-6.27-25.02-5.75-27.52-5.55-.34,0-.52.02-.52.02Z" fill="#c7c8ca" opacity=".66" stroke-width="0"/><path d="m86.71,165.53s0,.03,0,.03c0,.03.06,207.73.19,207.76.02,0,.2,0,.54-.01,6.51.08,322.37.06,324.49.02v-207.79s-.18-.01-.53-.02c-2.52-.21-13.76-.69-27.54,5.58-13.09,5.96-98.93,74.87-134.53,96.24-35.6-21.38-121.44-90.29-134.54-96.24-13.8-6.28-25.05-5.78-27.55-5.58-.34,0-.52.02-.52.02Z" fill="#c6c7c9" opacity=".67" stroke-width="0"/><path d="m86.67,165.57s0,.03,0,.03c0,.03.06,207.77.18,207.79.02,0,.2,0,.54-.01,6.38.08,322.41.06,324.57.02v-207.82s-.19-.01-.53-.02c-2.52-.2-13.78-.67-27.58,5.61-13.09,5.96-98.93,75.08-134.53,96.45-35.6-21.38-121.44-90.5-134.54-96.45-13.82-6.29-25.08-5.81-27.59-5.61-.34,0-.53.02-.53.02Z" fill="#c5c6c8" opacity=".68" stroke-width="0"/><path d="m86.64,165.62s0,.03,0,.03c0,.03.06,207.8.17,207.82.02,0,.2,0,.54-.01,6.24.08,322.45.06,324.65.02v-207.86s-.19-.01-.54-.02c-2.53-.2-13.79-.65-27.61,5.64-13.09,5.96-98.93,75.28-134.53,96.66-35.6-21.38-121.44-90.7-134.54-96.66-13.83-6.3-25.11-5.84-27.62-5.64-.35,0-.53.02-.53.02Z" fill="#c4c5c7" opacity=".69" stroke-width="0"/><path d="m86.6,165.67s0,.03,0,.03c0,.02.06,207.83.17,207.85.02,0,.2,0,.54-.01,6.11.08,322.49.06,324.72.02v-207.89s-.19-.01-.54-.02c-2.53-.19-13.81-.62-27.65,5.67-13.09,5.96-98.93,75.49-134.53,96.87-35.6-21.38-121.44-90.91-134.54-96.87-13.85-6.3-25.14-5.86-27.65-5.67-.35,0-.53.02-.53.02Z" fill="#c3c4c6" opacity=".7" stroke-width="0"/><path d="m86.57,165.72s0,.03,0,.03c0,.02.06,207.86.16,207.89.01,0,.2,0,.54-.01,5.98.08,322.53.07,324.8.02v-207.92s-.19-.01-.54-.02c-2.53-.19-13.82-.6-27.68,5.7-13.09,5.96-98.93,75.7-134.53,97.08-35.6-21.38-121.44-91.12-134.54-97.08-13.87-6.31-25.17-5.89-27.69-5.7-.35,0-.53.02-.53.02Z" fill="#c2c3c5" opacity=".71" stroke-width="0"/><path d="m86.53,165.76s0,.03,0,.03c0,.02.05,207.89.16,207.92.01,0,.2,0,.55-.01,5.84.08,322.57.07,324.87.02v-207.95s-.19-.01-.54-.02c-2.54-.19-13.84-.58-27.72,5.74-13.09,5.96-98.93,75.91-134.53,97.29-35.6-21.38-121.44-91.33-134.54-97.29-13.89-6.32-25.2-5.92-27.72-5.73-.35,0-.53.02-.53.02Z" fill="#c1c2c4" opacity=".72" stroke-width="0"/><path d="m86.5,165.81s0,.03,0,.03c0,.02.05,207.92.15,207.95.01,0,.2,0,.55-.01,5.71.08,322.61.07,324.95.02v-207.99s-.19-.01-.54-.02c-2.54-.18-13.85-.56-27.75,5.77-13.09,5.96-98.93,76.12-134.53,97.49-35.6-21.38-121.44-91.54-134.54-97.49-13.91-6.33-25.23-5.95-27.76-5.77-.35,0-.53.01-.53.01Z" fill="#c0c1c3" opacity=".74" stroke-width="0"/><path d="m86.46,165.86s0,.03,0,.03c0,.02.05,207.96.14,207.98.01,0,.2,0,.55-.01,5.57.08,322.65.07,325.03.02v-208.02s-.19-.01-.54-.01c-2.54-.18-13.87-.53-27.78,5.8-13.09,5.96-98.93,76.33-134.53,97.7-35.6-21.38-121.44-91.75-134.54-97.7-13.93-6.34-25.26-5.97-27.79-5.8-.35,0-.53.01-.53.01Z" fill="#bfc0c2" opacity=".75" stroke-width="0"/><path d="m86.43,165.91s0,.03,0,.03c0,.02.05,207.99.14,208.02.01,0,.2,0,.55-.01,5.44.08,322.69.07,325.1.02v-208.05s-.19,0-.54-.01c-2.55-.17-13.88-.51-27.82,5.83-13.09,5.96-98.93,76.53-134.53,97.91-35.6-21.38-121.44-91.95-134.54-97.91-13.95-6.35-25.29-6-27.82-5.83-.35,0-.53.01-.53.01Z" fill="#bebfc1" opacity=".76" stroke-width="0"/><path d="m86.39,165.95s0,.03,0,.03c0,.02.04,208.02.13,208.05.01,0,.2,0,.55-.01,5.3.09,322.73.07,325.18.02v-208.09s-.19,0-.54-.01c-2.55-.17-13.9-.49-27.85,5.86-13.09,5.96-98.93,76.74-134.53,98.12-35.6-21.38-121.44-92.16-134.54-98.12-13.97-6.36-25.32-6.03-27.86-5.86-.35,0-.54.01-.54.01Z" fill="#bdbec0" opacity=".77" stroke-width="0"/><path d="m86.36,166s0,.03,0,.03c0,.02.04,208.05.12,208.08.01,0,.2,0,.55-.01,5.17.09,322.77.07,325.26.02v-208.12s-.19,0-.54,0c-2.55-.17-13.91-.47-27.89,5.89-13.09,5.96-98.93,76.95-134.53,98.33-35.6-21.38-121.44-92.37-134.54-98.33-13.99-6.36-25.35-6.05-27.89-5.89-.35,0-.54,0-.54,0Z" fill="#bcbec0" opacity=".78" stroke-width="0"/><path d="m86.32,166.05s0,.03,0,.03c0,.02.04,208.08.12,208.11.01,0,.2,0,.55-.01,5.04.09,322.81.07,325.33.02v-208.15s-.19,0-.54,0c-2.56-.16-13.92-.44-27.92,5.92-13.09,5.96-98.93,77.16-134.53,98.54-35.6-21.38-121.44-92.58-134.54-98.54-14-6.37-25.38-6.08-27.92-5.92-.35,0-.54,0-.54,0Z" fill="#bbbdbf" opacity=".79" stroke-width="0"/><path d="m86.29,166.1s0,.03,0,.03c0,.02.04,208.11.11,208.15,0,0,.2,0,.55-.01,4.9.09,322.85.07,325.41.02v-208.18s-.19,0-.55,0c-2.56-.16-13.94-.42-27.96,5.95-13.09,5.96-98.93,77.37-134.53,98.74-35.6-21.38-121.44-92.79-134.54-98.74-14.02-6.38-25.41-6.11-27.96-5.95-.35,0-.54,0-.54,0Z" fill="#babcbe" opacity=".8" stroke-width="0"/><path d="m86.25,166.14s0,.03,0,.03c0,.02.04,208.14.1,208.18,0,0,.2,0,.55-.01,4.77.09,322.89.07,325.48.02v-208.22s-.19,0-.55,0c-2.56-.15-13.95-.4-27.99,5.99-13.09,5.96-98.93,77.58-134.53,98.95-35.6-21.38-121.44-93-134.54-98.95-14.04-6.39-25.44-6.14-27.99-5.99-.35,0-.54,0-.54,0Z" fill="#b9bbbd" opacity=".82" stroke-width="0"/><path d="m86.22,166.19s0,.03,0,.03c0,.01.03,208.18.1,208.21,0,0,.2,0,.55-.01,4.63.09,322.93.07,325.56.02v-208.25s-.19,0-.55,0c-2.57-.15-13.97-.38-28.02,6.02-13.09,5.96-98.93,77.79-134.53,99.16-35.6-21.38-121.44-93.2-134.54-99.16-14.06-6.4-25.47-6.16-28.03-6.02-.36,0-.54,0-.54,0Z" fill="#b8babc" opacity=".83" stroke-width="0"/><path d="m86.18,166.24s0,.04,0,.04c0,.01.03,208.21.09,208.24,0,0,.2,0,.55-.01,4.5.09,322.97.07,325.64.02v-208.28s-.19,0-.55,0c-2.57-.14-13.98-.36-28.06,6.05-13.09,5.96-98.93,77.99-134.53,99.37-35.6-21.38-121.44-93.41-134.54-99.37-14.08-6.41-25.5-6.19-28.06-6.05-.36,0-.54,0-.54,0Z" fill="#b7b9bb" opacity=".84" stroke-width="0"/><path d="m86.15,166.29s0,.04,0,.04c0,.01.03,208.24.08,208.27,0,0,.2,0,.55-.01,4.36.09,323.01.08,325.71.02v-208.31s-.19,0-.55,0c-2.57-.14-14-.33-28.09,6.08-13.09,5.96-98.93,78.2-134.53,99.58-35.6-21.38-121.44-93.62-134.54-99.58-14.1-6.42-25.53-6.22-28.09-6.08-.36,0-.55,0-.55,0Z" fill="#b6b8ba" opacity=".85" stroke-width="0"/><path d="m86.11,166.33s0,.04,0,.04c0,.01.03,208.27.08,208.31,0,0,.2,0,.55-.01,4.23.09,323.05.08,325.79.02v-208.35s-.19,0-.55,0c-2.58-.14-14.01-.31-28.13,6.11-13.09,5.96-98.93,78.41-134.53,99.79-35.6-21.38-121.44-93.83-134.54-99.79-14.12-6.42-25.56-6.25-28.13-6.11-.36,0-.55,0-.55,0Z" fill="#b5b7b9" opacity=".86" stroke-width="0"/><path d="m86.08,166.38s0,.04,0,.04c0,.01.02,208.3.07,208.34,0,0,.2,0,.55-.02,4.1.09,323.09.08,325.87.02v-208.38s-.19,0-.55,0c-2.58-.13-14.03-.29-28.16,6.14-13.09,5.96-98.93,78.62-134.53,99.99-35.6-21.38-121.44-94.04-134.54-99.99-14.14-6.43-25.59-6.27-28.16-6.14-.36,0-.55,0-.55,0Z" fill="#b4b6b8" opacity=".87" stroke-width="0"/><path d="m86.04,166.43s0,.04,0,.04c0,0,.02,208.33.06,208.37,0,0,.2,0,.56-.02,3.96.09,323.13.08,325.94.02v-208.41s-.19,0-.55,0c-2.58-.13-14.04-.27-28.19,6.17-13.09,5.96-98.93,78.83-134.53,100.2-35.6-21.38-121.44-94.25-134.54-100.2-14.16-6.44-25.62-6.3-28.2-6.17-.36,0-.55,0-.55,0Z" fill="#b3b5b7" opacity=".89" stroke-width="0"/><path d="m86.01,166.48s0,.04,0,.04c0,0,.02,208.37.06,208.4,0,0,.2,0,.56-.02,3.83.09,323.17.08,326.02.02v-208.44s-.19,0-.55,0c-2.59-.12-14.06-.24-28.23,6.2-13.09,5.96-98.93,79.04-134.53,100.41-35.6-21.38-121.44-94.46-134.54-100.41-14.18-6.45-25.65-6.33-28.23-6.2-.36,0-.55,0-.55,0Z" fill="#b2b4b6" opacity=".9" stroke-width="0"/><path d="m85.97,166.52s0,.04,0,.04c0,0,.02,208.4.05,208.44,0,0,.2,0,.56-.02,3.69.09,323.21.08,326.09.02v-208.48s-.19,0-.55,0c-2.59-.12-14.07-.22-28.26,6.24-13.09,5.96-98.93,79.24-134.53,100.62-35.6-21.38-121.44-94.66-134.54-100.62-14.19-6.46-25.68-6.35-28.26-6.24-.36,0-.55,0-.55,0Z" fill="#b1b3b5" opacity=".91" stroke-width="0"/><path d="m85.94,166.57s0,.04,0,.04c0,0,.02,208.43.05,208.47,0,0,.2,0,.56-.02,3.56.09,323.25.08,326.17.02v-208.51s-.19,0-.56,0c-2.59-.12-14.09-.2-28.3,6.27-13.09,5.96-98.93,79.45-134.53,100.83-35.6-21.38-121.44-94.87-134.54-100.83-14.21-6.47-25.71-6.38-28.3-6.27-.36,0-.55,0-.55,0Z" fill="#b0b2b4" opacity=".92" stroke-width="0"/><path d="m85.9,166.62s0,.04,0,.04c0,0,.01,208.46.04,208.5,0,0,.2,0,.56-.02,3.42.09,323.29.08,326.25.02v-208.54s-.19,0-.56,0c-2.6-.11-14.1-.18-28.33,6.3-13.09,5.96-98.93,79.66-134.53,101.04-35.6-21.38-121.44-95.08-134.54-101.04-14.23-6.48-25.74-6.41-28.33-6.3-.36-.01-.55,0-.55,0Z" fill="#afb1b3" opacity=".93" stroke-width="0"/><path d="m85.86,166.67s0,.04,0,.04c0,0,.01,208.49.03,208.53,0,0,.2,0,.56-.02,3.29.09,323.32.08,326.32.02v-208.57s-.19,0-.56,0c-2.6-.11-14.12-.15-28.37,6.33-13.09,5.96-98.93,79.87-134.53,101.25-35.6-21.38-121.44-95.29-134.54-101.25-14.25-6.48-25.77-6.44-28.37-6.33-.36-.01-.56,0-.56,0Z" fill="#aeb0b2" opacity=".94" stroke-width="0"/><path d="m85.83,166.71s0,.04,0,.04c0,0,0,208.52.03,208.57,0,0,.2,0,.56-.02,3.15.09,323.36.08,326.4.02v-208.61s-.19,0-.56,0c-2.6-.1-14.13-.13-28.4,6.36-13.09,5.96-98.93,80.08-134.53,101.45-35.6-21.38-121.44-95.5-134.54-101.45-14.27-6.49-25.8-6.46-28.4-6.36-.36-.01-.56,0-.56,0Z" fill="#adafb2" opacity=".95" stroke-width="0"/><path d="m85.79,166.76s0,.04,0,.04c0,0,0,208.55.02,208.6,0,0,.2,0,.56-.02,3.02.09,323.4.08,326.47.02v-208.64s-.19,0-.56.01c-2.61-.1-14.15-.11-28.43,6.39-13.09,5.96-98.93,80.29-134.53,101.66-35.6-21.38-121.44-95.71-134.54-101.66-14.29-6.5-25.83-6.49-28.43-6.39-.37-.01-.56-.01-.56-.01Z" fill="#acaeb1" opacity=".97" stroke-width="0"/><path d="m85.76,166.81s0,.04,0,.04c0,0,0,208.59.01,208.63,0,0,.2,0,.56-.02,2.89.09,323.44.09,326.55.02v-208.67s-.2,0-.56.01c-2.61-.1-14.16-.09-28.47,6.42-13.09,5.96-98.93,80.49-134.53,101.87-35.6-21.38-121.44-95.91-134.54-101.87-14.31-6.51-25.86-6.52-28.47-6.42-.37-.01-.56-.01-.56-.01Z" fill="#abadb0" opacity=".98" stroke-width="0"/><path d="m85.72,166.86v.04s0,208.62,0,208.66c0,0,.19,0,.56-.02,2.75.09,323.48.09,326.63.02v-208.7s-.2,0-.56.01c-2.61-.09-14.18-.06-28.5,6.45-13.09,5.96-98.93,80.7-134.53,102.08-35.6-21.38-121.44-96.12-134.54-102.08-14.33-6.52-25.89-6.55-28.5-6.45-.37-.01-.56-.01-.56-.01Z" fill="#aaacaf" opacity=".99" stroke-width="0"/><path d="m412.39,166.92c-2.62-.09-14.19-.04-28.54,6.49-13.09,5.96-98.93,80.91-134.53,102.29-35.6-21.38-121.44-96.33-134.54-102.29-14.35-6.53-25.92-6.57-28.54-6.49-.37-.02-.56-.02-.56-.02v208.74s.19,0,.56-.02c2.62.09,323.52.09,326.14,0,.37.02.56.02.56.02v-208.74s-.2,0-.56.02Z" fill="#9c9c9c" stroke-width="0"/></g><path d="m412.39,166.92c-2.62-.09-14.19-.04-28.54,6.49-13.09,5.96-98.93,80.91-134.53,102.29-35.6-21.38-121.44-96.33-134.54-102.29-14.35-6.53-25.92-6.57-28.54-6.49-.37-.02-.56-.02-.56-.02v208.74s.19,0,.56-.02c2.62.09,323.52.09,326.14,0,.37.02.56.02.56.02v-208.74s-.2,0-.56.02Z" fill="url(#uuid-02b2c941-d47c-4484-b24e-bb4f39bd54e1)" stroke-width="0"/><g mix-blend-mode="multiply"><path d="m85.69,367.98s0-12.95,12.95-23.08c12.94-10.13,127.76-82.17,132.82-84.99,4.22-2.34,14.63-6.15,17.17-6.15s12.95,3.81,17.17,6.15c5.06,2.81,119.88,74.85,132.83,84.99,12.94,10.13,12.94,23.08,12.94,23.08H85.69Z" fill="url(#uuid-5c5bb2d9-e045-4326-abb1-d818001dcb3a)" opacity="0" stroke-width="0"/><path d="m85.82,368.61s0-12.95,12.95-23.08c12.94-10.13,127.76-82.17,132.82-84.99,4.22-2.34,14.63-6.15,17.17-6.15s12.95,3.81,17.17,6.15c5.06,2.81,119.88,74.85,132.83,84.99,12.94,10.13,12.94,23.08,12.94,23.08H85.82Z" fill="url(#uuid-92ebc65c-8cdd-4feb-8460-5cd53d6bfc37)" opacity=".09" stroke-width="0"/><path d="m85.94,369.24s0-12.95,12.95-23.08c12.94-10.13,127.76-82.17,132.82-84.99,4.22-2.34,14.63-6.15,17.17-6.15s12.95,3.81,17.17,6.15c5.06,2.81,119.88,74.85,132.83,84.99,12.94,10.13,12.94,23.08,12.94,23.08H85.94Z" fill="url(#uuid-f4940df0-4b87-431d-9ee7-5d1c54867af1)" opacity=".18" stroke-width="0"/><path d="m86.07,369.88s0-12.95,12.95-23.08c12.94-10.13,127.76-82.17,132.82-84.99,4.22-2.34,14.63-6.15,17.17-6.15s12.95,3.81,17.17,6.15c5.06,2.81,119.88,74.85,132.83,84.99,12.94,10.13,12.94,23.08,12.94,23.08H86.07Z" fill="url(#uuid-869aef7e-f1d8-4ca4-a6d1-9285e41c0f33)" opacity=".27" stroke-width="0"/><path d="m86.2,370.51s0-12.95,12.95-23.08c12.94-10.13,127.76-82.17,132.82-84.99,4.22-2.34,14.63-6.15,17.17-6.15s12.95,3.81,17.17,6.15c5.07,2.81,119.88,74.85,132.83,84.99,12.94,10.13,12.94,23.08,12.94,23.08H86.2Z" fill="url(#uuid-3a76b319-6eb9-4847-befb-e92f50450eee)" opacity=".36" stroke-width="0"/><path d="m86.32,371.15s0-12.95,12.95-23.08c12.94-10.13,127.76-82.17,132.82-84.99,4.22-2.34,14.63-6.15,17.17-6.15s12.95,3.81,17.17,6.15c5.07,2.81,119.88,74.85,132.83,84.99,12.94,10.13,12.94,23.08,12.94,23.08H86.32Z" fill="url(#uuid-552815f1-e27e-4583-89f6-3370aa002842)" opacity=".45" stroke-width="0"/><path d="m86.45,371.78s0-12.95,12.95-23.08c12.94-10.13,127.76-82.17,132.82-84.99,4.22-2.34,14.63-6.15,17.17-6.15s12.95,3.81,17.17,6.15c5.07,2.81,119.88,74.85,132.83,84.99,12.94,10.13,12.94,23.08,12.94,23.08H86.45Z" fill="url(#uuid-88e09288-2f06-46f6-9071-795b7da63dbe)" opacity=".55" stroke-width="0"/><path d="m86.58,372.41s0-12.95,12.95-23.08c12.94-10.13,127.76-82.17,132.82-84.99,4.22-2.34,14.63-6.15,17.17-6.15s12.95,3.81,17.17,6.15c5.07,2.81,119.88,74.85,132.83,84.99,12.94,10.13,12.94,23.08,12.94,23.08H86.58Z" fill="url(#uuid-11d2d992-d2a0-47d5-901f-fafbb87fe0c7)" opacity=".64" stroke-width="0"/><path d="m86.7,373.05s0-12.95,12.95-23.08c12.94-10.13,127.76-82.17,132.82-84.99,4.22-2.34,14.63-6.15,17.17-6.15s12.95,3.81,17.17,6.15c5.07,2.81,119.88,74.85,132.83,84.99,12.94,10.13,12.94,23.08,12.94,23.08H86.7Z" fill="url(#uuid-69849d5b-3921-4d90-8474-d463c2c0d87e)" opacity=".73" stroke-width="0"/><path d="m86.83,373.68s0-12.95,12.95-23.08c12.94-10.13,127.76-82.17,132.82-84.99,4.22-2.34,14.63-6.15,17.17-6.15s12.95,3.81,17.17,6.15c5.07,2.81,119.88,74.85,132.83,84.99,12.94,10.13,12.94,23.08,12.94,23.08H86.83Z" fill="url(#uuid-196ced08-33e8-45a0-bd64-1749a510b2b0)" opacity=".82" stroke-width="0"/><path d="m86.96,374.32s0-12.95,12.95-23.08c12.94-10.13,127.76-82.17,132.82-84.99,4.22-2.34,14.63-6.15,17.17-6.15s12.95,3.81,17.17,6.15c5.07,2.81,119.88,74.85,132.83,84.99,12.94,10.13,12.94,23.08,12.94,23.08H86.96Z" fill="url(#uuid-64484d7e-2824-4e90-a98f-a5156740ed3a)" opacity=".91" stroke-width="0"/><path d="m87.08,374.95s0-12.95,12.95-23.08c12.94-10.13,127.76-82.17,132.82-84.99,4.22-2.34,14.63-6.15,17.17-6.15s12.95,3.81,17.16,6.15c5.07,2.81,119.88,74.85,132.83,84.99,12.94,10.13,12.94,23.08,12.94,23.08H87.08Z" fill="#919191" stroke-width="0"/></g><path d="m85.69,375.6s1.39-13.59,14.34-23.72c12.94-10.13,127.76-82.17,132.82-84.99,4.22-2.34,11.7-6.15,17.17-6.15s12.95,3.81,17.16,6.15c5.07,2.81,119.88,74.85,132.83,84.99,12.94,10.13,12.94,23.77,12.94,23.77l-327.27-.04Z" fill="url(#uuid-01f9c1a2-a373-43a0-98da-fb448bb907fd)" stroke-width="0"/></g></g></svg>