<?xml version="1.0" encoding="utf-8"?>
<!-- Generator: Adobe Illustrator 28.0.0, SVG Export Plug-In . SVG Version: 6.00 Build 0)  -->
<svg version="1.1" id="Layer_1" xmlns="http://www.w3.org/2000/svg" xmlns:xlink="http://www.w3.org/1999/xlink" x="0px" y="0px"
	 viewBox="0 0 1927.694 716.72" enable-background="new 0 0 1927.694 716.72" xml:space="preserve">
<g id="footer" transform="translate(3.03 -5174.899)">
	
		<linearGradient id="footer-swirl-2_00000141438458893088724750000011168107036486832261_" gradientUnits="userSpaceOnUse" x1="211.8083" y1="6282.6836" x2="210.7593" y2="6282.8799" gradientTransform="matrix(1922.6715 0 0 -700.8398 -405412.5312 4408794.5)">
		<stop  offset="0" style="stop-color:#A7D3FF"/>
		<stop  offset="1" style="stop-color:#3A82CD"/>
	</linearGradient>
	
		<path id="footer-swirl-2" opacity="0.18" fill="url(#footer-swirl-2_00000141438458893088724750000011168107036486832261_)" enable-background="new    " d="
		M-3.03,5182.2153c717.707,326.043,784.564-103.4854,1330.9301,75.8589s596.7639,57.1123,596.7639,57.1123s0,140.439,0,576.4326
		c-484.5231,2-1927.694,0-1927.694,0S-4.018,5499.146-3.03,5182.2153z"/>
	
		<radialGradient id="footer-swirl-3_00000084505012596212209260000003678374510416398781_" cx="210.969" cy="6283.3643" r="0.9735" gradientTransform="matrix(919.0369 -615.3374 -1253.5818 -248.7981 7683580.5 1698573.875)" gradientUnits="userSpaceOnUse">
		<stop  offset="0" style="stop-color:#FFFFFF"/>
		<stop  offset="1" style="stop-color:#A4C4DE"/>
	</radialGradient>
	
		<path id="footer-swirl-3" opacity="0.89" fill="url(#footer-swirl-3_00000084505012596212209260000003678374510416398781_)" enable-background="new    " d="
		M-3.03,5201.8125c717.707,326.043,779.9722-115.0825,1326.3383,64.2617s601.3557,59.019,601.3557,59.019
		s-3.381,128.4082,0,566.5259c-484.5231,2-1927.4637,0-1927.4637,0S-4.018,5518.7432-3.03,5201.8125z"/>
	<g id="Group_317">
		<g>
			<defs>
				<path id="SVGID_1_" d="M-0.338,5194.7793c717.707,326.043,781.872-104.0493,1328.238,75.2949s594.24,57.0269,594.24,57.0269
					s-3.381,123.7002,0,561.8179c-484.5231,2-1920.348,6.7002-1920.348,6.7002S-1.326,5511.71-0.338,5194.7793z"/>
			</defs>
			<clipPath id="SVGID_00000127036166709990942630000013427248621154669503_">
				<use xlink:href="#SVGID_1_"  overflow="visible"/>
			</clipPath>
			<g id="Mask_Group_11" opacity="0.38" clip-path="url(#SVGID_00000127036166709990942630000013427248621154669503_)">
				
					<linearGradient id="Polygon_27_00000182510254362316011130000014524391023823418806_" gradientUnits="userSpaceOnUse" x1="210.8099" y1="6283.3774" x2="211.7009" y2="6282.1206" gradientTransform="matrix(614.2431 164.6884 156.954 -585.396 -1115760.125 3648407)">
					<stop  offset="0" style="stop-color:#BAE1FF;stop-opacity:0.42"/>
					<stop  offset="0.369" style="stop-color:#BAE1FF"/>
					<stop  offset="0.711" style="stop-color:#99ACD3"/>
					<stop  offset="1" style="stop-color:#FFFFFF"/>
				</linearGradient>
				
					<path id="Polygon_27" opacity="0.33" fill="url(#Polygon_27_00000182510254362316011130000014524391023823418806_)" enable-background="new    " d="
					M320.8096,5090.9844c24.8391,6.6597,44.0273,26.4019,49.978,51.4204l61.2917,257.6914
					c5.4631,22.9688-1.0186,47.1436-17.2396,64.2988l-181.9857,192.4644c-17.6685,18.686-44.1593,26.1807-68.9985,19.521
					l-235.7262-63.2021c-24.8391-6.6597-44.0273-26.4019-49.978-51.4199l-61.2917-257.6914
					c-5.4632-22.9688,1.0186-47.144,17.2396-64.2988L16.085,5047.3032c17.6685-18.6855,44.1593-26.1807,68.9984-19.521
					L320.8096,5090.9844z"/>
				
					<linearGradient id="Polygon_28_00000106109063650693964120000005035519755807458232_" gradientUnits="userSpaceOnUse" x1="211.3438" y1="6283.4668" x2="212.2348" y2="6282.21" gradientTransform="matrix(317.9312 550.673 524.8114 -303 -3362842.75 1792801)">
					<stop  offset="0" style="stop-color:#BAE1FF;stop-opacity:0.42"/>
					<stop  offset="0.369" style="stop-color:#BAE1FF"/>
					<stop  offset="0.711" style="stop-color:#99ACD3"/>
					<stop  offset="1" style="stop-color:#FFFFFF"/>
				</linearGradient>
				
					<path id="Polygon_28" opacity="0.28" fill="url(#Polygon_28_00000106109063650693964120000005035519755807458232_)" enable-background="new    " d="
					M2098.9114,5731.165c12.8567,22.2686,12.4695,49.793-1.0085,71.6909l-138.8239,225.5498
					c-12.3738,20.104-34.047,32.6172-57.6444,33.2812l-264.7439,7.4502c-25.7032,0.7231-49.7338-12.7041-62.5906-34.9722
					l-122.0115-211.3301c-12.8566-22.2686-12.4694-49.7935,1.0085-71.6914l138.824-225.5498
					c12.3738-20.104,34.047-32.6172,57.6444-33.2808l264.7439-7.4502c25.7031-0.7231,49.7338,12.7036,62.5906,34.9722
					L2098.9114,5731.165z"/>
			</g>
		</g>
	</g>
</g>
</svg>
