<?xml version="1.0" encoding="utf-8"?>
<!-- Generator: Adobe Illustrator 28.0.0, SVG Export Plug-In . SVG Version: 6.00 Build 0)  -->
<svg version="1.1" id="Layer_1" xmlns="http://www.w3.org/2000/svg" xmlns:xlink="http://www.w3.org/1999/xlink" x="0px" y="0px"
	 viewBox="0 0 1927.7 716.7" style="enable-background:new 0 0 1927.7 716.7;" xml:space="preserve">
<style type="text/css">
	
		.st0{opacity:5.000000e-02;fill:url(#footer-swirl-2_00000050648130846813597580000012082973155920119476_);enable-background:new    ;}
	.st1{opacity:0.89;fill:url(#footer-swirl-3_00000018200908156689738990000008291119815246179971_);enable-background:new    ;}
	.st2{opacity:0.38;clip-path:url(#SVGID_00000111192528666336388900000011453460062020465565_);}
	.st3{opacity:0.33;fill:url(#Polygon_27_00000124875059127755098230000005878854240381814404_);enable-background:new    ;}
	.st4{opacity:0.28;fill:url(#Polygon_28_00000010277075699190570240000001256259900308047489_);enable-background:new    ;}
</style>
<g id="footer-bg" transform="translate(3.03 -5174.899)">
	
		<linearGradient id="footer-swirl-2_00000106121566842235166030000001479909329113113001_" gradientUnits="userSpaceOnUse" x1="211.8049" y1="6282.6963" x2="210.7619" y2="6282.8911" gradientTransform="matrix(1922.6715 0 0 -700.8398 -405412.5312 4408794.5)">
		<stop  offset="0" style="stop-color:#A7D3FF"/>
		<stop  offset="1" style="stop-color:#3A82CD"/>
	</linearGradient>
	
		<path id="footer-swirl-2" style="opacity:5.000000e-02;fill:url(#footer-swirl-2_00000106121566842235166030000001479909329113113001_);enable-background:new    ;" d="
		M-0.3,5178.8c717.7,326,781.9-104,1328.2,75.3s594.2,57,594.2,57s-3.4,123.7,0,561.8c-484.5,2-1920.3,6.7-1920.3,6.7
		S-1.3,5495.7-0.3,5178.8z"/>
	
		<radialGradient id="footer-swirl-3_00000160903730256091253210000009702880023795024062_" cx="210.9706" cy="6283.3721" r="0.974" gradientTransform="matrix(919.0369 -615.3374 -1253.5818 -248.7981 7683580.5 1698573.875)" gradientUnits="userSpaceOnUse">
		<stop  offset="0" style="stop-color:#FFFFFF"/>
		<stop  offset="1" style="stop-color:#A4C4DE"/>
	</radialGradient>
	
		<path id="footer-swirl-3" style="opacity:0.89;fill:url(#footer-swirl-3_00000160903730256091253210000009702880023795024062_);enable-background:new    ;" d="
		M-0.3,5190.8c717.7,326,781.9-104,1328.2,75.3s594.2,57,594.2,57s-3.4,123.7,0,561.8c-484.5,2-1920.3,6.7-1920.3,6.7
		S-1.3,5507.7-0.3,5190.8z"/>
	<g id="Group_317">
		<g>
			<defs>
				<path id="SVGID_1_" d="M-0.3,5190.8c717.7,326,781.9-104,1328.2,75.3s594.2,57,594.2,57s-3.4,123.7,0,561.8
					c-484.5,2-1920.3,6.7-1920.3,6.7S-1.3,5507.7-0.3,5190.8z"/>
			</defs>
			<clipPath id="SVGID_00000126291315794734835530000014251935067778820792_">
				<use xlink:href="#SVGID_1_"  style="overflow:visible;"/>
			</clipPath>
			<g id="Mask_Group_11" style="opacity:0.38;clip-path:url(#SVGID_00000126291315794734835530000014251935067778820792_);">
				
					<linearGradient id="Polygon_27_00000170259994801159824990000003249868891027865247_" gradientUnits="userSpaceOnUse" x1="210.8083" y1="6283.3838" x2="211.6992" y2="6282.127" gradientTransform="matrix(614.2431 164.6884 156.954 -585.396 -1115760.125 3648407)">
					<stop  offset="0" style="stop-color:#BAE1FF;stop-opacity:0.42"/>
					<stop  offset="0.369" style="stop-color:#BAE1FF"/>
					<stop  offset="0.711" style="stop-color:#99ACD3"/>
					<stop  offset="1" style="stop-color:#FFFFFF"/>
				</linearGradient>
				
					<path id="Polygon_27" style="opacity:0.33;fill:url(#Polygon_27_00000170259994801159824990000003249868891027865247_);enable-background:new    ;" d="
					M320.8,5087c24.8,6.7,44,26.4,50,51.4l61.3,257.7c5.5,23-1,47.1-17.2,64.3l-182,192.5c-17.7,18.7-44.2,26.2-69,19.5l-235.7-63.2
					c-24.8-6.7-44-26.4-50-51.4l-61.3-257.7c-5.5-23,1-47.1,17.2-64.3l182-192.5c17.7-18.7,44.2-26.2,69-19.5L320.8,5087z"/>
				
					<linearGradient id="Polygon_28_00000076570201829703626610000008211306495118714030_" gradientUnits="userSpaceOnUse" x1="211.3383" y1="6283.4702" x2="212.2293" y2="6282.2134" gradientTransform="matrix(317.9312 550.673 524.8114 -303 -3362842.75 1792801)">
					<stop  offset="0" style="stop-color:#BAE1FF;stop-opacity:0.42"/>
					<stop  offset="0.369" style="stop-color:#BAE1FF"/>
					<stop  offset="0.711" style="stop-color:#99ACD3"/>
					<stop  offset="1" style="stop-color:#FFFFFF"/>
				</linearGradient>
				
					<path id="Polygon_28" style="opacity:0.28;fill:url(#Polygon_28_00000076570201829703626610000008211306495118714030_);enable-background:new    ;" d="
					M2098.9,5727.2c12.9,22.3,12.5,49.8-1,71.7l-138.8,225.5c-12.4,20.1-34,32.6-57.6,33.3l-264.7,7.5c-25.7,0.7-49.7-12.7-62.6-35
					l-122-211.3c-12.9-22.3-12.5-49.8,1-71.7l138.8-225.5c12.4-20.1,34-32.6,57.6-33.3l264.7-7.5c25.7-0.7,49.7,12.7,62.6,35
					L2098.9,5727.2z"/>
			</g>
		</g>
	</g>
</g>
</svg>
