<svg id="icom-charts" xmlns="http://www.w3.org/2000/svg" xmlns:xlink="http://www.w3.org/1999/xlink" width="104.806" height="121.559" viewBox="0 0 104.806 121.559">
  <defs>
    <linearGradient id="linear-gradient" y1="0.5" x2="1" y2="0.5" gradientUnits="objectBoundingBox">
      <stop offset="0" stop-color="#efff97"/>
      <stop offset="0.457" stop-color="#ffc329"/>
      <stop offset="1" stop-color="#f08600"/>
    </linearGradient>
    <linearGradient id="linear-gradient-2" x1="-1.494" y1="-0.202" x2="1.078" y2="0.704" gradientUnits="objectBoundingBox">
      <stop offset="0" stop-color="#ffff63"/>
      <stop offset="0" stop-color="#faa100"/>
      <stop offset="1" stop-color="#ff931e"/>
    </linearGradient>
    <linearGradient id="linear-gradient-3" x1="-1.462" y1="-0.011" x2="-0.026" y2="0.363" gradientUnits="objectBoundingBox">
      <stop offset="0" stop-color="#ffff63"/>
      <stop offset="0.495" stop-color="#fc0"/>
      <stop offset="1" stop-color="#ffae00"/>
    </linearGradient>
    <linearGradient id="linear-gradient-4" x1="-0.157" y1="0.401" x2="1.697" y2="0.681" gradientUnits="objectBoundingBox">
      <stop offset="0" stop-color="#89e3ff"/>
      <stop offset="0.612" stop-color="#42b6e5"/>
      <stop offset="1" stop-color="#427dac"/>
    </linearGradient>
    <linearGradient id="linear-gradient-5" x1="-0.58" y1="-0.105" x2="1.095" y2="0.833" gradientUnits="objectBoundingBox">
      <stop offset="0" stop-color="#42b6e5"/>
      <stop offset="1" stop-color="#427dac"/>
    </linearGradient>
    <linearGradient id="linear-gradient-6" x1="-0.943" y1="0.073" x2="-0.068" y2="0.332" xlink:href="#linear-gradient-5"/>
    <linearGradient id="linear-gradient-7" x1="0.476" y1="0.469" x2="1.593" y2="1.925" gradientUnits="objectBoundingBox">
      <stop offset="0" stop-color="#93b5db"/>
      <stop offset="0.454" stop-color="#93b5db"/>
      <stop offset="1" stop-color="#218eef"/>
    </linearGradient>
    <linearGradient id="linear-gradient-8" x1="-0.898" y1="-0.138" x2="1.563" y2="0.985" gradientUnits="objectBoundingBox">
      <stop offset="0.005" stop-color="#6ba0dc"/>
      <stop offset="0.454" stop-color="#93b5db"/>
      <stop offset="1" stop-color="#218eef"/>
    </linearGradient>
    <linearGradient id="linear-gradient-9" x1="-0.152" y1="-0.338" x2="1.229" y2="1.438" gradientUnits="objectBoundingBox">
      <stop offset="0" stop-color="#ffff63"/>
      <stop offset="0.556" stop-color="#fc0"/>
      <stop offset="1" stop-color="#ff5a00"/>
    </linearGradient>
    <linearGradient id="linear-gradient-10" x1="-3.183" y1="0.148" x2="1.086" y2="0.556" gradientUnits="objectBoundingBox">
      <stop offset="0" stop-color="#ffff63"/>
      <stop offset="0.321" stop-color="#fc0"/>
      <stop offset="1" stop-color="#e65a00"/>
    </linearGradient>
    <linearGradient id="linear-gradient-11" x1="-0.863" y1="0.007" x2="1.298" y2="0.788" gradientUnits="objectBoundingBox">
      <stop offset="0" stop-color="#fc0"/>
      <stop offset="0.587" stop-color="#f15a00"/>
      <stop offset="1" stop-color="#d05a00"/>
    </linearGradient>
    <linearGradient id="linear-gradient-12" x1="0.053" y1="0.5" x2="1.397" y2="0.5" gradientUnits="objectBoundingBox">
      <stop offset="0.005" stop-color="#93b5db"/>
      <stop offset="0.505" stop-color="#218eef"/>
      <stop offset="1" stop-color="#215591"/>
    </linearGradient>
    <linearGradient id="linear-gradient-13" x1="0.5" y1="0.98" x2="0.5" y2="-0.108" gradientUnits="objectBoundingBox">
      <stop offset="0" stop-color="#218eef"/>
      <stop offset="1" stop-color="#93b5db"/>
    </linearGradient>
    <linearGradient id="linear-gradient-14" x1="-0.893" y1="-0.071" x2="0.496" y2="0.498" gradientUnits="objectBoundingBox">
      <stop offset="0" stop-color="#dd56db"/>
      <stop offset="1" stop-color="#923199"/>
    </linearGradient>
    <linearGradient id="linear-gradient-15" x1="0.993" y1="0.5" x2="-0.048" y2="0.5" gradientUnits="objectBoundingBox">
      <stop offset="0.075" stop-color="#218eef"/>
      <stop offset="1" stop-color="#3f80c7"/>
    </linearGradient>
    <linearGradient id="linear-gradient-16" x1="-0.213" y1="0.027" x2="1.213" y2="0.973" gradientUnits="objectBoundingBox">
      <stop offset="0" stop-color="#218eef"/>
      <stop offset="1" stop-color="#24265b"/>
    </linearGradient>
    <linearGradient id="linear-gradient-17" x1="0.009" y1="-0.369" x2="0.829" y2="1.081" gradientUnits="objectBoundingBox">
      <stop offset="0" stop-color="#4f9ee7"/>
      <stop offset="1" stop-color="#234b8f"/>
    </linearGradient>
    <clipPath id="clip-path">
      <path id="Path_3000" data-name="Path 3000" d="M54.925,302.283l0-1.909,4.994-2.884,0,1.911Z" transform="translate(-54.92 -297.49)"/>
    </clipPath>
    <clipPath id="clip-path-2">
      <path id="Path_3005" data-name="Path 3005" d="M101.525,345.306l0-1.909,4.948-2.858,0,1.908Z" transform="translate(-101.52 -340.54)"/>
    </clipPath>
    <clipPath id="clip-path-3">
      <path id="Path_3010" data-name="Path 3010" d="M143.815,185.269l0-1.909,5.042-2.911,0,1.909Z" transform="translate(-143.81 -180.45)"/>
    </clipPath>
    <clipPath id="clip-path-4">
      <path id="Path_3015" data-name="Path 3015" d="M185.465,210.139l0-1.906,5.046-2.913,0,1.906Z" transform="translate(-185.46 -205.32)"/>
    </clipPath>
    <clipPath id="clip-path-5">
      <path id="Path_3020" data-name="Path 3020" d="M230.825,124.934l0-1.906,5.051-2.918,0,1.906Z" transform="translate(-230.82 -120.11)"/>
    </clipPath>
    <clipPath id="clip-path-6">
      <path id="Path_3025" data-name="Path 3025" d="M271.455,54.758l0-1.9,5.013-2.894.007,1.9Z" transform="translate(-271.45 -49.96)"/>
    </clipPath>
    <clipPath id="clip-path-7">
      <path id="Path_3030" data-name="Path 3030" d="M124.86,463.4l1.645-.957,5.042,2.908-1.648.959Z" transform="translate(-124.86 -462.44)"/>
    </clipPath>
    <clipPath id="clip-path-8">
      <path id="Path_3034" data-name="Path 3034" d="M117.2,410.269l1.65-.959,3.748,2.164-1.648.959Z" transform="translate(-117.2 -409.31)"/>
    </clipPath>
    <clipPath id="clip-path-9">
      <path id="Path_3039" data-name="Path 3039" d="M239.95,433.279l1.648-.959,4.975,2.872-1.648.957Z" transform="translate(-239.95 -432.32)"/>
    </clipPath>
    <clipPath id="clip-path-10">
      <path id="Path_3044" data-name="Path 3044" d="M227.59,376.339l1.65-.959,4.972,2.872-1.648.959Z" transform="translate(-227.59 -375.38)"/>
    </clipPath>
    <clipPath id="clip-path-11">
      <path id="Path_3049" data-name="Path 3049" d="M332.43,388.9l1.648-.959,5,2.889-1.648.959Z" transform="translate(-332.43 -387.94)"/>
    </clipPath>
    <clipPath id="clip-path-12">
      <path id="Path_3054" data-name="Path 3054" d="M390.41,372.074l1.643-.954,4.766,2.75-1.645.957Z" transform="translate(-390.41 -371.12)"/>
    </clipPath>
  </defs>
  <path id="XMLID_21_" d="M227.563,3.23l10.143,5.855-10.143,5.857L217.42,9.085,227.563,3.23" transform="translate(-166.708 1.69)" fill-rule="evenodd" fill="url(#linear-gradient)"/>
  <path id="XMLID_20_" d="M259.83,98.253,269.973,92.4V27.71L259.83,33.567Z" transform="translate(-198.975 -16.936)" fill-rule="evenodd" fill="url(#linear-gradient-2)"/>
  <path id="XMLID_19_" d="M227.563,98.253,217.42,92.4V27.71l10.143,5.857Z" transform="translate(-166.708 -16.936)" fill-rule="evenodd" fill="url(#linear-gradient-3)"/>
  <path id="XMLID_18_" d="M185.153,92.012,175.01,86.157,185.153,80.3,195.3,86.157Z" transform="translate(-134.441 -56.948)" fill-rule="evenodd" fill="url(#linear-gradient-4)"/>
  <path id="XMLID_17_" d="M217.42,162.753l10.143-5.855V104.79l-10.143,5.855Z" transform="translate(-166.708 -75.581)" fill-rule="evenodd" fill="url(#linear-gradient-5)"/>
  <path id="XMLID_16_" d="M185.153,162.753,175.01,156.9V104.79l10.143,5.855Z" transform="translate(-134.441 -75.581)" fill-rule="evenodd" fill="url(#linear-gradient-6)"/>
  <path id="XMLID_15_" d="M142.75,168.709l-10.14-5.855L142.75,157l10.143,5.855Z" transform="translate(-102.181 -115.304)" fill-rule="evenodd" fill="url(#linear-gradient-7)"/>
  <path id="XMLID_14_" d="M175.01,226.959l10.143-5.857V181.48l-10.143,5.855Z" transform="translate(-134.441 -133.93)" fill-rule="evenodd" fill="url(#linear-gradient-8)"/>
  <path id="XMLID_13_" d="M142.75,226.959,132.61,221.1V181.48l10.14,5.855Z" transform="translate(-102.181 -133.93)" fill="#ec008b" fill-rule="evenodd"/>
  <path id="XMLID_12_" d="M100.343,151.982,90.2,146.127l10.143-5.857,10.14,5.857Z" transform="translate(-69.914 -102.576)" fill-rule="evenodd" fill="url(#linear-gradient-9)"/>
  <path id="XMLID_11_" d="M132.61,220.093l10.14-5.855V164.76l-10.14,5.855Z" transform="translate(-102.181 -121.209)" fill-rule="evenodd" fill="url(#linear-gradient-10)"/>
  <path id="XMLID_10_" d="M100.343,220.093,90.2,214.238V164.76l10.143,5.855Z" transform="translate(-69.914 -121.209)" fill-rule="evenodd" fill="url(#linear-gradient-11)"/>
  <path id="XMLID_9_" d="M57.933,307.912,47.79,302.057,57.933,296.2l10.143,5.857Z" transform="translate(-37.647 -221.213)" fill-rule="evenodd" fill="url(#linear-gradient-12)"/>
  <path id="XMLID_8_" d="M90.2,344.585l10.143-5.855V320.69L90.2,326.545Z" transform="translate(-69.914 -239.846)" fill-rule="evenodd" fill="url(#linear-gradient-13)"/>
  <path id="XMLID_7_" d="M57.933,344.585,47.79,338.73V320.69l10.143,5.855Z" transform="translate(-37.647 -239.846)" fill-rule="evenodd" fill="url(#linear-gradient-14)"/>
  <path id="XMLID_6_" d="M5.38,261.807l10.143-5.857,10.143,5.857-10.143,5.855L5.38,261.807" transform="translate(-5.38 -190.589)" fill-rule="evenodd" fill="url(#linear-gradient-15)"/>
  <path id="XMLID_5_" d="M47.79,319.818l10.143-5.857V280.44L47.79,286.295Z" transform="translate(-37.647 -209.222)" fill-rule="evenodd" fill="url(#linear-gradient-16)"/>
  <path id="XMLID_4_" d="M5.38,280.44l10.143,5.855v33.523L5.38,313.961" transform="translate(-5.38 -209.222)" fill-rule="evenodd" fill="url(#linear-gradient-17)"/>
  <path id="XMLID_2_" d="M66.887,437.42l-19.1-10.963L57.933,420.6l19.1,10.963.423,5.857Z" transform="translate(-37.647 -315.861)" fill="#41729f" fill-rule="evenodd" opacity="0.58"/>
  <path id="XMLID_23_" d="M95.55,404.9l-5.35-2.927,10.143-5.855,5.35,2.927.423,5.855Z" transform="translate(-69.914 -297.236)" fill="#5186b5" fill-rule="evenodd" opacity="0.57"/>
  <path id="XMLID_24_" d="M157.966,392.126,132.61,377.487l10.143-5.857,25.354,14.639.426,5.857Z" transform="translate(-102.181 -278.603)" fill="#5287b6" fill-rule="evenodd"/>
  <path id="XMLID_25_" d="M188.612,360.8,175.02,353l10.143-5.857,13.592,7.8.423,5.857Z" transform="translate(-134.449 -259.97)" fill="#5287b6" fill-rule="evenodd"/>
  <path id="XMLID_26_" d="M244.867,344.268,217.43,328.515l10.143-5.855,27.437,15.754.423,5.855Z" transform="translate(-166.716 -241.345)" fill="#5286b6" fill-rule="evenodd"/>
  <path id="XMLID_27_" d="M293.222,323.194,259.84,304.027l10.143-5.857,33.382,19.166.423,5.857Z" transform="translate(-198.983 -222.712)" fill="#5286b5" fill-rule="evenodd"/>
  <path id="XMLID_33_" d="M273.426-17.34l.026,9.7-6.926,4-.026-9.7" transform="translate(-204.05 17.34)" fill="none"/>
  <path id="XMLID_60_" d="M93.2,282.954l-.026-9.7,6.924-4,.029,9.7Z" transform="translate(-72.174 -200.716)" fill="none"/>
  <path id="XMLID_56_" d="M151.712,132.1l-1.892,1.093,0,.27.543-.313.8-.464.543-.313V132.1" transform="translate(-115.275 -96.36)" fill="#fff"/>
  <path id="XMLID_106_" d="M152.509,136.57l-.5.289-.227,2.243.969-.56-.239-1.973" transform="translate(-116.767 -99.761)" fill="#fff"/>
  <path id="XMLID_45_" d="M139.3,131.174l-.029-9.7,6.926-4,.029,9.7Z" transform="translate(-107.249 -85.236)" fill="none"/>
  <path id="XMLID_30_" d="M175.239,149.824l-.029-9.7,6.926-4,.029,9.7Z" transform="translate(-134.593 -99.426)" fill="none"/>
  <path id="XMLID_31_" d="M224.119,72.412l-.029-9.7,6.924-4,.029,9.7Z" transform="translate(-171.783 -40.529)" fill="none"/>
  <g id="XMLID_29_" transform="translate(11.848 75.295)">
    <g id="Group_1019" data-name="Group 1019">
      <g id="Group_1018" data-name="Group 1018">
        <g id="Group_1017" data-name="Group 1017" clip-path="url(#clip-path)">
          <g id="Group_1016" data-name="Group 1016" transform="translate(0.002 0.247)">
            <g id="Group_1015" data-name="Group 1015">
              <g id="Group_1014" data-name="Group 1014">
                <path id="Path_2996" data-name="Path 2996" d="M55.456,307.9a1.688,1.688,0,0,0-.526.486l.16.179a1.78,1.78,0,0,1,.182-.21,1.019,1.019,0,0,1,.163-.124c.153-.088.23-.062.232.077a.38.38,0,0,1-.086.244.98.98,0,0,1-.275.215l-.124.072v.3l.122-.069a.685.685,0,0,1,.294-.115c.062,0,.093.045.093.132a.421.421,0,0,1-.081.258.773.773,0,0,1-.249.21.883.883,0,0,1-.222.093.655.655,0,0,1-.206.029v.335a1.149,1.149,0,0,0,.466-.17,1.491,1.491,0,0,0,.483-.428.9.9,0,0,0,.167-.514c0-.122-.033-.2-.1-.234a.352.352,0,0,0-.3.034V308.7a1.087,1.087,0,0,0,.256-.316.751.751,0,0,0,.091-.347c0-.139-.048-.22-.146-.242a.6.6,0,0,0-.4.112" transform="translate(-54.93 -305.57)" fill="#fff"/>
                <path id="Path_2997" data-name="Path 2997" d="M60.429,305.783l.294-.684a2.5,2.5,0,0,0,.1-.261l.01,0c0,.017,0,.077-.01.179s0,.177,0,.23v.316l-.387.225m.72-1.583-.316.182-.7,1.607v.273l.689-.4v.385l.332-.191v-.385l.2-.112v-.3l-.2.112,0-1.169" transform="translate(-58.886 -302.842)" fill="#fff"/>
                <path id="Path_2998" data-name="Path 2998" d="M66.21,302.713c-.074.043-.129.048-.165.017a.239.239,0,0,1-.055-.182.6.6,0,0,1,.06-.275.43.43,0,0,1,.165-.179.136.136,0,0,1,.177,0,.287.287,0,0,1,.069.215.447.447,0,0,1-.072.222.527.527,0,0,1-.179.177m0-.93a1.109,1.109,0,0,0-.548.961.421.421,0,0,0,.124.361c.081.057.191.045.332-.036a.829.829,0,0,0,.21-.17.907.907,0,0,0,.146-.253l.014-.007a1.176,1.176,0,0,1-.067.38.8.8,0,0,1-.17.28,1.206,1.206,0,0,1-.28.218,1.029,1.029,0,0,1-.194.086v.313a1.388,1.388,0,0,0,.218-.105,1.533,1.533,0,0,0,.607-.622,2.038,2.038,0,0,0,.2-.935.853.853,0,0,0-.074-.395.275.275,0,0,0-.208-.16.482.482,0,0,0-.311.084" transform="translate(-63.094 -300.937)" fill="#fff"/>
                <path id="Path_2999" data-name="Path 2999" d="M71.657,300.2q-.122.072-.172-.05a1.286,1.286,0,0,1-.053-.457,2.058,2.058,0,0,1,.05-.521.4.4,0,0,1,.172-.249q.118-.068.172.05a1.284,1.284,0,0,1,.055.462,1.918,1.918,0,0,1-.053.517.4.4,0,0,1-.172.249m0-1.593a1.013,1.013,0,0,0-.426.478,2.023,2.023,0,0,0-.136.8.978.978,0,0,0,.143.629c.1.108.237.105.421,0a1.012,1.012,0,0,0,.426-.478,1.94,1.94,0,0,0,.136-.8.974.974,0,0,0-.146-.631c-.091-.11-.232-.11-.419,0" transform="translate(-67.225 -298.524)" fill="#fff"/>
              </g>
            </g>
          </g>
        </g>
      </g>
    </g>
  </g>
  <g id="XMLID_68_" transform="translate(22.993 85.591)">
    <g id="Group_1025" data-name="Group 1025">
      <g id="Group_1024" data-name="Group 1024">
        <g id="Group_1023" data-name="Group 1023" clip-path="url(#clip-path-2)">
          <g id="Group_1022" data-name="Group 1022" transform="translate(0 0.229)">
            <g id="Group_1021" data-name="Group 1021">
              <g id="Group_1020" data-name="Group 1020">
                <path id="Path_3001" data-name="Path 3001" d="M102.319,350.68l-.28.163-.519.775.165.141.187-.277c.022-.034.06-.1.117-.2l0,.2,0,.177,0,1.074.342-.2,0-1.854" transform="translate(-101.52 -348.484)" fill="#fff"/>
                <path id="Path_3002" data-name="Path 3002" d="M107.264,349.477c-.081.048-.139.031-.172-.048a1.426,1.426,0,0,1-.053-.462,2.036,2.036,0,0,1,.05-.519.4.4,0,0,1,.17-.249q.118-.068.172.05a1.278,1.278,0,0,1,.055.459,1.915,1.915,0,0,1-.053.519.391.391,0,0,1-.17.249m0-1.6a1,1,0,0,0-.423.478,2.019,2.019,0,0,0-.136.8.991.991,0,0,0,.143.631c.1.105.237.105.421,0a1,1,0,0,0,.426-.481,2.006,2.006,0,0,0,.136-.8,1,1,0,0,0-.143-.631c-.1-.105-.237-.105-.423,0" transform="translate(-105.461 -346.294)" fill="#fff"/>
                <path id="Path_3003" data-name="Path 3003" d="M112.674,345.855a.139.139,0,0,1-.177,0,.287.287,0,0,1-.069-.215.44.44,0,0,1,.072-.222.509.509,0,0,1,.177-.179c.074-.043.129-.048.165-.017a.232.232,0,0,1,.055.182.636.636,0,0,1-.057.275.393.393,0,0,1-.165.182m.222-1.717a1.521,1.521,0,0,0-.605.619,1.982,1.982,0,0,0-.2.938.882.882,0,0,0,.074.4.276.276,0,0,0,.206.16.5.5,0,0,0,.311-.086,1.081,1.081,0,0,0,.4-.407,1.122,1.122,0,0,0,.143-.555.421.421,0,0,0-.124-.361c-.081-.057-.2-.043-.34.041a.81.81,0,0,0-.349.418l-.014.007a1.239,1.239,0,0,1,.062-.375.889.889,0,0,1,.165-.277,1.12,1.12,0,0,1,.287-.225,1.077,1.077,0,0,1,.194-.089v-.313a1.25,1.25,0,0,0-.213.108" transform="translate(-109.562 -343.424)" fill="#fff"/>
                <path id="Path_3004" data-name="Path 3004" d="M118.054,343.221a.241.241,0,0,1-.182.043c-.045-.014-.067-.06-.067-.132a.729.729,0,0,1,.234-.452.456.456,0,0,1,.2.041.137.137,0,0,1,.062.124.357.357,0,0,1-.065.2.509.509,0,0,1-.187.175m0-.885a.258.258,0,0,1-.155-.034.139.139,0,0,1-.043-.112.314.314,0,0,1,.053-.167.38.38,0,0,1,.141-.134.178.178,0,0,1,.141-.031c.036.014.055.048.055.108a.361.361,0,0,1-.043.165.872.872,0,0,1-.148.206m0-.734a1.136,1.136,0,0,0-.373.34.713.713,0,0,0-.144.407.336.336,0,0,0,.062.213.289.289,0,0,0,.2.1,1.572,1.572,0,0,0-.237.354.806.806,0,0,0-.072.323c0,.16.05.251.153.28a.587.587,0,0,0,.416-.11,1.213,1.213,0,0,0,.409-.376.813.813,0,0,0,.155-.457.284.284,0,0,0-.081-.22.393.393,0,0,0-.261-.081,1.352,1.352,0,0,0,.22-.328.737.737,0,0,0,.067-.292c0-.136-.045-.22-.141-.246a.5.5,0,0,0-.373.093" transform="translate(-113.671 -341.498)" fill="#fff"/>
              </g>
            </g>
          </g>
        </g>
      </g>
    </g>
  </g>
  <g id="XMLID_70_" transform="translate(33.107 47.304)">
    <g id="Group_1031" data-name="Group 1031" transform="translate(0 0)">
      <g id="Group_1030" data-name="Group 1030">
        <g id="Group_1029" data-name="Group 1029" clip-path="url(#clip-path-3)">
          <g id="Group_1028" data-name="Group 1028" transform="translate(0.002 0.245)">
            <g id="Group_1027" data-name="Group 1027">
              <g id="Group_1026" data-name="Group 1026">
                <path id="Path_3006" data-name="Path 3006" d="M144.121,191.861l.294-.684a2.473,2.473,0,0,0,.1-.258l.01,0c0,.017,0,.077-.01.179s0,.179,0,.232v.313l-.387.222m.717-1.581-.316.182-.7,1.6v.273l.689-.4v.385l.332-.191v-.385l.2-.112v-.306l-.2.112,0-1.165" transform="translate(-143.82 -188.174)" fill="#fff"/>
                <path id="Path_3007" data-name="Path 3007" d="M149.952,189.353a.237.237,0,0,1-.179.043c-.045-.014-.067-.06-.067-.132a.724.724,0,0,1,.234-.45.437.437,0,0,1,.2.041.137.137,0,0,1,.062.124.373.373,0,0,1-.062.2.533.533,0,0,1-.189.172m0-.885a.245.245,0,0,1-.153-.033.139.139,0,0,1-.043-.112.3.3,0,0,1,.053-.167.4.4,0,0,1,.141-.134.177.177,0,0,1,.141-.031c.038.012.057.048.057.105a.354.354,0,0,1-.043.165.923.923,0,0,1-.153.208m0-.734a1.134,1.134,0,0,0-.373.34.725.725,0,0,0-.144.407.341.341,0,0,0,.062.213.3.3,0,0,0,.2.1,1.432,1.432,0,0,0-.234.354.806.806,0,0,0-.072.323c0,.16.05.251.153.28a.587.587,0,0,0,.416-.11,1.244,1.244,0,0,0,.411-.376.819.819,0,0,0,.155-.457.292.292,0,0,0-.081-.22.393.393,0,0,0-.261-.081,1.418,1.418,0,0,0,.22-.325.681.681,0,0,0,.067-.294q0-.2-.143-.244a.483.483,0,0,0-.376.091" transform="translate(-148.058 -186.159)" fill="#fff"/>
                <path id="Path_3008" data-name="Path 3008" d="M155.363,185.747a.136.136,0,0,1-.175,0,.287.287,0,0,1-.069-.215.44.44,0,0,1,.072-.222.509.509,0,0,1,.177-.179c.074-.043.129-.048.165-.017a.231.231,0,0,1,.055.182.586.586,0,0,1-.06.273.387.387,0,0,1-.165.184m.222-1.72a1.528,1.528,0,0,0-.607.619,1.972,1.972,0,0,0-.2.935.9.9,0,0,0,.074.4.271.271,0,0,0,.208.158.5.5,0,0,0,.311-.086,1.042,1.042,0,0,0,.4-.407,1.091,1.091,0,0,0,.146-.552.421.421,0,0,0-.124-.361c-.081-.057-.194-.043-.337.038a.814.814,0,0,0-.352.419l-.014.007a1.22,1.22,0,0,1,.065-.375.812.812,0,0,1,.165-.275,1.12,1.12,0,0,1,.287-.225,1.161,1.161,0,0,1,.194-.089v-.313a1.6,1.6,0,0,0-.218.108" transform="translate(-152.159 -183.335)" fill="#fff"/>
                <path id="Path_3009" data-name="Path 3009" d="M160.752,183.148c-.081.048-.139.031-.172-.048a1.293,1.293,0,0,1-.053-.459,2.036,2.036,0,0,1,.05-.519.4.4,0,0,1,.172-.249q.118-.068.172.05a1.278,1.278,0,0,1,.055.459,2.028,2.028,0,0,1-.05.517.4.4,0,0,1-.175.249m0-1.593a1,1,0,0,0-.423.478,1.942,1.942,0,0,0-.136.8.991.991,0,0,0,.143.631c.1.105.237.105.421,0a1,1,0,0,0,.426-.478,1.94,1.94,0,0,0,.136-.8.966.966,0,0,0-.146-.629c-.1-.112-.237-.112-.421,0" transform="translate(-156.275 -181.475)" fill="#fff"/>
              </g>
            </g>
          </g>
        </g>
      </g>
    </g>
  </g>
  <g id="XMLID_72_" transform="translate(43.068 53.252)">
    <g id="Group_1037" data-name="Group 1037">
      <g id="Group_1036" data-name="Group 1036">
        <g id="Group_1035" data-name="Group 1035" clip-path="url(#clip-path-4)">
          <g id="Group_1034" data-name="Group 1034" transform="translate(0.002 0.227)">
            <g id="Group_1033" data-name="Group 1033">
              <g id="Group_1032" data-name="Group 1032">
                <path id="Path_3011" data-name="Path 3011" d="M185.771,216.723l.294-.684c.038-.088.069-.175.1-.261l.01,0c0,.019,0,.079-.01.179s0,.182,0,.234v.313l-.387.222m.72-1.583-.316.182-.706,1.6v.273l.689-.4v.385l.335-.194v-.385l.194-.112v-.3l-.194.112,0-1.165" transform="translate(-185.47 -213.019)" fill="#fff"/>
                <path id="Path_3012" data-name="Path 3012" d="M191.636,212.6a1.342,1.342,0,0,0-.208.146,1.281,1.281,0,0,0-.17.172,2.645,2.645,0,0,0-.2.28l.187.146a2.352,2.352,0,0,1,.184-.246.7.7,0,0,1,.182-.153.169.169,0,0,1,.141-.029c.036.017.053.06.055.136a.626.626,0,0,1-.022.158,1.288,1.288,0,0,1-.079.2c-.038.079-.115.22-.234.43l-.4.706v.273l1.129-.65v-.33l-.7.407v-.017l.208-.344q.2-.337.287-.5a1.9,1.9,0,0,0,.122-.3.947.947,0,0,0,.038-.263.341.341,0,0,0-.065-.225.206.206,0,0,0-.179-.074.553.553,0,0,0-.27.086" transform="translate(-189.723 -211.017)" fill="#fff"/>
                <path id="Path_3013" data-name="Path 3013" d="M197.024,210.63a.139.139,0,0,1-.177,0,.287.287,0,0,1-.069-.215.433.433,0,0,1,.072-.222.509.509,0,0,1,.177-.179c.074-.043.129-.048.165-.019a.239.239,0,0,1,.055.182.628.628,0,0,1-.057.275.394.394,0,0,1-.165.182m.222-1.717a1.507,1.507,0,0,0-.605.619,1.978,1.978,0,0,0-.2.935.893.893,0,0,0,.074.4.274.274,0,0,0,.208.16.5.5,0,0,0,.311-.086,1.081,1.081,0,0,0,.4-.407,1.122,1.122,0,0,0,.144-.555.416.416,0,0,0-.124-.359c-.084-.057-.2-.043-.34.041a.8.8,0,0,0-.349.419l-.014.01a1.3,1.3,0,0,1,.065-.376.822.822,0,0,1,.165-.277,1.154,1.154,0,0,1,.285-.227.941.941,0,0,1,.2-.086v-.313a.885.885,0,0,0-.218.1" transform="translate(-193.816 -208.203)" fill="#fff"/>
                <path id="Path_3014" data-name="Path 3014" d="M202.394,207.99a.241.241,0,0,1-.182.043c-.045-.014-.067-.06-.067-.132a.724.724,0,0,1,.234-.45.437.437,0,0,1,.2.041.128.128,0,0,1,.062.124.36.36,0,0,1-.062.2.485.485,0,0,1-.187.172m0-.883a.272.272,0,0,1-.155-.033.139.139,0,0,1-.043-.112.328.328,0,0,1,.053-.17.415.415,0,0,1,.141-.132.178.178,0,0,1,.141-.031c.036.012.055.048.055.108a.361.361,0,0,1-.043.165.924.924,0,0,1-.148.206m0-.734a1.11,1.11,0,0,0-.373.34.713.713,0,0,0-.143.407.364.364,0,0,0,.06.215.3.3,0,0,0,.2.1,1.389,1.389,0,0,0-.234.354.807.807,0,0,0-.072.323c0,.158.05.251.153.28a.587.587,0,0,0,.416-.11,1.261,1.261,0,0,0,.409-.375.821.821,0,0,0,.155-.459.284.284,0,0,0-.081-.22.406.406,0,0,0-.261-.084,1.416,1.416,0,0,0,.22-.325.671.671,0,0,0,.067-.292q0-.2-.143-.244a.476.476,0,0,0-.371.091" transform="translate(-197.917 -206.271)" fill="#fff"/>
              </g>
            </g>
          </g>
        </g>
      </g>
    </g>
  </g>
  <g id="XMLID_74_" transform="translate(53.917 32.873)">
    <g id="Group_1043" data-name="Group 1043">
      <g id="Group_1042" data-name="Group 1042">
        <g id="Group_1041" data-name="Group 1041" clip-path="url(#clip-path-5)">
          <g id="Group_1040" data-name="Group 1040" transform="translate(0.002 0.229)">
            <g id="Group_1039" data-name="Group 1039">
              <g id="Group_1038" data-name="Group 1038">
                <path id="Path_3016" data-name="Path 3016" d="M231.131,131.531l.294-.684a2.461,2.461,0,0,0,.1-.258l.007,0c0,.017,0,.077-.007.177s0,.179,0,.232v.313l-.387.225m.717-1.581-.316.182-.7,1.6v.273l.689-.4V132l.332-.191v-.385l.2-.112V131l-.2.112,0-1.165" transform="translate(-230.83 -127.826)" fill="#fff"/>
                <path id="Path_3017" data-name="Path 3017" d="M236.91,128.458c-.074.043-.129.048-.165.017a.245.245,0,0,1-.055-.182.6.6,0,0,1,.06-.277.422.422,0,0,1,.165-.177.139.139,0,0,1,.177,0,.287.287,0,0,1,.069.215.44.44,0,0,1-.072.222.535.535,0,0,1-.179.179m0-.933a1.109,1.109,0,0,0-.548.964.421.421,0,0,0,.124.361c.081.057.191.043.332-.036a.829.829,0,0,0,.21-.17.9.9,0,0,0,.148-.253l.012-.007a1.165,1.165,0,0,1-.067.38.821.821,0,0,1-.167.277,1.121,1.121,0,0,1-.282.22.964.964,0,0,1-.194.086v.313a1.449,1.449,0,0,0,.218-.108,1.518,1.518,0,0,0,.607-.622,2,2,0,0,0,.2-.933.84.84,0,0,0-.074-.395.274.274,0,0,0-.206-.163.5.5,0,0,0-.313.084" transform="translate(-235.037 -125.915)" fill="#fff"/>
                <path id="Path_3018" data-name="Path 3018" d="M242.809,124.03l-.28.16-.519.777.165.139.184-.277c.024-.033.06-.1.12-.2l0,.2,0,.177,0,1.074.34-.2,0-1.854" transform="translate(-239.336 -123.322)" fill="#fff"/>
                <path id="Path_3019" data-name="Path 3019" d="M247.784,121.163a1.356,1.356,0,0,0-.206.143,1.318,1.318,0,0,0-.172.175,2.454,2.454,0,0,0-.2.28l.187.144a2.746,2.746,0,0,1,.184-.246.778.778,0,0,1,.184-.155.168.168,0,0,1,.141-.029c.034.014.053.06.055.136a.539.539,0,0,1-.024.158,1.251,1.251,0,0,1-.079.2c-.036.077-.115.218-.234.428l-.4.7v.273l1.129-.651v-.33l-.7.407v-.019l.208-.342c.139-.225.234-.395.289-.5a1.854,1.854,0,0,0,.12-.3.946.946,0,0,0,.038-.263.34.34,0,0,0-.065-.225.217.217,0,0,0-.182-.074.629.629,0,0,0-.27.093" transform="translate(-243.293 -121.069)" fill="#fff"/>
              </g>
            </g>
          </g>
        </g>
      </g>
    </g>
  </g>
  <g id="XMLID_81_" transform="translate(63.634 16.096)">
    <g id="Group_1049" data-name="Group 1049">
      <g id="Group_1048" data-name="Group 1048">
        <g id="Group_1047" data-name="Group 1047" clip-path="url(#clip-path-6)">
          <g id="Group_1046" data-name="Group 1046" transform="translate(0.007 0.136)">
            <g id="Group_1045" data-name="Group 1045">
              <g id="Group_1044" data-name="Group 1044">
                <path id="Path_3021" data-name="Path 3021" d="M272.441,59.83l-.875.507-.057.981.136,0q.043-.039.115-.093a1.262,1.262,0,0,1,.129-.088c.215-.124.323-.093.325.093a.534.534,0,0,1-.311.474.937.937,0,0,1-.22.093.678.678,0,0,1-.2.029v.34a.912.912,0,0,0,.435-.151,1.353,1.353,0,0,0,.476-.442,1.062,1.062,0,0,0,.165-.574c0-.175-.048-.287-.141-.332a.394.394,0,0,0-.373.065,1.266,1.266,0,0,0-.167.115l-.038.031.029-.383.576-.332V59.83" transform="translate(-271.48 -57.606)" fill="#fff"/>
                <path id="Path_3022" data-name="Path 3022" d="M277.292,58.947a.227.227,0,0,1-.179.043c-.045-.014-.067-.057-.067-.129a.741.741,0,0,1,.234-.452.419.419,0,0,1,.2.041.137.137,0,0,1,.062.124.357.357,0,0,1-.065.2.493.493,0,0,1-.189.172m0-.883a.258.258,0,0,1-.155-.033.139.139,0,0,1-.043-.112.32.32,0,0,1,.053-.167.4.4,0,0,1,.141-.134.177.177,0,0,1,.141-.031c.036.012.055.048.055.105a.379.379,0,0,1-.043.167.925.925,0,0,1-.148.206m0-.734a1.16,1.16,0,0,0-.373.34.713.713,0,0,0-.143.407.332.332,0,0,0,.062.213.289.289,0,0,0,.2.1,1.423,1.423,0,0,0-.234.352.808.808,0,0,0-.072.325c0,.158.05.249.153.277a.575.575,0,0,0,.416-.11,1.213,1.213,0,0,0,.409-.375.813.813,0,0,0,.155-.457.28.28,0,0,0-.081-.22.393.393,0,0,0-.261-.081,1.391,1.391,0,0,0,.22-.325.681.681,0,0,0,.067-.294q0-.2-.143-.244a.494.494,0,0,0-.373.093" transform="translate(-275.474 -55.625)" fill="#fff"/>
                <path id="Path_3023" data-name="Path 3023" d="M282.637,55.273c-.074.043-.129.048-.163.014a.232.232,0,0,1-.055-.182.583.583,0,0,1,.06-.275.415.415,0,0,1,.165-.179.139.139,0,0,1,.177,0,.289.289,0,0,1,.069.218.447.447,0,0,1-.072.222.589.589,0,0,1-.182.179m0-.93a1.1,1.1,0,0,0-.545.959.421.421,0,0,0,.124.361c.081.057.191.045.332-.036a.885.885,0,0,0,.21-.17.858.858,0,0,0,.146-.251l.014-.007a1.176,1.176,0,0,1-.067.38.826.826,0,0,1-.17.277,1.213,1.213,0,0,1-.28.22,1.029,1.029,0,0,1-.194.086v.313a1.453,1.453,0,0,0,.218-.108,1.518,1.518,0,0,0,.607-.622,2.028,2.028,0,0,0,.2-.933.891.891,0,0,0-.074-.395.265.265,0,0,0-.208-.16.488.488,0,0,0-.313.084" transform="translate(-279.552 -53.364)" fill="#fff"/>
                <path id="Path_3024" data-name="Path 3024" d="M287.649,52.111l.294-.684a2.718,2.718,0,0,0,.1-.261l.01,0c0,.017,0,.077-.01.179s0,.177,0,.23v.313l-.387.227m.717-1.581-.316.182-.7,1.6v.273l.689-.4v.385l.332-.191V52l.194-.112v-.306l-.194.112,0-1.165" transform="translate(-283.555 -50.53)" fill="#fff"/>
              </g>
            </g>
          </g>
        </g>
      </g>
    </g>
  </g>
  <g id="XMLID_85_" transform="translate(28.575 114.745)">
    <g id="Group_1055" data-name="Group 1055">
      <g id="Group_1054" data-name="Group 1054">
        <g id="Group_1053" data-name="Group 1053" clip-path="url(#clip-path-7)">
          <g id="Group_1052" data-name="Group 1052" transform="translate(0.026 0.132)">
            <g id="Group_1051" data-name="Group 1051">
              <g id="Group_1050" data-name="Group 1050">
                <path id="Path_3026" data-name="Path 3026" d="M127.168,463.191a1.418,1.418,0,0,0-.23-.108,1.3,1.3,0,0,0-.234-.062,2.433,2.433,0,0,0-.342-.031l-.031.234a2.439,2.439,0,0,1,.306.033.8.8,0,0,1,.225.081.163.163,0,0,1,.1.11c0,.041-.026.077-.091.115a.642.642,0,0,1-.148.06,1.365,1.365,0,0,1-.213.031c-.084.007-.246.01-.488.012l-.811,0-.237.139,1.129.651.285-.165-.7-.407.014-.01.4.007c.265.007.459.007.581,0a1.633,1.633,0,0,0,.32-.046.978.978,0,0,0,.246-.1.349.349,0,0,0,.163-.167.207.207,0,0,0-.026-.191.551.551,0,0,0-.21-.189" transform="translate(-124.97 -462.99)" fill="#fff"/>
                <path id="Path_3027" data-name="Path 3027" d="M131.99,466.862c-.074-.043-.105-.086-.1-.134a.246.246,0,0,1,.129-.139.605.605,0,0,1,.268-.086.414.414,0,0,1,.237.053.143.143,0,0,1,.088.156.283.283,0,0,1-.151.167.446.446,0,0,1-.232.048.528.528,0,0,1-.244-.065m.8-.466a1.076,1.076,0,0,0-.55-.146,1.107,1.107,0,0,0-.555.153c-.16.093-.244.189-.254.287s.057.189.2.27a.794.794,0,0,0,.251.1.907.907,0,0,0,.292,0l.014.007a1.239,1.239,0,0,1-.361.132.826.826,0,0,1-.325-.007,1.142,1.142,0,0,1-.33-.134.913.913,0,0,1-.172-.127l-.273.158a1.346,1.346,0,0,0,.2.134,1.518,1.518,0,0,0,.842.215,1.975,1.975,0,0,0,.909-.294.905.905,0,0,0,.306-.261.275.275,0,0,0,.036-.261.514.514,0,0,0-.232-.225" transform="translate(-129.352 -465.47)" fill="#fff"/>
                <path id="Path_3028" data-name="Path 3028" d="M139.787,470.062l-.28-.16-.933-.062-.038.213.332.022c.041,0,.115,0,.227,0l-.172.093-.155.086-.928.54.34.2,1.607-.93" transform="translate(-134.762 -468.202)" fill="#fff"/>
                <path id="Path_3029" data-name="Path 3029" d="M142.877,473.782l.741-.086a2.4,2.4,0,0,0,.273-.045l.01,0c-.017.007-.069.034-.16.081s-.158.084-.2.11l-.273.158-.387-.222m1.729-.17-.316-.182-1.743.191-.237.139.689.4-.332.194.335.194.332-.194.194.112.263-.153-.194-.112,1.009-.586" transform="translate(-138.163 -470.933)" fill="#fff"/>
              </g>
            </g>
          </g>
        </g>
      </g>
    </g>
  </g>
  <g id="XMLID_89_" transform="translate(26.743 102.039)">
    <g id="Group_1061" data-name="Group 1061">
      <g id="Group_1060" data-name="Group 1060">
        <g id="Group_1059" data-name="Group 1059" clip-path="url(#clip-path-8)">
          <g id="Group_1058" data-name="Group 1058" transform="translate(0.026 0.134)">
            <g id="Group_1057" data-name="Group 1057">
              <g id="Group_1056" data-name="Group 1056">
                <path id="Path_3031" data-name="Path 3031" d="M119.508,410.069a1.649,1.649,0,0,0-.23-.108,1.321,1.321,0,0,0-.237-.06,2.818,2.818,0,0,0-.337-.031l-.033.234a2.523,2.523,0,0,1,.306.036.676.676,0,0,1,.225.081c.06.034.091.069.1.11s-.026.077-.091.115a.638.638,0,0,1-.148.057,1.366,1.366,0,0,1-.21.031c-.084.007-.249.01-.49.012l-.813,0-.234.136,1.129.651.285-.165-.7-.407.014-.01.4.007c.261.007.454.007.579,0a1.808,1.808,0,0,0,.32-.045,1,1,0,0,0,.249-.1.349.349,0,0,0,.163-.167.219.219,0,0,0-.026-.194.578.578,0,0,0-.213-.186" transform="translate(-117.31 -409.87)" fill="#fff"/>
                <path id="Path_3032" data-name="Path 3032" d="M125.05,413.03a1.649,1.649,0,0,0-.686-.21l-.074.225a1.878,1.878,0,0,1,.275.053.844.844,0,0,1,.187.079c.153.089.167.167.048.239a.378.378,0,0,1-.253.048.944.944,0,0,1-.323-.132l-.124-.072-.261.151.124.072a.688.688,0,0,1,.249.2c.031.055.007.1-.067.146a.423.423,0,0,1-.265.06.8.8,0,0,1-.306-.11,1.007,1.007,0,0,1-.194-.146.835.835,0,0,1-.129-.163l-.289.167a1.142,1.142,0,0,0,.38.318,1.405,1.405,0,0,0,.612.2.908.908,0,0,0,.529-.112c.105-.06.155-.129.151-.206s-.062-.155-.177-.239l.007,0a1.086,1.086,0,0,0,.4.065.714.714,0,0,0,.347-.1c.12-.069.165-.153.136-.246a.611.611,0,0,0-.3-.289" transform="translate(-121.609 -412.115)" fill="#fff"/>
                <path id="Path_3033" data-name="Path 3033" d="M129.834,417.542l.741-.086a2.4,2.4,0,0,0,.273-.045l.01,0c-.017.007-.069.034-.158.081s-.158.086-.2.112l-.273.158-.39-.225m1.729-.17-.316-.182-1.743.191-.234.136.691.4-.332.194.332.191.332-.194.194.112.263-.153-.194-.112,1.007-.584" transform="translate(-126.41 -415.439)" fill="#fff"/>
              </g>
            </g>
          </g>
        </g>
      </g>
    </g>
  </g>
  <g id="XMLID_116_" transform="translate(56.1 107.542)">
    <g id="Group_1067" data-name="Group 1067">
      <g id="Group_1066" data-name="Group 1066">
        <g id="Group_1065" data-name="Group 1065" clip-path="url(#clip-path-9)">
          <g id="Group_1064" data-name="Group 1064" transform="translate(0.086 0.093)">
            <g id="Group_1063" data-name="Group 1063">
              <g id="Group_1062" data-name="Group 1062">
                <path id="Path_3035" data-name="Path 3035" d="M242.4,432.923a1.688,1.688,0,0,0-.684-.213l-.077.227a1.817,1.817,0,0,1,.275.053.8.8,0,0,1,.187.079c.153.089.167.167.048.239a.389.389,0,0,1-.253.048,1.022,1.022,0,0,1-.323-.129l-.124-.072-.258.151.122.069a.717.717,0,0,1,.249.2c.031.055.007.1-.067.148a.436.436,0,0,1-.265.06.838.838,0,0,1-.306-.11.936.936,0,0,1-.194-.146.648.648,0,0,1-.129-.165l-.289.167a1.142,1.142,0,0,0,.38.318,1.439,1.439,0,0,0,.61.2.889.889,0,0,0,.529-.11c.105-.062.155-.129.153-.206a.361.361,0,0,0-.177-.239l.007,0a1.089,1.089,0,0,0,.4.065.751.751,0,0,0,.349-.1c.12-.069.163-.151.136-.246a.609.609,0,0,0-.3-.289" transform="translate(-240.31 -432.71)" fill="#fff"/>
                <path id="Path_3036" data-name="Path 3036" d="M249.494,436.832l-.28-.163-.93-.06-.041.213.335.022c.041,0,.115,0,.227,0l-.172.093-.155.086-.928.54.342.2,1.6-.933" transform="translate(-245.818 -435.677)" fill="#fff"/>
                <path id="Path_3037" data-name="Path 3037" d="M253.048,439.3a1.411,1.411,0,0,0-.23-.108,1.686,1.686,0,0,0-.234-.062,2.867,2.867,0,0,0-.34-.031l-.033.234a2.038,2.038,0,0,1,.306.036.732.732,0,0,1,.225.079.163.163,0,0,1,.1.11c0,.041-.026.079-.088.115a.621.621,0,0,1-.151.06,1.367,1.367,0,0,1-.21.031c-.084.007-.249.01-.488.012l-.813,0-.237.139,1.129.651.285-.165-.7-.407.014-.01.4.007c.263.007.457,0,.579,0a1.636,1.636,0,0,0,.32-.045,1.034,1.034,0,0,0,.249-.1.349.349,0,0,0,.163-.167.228.228,0,0,0-.026-.194.62.62,0,0,0-.213-.186" transform="translate(-248.329 -437.572)" fill="#fff"/>
                <path id="Path_3038" data-name="Path 3038" d="M259.112,442.5l-.875-.5-.878.44.065.12c.038.014.086.031.141.053a1.327,1.327,0,0,1,.141.067c.215.124.242.234.081.328a.533.533,0,0,1-.567-.033,1.112,1.112,0,0,1-.191-.144.711.711,0,0,1-.127-.16l-.292.17a.906.906,0,0,0,.349.3,1.332,1.332,0,0,0,.622.191,1.078,1.078,0,0,0,.581-.143c.151-.086.222-.184.218-.287s-.086-.2-.242-.292a1.018,1.018,0,0,0-.182-.086l-.045-.017.344-.167.576.332.28-.167" transform="translate(-252.712 -439.778)" fill="#fff"/>
              </g>
            </g>
          </g>
        </g>
      </g>
    </g>
  </g>
  <g id="XMLID_143_" transform="translate(53.144 93.924)">
    <g id="Group_1073" data-name="Group 1073">
      <g id="Group_1072" data-name="Group 1072">
        <g id="Group_1071" data-name="Group 1071" clip-path="url(#clip-path-10)">
          <g id="Group_1070" data-name="Group 1070" transform="translate(0.026 0.134)">
            <g id="Group_1069" data-name="Group 1069">
              <g id="Group_1068" data-name="Group 1068">
                <path id="Path_3040" data-name="Path 3040" d="M229.9,376.139a1.4,1.4,0,0,0-.23-.105,1.647,1.647,0,0,0-.237-.062,2.928,2.928,0,0,0-.34-.031l-.031.234a2.412,2.412,0,0,1,.3.036.71.71,0,0,1,.225.081c.06.033.091.069.1.11s-.026.077-.091.115a.6.6,0,0,1-.148.057,1.327,1.327,0,0,1-.21.031c-.084.007-.246.01-.49.012l-.811,0-.234.136,1.129.651.285-.165-.7-.407.014-.01.4.007c.265.007.457.007.579,0a1.873,1.873,0,0,0,.32-.045.885.885,0,0,0,.249-.1.349.349,0,0,0,.163-.167.212.212,0,0,0-.026-.194.543.543,0,0,0-.213-.189" transform="translate(-227.7 -375.94)" fill="#fff"/>
                <path id="Path_3041" data-name="Path 3041" d="M234.595,380.162c-.077-.043-.117-.089-.127-.134s.017-.086.081-.124a.72.72,0,0,1,.507-.022.4.4,0,0,1,.065.2.141.141,0,0,1-.077.117.386.386,0,0,1-.206.048.587.587,0,0,1-.244-.081m.768-.44a.248.248,0,0,1-.045-.151.137.137,0,0,1,.074-.093.292.292,0,0,1,.172-.038.392.392,0,0,1,.184.055.174.174,0,0,1,.1.108c.01.038-.014.074-.062.1a.391.391,0,0,1-.165.045,1,1,0,0,1-.254-.029m.634-.368a1.149,1.149,0,0,0-.481-.155.7.7,0,0,0-.421.079.354.354,0,0,0-.155.16.294.294,0,0,0,.014.222,1.4,1.4,0,0,0-.423-.026.777.777,0,0,0-.316.1q-.2.118-.165.273c.026.1.127.2.3.306a1.243,1.243,0,0,0,.529.167.794.794,0,0,0,.474-.1.288.288,0,0,0,.151-.177.4.4,0,0,0-.057-.268,1.359,1.359,0,0,0,.392.026.708.708,0,0,0,.287-.086c.117-.069.165-.151.141-.246a.524.524,0,0,0-.273-.277" transform="translate(-232.526 -378.416)" fill="#fff"/>
                <path id="Path_3042" data-name="Path 3042" d="M240.232,383.612l.739-.089c.1-.012.187-.026.275-.045l.007,0c-.014.007-.069.034-.158.084s-.16.086-.2.11l-.273.158-.387-.222m1.732-.17-.316-.182-1.743.194-.234.136.689.4-.332.194.332.191.332-.194.2.112.263-.153-.2-.112,1.009-.584" transform="translate(-236.807 -381.509)" fill="#fff"/>
                <path id="Path_3043" data-name="Path 3043" d="M246.756,385.575l-.875-.5-.878.44.062.122c.038.012.084.029.141.05a1.3,1.3,0,0,1,.141.069c.215.124.242.232.079.328a.534.534,0,0,1-.564-.033.93.93,0,0,1-.191-.143.788.788,0,0,1-.129-.16l-.292.17a.87.87,0,0,0,.349.3,1.351,1.351,0,0,0,.622.191,1.043,1.043,0,0,0,.579-.143c.151-.089.225-.184.22-.287s-.086-.2-.242-.292a1.4,1.4,0,0,0-.184-.088l-.045-.017.344-.165.576.332.287-.17" transform="translate(-240.292 -382.886)" fill="#fff"/>
              </g>
            </g>
          </g>
        </g>
      </g>
    </g>
  </g>
  <g id="XMLID_146_" transform="translate(78.218 96.928)">
    <g id="Group_1079" data-name="Group 1079">
      <g id="Group_1078" data-name="Group 1078">
        <g id="Group_1077" data-name="Group 1077" clip-path="url(#clip-path-11)">
          <g id="Group_1076" data-name="Group 1076" transform="translate(0.086 0.093)">
            <g id="Group_1075" data-name="Group 1075">
              <g id="Group_1074" data-name="Group 1074">
                <path id="Path_3045" data-name="Path 3045" d="M334.88,388.543a1.687,1.687,0,0,0-.684-.213l-.077.227a1.883,1.883,0,0,1,.275.053.8.8,0,0,1,.187.079c.153.089.167.167.048.239a.378.378,0,0,1-.254.048.981.981,0,0,1-.323-.129l-.124-.072-.258.151.122.069a.692.692,0,0,1,.249.2c.029.053.007.1-.067.148a.436.436,0,0,1-.265.06.8.8,0,0,1-.306-.112,1,1,0,0,1-.194-.146.778.778,0,0,1-.129-.165l-.289.167a1.163,1.163,0,0,0,.38.318,1.415,1.415,0,0,0,.612.2.885.885,0,0,0,.529-.11c.105-.062.155-.129.153-.206a.358.358,0,0,0-.179-.239l.007,0a1.041,1.041,0,0,0,.4.065.715.715,0,0,0,.347-.1c.122-.069.165-.153.136-.249a.606.606,0,0,0-.3-.285" transform="translate(-332.79 -388.33)" fill="#fff"/>
                <path id="Path_3046" data-name="Path 3046" d="M339.427,392.722c-.076-.043-.12-.089-.129-.134s.019-.086.081-.124a.72.72,0,0,1,.507-.022.394.394,0,0,1,.065.2.129.129,0,0,1-.074.115.39.39,0,0,1-.206.048.572.572,0,0,1-.244-.079m.765-.438a.219.219,0,0,1-.045-.151.137.137,0,0,1,.074-.093.316.316,0,0,1,.172-.038.394.394,0,0,1,.184.055.179.179,0,0,1,.1.108q.011.057-.065.1a.393.393,0,0,1-.165.045,1.108,1.108,0,0,1-.253-.026m.636-.371a1.159,1.159,0,0,0-.483-.155.7.7,0,0,0-.421.079.354.354,0,0,0-.155.16.293.293,0,0,0,.014.222,1.388,1.388,0,0,0-.421-.026.829.829,0,0,0-.318.1q-.2.118-.165.273c.026.1.129.2.306.306a1.223,1.223,0,0,0,.529.167.8.8,0,0,0,.474-.093.293.293,0,0,0,.151-.179.392.392,0,0,0-.057-.268,1.361,1.361,0,0,0,.392.026.71.71,0,0,0,.287-.086c.117-.069.165-.151.141-.246a.52.52,0,0,0-.273-.28" transform="translate(-337.418 -390.935)" fill="#fff"/>
                <path id="Path_3047" data-name="Path 3047" d="M345.062,396.172l.741-.086c.1-.012.187-.026.273-.045l.01,0c-.017.007-.069.033-.16.081s-.158.084-.2.11l-.273.158-.387-.222m1.732-.17-.316-.182-1.743.194-.234.136.689.4-.332.194.335.194.332-.194.194.112.263-.153-.194-.112,1.007-.586" transform="translate(-341.699 -394.029)" fill="#fff"/>
                <path id="Path_3048" data-name="Path 3048" d="M350.523,399.218c-.072-.041-.1-.093-.086-.153a.28.28,0,0,1,.153-.167.439.439,0,0,1,.227-.048.5.5,0,0,1,.244.065c.074.043.108.086.1.134s-.05.093-.129.139a.588.588,0,0,1-.266.086.434.434,0,0,1-.242-.055m1.6-.667a1.531,1.531,0,0,0-.839-.215,1.975,1.975,0,0,0-.911.294.9.9,0,0,0-.309.263.275.275,0,0,0-.034.258.5.5,0,0,0,.23.227,1.076,1.076,0,0,0,.552.148,1.1,1.1,0,0,0,.552-.153c.16-.093.242-.189.251-.287s-.06-.191-.2-.275a.79.79,0,0,0-.536-.093l-.014-.01a1.274,1.274,0,0,1,.359-.132.807.807,0,0,1,.32.007,1.126,1.126,0,0,1,.34.134,1.04,1.04,0,0,1,.175.124l.27-.158a1.5,1.5,0,0,0-.2-.134" transform="translate(-345.893 -395.942)" fill="#fff"/>
              </g>
            </g>
          </g>
        </g>
      </g>
    </g>
  </g>
  <g id="XMLID_149_" transform="translate(92.085 92.905)">
    <g id="Group_1085" data-name="Group 1085">
      <g id="Group_1084" data-name="Group 1084">
        <g id="Group_1083" data-name="Group 1083" clip-path="url(#clip-path-12)">
          <g id="Group_1082" data-name="Group 1082" transform="translate(0.352 0.419)">
            <g id="Group_1081" data-name="Group 1081">
              <g id="Group_1080" data-name="Group 1080">
                <path id="Path_3050" data-name="Path 3050" d="M392.444,373.219l.741-.086a2.393,2.393,0,0,0,.273-.046l.01,0c-.014.007-.069.034-.16.081s-.156.086-.2.112l-.273.158-.39-.225m1.729-.167-.316-.182-1.741.194-.237.139.689.4-.332.194.332.191.332-.194.194.112.263-.153-.194-.112,1.009-.586" transform="translate(-391.88 -372.87)" fill="#fff"/>
                <path id="Path_3051" data-name="Path 3051" d="M398.966,375.185l-.875-.5-.878.44.062.122a1.372,1.372,0,0,1,.139.053c.055.024.1.045.141.067.218.124.244.234.081.328a.538.538,0,0,1-.567-.031.937.937,0,0,1-.189-.143.663.663,0,0,1-.129-.16l-.292.17a.871.871,0,0,0,.349.3,1.351,1.351,0,0,0,.619.191,1.072,1.072,0,0,0,.581-.143c.151-.089.225-.184.218-.287s-.084-.2-.242-.292a.965.965,0,0,0-.184-.086l-.045-.017.344-.167.576.332.289-.172" transform="translate(-395.365 -374.247)" fill="#fff"/>
                <path id="Path_3052" data-name="Path 3052" d="M403.3,379.372a.136.136,0,0,1-.084-.153.281.281,0,0,1,.151-.167A.446.446,0,0,1,403.6,379a.5.5,0,0,1,.244.065c.074.043.105.086.1.134a.246.246,0,0,1-.129.139.587.587,0,0,1-.265.086.423.423,0,0,1-.244-.055m1.6-.67a1.546,1.546,0,0,0-.84-.215,1.992,1.992,0,0,0-.911.294.874.874,0,0,0-.309.263.27.27,0,0,0-.036.258.493.493,0,0,0,.232.227,1.073,1.073,0,0,0,.552.146,1.1,1.1,0,0,0,.552-.151c.16-.093.242-.189.249-.289s-.06-.191-.2-.275a.79.79,0,0,0-.536-.093l-.014-.007a1.307,1.307,0,0,1,.356-.134.916.916,0,0,1,.323,0,1.193,1.193,0,0,1,.34.134,1.021,1.021,0,0,1,.172.124l.273-.158c-.041-.029-.108-.074-.2-.129" transform="translate(-400.175 -377.143)" fill="#fff"/>
                <path id="Path_3053" data-name="Path 3053" d="M410.952,381.962l-.28-.163-.93-.06-.038.213.332.022c.041,0,.115,0,.23,0l-.172.093-.155.086-.928.541.34.2,1.6-.933" transform="translate(-404.913 -379.619)" fill="#fff"/>
              </g>
            </g>
          </g>
        </g>
      </g>
    </g>
  </g>
</svg>
