<?xml version="1.0" encoding="UTF-8"?><svg id="uuid-8e7c83fe-9622-4654-860b-c569ef15b529" xmlns="http://www.w3.org/2000/svg" viewBox="0 0 721.69 504.26"><path d="m330.8,139.38c-18.58,0-34.69,1.35-48.32,4.03-13.63,2.69-24.68,7.23-33.14,13.63-8.47,6.41-15.18,12.91-20.13,19.51-4.96,6.61-8.58,16.11-10.84,28.5-2.28,12.39-3.62,23.23-4.03,32.52-.42,9.29-.62,22.61-.62,39.96h117.08v226.73H14.87C4.96,440.66,0,383.46,0,332.66c0-114.81,26.84-198.95,80.53-252.44C134.21,26.75,217.64,0,330.8,0v139.38Zm390.89,0c-18.58,0-34.69,1.35-48.32,4.03-13.63,2.69-24.68,7.23-33.14,13.63-8.47,6.41-15.18,12.91-20.13,19.51-4.96,6.61-8.58,16.11-10.84,28.5-2.28,12.39-3.62,23.23-4.03,32.52-.42,9.29-.62,22.61-.62,39.96h117.08v226.73h-315.93c-9.91-63.6-14.87-120.8-14.87-171.6,0-114.81,26.84-198.95,80.53-252.44C525.1,26.75,608.53,0,721.69,0v139.38Z" stroke-width="0"/></svg>