<?xml version="1.0" encoding="utf-8"?>
<!-- Generator: Adobe Illustrator 28.0.0, SVG Export Plug-In . SVG Version: 6.00 Build 0)  -->
<svg version="1.1" id="Layer_1" xmlns="http://www.w3.org/2000/svg" xmlns:xlink="http://www.w3.org/1999/xlink" x="0px" y="0px"
	 viewBox="0 0 1925.4 1348.2" enable-background="new 0 0 1925.4 1348.2" xml:space="preserve">
<g id="landing-pg-header" transform="matrix(0.998, 0.07, -0.07, 0.998, 1395.763, 1508.317)">
	
		<linearGradient id="Btm_Blue_00000169536040403247472120000002790159449681955509_" gradientUnits="userSpaceOnUse" x1="-2672.7507" y1="732.374" x2="-2673.4236" y2="732.6329" gradientTransform="matrix(2026.272 -1076.2419 589.6543 1110.1594 4983647.5 -3691067.25)">
		<stop  offset="0" style="stop-color:#73C1FF"/>
		<stop  offset="1" style="stop-color:#1382D9"/>
	</linearGradient>
	
		<path id="Btm_Blue" opacity="0.2" fill="url(#Btm_Blue_00000169536040403247472120000002790159449681955509_)" enable-background="new    " d="
		M-1089.6-1434.6l1510.5-105l35.1,505.7001L-1304.2-86c-31.7,16.9-70.1,15.4-100.4-3.8c-84.6-1216.9-81.6-1183-90.9-1316.6
		L-1089.6-1434.6z"/>
	
		<linearGradient id="Top_Blue-2_00000056424634848000930190000008710118760973834410_" gradientUnits="userSpaceOnUse" x1="-2672.6333" y1="732.4335" x2="-2673.283" y2="732.4105" gradientTransform="matrix(2022.2983 -1074.1313 584.8953 1101.1995 4976518 -3678858.75)">
		<stop  offset="0" style="stop-color:#ACDAFF"/>
		<stop  offset="1" style="stop-color:#005AA1"/>
	</linearGradient>
	<path id="Top_Blue-2" fill="url(#Top_Blue-2_00000056424634848000930190000008710118760973834410_)" d="M422.6-1541l26,371.3
		l8.7,124.1L-1302.6-97c-31.7,16.9-72.7,14.8-103-4.5l-91.2-1304.9C-1496.9-1406.3-776.4-1457.7,422.6-1541z"/>
	<g id="inner_shapes">
		<g>
			<g>
				<defs>
					<path id="SVGID_1_" d="M-985.1-1442.2c77.8-94.3,779-51.5,904.3-64.7l515-35.3c272.5-24.9-2.1,136.5,2.1,195.3l4.7,66.8
						c-4.9,165.5,41.4,234.7-104.8,312.4l-1456,773.4c-146.3,77.7-156.6,27.8-296.5-60.8l-44.7-636.8
						c-234.3-148.4-210.8-300.5-34.3-514.5L-985.1-1442.2z"/>
				</defs>
				<clipPath id="SVGID_00000173148928190888804120000014529325625345915054_">
					<use xlink:href="#SVGID_1_"  overflow="visible"/>
				</clipPath>
				<g id="Mask_Group_2" clip-path="url(#SVGID_00000173148928190888804120000014529325625345915054_)">
					<path id="Path_527" opacity="0.05" fill="#FFFFFF" enable-background="new    " d="M-1442.9-615.6c0,0,96.5-274.9,601.6-274.9
						S524.3-90.7,493.4-532.4C463-966.2,452-1097.8,452-1097.8s-804.4-387.7-1296.9-354c-492.5,33.6-650.1,45.4-650.1,45.4
						L-1442.9-615.6z"/>
					<path id="Path_528" opacity="0.02" fill="#FFFFFF" enable-background="new    " d="M-1434.3-513.8c0,0,10.4-100.6,287.6-101.5
						s540.4,143.1,540.4,143.1S-990.8-254.6-1023.5-249c-32.6,5.6-384.5,114.7-384.5,114.7l-12.6-212.4L-1434.3-513.8z"/>
				</g>
			</g>
		</g>
		<g id="Polygons" transform="translate(697.096 20.305) rotate(25)" display="none" opacity="0.51">
			<path id="Polygon_3" display="inline" opacity="0.11" enable-background="new    " d="M-1878.3,21.9994c2-5,7.6001-7.5,12.7-5.6
				l13.1,4.7c5.2,1.9,7.9,7.6,6,12.8c0,0.1-0.1,0.3-0.1,0.4l-5.3,12.9c-2,5-7.6,7.5-12.7,5.6l-13.1-4.7c-5.2-1.9-7.9-7.6-6-12.8
				c0-0.1,0.1-0.3,0.1-0.4L-1878.3,21.9994z"/>
			<path id="Polygon_10" display="inline" opacity="0.11" enable-background="new    " d="M-1463.5999-86.0005c2-5,7.6-7.5,12.7-5.6
				l13.1,4.7c5.2,1.9,7.9,7.6,6,12.8c0,0.1-0.1,0.3-0.1,0.4l-5.3,12.9c-2,5-7.6,7.5-12.7,5.6l-13.1-4.7c-5.2-1.9-7.9-7.6-6-12.8
				c0-0.1,0.1-0.3,0.1-0.4L-1463.5999-86.0005z"/>
			<path id="Polygon_5" display="inline" opacity="0.11" enable-background="new    " d="M-1495.5,29.6995c2-5,7.6-7.5,12.7-5.6
				l13.1,4.7c5.2,1.9,7.9,7.6,6,12.8c0,0.1-0.1,0.3-0.1,0.4l-5.3,12.9c-2,5-7.6,7.5-12.7,5.6l-13.1-4.7c-5.2-1.9-7.9-7.6-6-12.8
				c0-0.1,0.1-0.3,0.1-0.4L-1495.5,29.6995z"/>
			<path id="Polygon_9" display="inline" opacity="0.11" enable-background="new    " d="M-1559.3999-33.4005c2-5,7.6-7.5,12.7-5.6
				l13.1,4.7c5.2,1.9,7.9,7.6,6,12.8c0,0.1-0.1,0.3-0.1,0.4l-5.3002,12.9c-2,5-7.6,7.5-12.7,5.6l-13.1-4.7
				c-5.1998-1.9-7.8999-7.6-5.9999-12.8c0-0.1,0.1-0.3,0.1-0.4L-1559.3999-33.4005z"/>
			<path id="Polygon_4" display="inline" opacity="0.11" enable-background="new    " d="M-1623.3,44.9995c2-5,7.6-7.5,12.7-5.6
				l13.1,4.7c5.2,1.9,7.9,7.6,6,12.8c0,0.1-0.1,0.3-0.1,0.4l-5.3,12.9c-2,5-7.6,7.5-12.7,5.6l-13.1-4.7c-5.2-1.9-7.9-7.6-6-12.8
				c0-0.1,0.1-0.3,0.1-0.4L-1623.3,44.9995z"/>
			<path id="Polygon_8" display="inline" opacity="0.11" enable-background="new    " d="M-1681.2999-33.4005c2-5,7.6-7.5,12.7-5.6
				l13.1,4.7c5.2,1.9,7.9,7.6,6,12.8c0,0.1-0.1,0.3-0.1,0.4l-5.3,12.9c-2,5-7.6001,7.5-12.7,5.6l-13.1-4.7c-5.2-1.9-7.9-7.6-6-12.8
				c0-0.1,0.1-0.3,0.1-0.4L-1681.2999-33.4005z"/>
			<path id="Polygon_6" display="inline" opacity="0.11" enable-background="new    " d="M-1722.4,39.9994c2-5,7.6-7.5,12.7-5.6
				l13.1,4.7c5.2,1.9,7.9,7.6,6,12.8c0,0.1-0.1,0.3-0.1,0.4l-5.3,12.9c-2,5-7.6,7.5-12.7,5.6l-13.1-4.7c-5.2-1.9-7.9-7.6-6-12.8
				c0-0.1,0.1-0.3,0.1-0.4L-1722.4,39.9994z"/>
			<path id="Polygon_7" display="inline" opacity="0.11" enable-background="new    " d="M-1786.2999-2.0006c2-5,7.6-7.5,12.7-5.6
				l13.1,4.7c5.2,1.9,7.9,7.6,5.9999,12.8c0,0.1-0.1,0.3-0.1,0.4l-5.3,12.9c-2,5-7.6,7.5-12.7,5.6l-13.1-4.7
				c-5.2-1.9-7.9-7.6-6-12.8c0-0.1,0.1-0.3,0.1-0.4L-1786.2999-2.0006z"/>
		</g>
		<g id="Polygons-2" transform="translate(-157.655 40.289) rotate(-2)" display="none">
			<path id="Polygon_3-2" display="inline" opacity="0.11" fill="#77AFDB" enable-background="new    " d="M-1246.2002-745.7993
				c2-5,7.6-7.5,12.7-5.6l13.1,4.7c5.2,1.9,7.9,7.6,6,12.8c0,0.1-0.1,0.3-0.1,0.4l-5.3,12.9c-2,5-7.6,7.5-12.7,5.6l-13.1-4.7
				c-5.2-1.9-7.9-7.6-6-12.8c0-0.1,0.1-0.3,0.1-0.4L-1246.2002-745.7993z"/>
			<path id="Polygon_10-2" display="inline" opacity="0.11" fill="#77AFDB" enable-background="new    " d="M-925.6003-888.3995
				c2-5,7.6-7.5,12.7-5.6l13.1,4.7c5.2,1.9,7.9,7.6,6,12.8c0,0.1-0.1,0.3-0.1,0.4l-5.2999,12.9c-2,5-7.6,7.5-12.7,5.6l-13.1-4.7
				c-5.2-1.9-7.9-7.6-6-12.8c0-0.1,0.1-0.3,0.1-0.4L-925.6003-888.3995z"/>
			<path id="Polygon_5-2" display="inline" opacity="0.11" fill="#77AFDB" enable-background="new    " d="M-957.5003-772.6995
				c2-5,7.6-7.5,12.7-5.6l13.1,4.7c5.2,1.9,7.9,7.6,6,12.8c0,0.1-0.1,0.3-0.1,0.4l-5.2999,12.9c-2,5-7.6,7.5-12.7,5.6l-13.1-4.7
				c-5.2-1.9-7.9-7.6-6-12.8c0-0.1,0.1-0.3,0.1-0.4L-957.5003-772.6995z"/>
			<path id="Polygon_9-2" display="inline" opacity="0.11" fill="#77AFDB" enable-background="new    " d="M-1021.4003-835.7994
				c2-5,7.6-7.5,12.7-5.6l13.1,4.7c5.2,1.9,7.9,7.6,6,12.8c0,0.1-0.1,0.3-0.1,0.4l-5.3,12.9c-2,5-7.6,7.5-12.7,5.6l-13.1-4.7
				c-5.2-1.9-7.8999-7.6-6-12.8c0-0.1,0.1-0.3,0.1-0.4L-1021.4003-835.7994z"/>
			<path id="Polygon_4-2" display="inline" opacity="0.11" fill="#77AFDB" enable-background="new    " d="M-1085.3003-757.3994
				c2-5,7.6-7.5,12.7-5.6l13.1,4.7c5.2,1.9,7.9,7.6,6,12.8c0,0.1-0.1,0.3-0.1,0.4l-5.3,12.9c-2,5-7.6,7.5-12.7,5.6l-13.1-4.7
				c-5.2-1.9-7.9-7.6-6-12.8c0-0.1,0.1-0.3,0.1-0.4L-1085.3003-757.3994z"/>
			<path id="Polygon_8-2" display="inline" opacity="0.11" fill="#77AFDB" enable-background="new    " d="M-1143.3003-835.7993
				c2-5,7.6-7.5,12.7-5.6l13.1,4.7c5.2,1.9,7.9,7.6,6,12.8c0,0.1-0.1,0.3-0.1,0.4l-5.3,12.9c-2,5-7.6,7.5-12.7,5.6l-13.1-4.7
				c-5.2-1.9-7.9-7.6-6-12.8c0-0.1,0.1-0.3,0.1-0.4L-1143.3003-835.7993z"/>
			<path id="Polygon_6-2" display="inline" opacity="0.11" fill="#77AFDB" enable-background="new    " d="M-1184.4003-762.3994
				c2-5,7.6-7.5,12.7-5.6l13.1,4.7c5.2,1.9,7.9,7.6,6,12.8c0,0.1-0.1,0.3-0.1,0.4l-5.3,12.9c-2,5-7.6,7.5-12.7,5.6l-13.1-4.7
				c-5.2-1.9-7.9-7.6-6-12.8c0-0.1,0.1-0.3,0.1-0.4L-1184.4003-762.3994z"/>
			<path id="Polygon_7-2" display="inline" opacity="0.11" fill="#77AFDB" enable-background="new    " d="M-1248.3003-804.3993
				c2-5,7.6-7.5,12.7-5.6l13.1,4.7c5.2,1.9,7.9,7.6,6,12.8c0,0.1-0.1,0.3-0.1,0.4l-5.3,12.9c-2,5-7.6,7.5-12.7,5.6l-13.1-4.7
				c-5.2-1.9-7.9-7.6-6-12.8c0-0.1,0.1-0.3,0.1-0.4L-1248.3003-804.3993z"/>
		</g>
	</g>
</g>
</svg>
