<svg xmlns="http://www.w3.org/2000/svg" xmlns:xlink="http://www.w3.org/1999/xlink" width="65" height="65" viewBox="0 0 65 65">
  <defs>
    <filter id="Base" x="0" y="0" width="65" height="65" filterUnits="userSpaceOnUse">
      <feOffset dy="2" input="SourceAlpha"/>
      <feGaussianBlur stdDeviation="2.5" result="blur"/>
      <feFlood flood-color="#26334d" flood-opacity="0.031"/>
      <feComposite operator="in" in2="blur"/>
      <feComposite in="SourceGraphic"/>
    </filter>
    <filter id="Base-2" x="0" y="0" width="65" height="65" filterUnits="userSpaceOnUse">
      <feOffset dy="3" input="SourceAlpha"/>
      <feGaussianBlur stdDeviation="3" result="blur-2"/>
      <feFlood flood-opacity="0.161" result="color"/>
      <feComposite operator="out" in="SourceGraphic" in2="blur-2"/>
      <feComposite operator="in" in="color"/>
      <feComposite operator="in" in2="SourceGraphic"/>
    </filter>
  </defs>
  <g id="log-out-btn" transform="translate(7.5 5.5)">
    <g data-type="innerShadowGroup">
      <g transform="matrix(1, 0, 0, 1, -7.5, -5.5)" filter="url(#Base)">
        <rect id="Base-3" data-name="Base" width="50" height="50" rx="25" transform="translate(7.5 5.5)" fill="#bae1ff"/>
      </g>
      <g transform="matrix(1, 0, 0, 1, -7.5, -5.5)" filter="url(#Base-2)">
        <rect id="Base-4" data-name="Base" width="50" height="50" rx="25" transform="translate(7.5 5.5)" fill="#fff"/>
      </g>
    </g>
    <g id="Icon" transform="translate(15 15)">
      <path id="Icon-2" data-name="Icon" d="M10,20A10,10,0,0,1,2.926,2.926,10,10,0,0,1,17.074,17.074,9.936,9.936,0,0,1,10,20Zm0-8.59h0L12.89,14.3a1,1,0,0,0,1.41,0,1.02,1.02,0,0,0,0-1.41L11.41,10,14.3,7.11A1,1,0,1,0,12.89,5.7L10,8.59,7.11,5.7A1,1,0,1,0,5.7,7.11L8.59,10,5.7,12.89a.991.991,0,0,0-.293.706,1,1,0,0,0,.293.7,1,1,0,0,0,1.41,0L10,11.411Z" fill="#fff"/>
    </g>
  </g>
</svg>
