<svg xmlns="http://www.w3.org/2000/svg" xmlns:xlink="http://www.w3.org/1999/xlink" width="1141" height="719" viewBox="0 0 1141 719">
  <defs>
    <radialGradient id="radial-gradient" cx="0.225" cy="0.5" r="0.628" gradientTransform="translate(0 -0.044) scale(1 1.088)" gradientUnits="objectBoundingBox">
      <stop offset="0" stop-color="#c1dbfe"/>
      <stop offset="1" stop-color="#286fd1"/>
    </radialGradient>
  </defs>
  <g id="Login-bg" fill="url(#radial-gradient)">
    <path d="M22,0H1119a22,22,0,0,1,22,22V697a22,22,0,0,1-22,22H22A22,22,0,0,1,0,697V22A22,22,0,0,1,22,0Z" stroke="none"/>
    <path d="M 22 6 C 13.177490234375 6 6 13.17755126953125 6 22 L 6 697 C 6 705.8224487304688 13.177490234375 713 22 713 L 1119 713 C 1127.822509765625 713 1135 705.8224487304688 1135 697 L 1135 22 C 1135 13.17755126953125 1127.822509765625 6 1119 6 L 22 6 M 22 0 L 1119 0 C 1131.150268554688 0 1141 9.84967041015625 1141 22 L 1141 697 C 1141 709.1503295898438 1131.150268554688 719 1119 719 L 22 719 C 9.8497314453125 719 0 709.1503295898438 0 697 L 0 22 C 0 9.84967041015625 9.8497314453125 0 22 0 Z" stroke="none" fill="rgba(202,213,237,0.18)"/>
  </g>
</svg>
