<svg xmlns="http://www.w3.org/2000/svg" xmlns:xlink="http://www.w3.org/1999/xlink" width="66" height="66" viewBox="0 0 66 66">
  <defs>
    <filter id="Base" x="0" y="0" width="66" height="66" filterUnits="userSpaceOnUse">
      <feOffset dy="2" input="SourceAlpha"/>
      <feGaussianBlur stdDeviation="2.5" result="blur"/>
      <feFlood flood-color="#26334d" flood-opacity="0.031"/>
      <feComposite operator="in" in2="blur"/>
    </filter>
    <filter id="Base-2" x="0" y="0" width="66" height="66" filterUnits="userSpaceOnUse">
      <feOffset dy="3" input="SourceAlpha"/>
      <feGaussianBlur stdDeviation="3" result="blur-2"/>
      <feFlood flood-color="#87b2d4" result="color"/>
      <feComposite operator="out" in="SourceGraphic" in2="blur-2"/>
      <feComposite operator="in" in="color"/>
      <feComposite operator="in" in2="SourceGraphic"/>
    </filter>
  </defs>
  <g id="Lt-Blue-Menu-Icon" transform="translate(8 6)">
    <g data-type="innerShadowGroup">
      <g transform="matrix(1, 0, 0, 1, -8, -6)" filter="url(#Base)">
        <path id="Base-3" data-name="Base" d="M25,0A25,25,0,1,1,0,25,25,25,0,0,1,25,0Z" transform="translate(8 6)" fill="#bae1ff" stroke="rgba(255,255,255,0.76)" stroke-width="1"/>
      </g>
      <path id="Base-4" data-name="Base" d="M25,0A25,25,0,1,1,0,25,25,25,0,0,1,25,0Z" fill="#bae1ff"/>
      <g transform="matrix(1, 0, 0, 1, -8, -6)" filter="url(#Base-2)">
        <path id="Base-5" data-name="Base" d="M25,0A25,25,0,1,1,0,25,25,25,0,0,1,25,0Z" transform="translate(8 6)" fill="#fff"/>
      </g>
      <path id="Base-6" data-name="Base" d="M25,0A25,25,0,1,1,0,25,25,25,0,0,1,25,0Z" fill="none" stroke="rgba(255,255,255,0.76)" stroke-width="1"/>
    </g>
    <g id="Icon" transform="translate(16 19)">
      <path id="Icon-2" data-name="Icon" d="M17,12H1a1,1,0,0,1,0-2H17a1,1,0,1,1,0,2Zm0-5H1A1,1,0,0,1,1,5H17a1,1,0,1,1,0,2Zm0-5H1A1,1,0,0,1,1,0H17a1,1,0,1,1,0,2Z" fill="#fff"/>
    </g>
  </g>
</svg>
