<?xml version="1.0" encoding="UTF-8"?><svg id="uuid-e96c0e26-53c3-4a36-a1a8-497a55f8165a" xmlns="http://www.w3.org/2000/svg" viewBox="0 0 637.41 726.69"><path d="m117.75,358.4l-8.49,49.13,19.25-33.34s-.05-.08-.08-.12l.08.11,19.78-34.25c-25.45-36.27-40.4-80.44-40.4-128.11,0-82.57,44.82-154.66,111.46-193.29-81.06,37.56-137.29,119.62-137.29,214.82,0,45.99,13.13,88.91,35.82,125.22-.04-.06-.09-.12-.13-.19m436.65-146.26c.62,6.99.96,14.07.96,21.23,0,130.7-105.95,236.65-236.65,236.65-3.9,0-7.78-.1-11.64-.28l-38.02,31.68,19.25-33.34h.04-.04s19.73-34.18,19.73-34.18c7.6.78,15.31,1.19,23.11,1.19,123.2,0,223.09-99.79,223.26-222.95Zm-324.62,50.66c-8.6,14.9-10.35,31.87-6.23,47.27,4.13,15.4,14.13,29.23,29.03,37.83,14.89,8.6,31.87,10.35,47.27,6.22,15.4-4.13,29.23-14.13,37.83-29.02,8.6-14.9,10.35-31.88,6.22-47.28-4.13-15.4-14.13-29.23-29.02-37.83-14.9-8.6-31.87-10.35-47.27-6.22-15.4,4.13-29.23,14.13-37.83,29.03Zm-81.35,137.51c7.42,4.29,9.99,13.87,5.7,21.29l-5.96,10.33c-4.29,7.42-13.87,9.99-21.3,5.7-7.43-4.29-9.99-13.87-5.71-21.29l5.96-10.33c4.29-7.43,13.87-10,21.3-5.7Zm19.11,60.43c4.29-7.43,13.87-9.99,21.3-5.71,7.43,4.29,9.99,13.87,5.71,21.29l-7.65,13.24c-4.29,7.42-13.87,9.99-21.29,5.7-7.43-4.29-9.99-13.87-5.71-21.29l7.65-13.24Zm61.64,17.95l5.96-10.32c4.29-7.43,13.87-10,21.3-5.71,7.42,4.29,9.99,13.87,5.7,21.29l-5.96,10.32c-4.29,7.43-13.87,9.99-21.3,5.71-7.43-4.29-10-13.87-5.71-21.29Zm-29.19-105.33c-7.42-4.29-17.01-1.72-21.29,5.7l-3.61,6.26c-4.29,7.42-13.87,9.99-21.3,5.71-7.43-4.29-9.99-13.87-5.7-21.3l37.03-64.14c3.24-6.44,6.02-14.08,6.94-22.65v-.03c1.16-13.17,5.15-26.3,12.19-38.51,21.05-36.45,73.5-51.61,115.78-63.83,8.94-2.59,17.4-5.03,25.32-7.65l10.22-3.38,2.18,10.54c1.69,8.17,3.8,16.72,6.04,25.75,10.56,42.72,23.65,95.73,2.61,132.18-8.13,14.07-19.35,25.23-32.32,33.13-6.99,5.08-12.46,10.64-16.41,16.66l-35.05,60.72c-4.28,7.42-13.87,9.99-21.29,5.7-7.17-4.14-9.99-12.94-6.32-20.24h0c.17-.29,1.57-2.75,1.72-3.05,3.6-7.28.95-16.29-6.18-20.41-7.43-4.29-17.01-1.72-21.29,5.7l-14.04,24.32c-4.28,7.42-13.86,9.99-21.29,5.71-7.42-4.29-9.99-13.87-5.71-21.29l17.5-30.31c4.29-7.43,1.72-17.01-5.71-21.29ZM331.14,0c116.99,0,211.82,94.84,211.82,211.82,0,102.02-72.12,187.18-168.16,207.31,82.98-23.37,143.8-99.6,143.8-190.05,0-109.04-88.39-197.43-197.43-197.43S123.75,120.04,123.75,229.08c0,16.84,2.11,33.18,6.08,48.78-6.81-20.78-10.51-42.97-10.51-66.03C119.32,94.84,214.16,0,331.14,0Z" fill="#dbecff" stroke-width="0"/><path d="m606.72,577.32h30.69v-9.53h-71.83v9.53h30.69v81.88h10.45v-81.88Zm-73.81-9.53h-66.08v91.41h66.73v-9.4h-56.42v-32h49.89v-9.4h-49.89v-31.21h55.76v-9.4Zm-140.8,39.96l39.18-39.96h-13.32l-52.5,54.59v-54.59h-10.32v91.41h10.32v-24.55l19.46-19.72,35.13,44.27h12.93l-40.88-51.45Zm-72.76,36.96l-6.79-6.66c-8.75,8.36-16.98,13.19-29.52,13.19-20.11,0-35.39-16.59-35.39-37.87s15.15-37.61,35.39-37.61c12.41,0,21.03,5.22,28.73,12.54l7.05-7.57c-9.14-8.62-19.07-14.5-35.65-14.5-26.9,0-46.23,21.29-46.23,47.41s19.46,47.14,45.84,47.14c16.58,0,27.03-6.4,36.57-16.06Zm-128.66-31.08c0,20.9-14.89,37.61-35.78,37.61s-36.05-16.98-36.05-37.87,14.89-37.61,35.78-37.61,36.04,16.98,36.04,37.87Zm10.71-.26c0-25.34-18.67-47.14-46.49-47.14s-46.75,22.07-46.75,47.41,18.67,47.14,46.49,47.14,46.75-22.07,46.75-47.41Zm-139.5-17.89c0,11.88-9.8,18.94-23.51,18.94H10.32v-37.09h28.21c14.76,0,23.38,6.79,23.38,18.15Zm13.71,63.73l-28.08-37.35c14.37-2.61,24.81-11.49,24.81-26.77,0-16.45-12.93-27.29-33.04-27.29H0v91.41h10.32v-35.52h26.12l26.51,35.52h12.67Z" fill="#dbecff" stroke-width="0"/><path d="m537.78,703.09h-5.8l-5.64,9.31-5.53-9.31h-5.97l8.91,14.05v9.15h5.1v-9.25l8.92-13.95Zm-46.23,19.92v-10.07h-10.08v4.41h5.14v3.31c-1.29.93-2.95,1.39-4.81,1.39-4.11,0-7.03-3.12-7.03-7.35v-.07c0-3.94,2.95-7.22,6.66-7.22,2.68,0,4.27.86,6.07,2.35l3.21-3.88c-2.42-2.05-4.94-3.18-9.11-3.18-7.03,0-12.16,5.4-12.16,12v.06c0,6.86,4.97,11.93,12.2,11.93,4.24,0,7.52-1.66,9.91-3.68Zm-52.72-8.25c0,3.98-2.85,7.23-6.96,7.23s-7.02-3.31-7.02-7.29v-.07c0-3.98,2.85-7.22,6.96-7.22s7.03,3.32,7.03,7.29v.06Zm5.33-.06v-.07c0-6.59-5.14-11.93-12.3-11.93s-12.36,5.4-12.36,12v.06c0,6.6,5.14,11.93,12.3,11.93s12.36-5.4,12.36-12Zm-47.92,11.6v-4.64h-11.57v-18.56h-5.1v23.2h16.67Zm-48.32-11.54c0,3.98-2.85,7.23-6.96,7.23s-7.03-3.31-7.03-7.29v-.07c0-3.98,2.85-7.22,6.96-7.22s7.03,3.32,7.03,7.29v.06Zm5.33-.06v-.07c0-6.59-5.14-11.93-12.29-11.93s-12.36,5.4-12.36,12v.06c0,6.6,5.14,11.93,12.3,11.93s12.36-5.4,12.36-12Zm-50.97,11.6v-23.2h-5.04v14.28l-10.87-14.28h-4.71v23.2h5.04v-14.75l11.24,14.75h4.34Zm-47.95,0v-23.2h-5.1v9.18h-9.41v-9.18h-5.1v23.2h5.1v-9.31h9.41v9.31h5.1Zm-45.46-3.75l-3.25-3.28c-1.82,1.66-3.45,2.72-6.1,2.72-3.98,0-6.73-3.31-6.73-7.29v-.07c0-3.98,2.82-7.22,6.73-7.22,2.32,0,4.14.99,5.93,2.62l3.25-3.75c-2.15-2.12-4.77-3.58-9.15-3.58-7.13,0-12.1,5.4-12.1,12v.06c0,6.66,5.07,11.93,11.9,11.93,4.48,0,7.13-1.59,9.51-4.14Zm-46.69,3.75v-4.54h-12.59v-4.87h10.94v-4.54h-10.94v-4.7h12.43v-4.54h-17.5v23.2h17.67Zm-43.34-18.49v-4.71h-19.22v4.71h7.06v18.49h5.1v-18.49h7.06Z" fill="#dbecff" stroke-width="0"/></svg>