<?xml version="1.0" encoding="UTF-8"?><svg id="uuid-51ad7844-fde9-41b9-a516-0292dd26e609" xmlns="http://www.w3.org/2000/svg" viewBox="0 0 761.12 761.12"><path d="m761.12,380.56c0,2.6-7.56,5.12-7.61,7.71s7.4,5.43,7.29,8.02-7.76,4.81-7.92,7.4,7.17,5.72,6.96,8.31-7.95,4.49-8.22,7.07,6.93,6.01,6.61,8.59-8.13,4.16-8.5,6.72,6.68,6.29,6.25,8.85-8.3,3.81-8.77,6.36,6.41,6.57,5.88,9.1-8.45,3.47-9.03,5.99,6.13,6.83,5.5,9.34-8.58,3.11-9.27,5.61,5.84,7.07,5.1,9.56-8.71,2.75-9.5,5.22,5.54,7.31,4.7,9.76-8.81,2.38-9.71,4.82,5.23,7.54,4.29,9.95-8.91,2.02-9.9,4.41,4.92,7.75,3.87,10.12-8.98,1.64-10.07,4,4.59,7.94,3.45,10.27-9.04,1.27-10.23,3.57,4.26,8.13,3.02,10.41-9.09.89-10.37,3.15,3.92,8.3,2.59,10.52-9.12.52-10.49,2.72,3.57,8.45,2.15,10.62-9.13.14-10.59,2.28,3.22,8.59,1.71,10.7-9.13-.24-10.68,1.84,2.86,8.72,1.27,10.76-9.11-.61-10.75,1.4,2.5,8.83.82,10.81-9.08-.99-10.79.96,2.14,8.92.38,10.83-9.03-1.36-10.83.51,1.77,9-.07,10.84-8.96-1.73-10.84.07,1.4,9.07-.51,10.82-8.88-2.1-10.83-.38,1.02,9.12-.96,10.79-8.79-2.46-10.81-.82.65,9.15-1.4,10.75-8.68-2.82-10.76-1.27.27,9.17-1.84,10.68-8.56-3.18-10.7-1.71-.11,9.17-2.28,10.59-8.42-3.53-10.62-2.15-.49,9.16-2.72,10.49-8.27-3.87-10.52-2.59-.86,9.13-3.15,10.37-8.1-4.21-10.41-3.02-1.24,9.09-3.57,10.23-7.92-4.54-10.27-3.45-1.62,9.03-4,10.07-7.72-4.87-10.12-3.87-1.99,8.95-4.41,9.9-7.51-5.18-9.95-4.29-2.36,8.86-4.82,9.71-7.29-5.49-9.76-4.7-2.73,8.76-5.22,9.5-7.05-5.79-9.56-5.1-3.09,8.64-5.61,9.27-6.81-6.08-9.34-5.5-3.45,8.5-5.99,9.03-6.55-6.36-9.1-5.88-3.8,8.35-6.36,8.77-6.28-6.63-8.85-6.25-4.14,8.18-6.72,8.5-6-6.88-8.59-6.61-4.47,8.01-7.06,8.22-5.71-7.12-8.31-6.96-4.8,7.82-7.4,7.92-5.41-7.35-8.02-7.29-5.11,7.61-7.71,7.61-5.12-7.56-7.71-7.61-5.43,7.4-8.02,7.29-4.81-7.76-7.4-7.92-5.72,7.17-8.31,6.96-4.49-7.95-7.07-8.22-6.01,6.93-8.59,6.61-4.16-8.13-6.72-8.5-6.29,6.68-8.85,6.25-3.81-8.3-6.36-8.77-6.57,6.41-9.1,5.88-3.47-8.45-5.99-9.03-6.83,6.13-9.34,5.5-3.11-8.58-5.61-9.27-7.07,5.84-9.56,5.1-2.75-8.71-5.22-9.5-7.31,5.54-9.76,4.7-2.38-8.81-4.82-9.71-7.54,5.23-9.95,4.29-2.02-8.91-4.41-9.9-7.75,4.92-10.12,3.87-1.64-8.98-4-10.07-7.94,4.59-10.27,3.45-1.27-9.04-3.57-10.23-8.13,4.26-10.41,3.02-.89-9.09-3.15-10.37-8.3,3.92-10.52,2.59-.52-9.12-2.72-10.49-8.45,3.57-10.62,2.15-.14-9.13-2.28-10.59-8.59,3.22-10.7,1.71.24-9.13-1.84-10.68-8.72,2.86-10.76,1.27.61-9.11-1.4-10.75-8.83,2.5-10.81.82.99-9.08-.96-10.79-8.92,2.14-10.83.38,1.36-9.03-.51-10.83-9,1.77-10.84-.07,1.73-8.96-.07-10.84-9.07,1.4-10.82-.51,2.1-8.88.38-10.83-9.12,1.02-10.79-.96,2.46-8.79.82-10.81-9.15.65-10.75-1.4,2.82-8.68,1.27-10.76-9.17.27-10.68-1.84,3.18-8.56,1.71-10.7-9.17-.11-10.59-2.28,3.53-8.42,2.15-10.62-9.16-.49-10.49-2.72,3.87-8.27,2.59-10.52-9.13-.86-10.37-3.15,4.21-8.1,3.02-10.41-9.09-1.24-10.23-3.57,4.54-7.92,3.45-10.27-9.03-1.62-10.07-4,4.87-7.72,3.87-10.12-8.95-1.99-9.9-4.41,5.18-7.51,4.29-9.95-8.86-2.36-9.71-4.82,5.49-7.29,4.7-9.76-8.76-2.73-9.5-5.22,5.79-7.05,5.1-9.56-8.64-3.09-9.27-5.61,6.08-6.81,5.5-9.34-8.5-3.45-9.03-5.99,6.36-6.55,5.88-9.1-8.35-3.8-8.77-6.36,6.63-6.28,6.25-8.85-8.18-4.14-8.5-6.72,6.88-6,6.61-8.59-8.01-4.47-8.22-7.06,7.12-5.71,6.96-8.31-7.82-4.8-7.92-7.4,7.35-5.41,7.29-8.02-7.61-5.11-7.61-7.71,7.56-5.12,7.61-7.71-7.4-5.43-7.29-8.02,7.76-4.81,7.92-7.4-7.17-5.72-6.96-8.31,7.95-4.49,8.22-7.07-6.93-6.01-6.61-8.59,8.13-4.16,8.5-6.72-6.68-6.29-6.25-8.85,8.3-3.81,8.77-6.36-6.41-6.57-5.88-9.1,8.45-3.47,9.03-5.99-6.13-6.83-5.5-9.34,8.58-3.11,9.27-5.61-5.84-7.07-5.1-9.56,8.71-2.75,9.5-5.22-5.54-7.31-4.7-9.76,8.81-2.38,9.71-4.82-5.23-7.54-4.29-9.95,8.91-2.02,9.9-4.41-4.92-7.75-3.87-10.12,8.98-1.64,10.07-4-4.59-7.94-3.45-10.27,9.04-1.27,10.23-3.57-4.26-8.13-3.02-10.41,9.09-.89,10.37-3.15-3.92-8.3-2.59-10.52,9.12-.52,10.49-2.72-3.57-8.45-2.15-10.62,9.13-.14,10.59-2.28-3.22-8.59-1.71-10.7,9.13.24,10.68-1.84-2.86-8.72-1.27-10.76,9.11.61,10.75-1.4-2.5-8.83-.82-10.81,9.08.99,10.79-.96-2.14-8.92-.38-10.83,9.03,1.36,10.83-.51-1.77-9,.07-10.84,8.96,1.73,10.84-.07-1.4-9.07.51-10.82,8.88,2.1,10.83.38-1.02-9.12.96-10.79,8.79,2.46,10.81.82-.65-9.15,1.4-10.75,8.68,2.82,10.76,1.27-.27-9.17,1.84-10.68,8.56,3.18,10.7,1.71.11-9.17,2.28-10.59,8.42,3.53,10.62,2.15.49-9.16,2.72-10.49,8.27,3.87,10.52,2.59.86-9.13,3.15-10.37,8.1,4.21,10.41,3.02,1.24-9.09,3.57-10.23,7.92,4.54,10.27,3.45,1.62-9.03,4-10.07,7.72,4.87,10.12,3.87,1.99-8.95,4.41-9.9,7.51,5.18,9.95,4.29,2.36-8.86,4.82-9.71,7.29,5.49,9.76,4.7,2.73-8.76,5.22-9.5,7.05,5.79,9.56,5.1,3.09-8.64,5.61-9.27,6.81,6.08,9.34,5.5,3.45-8.5,5.99-9.03,6.55,6.36,9.1,5.88,3.8-8.35,6.36-8.77,6.28,6.63,8.85,6.25,4.14-8.18,6.72-8.5,6,6.88,8.59,6.61,4.47-8.01,7.06-8.22,5.71,7.12,8.31,6.96,4.8-7.82,7.4-7.92,5.41,7.35,8.02,7.29,5.11-7.61,7.71-7.61,5.12,7.56,7.71,7.61,5.43-7.4,8.02-7.29,4.81,7.76,7.4,7.92,5.72-7.17,8.31-6.96,4.49,7.95,7.07,8.22,6.01-6.93,8.59-6.61,4.16,8.13,6.72,8.5,6.29-6.68,8.85-6.25,3.81,8.3,6.36,8.77,6.57-6.41,9.1-5.88,3.47,8.45,5.99,9.03,6.83-6.13,9.34-5.5,3.11,8.58,5.61,9.27,7.07-5.84,9.56-5.1,2.75,8.71,5.22,9.5,7.31-5.54,9.76-4.7,2.38,8.81,4.82,9.71,7.54-5.23,9.95-4.29,2.02,8.91,4.41,9.9,7.75-4.92,10.12-3.87,1.64,8.98,4,10.07,7.94-4.59,10.27-3.45,1.27,9.04,3.57,10.23,8.13-4.26,10.41-3.02.89,9.09,3.15,10.37,8.3-3.92,10.52-2.59.52,9.12,2.72,10.49,8.45-3.57,10.62-2.15.14,9.13,2.28,10.59,8.59-3.22,10.7-1.71-.24,9.13,1.84,10.68,8.72-2.86,10.76-1.27-.61,9.11,1.4,10.75,8.83-2.5,10.81-.82-.99,9.08.96,10.79,8.92-2.14,10.83-.38-1.36,9.03.51,10.83,9-1.77,10.84.07-1.73,8.96.07,10.84,9.07-1.4,10.82.51-2.1,8.88-.38,10.83,9.12-1.02,10.79.96-2.46,8.79-.82,10.81,9.15-.65,10.75,1.4-2.82,8.68-1.27,10.76,9.17-.27,10.68,1.84-3.18,8.56-1.71,10.7,9.17.11,10.59,2.28-3.53,8.42-2.15,10.62,9.16.49,10.49,2.72-3.87,8.27-2.59,10.52,9.13.86,10.37,3.15-4.21,8.1-3.02,10.41,9.09,1.24,10.23,3.57-4.54,7.92-3.45,10.27,9.03,1.62,10.07,4-4.87,7.72-3.87,10.12,8.95,1.99,9.9,4.41-5.18,7.51-4.29,9.95,8.86,2.36,9.71,4.82-5.49,7.29-4.7,9.76,8.76,2.73,9.5,5.22-5.79,7.05-5.1,9.56,8.64,3.09,9.27,5.61-6.08,6.81-5.5,9.34,8.5,3.45,9.03,5.99-6.36,6.55-5.88,9.1,8.35,3.8,8.77,6.36-6.63,6.28-6.25,8.85,8.18,4.14,8.5,6.72-6.88,6-6.61,8.59,8.01,4.47,8.22,7.06-7.12,5.71-6.96,8.31,7.82,4.8,7.92,7.4-7.35,5.41-7.29,8.02,7.61,5.11,7.61,7.71Z" fill="#74a8e5" stroke-width="0"/><circle cx="380.56" cy="380.56" r="322.73" fill="#144885" stroke-width="0"/><circle cx="380.56" cy="380.56" r="340.78" fill="none" stroke="#fff" stroke-miterlimit="10" stroke-width="2"/><circle cx="380.56" cy="380.56" r="221.64" fill="#96b0d4" stroke-width="0"/><circle cx="380.56" cy="380.56" r="210.34" fill="#f2f3ef" stroke-width="0"/><text transform="translate(190.29 217.05) rotate(-46.03)" fill="#f4f1e9" font-family="Andada-Regular, &apos;Andada Regular&apos;" font-size="58.71"><tspan x="0" y="0">T</tspan></text><text transform="translate(209.45 196.65) rotate(-38.62)" fill="#f4f1e9" font-family="Andada-Regular, &apos;Andada Regular&apos;" font-size="58.71"><tspan x="0" y="0">H</tspan></text><text transform="translate(238.52 173.72) rotate(-31.2)" fill="#f4f1e9" font-family="Andada-Regular, &apos;Andada Regular&apos;" font-size="58.71"><tspan x="0" y="0">E</tspan></text><text transform="translate(262.71 159.42) rotate(-26.62)" fill="#f4f1e9" font-family="Andada-Regular, &apos;Andada Regular&apos;" font-size="58.71"><tspan x="0" y="0"> </tspan></text><text transform="translate(272.93 153.81) rotate(-21.77)" fill="#f4f1e9" font-family="Andada-Regular, &apos;Andada Regular&apos;" font-size="58.71"><tspan x="0" y="0">P</tspan></text><text transform="translate(300.6 142.33) rotate(-13.87)" fill="#f4f1e9" font-family="Andada-Regular, &apos;Andada Regular&apos;" font-size="58.71"><tspan x="0" y="0">O</tspan></text><text transform="translate(338.72 133.23) rotate(-6.33)" fill="#f4f1e9" font-family="Andada-Regular, &apos;Andada Regular&apos;" font-size="58.71"><tspan x="0" y="0">S</tspan></text><text transform="translate(366.44 130.09) rotate(.04)" fill="#f4f1e9" font-family="Andada-Regular, &apos;Andada Regular&apos;" font-size="58.71"><tspan x="0" y="0">T</tspan></text><text transform="translate(394.29 129.34) rotate(8.49)" fill="#f4f1e9" font-family="Andada-Regular, &apos;Andada Regular&apos;" font-size="58.71"><tspan x="0" y="0">M</tspan></text><text transform="translate(438.87 136.28) rotate(17.57)" fill="#f4f1e9" font-family="Andada-Regular, &apos;Andada Regular&apos;" font-size="58.71"><tspan x="0" y="0">A</tspan></text><text transform="translate(471.94 146.9) rotate(24.72)" fill="#f4f1e9" font-family="Andada-Regular, &apos;Andada Regular&apos;" font-size="58.71"><tspan x="0" y="0">S</tspan></text><text transform="translate(497.3 158.51) rotate(31.1)" fill="#f4f1e9" font-family="Andada-Regular, &apos;Andada Regular&apos;" font-size="58.71"><tspan x="0" y="0">T</tspan></text><text transform="translate(521.41 172.99) rotate(37.45)" fill="#f4f1e9" font-family="Andada-Regular, &apos;Andada Regular&apos;" font-size="58.71"><tspan x="0" y="0">E</tspan></text><text transform="translate(543.55 189.77) rotate(44.07)" fill="#f4f1e9" font-family="Andada-Regular, &apos;Andada Regular&apos;" font-size="58.71"><tspan x="0" y="0">R</tspan></text><text transform="translate(196.09 613.58) rotate(36.1)" fill="#f4f1e9" font-family="Andada-Regular, &apos;Andada Regular&apos;" font-size="48.64"><tspan x="0" y="0">S</tspan></text><text transform="translate(217.13 629.03) rotate(30.36)" fill="#f4f1e9" font-family="Andada-Regular, &apos;Andada Regular&apos;" font-size="48.64"><tspan x="0" y="0">U</tspan></text><text transform="translate(246.29 645.82) rotate(24.36)" fill="#f4f1e9" font-family="Andada-Regular, &apos;Andada Regular&apos;" font-size="48.64"><tspan x="0" y="0">R</tspan></text><text transform="translate(272.79 657.69) rotate(18.63)" fill="#f4f1e9" font-family="Andada-Regular, &apos;Andada Regular&apos;" font-size="48.64"><tspan x="0" y="0">V</tspan></text><text transform="translate(300.43 666.83) rotate(13.28)" fill="#f4f1e9" font-family="Andada-Regular, &apos;Andada Regular&apos;" font-size="48.64"><tspan x="0" y="0">E</tspan></text><text transform="translate(325.75 672.76) rotate(8.02)" fill="#f4f1e9" font-family="Andada-Regular, &apos;Andada Regular&apos;" font-size="48.64"><tspan x="0" y="0">Y</tspan></text><text transform="translate(353.19 676.32) rotate(4.23)" fill="#f4f1e9" font-family="Andada-Regular, &apos;Andada Regular&apos;" font-size="48.64"><tspan x="0" y="0"> </tspan></text><text transform="translate(364.23 677.12) rotate(2.12)" fill="#f4f1e9" font-family="Andada-Regular, &apos;Andada Regular&apos;" font-size="48.64"><tspan x="0" y="0"> </tspan></text><text transform="translate(375.08 677.43) rotate(.93)" fill="#f4f1e9" font-family="Andada-Regular, &apos;Andada Regular&apos;" font-size="48.64"><tspan x="0" y="0"> </tspan></text><text transform="translate(386.35 677.51) rotate(-2.07)" fill="#f4f1e9" font-family="Andada-Regular, &apos;Andada Regular&apos;" font-size="48.64"><tspan x="0" y="0"> </tspan></text><text transform="translate(397.44 677.09) rotate(-4.19)" fill="#f4f1e9" font-family="Andada-Regular, &apos;Andada Regular&apos;" font-size="48.64"><tspan x="0" y="0"> </tspan></text><text transform="translate(408.48 676.27) rotate(-6.32)" fill="#f4f1e9" font-family="Andada-Regular, &apos;Andada Regular&apos;" font-size="48.64"><tspan x="0" y="0"> </tspan></text><text transform="translate(420.4 675.31) rotate(-10.76)" fill="#f4f1e9" font-family="Andada-Regular, &apos;Andada Regular&apos;" font-size="48.64"><tspan x="0" y="0">D</tspan></text><text transform="translate(454.28 668.54) rotate(-16.64)" fill="#f4f1e9" font-family="Andada-Regular, &apos;Andada Regular&apos;" font-size="48.64"><tspan x="0" y="0">E</tspan></text><text transform="translate(478.89 661.09) rotate(-21.55)" fill="#f4f1e9" font-family="Andada-Regular, &apos;Andada Regular&apos;" font-size="48.64"><tspan x="0" y="0">L</tspan></text><text transform="translate(501.39 651.97) rotate(-25.16)" fill="#f4f1e9" font-family="Andada-Regular, &apos;Andada Regular&apos;" font-size="48.64"><tspan x="0" y="0">I</tspan></text><text transform="translate(513.34 646.59) rotate(-29.2)" fill="#f4f1e9" font-family="Andada-Regular, &apos;Andada Regular&apos;" font-size="48.64"><tspan x="0" y="0">V</tspan></text><text transform="translate(538.63 632.28) rotate(-34.49)" fill="#f4f1e9" font-family="Andada-Regular, &apos;Andada Regular&apos;" font-size="48.64"><tspan x="0" y="0">E</tspan></text><text transform="translate(559.9 617.62) rotate(-39.67)" fill="#f4f1e9" font-family="Andada-Regular, &apos;Andada Regular&apos;" font-size="48.64"><tspan x="0" y="0">R</tspan></text><text transform="translate(581.09 599.96) rotate(-44.97)" fill="#f4f1e9" font-family="Andada-Regular, &apos;Andada Regular&apos;" font-size="48.64"><tspan x="0" y="0">Y</tspan></text><polygon points="287.86 452.3 376.5 546.08 469.02 455.85 381.43 364.62 287.86 452.3" fill="#d7e8f2" stroke-width="0"/><polygon points="287.86 452.3 290.08 454.66 376.18 447.31 383.11 366.36 381.43 364.62 287.86 452.3" fill="#c1dde5" stroke-width="0"/><polygon points="287.86 452.3 290.08 454.66 373.67 444.65 383.11 366.36 381.43 364.62 287.86 452.3" fill="#d0e5ef" stroke-width="0"/><polygon points="384.58 223.17 219.41 380.15 281.4 445.42 381.71 349.05 476.8 449.15 541.71 387.19 384.58 223.17" fill="#204272" stroke-width="0"/></svg>