<?xml version="1.0" encoding="UTF-8"?><svg id="uuid-edd912c9-ef7f-43eb-8a59-6fa7bc1e4406" xmlns="http://www.w3.org/2000/svg" viewBox="0 0 338.36 145.04"><path d="m155.89,84.62c-3.45-5.02-9.15-8.01-15.24-8.01h-5.22c.15-1.81.23-3.65.23-5.5H0c0,26.57,15.29,49.57,37.54,60.7v13.24h60.57v-13.24c2.98-1.49,5.83-3.2,8.54-5.1h14.97c16,0,30.59-10.04,36.31-24.99,2.18-5.69,1.41-12.08-2.04-17.1Zm-5.95,14.05c-4.46,11.66-15.84,19.49-28.32,19.49h-4.94c8.65-8.98,14.84-20.34,17.51-33h6.45c3.32,0,6.31,1.57,8.2,4.31,1.88,2.74,2.28,6.09,1.1,9.2Z" fill="#dbecff" stroke-width="0"/><path d="m71.55,15.86l-3.14,4.77s-3.34-11.33-12.75-16.46l-.43,3.5s-4.92-5.16-13.34-6.53l.88,4.49S38.65-.26,23.34,0c-2.84,15.05,2.27,20.1,2.27,20.1l-4.27-1.62c-.07,8.52,4.19,14.25,4.19,14.25l-3.53-.16c3.47,10.14,14.07,15.35,14.07,15.35l-5.23,2.29c8.8,12.44,19.41,12.16,19.41,12.16l-5.35,1.38c10.23,9.03,30.44,3.07,33.48,2.1-.29-.3-.59-.6-.88-.9-1.12-1.15-2.23-2.31-3.33-3.48-2.2-2.34-4.37-4.7-6.5-7.09-4.28-4.77-8.45-9.63-12.56-14.55-4.11-4.92-8.17-9.87-12.14-14.9-3.97-5.03-7.89-10.11-11.62-15.34l.1-.09c4.52,4.57,8.87,9.28,13.16,14.04,4.29,4.76,8.49,9.6,12.64,14.48,4.15,4.88,8.24,9.81,12.22,14.84,1.99,2.51,3.95,5.05,5.89,7.61.97,1.28,1.92,2.57,2.87,3.87.25.34.49.68.74,1.02,1.47-2.84,10.75-21.75,3.57-33.36l-2.46,5.22s2.27-10.58-8.51-21.36Z" fill="#b6c4d4" stroke-width="0"/><path d="m115.82,23.07l-3.78,1.44s4.52-4.47,2-17.77c-13.54-.24-17.18,4.97-17.18,4.97l.78-3.97c-7.44,1.21-11.79,5.77-11.79,5.77l-.38-3.1c-4.09,2.23-6.88,5.78-8.66,8.82,2.74,3.85,4.11,7.5,4.76,10.53l.75-1.58,1.77,2.87c1.23,1.99,2.02,4.16,2.47,6.42,2.86-3.33,5.75-6.64,8.69-9.91,3.79-4.21,7.63-8.38,11.63-12.41l.09.08c-3.3,4.62-6.76,9.11-10.28,13.56-3.18,4.02-6.42,7.99-9.7,11.93.7,10.36-4.4,21.53-6.16,25.03l-.78,1.52-.09.18c5.36.12,11.05-.83,15.03-4.34l-4.73-1.22s9.38.25,17.16-10.75l-4.62-2.02s9.37-4.6,12.44-13.57l-3.12.14s3.76-5.06,3.7-12.59Z" fill="#dbecff" stroke-width="0"/><text transform="translate(167.16 93.3)" fill="#dbecff" font-family="OpenSans-Bold, &apos;Open Sans&apos;" font-size="46.76" font-weight="700" letter-spacing=".05em"><tspan x="0" y="0">STEVIA</tspan></text><text transform="translate(201.71 113.07)" fill="#b6c4d4" font-family="OpenSans-Semibold, &apos;Open Sans&apos;" font-size="13.33" font-weight="600" letter-spacing=".05em"><tspan x="0" y="0">100%ORGANIC</tspan></text></svg>