<?xml version="1.0" encoding="utf-8"?>
<!-- Generator: Adobe Illustrator 28.0.0, SVG Export Plug-In . SVG Version: 6.00 Build 0)  -->
<svg version="1.1" id="uuid-2369bb10-228e-4a24-a2a5-4081fa8f44a1"
	 xmlns="http://www.w3.org/2000/svg" xmlns:xlink="http://www.w3.org/1999/xlink" x="0px" y="0px" viewBox="0 0 922 799"
	 style="enable-background:new 0 0 922 799;" xml:space="preserve">
<style type="text/css">
	.st0{fill:#73BAED;}
	.st1{fill:url(#SVGID_1_);}
	.st2{fill:#E6F1FF;}
	.st3{fill:#554F5E;}
	.st4{fill:#FFFFFF;}
	.st5{fill:#5790F2;}
	.st6{fill:#4875D7;}
	.st7{fill:#EDEDED;}
	.st8{fill:#D8D8D8;}
	.st9{fill-rule:evenodd;clip-rule:evenodd;fill:#8E8726;}
	.st10{fill:#5783F2;}
	.st11{fill-rule:evenodd;clip-rule:evenodd;fill:#5783F2;}
	.st12{fill:#7BA1F9;}
	.st13{fill-rule:evenodd;clip-rule:evenodd;fill:#86B0FF;}
	.st14{fill-rule:evenodd;clip-rule:evenodd;fill:#4865D7;}
	.st15{fill-rule:evenodd;clip-rule:evenodd;fill:#4C4A61;}
	.st16{fill-rule:evenodd;clip-rule:evenodd;fill:#A6B948;}
	.st17{fill:#8E8726;}
	.st18{fill-rule:evenodd;clip-rule:evenodd;fill:#C2CF59;}
	.st19{fill-rule:evenodd;clip-rule:evenodd;fill:#34384C;}
	.st20{fill:#4A4A69;}
	.st21{fill-rule:evenodd;clip-rule:evenodd;fill:#4A4A69;}
	.st22{fill-rule:evenodd;clip-rule:evenodd;fill:#FFFFFF;}
	.st23{fill-rule:evenodd;clip-rule:evenodd;fill:#F8FCFF;}
	.st24{fill-rule:evenodd;clip-rule:evenodd;fill:#F7F7FA;}
	.st25{fill-rule:evenodd;clip-rule:evenodd;fill:#D7D8E1;}
	.st26{fill:#B8D6FF;}
	.st27{fill:#E6F4FF;}
	.st28{fill:#D7D8E1;}
	.st29{fill:#E5E5EC;}
	.st30{fill:#FF90A4;}
	.st31{fill:#FF7888;}
	.st32{fill:#5E5C81;}
	.st33{fill:#E6E7EF;}
	.st34{fill:#40435D;}
	.st35{fill:#CCCCDD;}
	.st36{fill:#AEB1C2;}
	.st37{fill:#F9F9FC;}
	.st38{fill:#C8C9D8;}
	.st39{fill:#34384C;}
	.st40{fill:#383B5B;}
	.st41{fill:#494B6B;}
	.st42{fill:#2B2F41;}
	.st43{fill-rule:evenodd;clip-rule:evenodd;fill:#5E5C81;}
	.st44{fill:#FCFCFE;}
	.st45{fill:#F7F6FD;}
	.st46{fill:#E0E3FB;}
	.st47{fill-rule:evenodd;clip-rule:evenodd;fill:#51CFDE;}
	.st48{fill:#33AFC8;}
	.st49{fill-rule:evenodd;clip-rule:evenodd;fill:#33AFC8;}
	.st50{fill-rule:evenodd;clip-rule:evenodd;fill:#72E4E9;}
	.st51{fill-rule:evenodd;clip-rule:evenodd;fill:#2CA1B2;}
	.st52{fill-rule:evenodd;clip-rule:evenodd;fill:#4A3A52;}
	.st53{fill-rule:evenodd;clip-rule:evenodd;fill:#D4D5F5;}
	.st54{fill-rule:evenodd;clip-rule:evenodd;fill:#F0B65E;}
	.st55{fill:#F0B65E;}
	.st56{fill:#F9C667;}
	.st57{fill:#2CA1B2;}
	.st58{fill:#3EC9D9;}
	.st59{fill-rule:evenodd;clip-rule:evenodd;fill:#564F71;}
	.st60{fill-rule:evenodd;clip-rule:evenodd;fill:#E3E1EA;}
	.st61{fill-rule:evenodd;clip-rule:evenodd;fill:#EFF4FF;}
	.st62{fill-rule:evenodd;clip-rule:evenodd;fill:#B6CDFB;}
	.st63{fill:#B6CDFB;}
	.st64{fill-rule:evenodd;clip-rule:evenodd;fill:#696387;}
	.st65{fill-rule:evenodd;clip-rule:evenodd;fill:#E1E0E8;}
	.st66{fill-rule:evenodd;clip-rule:evenodd;fill:#CECCD7;}
	.st67{fill-rule:evenodd;clip-rule:evenodd;fill:#3B3853;}
</style>
<path class="st0" d="M902.1,514.7c3.3,65.1-38,130.8-124,180.5c-165.7,95.6-434.2,95.6-599.9,0c-86-49.7-127.4-115.4-124-180.5H54
	v33.4h0.3c3.9,59.6,45.1,118.5,123.9,164c165.6,95.6,434.2,95.6,599.9,0c78.8-45.5,120.1-104.4,123.9-164h0.3v-33.4L902.1,514.7
	L902.1,514.7z"/>
<linearGradient id="SVGID_1_" gradientUnits="userSpaceOnUse" x1="96.0188" y1="42.5118" x2="806.9788" y2="514.9918" gradientTransform="matrix(1 0 0 -1 0 820)">
	<stop  offset="0" style="stop-color:#C2EEFF"/>
	<stop  offset="0.3" style="stop-color:#AFDFFF"/>
	<stop  offset="0.99" style="stop-color:#88C2FF"/>
</linearGradient>
<ellipse class="st1" cx="478.2" cy="523.5" rx="424.2" ry="244.9"/>
<path class="st2" d="M778.1,693.7c-165.7,95.6-434.2,95.6-599.9,0C96.1,646.3,54.7,584.2,54,522c-0.7,63.2,40.7,126.5,124.2,174.7
	c165.6,95.6,434.2,95.6,599.9,0C861.6,648.5,903,585.2,902.3,522C901.6,584.2,860.3,646.3,778.1,693.7L778.1,693.7z"/>
<path class="st3" d="M247.4,619.9c0,0.3,0.2,0.4,0.5,0.3c0.3-0.2,0.5-0.5,0.5-0.8s-0.2-0.4-0.5-0.3
	C247.6,619.2,247.4,619.6,247.4,619.9z"/>
<polygon class="st3" points="247.4,620.1 252,626.3 255.9,619.9 248.1,619 "/>
<polygon class="st4" points="251.5,625.7 256.3,632.2 262.7,620.7 255.1,619.8 "/>
<path class="st5" d="M257,624.8l133.6,76.9l3.4-5.6l-130.1-75.1c-0.9-0.6-2.1-0.5-3.5,0.3C259.1,622.1,257.9,623.4,257,624.8
	L257,624.8z"/>
<path class="st4" d="M251.2,624.4c0,1.6,1.1,2.2,2.5,1.4c1.4-0.8,2.5-2.7,2.5-4.3s-1.1-2.2-2.5-1.4S251.2,622.8,251.2,624.4z"/>
<path class="st6" d="M255.6,629.6c0,1.6,0.6,2.8,1.6,3.2l129.8,75l3.6-6L257,624.9C256.1,626.4,255.6,628.1,255.6,629.6L255.6,629.6
	z"/>
<path class="st7" d="M385.6,704.7c0,3.1,2.1,4.3,4.8,2.8s4.8-5.2,4.8-8.3s-2.2-4.3-4.8-2.8S385.6,701.6,385.6,704.7L385.6,704.7z"/>
<path class="st7" d="M400.7,700l-6.7-3.8l-7,11.6l7.1,4C394.1,711.8,400.7,700.1,400.7,700z"/>
<path class="st8" d="M390.4,696.4c1.5-0.9,2.9-0.8,3.8,0c-0.8-0.2-1.8-0.1-2.9,0.5c-2.6,1.5-4.8,5.2-4.8,8.3c0,1.3,0.4,2.2,1,2.8
	c-1.2-0.3-1.9-1.5-1.9-3.3C385.6,701.6,387.7,697.9,390.4,696.4L390.4,696.4z"/>
<path class="st4" d="M392.5,708.6c0,3.1,2.2,4.3,4.8,2.8s4.8-5.2,4.8-8.3s-2.2-4.3-4.8-2.8S392.5,705.5,392.5,708.6z"/>
<polygon class="st9" points="233.2,196.3 230,196.3 233.8,192.6 237.6,192.6 "/>
<ellipse class="st10" cx="201.3" cy="449.9" rx="41.7" ry="24.1"/>
<path class="st11" d="M277.1,340.8c0,0-4.4,51-35.6,115.4h-80.4c-31.2-64.4-35.6-115.4-35.6-115.4H277.1z"/>
<ellipse class="st12" cx="201.3" cy="342.7" rx="75.9" ry="43.8"/>
<ellipse class="st6" cx="201.3" cy="342.3" rx="70.3" ry="40.2"/>
<path class="st13" d="M255,373c-29.6,17.1-77.7,17.1-107.4,0c-14.6-8.4-22-19.5-22.2-30.5c-0.2,11.4,7.2,22.8,22.2,31.5
	c29.6,17.1,77.7,17.1,107.4,0c15-8.7,22.4-20.1,22.2-31.5C277,353.5,269.6,364.5,255,373L255,373z"/>
<path class="st14" d="M232.1,464.1c-17,9.8-44.6,9.8-61.6,0c-4.4-2.6-7.7-5.5-9.8-8.7c1.7,4.2,5.4,8.2,11.1,11.5
	c16.3,9.4,42.7,9.4,59,0c5.7-3.3,9.4-7.3,11.1-11.5C239.8,458.6,236.6,461.5,232.1,464.1L232.1,464.1z"/>
<path class="st15" d="M251.2,346.4c-27.5-15.9-72.2-15.9-99.8,0c-6.3,3.6-11.1,7.8-14.6,12.1c3.4,4.4,8.3,8.5,14.6,12.1
	c27.5,15.9,72.2,15.9,99.8,0c6.3-3.6,11.1-7.8,14.6-12.1C262.4,354.1,257.5,350,251.2,346.4z"/>
<path class="st9" d="M104.5,330.4h0.7l0.2-5.1h-1.7C103.4,326.1,104.5,330.4,104.5,330.4L104.5,330.4z"/>
<path class="st9" d="M163.6,302.7c-0.9-2.5-2.9-4.4-5.4-5c-11.6-2.7-25.1-2-36.8,1.2c-7,1.9-12.5,8.6-15.7,15.2
	c-2.4,5-2,11.6-0.5,16.3c-0.7-5.4,14.3-10.7,16.7-9.5c4.7,2.4,10.2-4.2,15.4-3.5c3.8,0.5,5.6,6.1,9.4,6.6c4.3,0.5,8.9,0,12.9-1.6
	c3.7-1.4,6.7-5.9,6.5-9.9C166,309.1,164.8,305.9,163.6,302.7L163.6,302.7z"/>
<polygon class="st9" points="159.4,271.6 157.2,271.6 155.4,269.9 157.3,269.9 "/>
<path class="st9" d="M159.4,271.6c-12.5-1.8-23.7,2.9-34.6,6.8c-9.7-2.8-21-6-30.6-9.3c-22-7.8-29-24.8-45-33.2
	c14.6-1.9,22.9,6.5,34.5,8.1c7.9,1.1,14.7-5.5,22.6-4.9c7.9,0.6,14.8,4.9,21.5,9.2c8.1,5.1,11.8,12.1,20.8,15.5
	C151,264.8,156.7,267.1,159.4,271.6L159.4,271.6z"/>
<polygon class="st9" points="22.6,164 20.6,163.8 25.2,159.3 27.5,159.3 "/>
<polygon class="st9" points="176.5,208.3 174.6,208.1 174.6,203.1 176.9,203.1 "/>
<path class="st9" d="M176.5,208.3c-10.8-9.1-28.4-4.4-42.6-6.5c0.5,3.5,1,9.6,1.5,13.1c-14.9,1.4-19.9,2.4-26.4,0.5
	c-10.9-3.2-20.7-6.6-18.1-18.5c-6.3-4.1-12.4-8.2-18.5-12.2c-7.8-5.1-15.6-10.2-23.8-15.5c-16.4-10.4-20.8-7.3-26-5.1
	c3-7.2,6.3-13.6,23.3-18.7c16.6-5,33.4-12.1,50.7-11.9c17.3,0.2,34.5,5.9,50.3,13.1c9.7,4.4,16.1,14.4,26.9,21.1
	C191,178.2,182.5,195.5,176.5,208.3L176.5,208.3z"/>
<polygon class="st9" points="228,179.1 226.4,179.1 225,180.9 226.2,181.2 "/>
<polygon class="st9" points="184.5,255.3 182.9,255.3 182.9,252.3 184,252.3 "/>
<path class="st9" d="M228,179.1c-7.4,10.2-9.7,22.2-14.7,32.7c-6.2,12.8-12.8,18.2-19.2,24.2c-0.4,0.3-10,9.9-9.6,19.2
	c-13.6-3.1-35.9-8.7-36.6-17.6c-1.5-17.4,23.5-16.6,27.7-23.2c4.2-6.7,11.6-9.6,18.5-13.6c8.3-4.8,14.7-9.4,21.9-15.7
	C218,183.3,222.7,179.4,228,179.1L228,179.1z"/>
<polygon class="st9" points="188.8,298.7 187.1,298.7 188.9,295.5 190.6,295.5 "/>
<polygon class="st9" points="233.6,270.4 231.9,270.4 231.2,273.2 232.9,273.2 "/>
<path class="st9" d="M201.8,295.3c-3.3,1.6-9.5,1.3-13,3.4c0.5-4.5,3.3-14.3,7.8-19.5c4.8-3.3,14-6.7,25.8-6.4
	c3.8,0.1,8,0.7,11.2-2.4c0.1,5.9-0.8,13.7-2.6,21c-1.3,5.4-5.8,14.1-9.7,17.9c-8.9,4.2-22.7,5.9-27.5,3.5
	C197.9,308.2,200.1,299.5,201.8,295.3L201.8,295.3z"/>
<polygon class="st9" points="246.6,297.9 245.2,297.9 245.2,299.5 246.8,299.5 "/>
<polygon class="st9" points="288.8,323.2 287.3,323.2 284.5,320.4 286.3,320.4 "/>
<path class="st9" d="M288.8,323.2c-2.9-2.1-3.5-3.4-7.6-2.9c-2.9,0.4-5.6,1.7-8.5,2c-6.5,0.6-13,0-16.7-0.5c-3.7-0.5-4.5-1-7.9-5.7
	c-1.7-2.4-4-4.6-4.6-7.5c-0.6-2.5,0.2-5.2,1-7.7c0.4-1.3,1-2.4,2.3-3c0,0,3.8,0.5,10.6,2.8c-1.7-5.5-7.3-11.5-5.8-13.9
	c0.9-1.5,3.9-2,5.7-2.2c4.2-0.5,8.7-1,12.9-0.1c2,0.5,3.3,2.6,4.8,4.1c2.1,2.1,4.4,4.2,5.8,6.8c1.4,2.4,1.9,5.2,2.4,8
	c0.5,2.5,0.2,5,0.5,7.5c0.2,1.6,0.8,3.1,1.2,4.7C285.2,317.5,287.7,321.6,288.8,323.2L288.8,323.2z"/>
<polygon class="st9" points="224,263.6 221.8,263.6 221.8,260.5 224.5,260.5 "/>
<polygon class="st9" points="252.5,278.5 250.4,278.5 250.4,274.1 253.5,274.1 "/>
<path class="st9" d="M339.1,188.5c-8,0.4-16.4-0.9-24.1,1.3c-10.6,3-19.4,10.5-29.9,14.1c-9.8,3.3-21.5,0.8-30.3,6.1
	c-11.5,7-21,17.8-27.7,29.4c-4,7-4.2,17-3.1,24.2c9.9-8.2,24.6-6.7,36.9-13.6c-2.3,7.4-6.7,13.2-7.9,20.4c-0.5,2.8-1.5,5.8-0.4,8.1
	c10.1-11.4,26.2-11.3,37.1-22c7.9-7.7,11.6-17.7,22.4-25.7c6.5-4.8,8.6-10.8,12.8-18.7C328.9,204.6,333,195,339.1,188.5L339.1,188.5
	z"/>
<path class="st9" d="M198.8,165.7h3.2V158h-3.3C198.7,158,198.8,165.5,198.8,165.7L198.8,165.7z"/>
<polygon class="st9" points="282.6,27.9 279.4,27.9 279.4,34.9 282.3,34.9 "/>
<path class="st9" d="M232.2,138.6c-6.5,8.8-23.7,16.7-30.2,27.1c-4.9-12.9-11-42.9-6.1-62.9c8.2-15.4,28-37.5,60.1-52.9
	c10.2-4.9,22.5-9.2,26.6-22.1c8.5,15.7,16.8,37.6,22.3,59.6c4.1,16.3,4.2,45.6-1,61.3c-18,23.5-52.4,47.4-68.7,47.5
	C239.6,178.6,233.3,152.2,232.2,138.6L232.2,138.6z"/>
<path class="st16" d="M174.6,208.1c-10.8-9.1-28.4-4.4-42.6-6.5c0.5,3.5,1,9.6,1.5,13.1c-14.9,1.4-19.9,2.4-26.4,0.5
	c-10.9-3.2-20.7-6.6-18.1-18.5c-6.3-4.1-12.4-8.2-18.5-12.2c-7.8-5.1-15.6-10.2-23.8-15.5c-16.4-10.4-20.8-7.3-26-5.1
	c3-7.2,6.3-13.6,23.3-18.7c16.6-5,33.4-12.1,50.7-11.9c17.3,0.2,34.5,5.9,50.3,13.1c9.7,4.4,16.1,14.4,26.9,21.1
	C189,178,180.5,195.3,174.6,208.1L174.6,208.1z"/>
<path class="st16" d="M229,138.6c-6.5,8.8-23.7,16.7-30.2,27.1c-4.9-12.9-11-42.9-6.1-62.9c8.2-15.4,28-37.5,60.1-52.9
	c10.2-4.9,22.5-9.2,26.6-22.1c8.5,15.7,16.8,37.6,22.3,59.6c4.1,16.3,4.2,45.6-1,61.3c-18,23.5-52.4,47.4-68.7,47.5
	C236.4,178.6,230.1,152.2,229,138.6L229,138.6z"/>
<path class="st16" d="M226.4,179.1c-7.4,10.2-9.7,22.2-14.7,32.7c-6.2,12.8-12.8,18.2-19.2,24.2c-0.4,0.3-10,9.9-9.6,19.2
	c-13.6-3.1-35.9-8.7-36.6-17.6c-1.5-17.4,23.5-16.6,27.7-23.2c4.2-6.7,11.6-9.6,18.5-13.6c8.3-4.8,14.7-9.4,21.9-15.7
	C216.4,183.3,221.1,179.4,226.4,179.1L226.4,179.1z"/>
<path class="st16" d="M336.9,188.5c-8,0.4-16.4-0.9-24.1,1.3c-10.6,3-19.4,10.5-29.9,14.1c-9.8,3.3-21.5,0.8-30.3,6.1
	c-11.5,7-21,17.8-27.7,29.4c-4,7-4.2,17-3.1,24.2c9.9-8.2,24.6-6.7,36.9-13.6c-2.3,7.4-6.7,13.2-7.9,20.4c-0.5,2.8-1.5,5.8-0.4,8.1
	c10.1-11.4,26.2-11.3,37.1-22c7.9-7.7,11.6-17.7,22.4-25.7c6.5-4.8,8.6-10.8,12.8-18.7C326.7,204.6,330.9,195,336.9,188.5
	L336.9,188.5z"/>
<path class="st16" d="M287.3,323.2c-2.9-2.1-3.5-3.4-7.6-2.9c-2.9,0.4-5.6,1.7-8.5,2c-6.5,0.6-13,0-16.7-0.5c-3.7-0.5-4.5-1-7.9-5.7
	c-1.7-2.4-4-4.6-4.6-7.5c-0.6-2.5,0.2-5.2,1-7.7c0.4-1.3,1-2.4,2.3-3c0,0,3.8,0.5,10.6,2.8c-1.7-5.5-7.3-11.5-5.8-13.9
	c0.9-1.5,3.9-2,5.7-2.2c4.2-0.5,8.7-1,12.9-0.1c2,0.5,3.3,2.6,4.8,4.1c2.1,2.1,4.4,4.2,5.8,6.8c1.4,2.4,1.9,5.2,2.4,8
	c0.5,2.5,0.2,5,0.5,7.5c0.2,1.6,0.8,3.1,1.2,4.7C283.8,317.5,286.2,321.6,287.3,323.2L287.3,323.2z"/>
<path class="st16" d="M157.2,271.6c-12.5-1.8-23.7,2.9-34.6,6.8c-9.7-2.8-21-6-30.6-9.3c-22-7.8-29-24.8-45-33.2
	c14.6-1.9,22.9,6.5,34.5,8.1c7.9,1.1,14.7-5.5,22.6-4.9c7.9,0.6,14.8,4.9,21.5,9.2c8.1,5.1,11.8,12.1,20.8,15.5
	C148.8,264.8,154.4,267.1,157.2,271.6L157.2,271.6z"/>
<path class="st17" d="M230.7,360.5l-1.5-0.1c3-34.6,11.9-55.1,26.6-61l0.6,1.4C242.4,306.3,233.6,327,230.7,360.5L230.7,360.5z
	 M167,360.3c-0.4-11-1-19.2-4.6-26.1c-4-7.7-9.9-14.5-15.7-21c-1.3-1.4-2.5-2.9-3.8-4.3c-2-2.3-4.7-6.7-7.9-11.8
	c-5.9-9.5-13.2-21.3-19.3-25.2l0.8-1.3c6.3,4.1,13.7,16,19.7,25.6c3.1,5,5.8,9.4,7.7,11.6c1.2,1.4,2.5,2.9,3.8,4.3
	c5.8,6.6,11.9,13.5,15.9,21.3c3.7,7.1,4.3,15.6,4.7,26.8L167,360.3L167,360.3z M221.6,371.2l-1.5-0.1c1.9-31.4,13-118.9,73.9-150.3
	l0.7,1.4C234.4,253.2,223.5,340,221.6,371.2L221.6,371.2z M206,362.5c-1.7-48.1,4.8-135.7,7.7-170.1c3.6-42.6,23.1-71.7,37.4-93
	c7.8-11.6,13.9-20.7,15.5-28.7l1.5,0.3c-1.6,8.3-7.8,17.5-15.7,29.2c-14.2,21.1-33.6,50.1-37.1,92.2c-2.9,34.3-9.4,121.8-7.7,169.9
	L206,362.5L206,362.5z M200.4,371.7l-1.5,0c0.1-6,0.1-23.8,0.1-29.5c0-17,0-33.1,2.8-46.1l1.5,0.3c-2.8,12.8-2.8,28.8-2.8,45.8
	C200.5,347.9,200.5,365.7,200.4,371.7z M192.3,367.1l-1.5,0c0.2-11.2-0.5-28.4-1.1-37.2c-0.7-10.4-1.3-19.4-0.5-28.3
	c1.5-16.6-1.2-31.3-8.7-47.7l1.4-0.6c7.7,16.7,10.4,31.6,8.9,48.5c-0.8,8.8-0.2,17.7,0.5,28C191.8,338.6,192.5,355.9,192.3,367.1
	L192.3,367.1z M177.3,359.6c-0.1-2.2-0.2-4.5-0.3-6.8c-0.4-10.1-0.9-20.6-3.7-30.2c-2.5-8.6-8.9-18-14.9-21.8l0.8-1.3
	c6.2,4,12.9,13.8,15.5,22.7c2.9,9.9,3.3,20.4,3.8,30.6c0.1,2.3,0.2,4.5,0.3,6.8L177.3,359.6L177.3,359.6z M183.5,367.9H182
	c0.1-31.5-5.4-71.7-17.2-108.5c-6.4-19.7-15.1-36.3-26-49.3c-8.8-10.5-20.2-16.6-32.3-23c-2.5-1.3-5.1-2.7-7.6-4.1
	c-14.9-8.2-32-14.8-49.7-21.5l0.5-1.4c17.7,6.6,34.9,13.3,49.9,21.6c2.5,1.4,5.1,2.8,7.6,4.1c12.2,6.5,23.8,12.6,32.8,23.4
	c11,13.1,19.8,29.9,26.3,49.8C178.1,295.9,183.6,336.2,183.5,367.9L183.5,367.9z M180.4,253.8c-1.8-15.7,2.6-20.3,10-28.6
	c2.9-3.3,6.5-7.3,10.6-13l1.2,0.9c-4.1,5.7-7.8,9.8-10.6,13.1c-7.3,8.3-10.6,12.4-9.7,27L180.4,253.8L180.4,253.8z"/>
<path class="st16" d="M162.3,302.7c-0.9-2.5-2.9-4.4-5.4-5c-11.6-2.7-25.1-2-36.8,1.2c-7,1.9-12.5,8.6-15.7,15.2
	c-2.4,5-1.4,11.6,0.1,16.3c-1.6-5.4,13.7-10.7,16.1-9.5c4.7,2.4,10.2-4.2,15.4-3.5c3.8,0.5,5.6,6.1,9.4,6.6c4.3,0.5,8.9,0,12.9-1.6
	c3.7-1.4,6.7-5.9,6.5-9.9C164.7,309.1,163.5,305.9,162.3,302.7L162.3,302.7z"/>
<path class="st16" d="M200.1,295.3c-3.3,1.6-9.5,1.3-13,3.4c0.5-4.5,3.3-14.3,7.8-19.5c4.8-3.3,14-6.7,25.8-6.4
	c3.8,0.1,8,0.7,11.2-2.4c0.1,5.9-0.8,13.7-2.6,21c-1.3,5.4-5.8,14.1-9.7,17.9c-8.9,4.2-22.7,5.9-27.5,3.5
	C196.2,308.2,198.4,299.5,200.1,295.3L200.1,295.3z"/>
<path class="st18" d="M227.7,138.1c-6.3,8.5-22.5,16.2-29.5,26c0.2,0.5,0.4,1.1,0.6,1.6c6.2-9.8,21.9-17.4,29.1-25.7
	C227.8,139.3,227.7,138.7,227.7,138.1L227.7,138.1z"/>
<path class="st18" d="M301.6,87.5c-5.5-22-13.8-43.9-22.3-59.6c-0.1,0.4-0.3,0.8-0.4,1.2c8.2,15.6,16.1,36.7,21.4,58
	c4.1,16.3,4.2,45.6-1,61.3c-17.5,22.8-50.5,46-67.2,47.5c0,0.2-0.1,0.4-0.1,0.6c16.2-0.2,50.6-24.1,68.7-47.5
	C305.9,133.1,305.7,103.8,301.6,87.5z"/>
<path class="st18" d="M199.7,294.9c-3.1,1.5-9,1.4-12.6,3.1c0,0.2-0.1,0.4-0.1,0.6c3.3-1.9,9-1.8,12.4-3.1
	C199.5,295.4,199.6,295.1,199.7,294.9z"/>
<path class="st18" d="M231.5,270.7c0,5.8-0.9,13.2-2.6,20.3c-1.3,5.4-5.8,14.1-9.7,17.9c-8.6,4-21.8,5.8-27,3.7
	c0,0.1-0.1,0.1-0.1,0.2c4.8,2.4,18.6,0.7,27.5-3.5c3.9-3.8,8.4-12.5,9.7-17.9c1.8-7.3,2.7-15.1,2.6-21
	C231.8,270.5,231.6,270.6,231.5,270.7L231.5,270.7z"/>
<path class="st18" d="M257.9,249.6c-12,6.8-26.4,5.5-36.2,13.1c0,0.3,0.1,0.6,0.1,0.9c9.6-7.9,23.7-6.8,35.8-13
	C257.7,250.2,257.8,249.9,257.9,249.6z"/>
<path class="st18" d="M335.7,188.5c-5.8,6.5-9.9,15.8-13.9,23.3c-4.2,7.8-6.3,13.9-12.8,18.7c-10.8,8-14.5,18-22.4,25.7
	c-10.7,10.5-26.5,10.6-36.6,21.5c0.1,0.3,0.2,0.6,0.3,0.9c10.1-11.4,26.2-11.3,37.1-22c7.9-7.7,11.6-17.7,22.4-25.7
	c6.5-4.8,8.6-10.8,12.8-18.7c4.1-7.6,8.2-17.2,14.3-23.7C336.5,188.5,336.1,188.5,335.7,188.5L335.7,188.5z"/>
<path class="st18" d="M88.9,195.6c-6.3-4.1-12.4-8.2-18.5-12.2c-7.8-5.1-15.6-10.2-23.8-15.5c-15.9-10.1-20.5-7.5-25.6-5.3
	c-0.2,0.4-0.3,0.8-0.5,1.1c5.3-2.2,9.6-5.3,26,5.1c8.2,5.2,16,10.3,23.8,15.5c6,4,12.1,8,18.4,12.1
	C88.8,196.2,88.9,195.9,88.9,195.6L88.9,195.6z"/>
<path class="st18" d="M174.6,207.2c-10.8-9.1-28.4-4.4-42.6-6.5c0,0.3,0.1,0.6,0.1,0.9c14.2,2.1,31.8-2.5,42.5,6.5
	c3.4-7.3,7.6-16,7.4-24.2C181.8,191.8,177.8,200.2,174.6,207.2z"/>
<path class="st18" d="M107.1,214.2c-9.5-2.8-18.1-5.7-18.5-14.2c-0.1,9.2,8.7,12.2,18.5,15.1c6.5,1.9,11.5,0.9,26.4-0.5
	c0-0.3-0.1-0.6-0.1-0.9C118.6,215.1,113.5,216.1,107.1,214.2L107.1,214.2z"/>
<path class="st19" d="M810.4,189.6L512,17.3c-3.7-2.1-7.1-2.4-9.6-1.3v0l-0.2,0.1c-0.2,0.1-0.4,0.2-0.5,0.3l-7.7,4.9l2.9,9.8
	l0.8-0.5v235.1l320,180v12.9l3.9-2.5c2-1.2,3.2-3.4,3.2-5.8V214.4C824.7,205.3,818.3,194.1,810.4,189.6L810.4,189.6z"/>
<path class="st20" d="M780.6,234.6l0.5,0.7l43.2-25.3c-1.1-6-5.4-13.3-9.5-17.2l-34.2,21V234.6z"/>
<path class="st21" d="M818.1,458.8V218.6c0-9.1-6.5-20.3-14.4-24.9L505.3,21.5c-7.9-4.6-14.4-0.8-14.4,8.3V270L818.1,458.8
	L818.1,458.8z"/>
<path class="st22" d="M512.6,257.4l284,163.9c1.5,0.8,3.3-0.2,3.3-1.9V214c0-3.2-1.7-6.3-4.5-7.9L513.9,43.7
	c-2.1-1.2-4.8,0.3-4.8,2.8v205C509.2,253.9,510.5,256.2,512.6,257.4L512.6,257.4z"/>
<polygon class="st22" points="511,254.1 797.6,419.5 797.6,210.1 511,44.7 "/>
<polygon class="st22" points="513.8,253.1 796.7,416.5 796.7,209.6 513.8,46.2 "/>
<polygon class="st23" points="752.1,309.3 539.2,186.3 539.2,124.9 752.1,247.8 "/>
<polygon class="st23" points="752.1,390.5 539.2,267.5 539.2,193.5 752.1,316.5 "/>
<polygon class="st24" points="511,57.9 797.7,223.8 797.7,210.5 511,44.6 "/>
<path class="st25" d="M520.9,59.7l-0.5-0.3c-0.9-0.5-1.6-1.9-1.6-3.1l0,0c0-1.2,0.7-1.7,1.6-1.2l0.5,0.3c0.9,0.5,1.6,1.9,1.6,3.1
	l0,0C522.5,59.7,521.8,60.2,520.9,59.7z"/>
<path class="st25" d="M526.9,63.2l-0.5-0.3c-0.9-0.5-1.6-1.9-1.6-3.1l0,0c0-1.2,0.7-1.7,1.6-1.2l0.5,0.3c0.9,0.5,1.6,1.9,1.6,3.1
	l0,0C528.5,63.1,527.8,63.7,526.9,63.2z"/>
<path class="st25" d="M532.9,66.6l-0.5-0.3c-0.9-0.5-1.6-1.9-1.6-3.1l0,0c0-1.2,0.7-1.7,1.6-1.2l0.5,0.3c0.9,0.5,1.6,1.9,1.6,3.1
	l0,0C534.5,66.6,533.8,67.1,532.9,66.6z"/>
<path class="st26" d="M542.4,93.5l3.3,1.9v1.4l-4.9-2.8v-8.8l1.6,0.9V93.5L542.4,93.5z"/>
<path class="st26" d="M552.5,96.6c0,0.7-0.1,1.2-0.2,1.7c-0.2,0.4-0.4,0.8-0.7,1c-0.3,0.2-0.6,0.3-1,0.3s-0.8-0.2-1.3-0.5
	s-0.9-0.6-1.3-1.1c-0.4-0.4-0.7-0.9-1-1.4c-0.3-0.5-0.5-1.1-0.7-1.7s-0.2-1.3-0.2-1.9v-0.4c0-0.7,0.1-1.2,0.2-1.7s0.4-0.8,0.7-1
	c0.3-0.2,0.6-0.3,1-0.3c0.4,0,0.8,0.2,1.3,0.5s0.9,0.6,1.3,1.1c0.4,0.4,0.7,0.9,1,1.4s0.5,1.1,0.7,1.8c0.2,0.6,0.2,1.3,0.2,1.9
	L552.5,96.6L552.5,96.6z M550.9,95.3c0-0.9-0.1-1.7-0.4-2.3s-0.7-1.1-1.2-1.4c-0.5-0.3-0.9-0.3-1.2,0c-0.3,0.3-0.4,0.9-0.4,1.9v0.4
	c0,0.5,0,0.9,0.1,1.3s0.2,0.8,0.3,1.1s0.3,0.6,0.5,0.8c0.2,0.2,0.4,0.4,0.7,0.6c0.5,0.3,0.9,0.3,1.2,0c0.3-0.3,0.4-0.9,0.4-1.9
	L550.9,95.3L550.9,95.3z"/>
<path class="st26" d="M556.4,99.8l-1.2-0.7v3.2l-1.6-0.9v-8.8l2.8,1.6c0.4,0.2,0.8,0.5,1.2,0.9c0.3,0.3,0.6,0.6,0.9,1
	s0.4,0.7,0.5,1.1c0.1,0.4,0.2,0.8,0.2,1.3c0,0.3,0,0.6-0.1,0.8s-0.2,0.4-0.3,0.5s-0.3,0.2-0.4,0.3s-0.3,0.1-0.6,0.1l1.6,4.5v0.1
	l-1.7-1L556.4,99.8L556.4,99.8z M555.2,97.7l1.3,0.7c0.2,0.1,0.4,0.2,0.5,0.2c0.2,0,0.3,0,0.4,0c0.1-0.1,0.2-0.1,0.2-0.3
	s0.1-0.3,0.1-0.5c0-0.4-0.1-0.8-0.3-1.1c-0.2-0.4-0.5-0.6-0.9-0.9l-1.3-0.7L555.2,97.7L555.2,97.7z"/>
<path class="st26" d="M565,104.2l-3-1.7v2.4l3.5,2v1.4l-5.1-2.9v-8.8l5.1,2.9v1.5l-3.5-2v2.1l3,1.7V104.2L565,104.2z"/>
<path class="st26" d="M568.5,101.2l2,7.5l1.9-5.2l2.1,1.2v8.8l-1.6-0.9v-2.4l0.2-4.1l-2,5.4l-1.1-0.6l-2-7.7l0.2,4.2v2.4l-1.6-0.9
	v-8.8L568.5,101.2L568.5,101.2z"/>
<path class="st26" d="M580.1,116.7l-1.6-0.9v-8.8l1.6,0.9V116.7z"/>
<path class="st26" d="M583.2,115.4v3.1l-1.6-0.9v-8.8l3,1.7c0.5,0.3,0.8,0.6,1.2,0.9s0.7,0.7,0.9,1.1c0.2,0.4,0.4,0.8,0.6,1.2
	c0.1,0.4,0.2,0.9,0.2,1.3s-0.1,0.8-0.2,1c-0.1,0.3-0.3,0.4-0.6,0.6c-0.2,0.1-0.5,0.1-0.9,0c-0.3-0.1-0.8-0.2-1.2-0.5L583.2,115.4
	L583.2,115.4z M583.2,113.9l1.4,0.8c0.2,0.1,0.4,0.2,0.6,0.2c0.2,0,0.3,0,0.4,0c0.1-0.1,0.2-0.1,0.2-0.3s0.1-0.3,0.1-0.5
	s0-0.4-0.1-0.6c0-0.2-0.1-0.4-0.2-0.6c-0.1-0.2-0.2-0.4-0.4-0.6c-0.2-0.2-0.3-0.3-0.6-0.4l-1.4-0.8V113.9L583.2,113.9z"/>
<path class="st26" d="M592.4,121.5c0-0.1,0-0.3-0.1-0.4c0-0.1-0.1-0.3-0.2-0.5s-0.3-0.4-0.5-0.6s-0.4-0.5-0.8-0.8
	c-0.3-0.3-0.7-0.7-1-1c-0.3-0.3-0.6-0.7-0.8-1c-0.2-0.4-0.4-0.7-0.5-1.1c-0.1-0.4-0.2-0.7-0.2-1.1s0.1-0.7,0.2-0.9s0.3-0.4,0.6-0.4
	s0.5-0.1,0.9,0c0.3,0.1,0.7,0.2,1.1,0.5c0.4,0.2,0.8,0.5,1.2,0.9c0.3,0.3,0.6,0.7,0.9,1.1s0.4,0.8,0.6,1.2c0.1,0.4,0.2,0.8,0.2,1.2
	l-1.6-0.9c0-0.2,0-0.4-0.1-0.6s-0.1-0.4-0.2-0.5s-0.2-0.3-0.4-0.5s-0.3-0.3-0.5-0.4c-0.2-0.1-0.4-0.2-0.5-0.2s-0.3,0-0.4,0
	s-0.2,0.1-0.2,0.2c0,0.1-0.1,0.2-0.1,0.4c0,0.3,0.1,0.6,0.4,0.9c0.3,0.3,0.6,0.7,1.1,1.2c0.4,0.4,0.8,0.8,1.1,1.1
	c0.3,0.4,0.6,0.7,0.8,1.1c0.2,0.4,0.4,0.7,0.5,1.1s0.2,0.7,0.2,1.1c0,0.4-0.1,0.7-0.2,0.9s-0.3,0.4-0.6,0.4s-0.5,0.1-0.9,0
	c-0.3-0.1-0.7-0.2-1.1-0.5c-0.2-0.1-0.5-0.3-0.8-0.5s-0.5-0.4-0.7-0.6c-0.2-0.2-0.4-0.5-0.6-0.8c-0.2-0.3-0.4-0.6-0.5-0.9
	c-0.1-0.3-0.3-0.6-0.3-0.9c-0.1-0.3-0.1-0.6-0.1-1l1.6,0.9c0,0.3,0,0.5,0.1,0.7c0.1,0.2,0.2,0.4,0.3,0.6s0.3,0.4,0.5,0.5
	s0.4,0.3,0.6,0.4c0.2,0.1,0.4,0.2,0.5,0.2s0.3,0,0.4,0c0.1,0,0.2-0.1,0.2-0.2C592.4,121.7,592.4,121.6,592.4,121.5L592.4,121.5z"/>
<path class="st26" d="M600.8,119.9v5.8c0,0.5-0.1,0.9-0.2,1.2s-0.3,0.5-0.6,0.6s-0.6,0.1-0.9,0.1s-0.7-0.2-1.2-0.5
	c-0.4-0.2-0.8-0.5-1.2-0.9c-0.4-0.3-0.7-0.7-0.9-1.1c-0.3-0.4-0.5-0.9-0.6-1.3c-0.1-0.5-0.2-1-0.2-1.5v-5.8l1.6,0.9v5.8
	c0,0.6,0.1,1.1,0.4,1.5s0.6,0.7,1,1c0.4,0.2,0.8,0.3,1,0.2c0.2-0.1,0.3-0.5,0.3-1.1V119L600.8,119.9L600.8,119.9z"/>
<path class="st26" d="M604.1,121.8l2,7.5l1.9-5.2l2.1,1.2v8.8l-1.6-0.9v-2.4l0.2-4.1l-2,5.4l-1.1-0.6l-2-7.7l0.2,4.2v2.4l-1.6-0.9
	v-8.8L604.1,121.8L604.1,121.8z"/>
<polygon class="st26" points="550.2,261.6 549.4,261.2 549.4,211.9 550.2,212.3 "/>
<polygon class="st26" points="549.8,209.9 548.2,211.7 551.3,213.5 "/>
<polygon class="st26" points="549.4,261.7 549.4,260.8 723.9,361.5 723.9,362.4 "/>
<polygon class="st26" points="725.8,363 723.5,359.9 723.5,363.5 "/>
<polygon class="st27" points="570,272.6 561,267.4 561,234.9 570,240.1 "/>
<polygon class="st26" points="570,272.6 561,267.4 561,250.8 570,256 "/>
<polygon class="st27" points="585,281.2 576,276 576,243.6 585,248.8 "/>
<polygon class="st26" points="585,281.2 576,276 576,253.7 585,258.9 "/>
<polygon class="st27" points="600,289.9 591,284.7 591,252.2 600,257.4 "/>
<polygon class="st26" points="600,289.9 591,284.7 591,274.7 600,279.9 "/>
<polygon class="st27" points="615,298.5 606,293.4 606,260.9 615,266.1 "/>
<polygon class="st26" points="615,298.5 606,293.4 606,268.3 615,273.5 "/>
<polygon class="st27" points="630,307.2 621,302 621,269.5 630,274.8 "/>
<polygon class="st26" points="630,307.2 621,302 621,283.4 630,288.6 "/>
<polygon class="st27" points="645,315.9 635.9,310.7 635.9,278.2 645,283.4 "/>
<polygon class="st26" points="645,315.9 635.9,310.7 635.9,278.4 645,283.6 "/>
<polygon class="st27" points="660,324.5 650.9,319.3 650.9,286.9 660,292.1 "/>
<polygon class="st26" points="660,324.5 650.9,319.3 650.9,299.4 660,304.6 "/>
<polygon class="st27" points="674.9,333.2 665.9,328 665.9,295.5 674.9,300.7 "/>
<polygon class="st26" points="674.9,333.2 665.9,328 665.9,318 674.9,323.1 "/>
<polygon class="st27" points="689.9,341.8 680.9,336.6 680.9,304.2 689.9,309.4 "/>
<polygon class="st26" points="689.9,341.8 680.9,336.6 680.9,331.4 689.9,336.6 "/>
<polygon class="st27" points="704.9,350.5 695.9,345.3 695.9,312.8 704.9,318 "/>
<polygon class="st26" points="704.9,350.5 695.9,345.3 695.9,328.6 704.9,333.9 "/>
<path class="st26" d="M541.9,114.3l-1-0.6v-5.3l1,0.6V114.3z"/>
<path class="st26" d="M543.8,113.5v1.9l-1-0.6v-5.3l1.8,1c0.3,0.2,0.5,0.3,0.7,0.6c0.2,0.2,0.4,0.4,0.5,0.7c0.2,0.2,0.3,0.5,0.3,0.8
	s0.1,0.5,0.1,0.8s0,0.5-0.1,0.6s-0.2,0.3-0.3,0.3s-0.3,0.1-0.5,0c-0.2,0-0.5-0.1-0.7-0.3L543.8,113.5L543.8,113.5z M543.8,112.6
	l0.8,0.5c0.1,0.1,0.2,0.1,0.3,0.1c0.1,0,0.2,0,0.2,0s0.1-0.1,0.1-0.2s0-0.2,0-0.3s0-0.2,0-0.4c0-0.1-0.1-0.2-0.1-0.4
	s-0.1-0.2-0.2-0.3s-0.2-0.2-0.3-0.3l-0.8-0.5V112.6z"/>
<path class="st26" d="M549.4,117.2c0-0.1,0-0.2,0-0.3c0-0.1-0.1-0.2-0.1-0.3s-0.2-0.2-0.3-0.4c-0.1-0.1-0.3-0.3-0.5-0.5
	c-0.2-0.2-0.4-0.4-0.6-0.6s-0.3-0.4-0.5-0.6s-0.2-0.4-0.3-0.6s-0.1-0.4-0.1-0.7s0-0.4,0.1-0.5c0.1-0.1,0.2-0.2,0.3-0.3
	c0.2,0,0.3,0,0.5,0s0.4,0.1,0.7,0.3c0.3,0.1,0.5,0.3,0.7,0.5c0.2,0.2,0.4,0.4,0.5,0.6s0.3,0.5,0.3,0.7s0.1,0.5,0.1,0.7l-1-0.6
	c0-0.1,0-0.2,0-0.3c0-0.1-0.1-0.2-0.1-0.3s-0.1-0.2-0.2-0.3c-0.1-0.1-0.2-0.2-0.3-0.2c-0.1-0.1-0.2-0.1-0.3-0.1c-0.1,0-0.2,0-0.2,0
	s-0.1,0.1-0.1,0.1s0,0.1,0,0.2c0,0.2,0.1,0.4,0.2,0.6c0.2,0.2,0.4,0.4,0.7,0.7c0.2,0.2,0.5,0.5,0.7,0.7c0.2,0.2,0.3,0.4,0.5,0.6
	c0.1,0.2,0.2,0.4,0.3,0.6c0.1,0.2,0.1,0.4,0.1,0.6c0,0.2,0,0.4-0.1,0.6s-0.2,0.2-0.3,0.3s-0.3,0-0.5,0c-0.2-0.1-0.4-0.1-0.7-0.3
	c-0.2-0.1-0.3-0.2-0.5-0.3s-0.3-0.2-0.4-0.4s-0.3-0.3-0.4-0.5s-0.2-0.3-0.3-0.5c-0.1-0.2-0.2-0.4-0.2-0.6c0-0.2-0.1-0.4-0.1-0.6
	l1,0.6c0,0.2,0,0.3,0.1,0.4s0.1,0.3,0.2,0.4c0.1,0.1,0.2,0.2,0.3,0.3s0.2,0.2,0.4,0.3c0.1,0.1,0.2,0.1,0.3,0.1s0.2,0,0.2,0
	s0.1-0.1,0.1-0.1S549.4,117.3,549.4,117.2L549.4,117.2z"/>
<path class="st26" d="M554.5,116.2v3.5c0,0.3,0,0.6-0.1,0.7c-0.1,0.2-0.2,0.3-0.4,0.4s-0.3,0.1-0.6,0c-0.2,0-0.5-0.1-0.7-0.3
	s-0.5-0.3-0.7-0.5c-0.2-0.2-0.4-0.4-0.6-0.7s-0.3-0.5-0.4-0.8c-0.1-0.3-0.1-0.6-0.1-0.9v-3.5l1,0.6v3.5c0,0.4,0.1,0.6,0.2,0.9
	c0.1,0.2,0.3,0.4,0.6,0.6c0.3,0.1,0.5,0.2,0.6,0.1c0.1-0.1,0.2-0.3,0.2-0.6v-3.5L554.5,116.2L554.5,116.2z"/>
<path class="st26" d="M556.5,117.4l1.2,4.6l1.2-3.2l1.2,0.7v5.3l-1-0.6v-1.5l0.1-2.5l-1.2,3.3l-0.7-0.4l-1.2-4.7l0.1,2.6v1.5l-1-0.6
	v-5.3L556.5,117.4L556.5,117.4z"/>
<path class="st27" d="M647.2,175.6l-0.4-0.2v-5.3l0.4,0.2V175.6z"/>
<path class="st27" d="M648.8,174.4v2.2l-0.4-0.2V171l1.6,0.9c0.5,0.3,0.9,0.6,1.1,1.1c0.3,0.4,0.4,0.9,0.4,1.4s-0.1,0.8-0.4,0.9
	s-0.6,0.1-1.1-0.2L648.8,174.4L648.8,174.4z M648.8,174l1.2,0.7c0.4,0.2,0.7,0.3,0.9,0.2s0.3-0.3,0.3-0.7s-0.1-0.7-0.3-1
	s-0.5-0.6-0.9-0.8l-1.2-0.7V174L648.8,174z"/>
<path class="st27" d="M655.1,178.9c0-0.3-0.1-0.6-0.3-0.9c-0.2-0.3-0.5-0.6-1-1.1c-0.5-0.4-0.9-0.9-1.2-1.2
	c-0.3-0.4-0.4-0.8-0.4-1.2s0.2-0.7,0.4-0.8s0.7,0,1.1,0.3c0.5,0.3,0.9,0.6,1.2,1.1s0.4,0.9,0.4,1.4v0l-0.4-0.2
	c0-0.4-0.1-0.7-0.3-1.1c-0.2-0.4-0.5-0.6-0.9-0.9c-0.4-0.2-0.7-0.3-0.9-0.2s-0.3,0.2-0.3,0.5c0,0.3,0.1,0.5,0.3,0.8s0.5,0.6,1,1
	c0.5,0.4,0.9,0.9,1.1,1.2s0.4,0.8,0.4,1.2s-0.2,0.7-0.5,0.8c-0.3,0.1-0.7,0-1.2-0.3c-0.5-0.3-0.9-0.6-1.2-1.1s-0.5-1-0.5-1.5v0
	l0.4,0.2c0,0.4,0.1,0.8,0.4,1.1c0.3,0.4,0.6,0.6,1,0.9c0.4,0.2,0.7,0.3,0.9,0.2C655,179.4,655.1,179.2,655.1,178.9L655.1,178.9z"/>
<path class="st27" d="M659.6,177.5v3.6c0,0.6-0.2,0.9-0.5,1.1s-0.7,0-1.2-0.2c-0.5-0.3-0.9-0.7-1.2-1.1c-0.3-0.5-0.5-1-0.5-1.6v-3.6
	l0.4,0.2v3.6c0,0.5,0.1,0.9,0.3,1.3c0.2,0.4,0.5,0.7,0.9,0.9c0.4,0.2,0.7,0.3,0.9,0.2s0.4-0.4,0.4-0.9v-3.6L659.6,177.5L659.6,177.5
	z"/>
<path class="st27" d="M661.2,178.4l1.7,5.7h0l1.7-3.7l0.5,0.3v5.3l-0.4-0.2v-2.4l0-2.3l0,0l-1.7,3.7l-0.3-0.1l-1.7-5.7h0l0,2.3v2.4
	l-0.4-0.2v-5.3L661.2,178.4L661.2,178.4z"/>
<path class="st27" d="M573.8,133.1v-5.3l1.3,0.8c0.6,0.3,1,0.8,1.4,1.5c0.4,0.6,0.5,1.3,0.5,2v0.7c0,0.7-0.2,1.1-0.5,1.4
	s-0.8,0.2-1.4-0.2L573.8,133.1L573.8,133.1z M574.2,128.4v4.6l1,0.6c0.5,0.3,0.8,0.3,1.1,0.1s0.4-0.6,0.4-1.1v-0.7
	c0-0.6-0.2-1.1-0.4-1.6c-0.3-0.5-0.7-0.9-1.1-1.2L574.2,128.4L574.2,128.4z"/>
<path class="st27" d="M581.5,135.3c0,0.7-0.2,1.1-0.5,1.4s-0.8,0.2-1.3-0.1c-0.5-0.3-1-0.8-1.3-1.4s-0.5-1.3-0.5-1.9v-0.9
	c0-0.7,0.2-1.1,0.5-1.4s0.8-0.2,1.3,0.1s1,0.8,1.3,1.4c0.3,0.6,0.5,1.3,0.5,2V135.3L581.5,135.3z M581.1,134.2
	c0-0.6-0.1-1.1-0.4-1.6s-0.6-0.9-1-1.1c-0.4-0.2-0.8-0.3-1-0.1c-0.2,0.2-0.4,0.6-0.4,1.2v0.9c0,0.6,0.1,1.1,0.4,1.6s0.6,0.9,1,1.1
	c0.5,0.3,0.8,0.3,1,0.1c0.2-0.2,0.4-0.6,0.4-1.2V134.2L581.1,134.2z"/>
<path class="st27" d="M582.8,138l2.3,1.3v0.4l-2.7-1.5v-5.3l0.4,0.2V138L582.8,138z"/>
<path class="st27" d="M589,139.7c0,0.7-0.2,1.1-0.5,1.4s-0.8,0.2-1.3-0.1c-0.5-0.3-1-0.8-1.3-1.4s-0.5-1.3-0.5-1.9v-0.9
	c0-0.7,0.2-1.1,0.5-1.4s0.8-0.2,1.3,0.1s1,0.8,1.3,1.4c0.3,0.6,0.5,1.3,0.5,2V139.7L589,139.7z M588.7,138.6c0-0.6-0.1-1.1-0.4-1.6
	s-0.6-0.9-1-1.1c-0.4-0.2-0.8-0.3-1-0.1s-0.4,0.6-0.4,1.2v0.9c0,0.6,0.1,1.1,0.4,1.6s0.6,0.9,1,1.1c0.5,0.3,0.8,0.3,1,0.1
	c0.2-0.2,0.4-0.6,0.4-1.2V138.6L588.7,138.6z"/>
<path class="st27" d="M590.4,140.3v2.4l-0.4-0.2v-5.3l1.6,0.9c0.5,0.3,0.9,0.6,1.1,1s0.4,0.9,0.4,1.3c0,0.3-0.1,0.5-0.2,0.6
	s-0.3,0.2-0.6,0.1c0.3,0.2,0.5,0.5,0.6,0.8s0.2,0.6,0.2,0.9v0.5c0,0.2,0,0.3,0,0.5c0,0.1,0.1,0.3,0.2,0.4v0.1l-0.4-0.2
	c-0.1-0.1-0.1-0.3-0.2-0.5c0-0.2,0-0.4,0-0.5v-0.5c0-0.3-0.1-0.6-0.3-0.9c-0.2-0.3-0.4-0.5-0.8-0.7L590.4,140.3L590.4,140.3z
	 M590.4,140l1.1,0.7c0.4,0.2,0.7,0.3,0.9,0.2c0.2-0.1,0.3-0.3,0.3-0.6c0-0.4-0.1-0.7-0.3-1s-0.5-0.6-0.9-0.8l-1.2-0.7V140L590.4,140
	z"/>
<path class="st27" d="M598.6,146.1c0-0.3-0.1-0.6-0.3-0.9c-0.2-0.3-0.5-0.6-1-1.1c-0.5-0.4-0.9-0.9-1.2-1.2
	c-0.3-0.4-0.4-0.8-0.4-1.2s0.2-0.7,0.4-0.8s0.7,0,1.1,0.3c0.5,0.3,0.9,0.6,1.2,1.1c0.3,0.5,0.4,0.9,0.4,1.4v0l-0.4-0.2
	c0-0.4-0.1-0.7-0.3-1.1c-0.2-0.4-0.5-0.6-0.9-0.9c-0.4-0.2-0.7-0.3-0.9-0.2s-0.3,0.2-0.3,0.5c0,0.3,0.1,0.6,0.3,0.8s0.5,0.6,1,1.1
	c0.5,0.4,0.9,0.9,1.1,1.2s0.4,0.8,0.4,1.2s-0.2,0.7-0.5,0.8c-0.3,0.1-0.7,0-1.2-0.3c-0.5-0.3-0.9-0.6-1.2-1.1
	c-0.3-0.5-0.5-0.9-0.5-1.5v0l0.4,0.2c0,0.4,0.1,0.8,0.4,1.1c0.3,0.4,0.6,0.6,1,0.9c0.4,0.2,0.7,0.3,0.9,0.2
	C598.5,146.6,598.6,146.4,598.6,146.1L598.6,146.1z"/>
<path class="st27" d="M600.3,148.4l-0.4-0.2v-5.3l0.4,0.2V148.4z"/>
<path class="st27" d="M604.6,146l-1.6-0.9v5l-0.4-0.2v-5l-1.6-0.9v-0.4l3.6,2.1L604.6,146L604.6,146z"/>
<path class="st27" d="M708.1,210.7v-5.3l1.3,0.8c0.6,0.3,1,0.8,1.4,1.5s0.5,1.3,0.5,2v0.7c0,0.7-0.2,1.1-0.5,1.4
	c-0.4,0.2-0.8,0.2-1.4-0.2L708.1,210.7L708.1,210.7z M708.5,206v4.6l1,0.6c0.5,0.3,0.8,0.3,1.1,0.1c0.3-0.2,0.4-0.6,0.4-1.1v-0.7
	c0-0.6-0.2-1.1-0.4-1.6c-0.3-0.5-0.7-0.9-1.1-1.2L708.5,206L708.5,206z"/>
<path class="st27" d="M715.8,212.9c0,0.7-0.2,1.1-0.5,1.4c-0.3,0.2-0.8,0.2-1.3-0.1c-0.5-0.3-1-0.8-1.3-1.4c-0.3-0.6-0.5-1.3-0.5-2
	v-0.9c0-0.7,0.2-1.1,0.5-1.4s0.8-0.2,1.3,0.1c0.5,0.3,1,0.8,1.3,1.4c0.3,0.6,0.5,1.3,0.5,2V212.9L715.8,212.9z M715.4,211.8
	c0-0.6-0.1-1.1-0.4-1.6s-0.6-0.9-1-1.1c-0.4-0.2-0.8-0.3-1-0.1s-0.4,0.6-0.4,1.2v0.9c0,0.6,0.1,1.1,0.4,1.6s0.6,0.9,1,1.1
	c0.5,0.3,0.8,0.3,1,0.1c0.2-0.2,0.4-0.6,0.4-1.2V211.8L715.4,211.8z"/>
<path class="st27" d="M717.2,215.5l2.3,1.3v0.4l-2.7-1.5v-5.3l0.4,0.2V215.5z"/>
<path class="st27" d="M723.4,217.3c0,0.7-0.2,1.1-0.5,1.4c-0.3,0.2-0.8,0.2-1.3-0.1c-0.5-0.3-1-0.8-1.3-1.4s-0.5-1.3-0.5-2v-0.9
	c0-0.7,0.2-1.1,0.5-1.4c0.3-0.2,0.8-0.2,1.3,0.1c0.5,0.3,1,0.8,1.3,1.4c0.3,0.6,0.5,1.3,0.5,2V217.3L723.4,217.3z M723,216.2
	c0-0.6-0.1-1.1-0.4-1.6s-0.6-0.9-1-1.1c-0.4-0.2-0.8-0.3-1-0.1s-0.4,0.6-0.4,1.2v0.9c0,0.6,0.1,1.1,0.4,1.6s0.6,0.9,1,1.1
	c0.5,0.3,0.8,0.3,1,0.1c0.2-0.2,0.4-0.6,0.4-1.2V216.2L723,216.2z"/>
<path class="st27" d="M724.7,217.9v2.4l-0.4-0.2v-5.3l1.6,0.9c0.5,0.3,0.9,0.6,1.1,1s0.4,0.9,0.4,1.3c0,0.3-0.1,0.5-0.2,0.6
	s-0.3,0.2-0.6,0.1c0.3,0.2,0.5,0.5,0.6,0.8c0.1,0.3,0.2,0.6,0.2,0.9v0.5c0,0.2,0,0.3,0,0.5c0,0.1,0.1,0.3,0.2,0.4v0.1l-0.4-0.2
	c-0.1-0.1-0.1-0.3-0.2-0.5c0-0.2,0-0.4,0-0.5v-0.5c0-0.3-0.1-0.6-0.3-0.9c-0.2-0.3-0.4-0.5-0.8-0.7L724.7,217.9L724.7,217.9z
	 M724.7,217.5l1.1,0.7c0.4,0.2,0.7,0.3,0.9,0.2c0.2-0.1,0.3-0.3,0.3-0.6c0-0.4-0.1-0.7-0.3-1c-0.2-0.3-0.5-0.6-0.9-0.8l-1.2-0.7
	V217.5L724.7,217.5z"/>
<path class="st27" d="M732.9,223.7c0-0.3-0.1-0.6-0.3-0.9c-0.2-0.3-0.5-0.6-1-1.1c-0.5-0.4-0.9-0.9-1.2-1.2
	c-0.3-0.4-0.4-0.8-0.4-1.2s0.2-0.7,0.4-0.8s0.7,0,1.1,0.3c0.5,0.3,0.9,0.6,1.2,1.1s0.4,0.9,0.4,1.4v0l-0.4-0.2
	c0-0.4-0.1-0.7-0.3-1.1c-0.2-0.4-0.5-0.6-0.9-0.9c-0.4-0.2-0.7-0.3-0.9-0.2s-0.3,0.2-0.3,0.5c0,0.3,0.1,0.5,0.3,0.8s0.5,0.6,1,1
	c0.5,0.4,0.9,0.9,1.1,1.2s0.4,0.8,0.4,1.2s-0.2,0.7-0.5,0.8c-0.3,0.1-0.7,0-1.2-0.3c-0.5-0.3-0.9-0.6-1.2-1.1s-0.5-1-0.5-1.5v0
	l0.4,0.2c0,0.4,0.1,0.8,0.4,1.1c0.3,0.4,0.6,0.6,1,0.9c0.4,0.2,0.7,0.3,0.9,0.2C732.8,224.1,732.9,224,732.9,223.7L732.9,223.7z"/>
<path class="st27" d="M734.6,226l-0.4-0.2v-5.3l0.4,0.2V226z"/>
<path class="st27" d="M738.9,223.5l-1.6-0.9v5l-0.4-0.2v-5l-1.6-0.9v-0.4l3.6,2.1L738.9,223.5L738.9,223.5z"/>
<path class="st27" d="M620.2,158.8l-2.1-1.2l-0.5,1.2l-0.4-0.2l1.8-4.3l0.4,0.2l1.7,6.4l-0.4-0.2L620.2,158.8L620.2,158.8z
	 M618.2,157.2l1.9,1.1l-0.9-3.4h0L618.2,157.2L618.2,157.2z"/>
<path class="st27" d="M622.2,156.1l1.7,5.7h0l1.7-3.7l0.5,0.3v5.3l-0.4-0.2v-2.4l0-2.3l0,0l-1.7,3.7l-0.3-0.1l-1.7-5.7h0l0,2.3v2.4
	l-0.4-0.2v-5.3L622.2,156.1L622.2,156.1z"/>
<path class="st27" d="M630,163.4l-2.2-1.3v2.2l2.5,1.5v0.4l-2.9-1.7v-5.3l2.9,1.7v0.4l-2.5-1.5v2l2.2,1.3L630,163.4L630,163.4z"/>
<path class="st27" d="M634.3,163.5l-1.6-0.9v5l-0.4-0.2v-5l-1.6-0.9V161l3.6,2.1L634.3,163.5L634.3,163.5z"/>
<path class="st27" d="M682.1,194.5l-2.1-1.2l-0.5,1.2l-0.4-0.2l1.8-4.3l0.4,0.2l1.7,6.4l-0.4-0.2L682.1,194.5L682.1,194.5z
	 M680.1,193l1.9,1.1l-0.9-3.4h0L680.1,193L680.1,193z"/>
<path class="st27" d="M684.2,191.9l1.7,5.7h0l1.7-3.7l0.5,0.3v5.3l-0.4-0.2v-2.4l0-2.3l0,0l-1.7,3.7l-0.3-0.1l-1.7-5.7h0l0,2.3v2.4
	l-0.4-0.2v-5.3L684.2,191.9L684.2,191.9z"/>
<path class="st27" d="M691.9,199.1l-2.2-1.3v2.2l2.5,1.5v0.4l-2.9-1.7v-5.3l2.9,1.7v0.4l-2.5-1.5v2l2.2,1.3L691.9,199.1L691.9,199.1
	z"/>
<path class="st27" d="M696.2,199.2l-1.6-0.9v5l-0.4-0.2v-5l-1.6-0.9v-0.4l3.6,2.1L696.2,199.2L696.2,199.2z"/>
<polygon class="st26" points="560.5,130.3 540.3,118.7 540.3,117.3 560.5,128.9 "/>
<path class="st26" d="M561,221.2l-0.3-0.2v-3.9l0.3,0.2V221.2z"/>
<path class="st26" d="M562.2,220.3v1.6l-0.3-0.2v-3.9l1.2,0.7c0.4,0.2,0.6,0.5,0.8,0.8c0.2,0.3,0.3,0.6,0.3,1s-0.1,0.6-0.3,0.7
	s-0.5,0-0.8-0.2L562.2,220.3L562.2,220.3z M562.2,220.1l0.9,0.5c0.3,0.2,0.5,0.2,0.6,0.1c0.1-0.1,0.2-0.2,0.2-0.5s-0.1-0.5-0.2-0.8
	s-0.3-0.5-0.6-0.6l-0.9-0.5V220.1z"/>
<path class="st26" d="M566.8,223.7c0-0.2-0.1-0.4-0.2-0.6c-0.1-0.2-0.4-0.5-0.7-0.8c-0.4-0.3-0.7-0.6-0.8-0.9
	c-0.2-0.3-0.3-0.6-0.3-0.9s0.1-0.5,0.3-0.5s0.5,0,0.8,0.2c0.3,0.2,0.6,0.5,0.8,0.8c0.2,0.4,0.3,0.7,0.3,1l0,0l-0.3-0.1
	c0-0.3-0.1-0.5-0.2-0.8c-0.2-0.3-0.4-0.5-0.7-0.6s-0.5-0.2-0.6-0.2c-0.2,0-0.2,0.2-0.2,0.4c0,0.2,0.1,0.4,0.2,0.6
	c0.1,0.2,0.4,0.5,0.7,0.8c0.4,0.3,0.6,0.6,0.8,0.9c0.2,0.3,0.3,0.6,0.3,0.9s-0.1,0.5-0.3,0.5c-0.2,0.1-0.5,0-0.8-0.2
	c-0.3-0.2-0.6-0.5-0.9-0.8c-0.2-0.3-0.4-0.7-0.4-1.1l0,0l0.3,0.1c0,0.3,0.1,0.6,0.3,0.9s0.4,0.5,0.7,0.6c0.3,0.2,0.5,0.2,0.7,0.2
	C566.7,224,566.8,223.9,566.8,223.7L566.8,223.7z"/>
<path class="st26" d="M570.1,222.6v2.7c0,0.4-0.1,0.7-0.3,0.8c-0.2,0.1-0.5,0-0.9-0.2c-0.4-0.2-0.7-0.5-0.9-0.8
	c-0.2-0.4-0.3-0.8-0.3-1.2v-2.7l0.3,0.2v2.7c0,0.3,0.1,0.6,0.3,0.9s0.4,0.5,0.7,0.7c0.3,0.2,0.5,0.2,0.7,0.1
	c0.2-0.1,0.3-0.3,0.3-0.6v-2.7L570.1,222.6L570.1,222.6z"/>
<path class="st26" d="M571.3,223.3l1.2,4.2h0l1.2-2.7l0.4,0.2v3.9l-0.3-0.2V227l0-1.7h0l-1.3,2.7l-0.2-0.1l-1.3-4.2h0l0,1.7v1.7
	l-0.3-0.2v-3.9L571.3,223.3L571.3,223.3z"/>
<path class="st26" d="M638.4,266.3l-0.3-0.2v-3.9l0.3,0.2V266.3z"/>
<path class="st26" d="M639.7,265.4v1.6l-0.3-0.2V263l1.2,0.7c0.4,0.2,0.6,0.5,0.8,0.8c0.2,0.3,0.3,0.6,0.3,1s-0.1,0.6-0.3,0.7
	s-0.5,0-0.8-0.2L639.7,265.4L639.7,265.4z M639.7,265.1l0.9,0.5c0.3,0.2,0.5,0.2,0.6,0.1c0.1-0.1,0.2-0.2,0.2-0.5s-0.1-0.5-0.2-0.8
	s-0.3-0.5-0.6-0.6l-0.9-0.5V265.1z"/>
<path class="st26" d="M644.3,268.7c0-0.2-0.1-0.4-0.2-0.6c-0.1-0.2-0.4-0.5-0.7-0.8c-0.4-0.3-0.7-0.6-0.8-0.9
	c-0.2-0.3-0.3-0.6-0.3-0.9s0.1-0.5,0.3-0.5s0.5,0,0.8,0.2c0.3,0.2,0.6,0.5,0.8,0.8s0.3,0.7,0.3,1l0,0l-0.3-0.1
	c0-0.3-0.1-0.5-0.2-0.8c-0.2-0.3-0.4-0.5-0.7-0.6s-0.5-0.2-0.6-0.2s-0.2,0.2-0.2,0.4c0,0.2,0.1,0.4,0.2,0.6c0.1,0.2,0.4,0.5,0.7,0.8
	c0.4,0.3,0.6,0.6,0.8,0.9s0.3,0.6,0.3,0.9s-0.1,0.5-0.3,0.5c-0.2,0.1-0.5,0-0.8-0.2c-0.3-0.2-0.6-0.5-0.9-0.8
	c-0.2-0.3-0.4-0.7-0.4-1.1l0,0l0.3,0.1c0,0.3,0.1,0.6,0.3,0.9s0.4,0.5,0.7,0.6c0.3,0.2,0.5,0.2,0.7,0.2
	C644.2,269.1,644.3,268.9,644.3,268.7L644.3,268.7z"/>
<path class="st26" d="M647.6,267.7v2.7c0,0.4-0.1,0.7-0.3,0.8c-0.2,0.1-0.5,0-0.9-0.2c-0.4-0.2-0.7-0.5-0.9-0.8s-0.3-0.8-0.3-1.2
	v-2.7l0.3,0.2v2.6c0,0.3,0.1,0.6,0.3,0.9s0.4,0.5,0.7,0.7c0.3,0.2,0.5,0.2,0.7,0.1c0.2-0.1,0.3-0.3,0.3-0.6v-2.7L647.6,267.7
	L647.6,267.7z"/>
<path class="st26" d="M648.8,268.4l1.2,4.2h0l1.2-2.7l0.4,0.2v3.9l-0.3-0.2v-1.7l0-1.7h0l-1.3,2.7l-0.2-0.1l-1.3-4.2h0l0,1.7v1.7
	l-0.3-0.2v-3.9L648.8,268.4L648.8,268.4z"/>
<path class="st26" d="M584.6,235.2v-3.9l1,0.6c0.4,0.2,0.8,0.6,1,1.1c0.3,0.5,0.4,1,0.4,1.5v0.5c0,0.5-0.1,0.8-0.4,1
	c-0.3,0.2-0.6,0.1-1-0.1L584.6,235.2L584.6,235.2z M584.9,231.7v3.4l0.7,0.4c0.3,0.2,0.6,0.2,0.8,0.1c0.2-0.1,0.3-0.4,0.3-0.8v-0.5
	c0-0.4-0.1-0.8-0.3-1.2c-0.2-0.4-0.5-0.7-0.8-0.9L584.9,231.7z"/>
<path class="st26" d="M590.2,236.8c0,0.5-0.1,0.9-0.4,1c-0.2,0.2-0.6,0.1-1-0.1c-0.4-0.2-0.7-0.6-1-1c-0.2-0.5-0.4-0.9-0.4-1.4v-0.6
	c0-0.5,0.1-0.9,0.3-1s0.5-0.1,1,0.1c0.4,0.2,0.7,0.6,1,1s0.4,0.9,0.4,1.4L590.2,236.8L590.2,236.8z M589.9,236
	c0-0.4-0.1-0.8-0.3-1.2s-0.4-0.6-0.8-0.8c-0.3-0.2-0.6-0.2-0.8,0s-0.3,0.4-0.3,0.9v0.6c0,0.4,0.1,0.8,0.3,1.2s0.4,0.6,0.8,0.8
	c0.3,0.2,0.6,0.2,0.8,0.1s0.3-0.4,0.3-0.9V236L589.9,236z"/>
<path class="st26" d="M591.2,238.7l1.7,1v0.3l-2-1.1v-3.9l0.3,0.2V238.7L591.2,238.7z"/>
<path class="st26" d="M595.8,240c0,0.5-0.1,0.9-0.4,1c-0.2,0.2-0.6,0.1-1-0.1c-0.4-0.2-0.7-0.6-1-1c-0.2-0.5-0.4-0.9-0.4-1.4v-0.6
	c0-0.5,0.1-0.9,0.3-1s0.5-0.1,1,0.1c0.4,0.2,0.7,0.6,1,1s0.4,0.9,0.4,1.4L595.8,240L595.8,240z M595.5,239.2c0-0.4-0.1-0.8-0.3-1.2
	s-0.4-0.6-0.8-0.8c-0.3-0.2-0.6-0.2-0.8,0s-0.3,0.4-0.3,0.9v0.6c0,0.4,0.1,0.8,0.3,1.2s0.4,0.6,0.8,0.8c0.3,0.2,0.6,0.2,0.8,0.1
	s0.3-0.4,0.3-0.9V239.2L595.5,239.2z"/>
<path class="st26" d="M596.8,240.4v1.8l-0.3-0.2v-3.9l1.2,0.7c0.4,0.2,0.6,0.5,0.8,0.8c0.2,0.3,0.3,0.6,0.3,1c0,0.2,0,0.4-0.2,0.5
	c-0.1,0.1-0.2,0.1-0.4,0.1c0.2,0.2,0.4,0.4,0.5,0.6s0.1,0.4,0.1,0.7v0.4c0,0.1,0,0.2,0,0.4c0,0.1,0.1,0.2,0.1,0.3v0.1l-0.3-0.2
	c-0.1-0.1-0.1-0.2-0.1-0.3s0-0.3,0-0.4v-0.4c0-0.2-0.1-0.5-0.2-0.7s-0.3-0.4-0.6-0.5L596.8,240.4L596.8,240.4z M596.8,240.2l0.8,0.5
	c0.3,0.2,0.5,0.2,0.7,0.2c0.1-0.1,0.2-0.2,0.2-0.5c0-0.3-0.1-0.5-0.2-0.7s-0.3-0.4-0.6-0.6l-0.9-0.5V240.2L596.8,240.2z"/>
<path class="st26" d="M602.8,244.7c0-0.2-0.1-0.4-0.2-0.6c-0.1-0.2-0.4-0.5-0.7-0.8c-0.4-0.3-0.7-0.6-0.8-0.9
	c-0.2-0.3-0.3-0.6-0.3-0.9s0.1-0.5,0.3-0.5s0.5,0,0.8,0.2c0.3,0.2,0.6,0.5,0.8,0.8s0.3,0.7,0.3,1l0,0l-0.3-0.1
	c0-0.3-0.1-0.5-0.2-0.8c-0.2-0.3-0.4-0.5-0.7-0.6s-0.5-0.2-0.6-0.2s-0.2,0.2-0.2,0.4c0,0.2,0.1,0.4,0.2,0.6c0.1,0.2,0.4,0.5,0.7,0.8
	c0.4,0.3,0.6,0.6,0.8,0.9s0.3,0.6,0.3,0.9s-0.1,0.5-0.3,0.5c-0.2,0.1-0.5,0-0.8-0.2c-0.3-0.2-0.6-0.5-0.9-0.8
	c-0.2-0.3-0.4-0.7-0.4-1.1l0,0l0.3,0.1c0,0.3,0.1,0.6,0.3,0.9s0.4,0.5,0.7,0.6c0.3,0.2,0.5,0.2,0.7,0.2
	C602.7,245,602.8,244.9,602.8,244.7L602.8,244.7z"/>
<path class="st26" d="M604,246.4l-0.3-0.2v-3.9l0.3,0.2V246.4z"/>
<path class="st26" d="M607.2,244.6l-1.2-0.7v3.6l-0.3-0.2v-3.6l-1.2-0.7v-0.3l2.6,1.5V244.6L607.2,244.6z"/>
<path class="st26" d="M683.1,292v-3.9l1,0.6c0.4,0.2,0.8,0.6,1,1.1c0.3,0.5,0.4,1,0.4,1.5v0.5c0,0.5-0.1,0.8-0.4,1
	c-0.3,0.2-0.6,0.1-1-0.1L683.1,292L683.1,292z M683.4,288.6v3.4l0.7,0.4c0.3,0.2,0.6,0.2,0.8,0.1c0.2-0.1,0.3-0.4,0.3-0.8v-0.5
	c0-0.4-0.1-0.8-0.3-1.2c-0.2-0.4-0.5-0.7-0.8-0.9L683.4,288.6z"/>
<path class="st26" d="M688.8,293.6c0,0.5-0.1,0.9-0.4,1c-0.2,0.2-0.6,0.1-1-0.1c-0.4-0.2-0.7-0.6-1-1c-0.2-0.5-0.4-0.9-0.4-1.4v-0.6
	c0-0.5,0.1-0.8,0.3-1s0.5-0.1,1,0.1c0.4,0.2,0.7,0.6,1,1s0.4,0.9,0.4,1.4L688.8,293.6L688.8,293.6z M688.5,292.9
	c0-0.4-0.1-0.8-0.3-1.2s-0.4-0.6-0.8-0.8c-0.3-0.2-0.6-0.2-0.8,0s-0.3,0.4-0.3,0.9v0.6c0,0.4,0.1,0.8,0.3,1.2
	c0.2,0.4,0.4,0.6,0.8,0.8c0.3,0.2,0.6,0.2,0.8,0.1s0.3-0.4,0.3-0.9V292.9L688.5,292.9z"/>
<path class="st26" d="M689.8,295.6l1.7,1v0.3l-2-1.1v-3.9l0.3,0.2V295.6L689.8,295.6z"/>
<path class="st26" d="M694.3,296.9c0,0.5-0.1,0.9-0.4,1c-0.2,0.2-0.6,0.1-1-0.1c-0.4-0.2-0.7-0.6-1-1c-0.2-0.5-0.4-0.9-0.4-1.4v-0.6
	c0-0.5,0.1-0.8,0.3-1c0.2-0.2,0.5-0.1,1,0.1c0.4,0.2,0.7,0.6,1,1s0.4,0.9,0.4,1.4L694.3,296.9L694.3,296.9z M694,296.1
	c0-0.4-0.1-0.8-0.3-1.2s-0.4-0.6-0.8-0.8c-0.3-0.2-0.6-0.2-0.8,0c-0.2,0.1-0.3,0.4-0.3,0.9v0.6c0,0.4,0.1,0.8,0.3,1.2
	c0.2,0.4,0.4,0.6,0.8,0.8c0.3,0.2,0.6,0.2,0.8,0.1s0.3-0.4,0.3-0.9V296.1L694,296.1z"/>
<path class="st26" d="M695.3,297.3v1.8l-0.3-0.2V295l1.2,0.7c0.4,0.2,0.6,0.5,0.8,0.8s0.3,0.6,0.3,1c0,0.2,0,0.4-0.2,0.5
	c-0.1,0.1-0.2,0.1-0.4,0.1c0.2,0.2,0.4,0.4,0.5,0.6s0.1,0.4,0.1,0.7v0.4c0,0.1,0,0.2,0,0.4c0,0.1,0.1,0.2,0.1,0.3v0.1l-0.3-0.2
	c-0.1-0.1-0.1-0.2-0.1-0.3s0-0.3,0-0.4v-0.4c0-0.2-0.1-0.5-0.2-0.7s-0.3-0.4-0.6-0.5L695.3,297.3z M695.3,297l0.8,0.5
	c0.3,0.2,0.5,0.2,0.7,0.2c0.1-0.1,0.2-0.2,0.2-0.5c0-0.3-0.1-0.5-0.2-0.7s-0.3-0.4-0.6-0.6l-0.9-0.5V297L695.3,297z"/>
<path class="st26" d="M701.3,301.6c0-0.2-0.1-0.4-0.2-0.6c-0.1-0.2-0.4-0.5-0.7-0.8c-0.4-0.3-0.7-0.6-0.8-0.9
	c-0.2-0.3-0.3-0.6-0.3-0.9s0.1-0.5,0.3-0.5s0.5,0,0.8,0.2c0.3,0.2,0.6,0.5,0.8,0.8c0.2,0.4,0.3,0.7,0.3,1l0,0l-0.3-0.1
	c0-0.3-0.1-0.5-0.2-0.8c-0.2-0.3-0.4-0.5-0.7-0.6s-0.5-0.2-0.6-0.2c-0.2,0-0.2,0.2-0.2,0.4c0,0.2,0.1,0.4,0.2,0.6
	c0.1,0.2,0.4,0.5,0.7,0.8c0.4,0.3,0.6,0.6,0.8,0.9c0.2,0.3,0.3,0.6,0.3,0.9s-0.1,0.5-0.3,0.5c-0.2,0.1-0.5,0-0.8-0.2
	c-0.3-0.2-0.6-0.5-0.9-0.8c-0.2-0.3-0.4-0.7-0.4-1.1l0,0l0.3,0.1c0,0.3,0.1,0.6,0.3,0.9s0.4,0.5,0.7,0.6c0.3,0.2,0.5,0.2,0.7,0.2
	C701.2,301.9,701.3,301.8,701.3,301.6L701.3,301.6z"/>
<path class="st26" d="M702.6,303.3l-0.3-0.2v-3.9l0.3,0.2V303.3z"/>
<path class="st26" d="M705.7,301.5l-1.2-0.7v3.6l-0.3-0.2v-3.6l-1.2-0.7v-0.3l2.6,1.5V301.5L705.7,301.5z"/>
<path class="st26" d="M618.6,254l-1.6-0.9l-0.3,0.9l-0.3-0.2l1.3-3.2l0.3,0.1l1.3,4.7l-0.3-0.2L618.6,254L618.6,254z M617.2,252.8
	l1.4,0.8l-0.7-2.5h0L617.2,252.8z"/>
<path class="st26" d="M620.2,252l1.2,4.2h0l1.2-2.7l0.4,0.2v3.9l-0.3-0.2v-1.7l0-1.7h0l-1.3,2.7l-0.2-0.1l-1.3-4.2h0l0,1.7v1.7
	l-0.3-0.2v-3.9L620.2,252L620.2,252z"/>
<path class="st26" d="M625.8,257.3l-1.6-0.9v1.6l1.9,1.1v0.3l-2.2-1.2v-3.9l2.1,1.2v0.3l-1.9-1.1v1.5l1.6,0.9V257.3L625.8,257.3z"/>
<path class="st26" d="M629,257.4l-1.2-0.7v3.6l-0.3-0.2v-3.6l-1.2-0.7v-0.3l2.6,1.5V257.4L629,257.4z"/>
<path class="st26" d="M664.1,280.2l-1.6-0.9l-0.3,0.9l-0.3-0.2l1.3-3.2l0.3,0.1l1.3,4.7l-0.3-0.2L664.1,280.2L664.1,280.2z
	 M662.6,279.1l1.4,0.8l-0.7-2.5h0L662.6,279.1z"/>
<path class="st26" d="M665.6,278.2l1.2,4.2h0l1.2-2.7l0.4,0.2v3.9l-0.3-0.2v-1.7l0-1.7h0l-1.3,2.7l-0.2-0.1l-1.3-4.2h0l0,1.7v1.7
	l-0.3-0.2V278L665.6,278.2L665.6,278.2z"/>
<path class="st26" d="M671.3,283.5l-1.6-0.9v1.6l1.9,1.1v0.3l-2.2-1.2v-3.9l2.1,1.2v0.3l-1.9-1.1v1.5l1.6,0.9V283.5L671.3,283.5z"/>
<path class="st26" d="M674.4,283.6l-1.2-0.7v3.6l-0.3-0.2v-3.6l-1.2-0.7v-0.3l2.6,1.5V283.6L674.4,283.6z"/>
<polygon class="st28" points="779.4,208.7 776.9,207.2 776.9,204.2 779.4,205.7 "/>
<polygon class="st28" points="785.3,211.9 782.7,210.4 782.7,207.4 785.3,208.9 "/>
<polygon class="st28" points="773.9,205.5 764.7,200.1 764.7,197.2 773.9,202.5 "/>
<polygon class="st29" points="717.7,273.6 733.4,274.6 746.8,286.7 747.1,285.5 733.3,273.1 717.6,272 702.4,258.6 686,252.1 
	669.6,228 654.7,209.6 638.6,209.5 622.9,216.9 607.5,198.8 591,194.6 576.2,173.3 559.9,156.2 547,146.4 546.8,147.7 559.7,157.4 
	575.7,174.3 590.8,196 607.3,200.2 623.1,218.7 639.4,211.1 654.6,211.1 668.9,228.9 685.6,253.4 702.3,260 "/>
<path class="st29" d="M731.8,272.9c0,1.2,0.9,2.7,1.9,3.3c1.1,0.6,1.9,0.1,1.9-1.1s-0.9-2.7-1.9-3.3
	C732.7,271.2,731.8,271.7,731.8,272.9z"/>
<path class="st29" d="M731.2,272.5c0-1.6,1.1-2.3,2.5-1.5c1.4,0.8,2.5,2.8,2.5,4.4s-1.1,2.3-2.5,1.5
	C732.4,276.1,731.2,274.1,731.2,272.5z M732.4,273.2c0,0.8,0.6,1.9,1.3,2.3s1.3,0.1,1.3-0.8s-0.6-1.9-1.3-2.3
	S732.4,272.4,732.4,273.2z"/>
<path class="st29" d="M715.9,271.6c0,1.2,0.9,2.7,1.9,3.3c1.1,0.6,1.9,0.1,1.9-1.1s-0.9-2.7-1.9-3.3
	C716.7,269.9,715.9,270.4,715.9,271.6z"/>
<path class="st29" d="M715.2,271.2c0-1.6,1.1-2.3,2.5-1.5c1.4,0.8,2.5,2.8,2.5,4.4s-1.1,2.3-2.5,1.5
	C716.4,274.8,715.2,272.9,715.2,271.2z M716.5,271.9c0,0.8,0.6,1.9,1.3,2.3s1.3,0.1,1.3-0.8s-0.6-1.9-1.3-2.3
	S716.5,271.1,716.5,271.9z"/>
<path class="st29" d="M699.9,257.7c0,1.2,0.9,2.7,1.9,3.3c1.1,0.6,1.9,0.1,1.9-1.1s-0.9-2.7-1.9-3.3
	C700.8,256,699.9,256.5,699.9,257.7z"/>
<path class="st29" d="M699.3,257.4c0-1.6,1.1-2.3,2.5-1.5c1.4,0.8,2.5,2.8,2.5,4.4s-1.1,2.3-2.5,1.5
	C700.5,260.9,699.3,259,699.3,257.4z M700.5,258.1c0,0.8,0.6,1.9,1.3,2.3s1.3,0.1,1.3-0.8s-0.6-1.9-1.3-2.3S700.5,257.2,700.5,258.1
	z"/>
<path class="st29" d="M684,251.5c0,1.2,0.9,2.7,1.9,3.3c1.1,0.6,1.9,0.1,1.9-1.1s-0.9-2.7-1.9-3.3C684.9,249.8,684,250.3,684,251.5z
	"/>
<path class="st29" d="M683.4,251.2c0-1.6,1.1-2.3,2.5-1.5s2.5,2.8,2.5,4.4s-1.1,2.3-2.5,1.5S683.4,252.8,683.4,251.2z M684.6,251.9
	c0,0.8,0.6,1.9,1.3,2.3s1.3,0.1,1.3-0.8s-0.6-1.9-1.3-2.3S684.6,251,684.6,251.9z"/>
<path class="st29" d="M667.8,227.8c0,1.2,0.9,2.7,1.9,3.3c1.1,0.6,1.9,0.1,1.9-1.1s-0.9-2.7-1.9-3.3
	C668.7,226.1,667.8,226.6,667.8,227.8z"/>
<path class="st29" d="M667.2,227.5c0-1.6,1.1-2.3,2.5-1.5c1.4,0.8,2.5,2.8,2.5,4.4s-1.1,2.3-2.5,1.5
	C668.3,231,667.2,229.1,667.2,227.5z M668.4,228.2c0,0.8,0.6,1.9,1.3,2.3s1.3,0.1,1.3-0.8s-0.6-1.9-1.3-2.3S668.4,227.3,668.4,228.2
	z"/>
<path class="st29" d="M652.7,209.2c0,1.2,0.9,2.7,1.9,3.3c1.1,0.6,1.9,0.1,1.9-1.1s-0.9-2.7-1.9-3.3
	C653.6,207.5,652.7,208,652.7,209.2z"/>
<path class="st29" d="M652.1,208.9c0-1.6,1.1-2.3,2.5-1.5c1.4,0.8,2.5,2.8,2.5,4.4s-1.1,2.3-2.5,1.5
	C653.3,212.5,652.1,210.5,652.1,208.9z M653.3,209.6c0,0.8,0.6,1.9,1.3,2.3s1.3,0.1,1.3-0.8s-0.6-1.9-1.3-2.3
	S653.3,208.7,653.3,209.6z"/>
<path class="st29" d="M636.8,208.6c0,1.2,0.9,2.7,1.9,3.3c1.1,0.6,1.9,0.1,1.9-1.1s-0.9-2.7-1.9-3.3S636.8,207.4,636.8,208.6z"/>
<path class="st29" d="M636.2,208.3c0-1.6,1.1-2.3,2.5-1.5c1.4,0.8,2.5,2.8,2.5,4.4s-1.1,2.3-2.5,1.5
	C637.3,211.9,636.2,209.9,636.2,208.3z M637.4,209c0,0.8,0.6,1.9,1.3,2.3s1.3,0.1,1.3-0.8s-0.6-1.9-1.3-2.3S637.4,208.1,637.4,209z"
	/>
<path class="st29" d="M621.4,217.1c0,1.2,0.9,2.7,1.9,3.3c1.1,0.6,1.9,0.1,1.9-1.1s-0.9-2.7-1.9-3.3
	C622.2,215.4,621.4,215.9,621.4,217.1z"/>
<path class="st29" d="M620.8,216.7c0-1.6,1.1-2.3,2.5-1.5c1.4,0.8,2.5,2.8,2.5,4.4s-1.1,2.3-2.5,1.5
	C621.9,220.3,620.8,218.4,620.8,216.7z M622,217.4c0,0.8,0.6,1.9,1.3,2.3s1.3,0.1,1.3-0.8s-0.6-1.9-1.3-2.3S622,216.6,622,217.4z"/>
<path class="st29" d="M605.3,198.1c0,1.2,0.9,2.7,1.9,3.3c1.1,0.6,1.9,0.1,1.9-1.1s-0.9-2.7-1.9-3.3
	C606.2,196.3,605.3,196.8,605.3,198.1z"/>
<path class="st29" d="M604.7,197.7c0-1.6,1.1-2.3,2.5-1.5s2.5,2.8,2.5,4.4s-1.1,2.3-2.5,1.5S604.7,199.3,604.7,197.7z M605.9,198.4
	c0,0.8,0.6,1.9,1.3,2.3s1.3,0.1,1.3-0.8s-0.6-1.9-1.3-2.3S605.9,197.6,605.9,198.4z"/>
<path class="st29" d="M589,194.1c0,1.2,0.9,2.7,1.9,3.3c1.1,0.6,1.9,0.1,1.9-1.1s-0.9-2.7-1.9-3.3C589.9,192.3,589,192.8,589,194.1z
	"/>
<path class="st29" d="M588.4,193.7c0-1.6,1.1-2.3,2.5-1.5c1.4,0.8,2.5,2.8,2.5,4.4s-1.1,2.3-2.5,1.5
	C589.5,197.3,588.4,195.3,588.4,193.7z M589.6,194.4c0,0.8,0.6,1.9,1.3,2.3s1.3,0.1,1.3-0.8s-0.6-1.9-1.3-2.3
	S589.6,193.6,589.6,194.4z"/>
<path class="st29" d="M573.8,172.6c0,1.2,0.9,2.7,1.9,3.3c1.1,0.6,1.9,0.1,1.9-1.1s-0.9-2.7-1.9-3.3
	C574.6,170.9,573.8,171.4,573.8,172.6z"/>
<path class="st29" d="M573.1,172.2c0-1.6,1.1-2.3,2.5-1.5c1.4,0.8,2.5,2.8,2.5,4.4s-1.1,2.3-2.5,1.5
	C574.3,175.8,573.1,173.9,573.1,172.2z M574.4,172.9c0,0.8,0.6,1.9,1.3,2.3s1.3,0.1,1.3-0.8s-0.6-1.9-1.3-2.3
	S574.4,172.1,574.4,172.9z"/>
<path class="st29" d="M557.8,156c0,1.2,0.9,2.7,1.9,3.3s1.9,0.1,1.9-1.1s-0.9-2.7-1.9-3.3C558.7,154.2,557.8,154.7,557.8,156z"/>
<path class="st29" d="M557.2,155.6c0-1.6,1.1-2.3,2.5-1.5c1.4,0.8,2.5,2.8,2.5,4.4s-1.1,2.3-2.5,1.5
	C558.4,159.2,557.2,157.2,557.2,155.6z M558.4,156.3c0,0.8,0.6,1.9,1.3,2.3s1.3,0.1,1.3-0.8s-0.6-1.9-1.3-2.3
	S558.4,155.5,558.4,156.3z"/>
<polygon class="st30" points="714.5,276 730.2,277.1 743.6,289.1 743.9,287.9 730.1,275.5 714.4,274.4 699.2,261 682.8,254.5 
	666.4,230.4 651.5,212 635.5,212 619.7,219.3 604.3,201.2 587.9,197 573,175.8 556.8,158.6 543.9,148.9 543.7,150.1 556.5,159.9 
	572.5,176.7 587.6,198.4 604.2,202.6 619.9,221.1 636.2,213.5 651.5,213.5 665.8,231.3 682.5,255.8 699.2,262.4 "/>
<path class="st4" d="M728.7,275.3c0,1.2,0.9,2.7,1.9,3.3c1.1,0.6,1.9,0.1,1.9-1.1s-0.9-2.7-1.9-3.3
	C729.5,273.6,728.7,274.1,728.7,275.3z"/>
<path class="st31" d="M728.1,275c0-1.6,1.1-2.3,2.5-1.5c1.4,0.8,2.5,2.8,2.5,4.4s-1.1,2.3-2.5,1.5
	C729.2,278.5,728.1,276.6,728.1,275z M729.3,275.7c0,0.8,0.6,1.9,1.3,2.3s1.3,0.1,1.3-0.8s-0.6-1.9-1.3-2.3S729.3,274.8,729.3,275.7
	z"/>
<path class="st4" d="M712.7,274c0,1.2,0.9,2.7,1.9,3.3c1.1,0.6,1.9,0.1,1.9-1.1s-0.9-2.7-1.9-3.3C713.6,272.3,712.7,272.8,712.7,274
	z"/>
<path class="st31" d="M712.1,273.6c0-1.6,1.1-2.3,2.5-1.5c1.4,0.8,2.5,2.8,2.5,4.4s-1.1,2.3-2.5,1.5
	C713.2,277.2,712.1,275.3,712.1,273.6z M713.3,274.4c0,0.8,0.6,1.9,1.3,2.3s1.3,0.1,1.3-0.8s-0.6-1.9-1.3-2.3
	S713.3,273.5,713.3,274.4z"/>
<path class="st4" d="M696.8,260.1c0,1.2,0.9,2.7,1.9,3.3c1.1,0.6,1.9,0.1,1.9-1.1s-0.9-2.7-1.9-3.3
	C697.6,258.4,696.8,258.9,696.8,260.1z"/>
<path class="st31" d="M696.2,259.8c0-1.6,1.1-2.3,2.5-1.5c1.4,0.8,2.5,2.8,2.5,4.4s-1.1,2.3-2.5,1.5
	C697.3,263.4,696.2,261.4,696.2,259.8z M697.4,260.5c0,0.8,0.6,1.9,1.3,2.3s1.3,0.1,1.3-0.8s-0.6-1.9-1.3-2.3
	S697.4,259.6,697.4,260.5z"/>
<path class="st4" d="M680.9,253.9c0,1.2,0.9,2.7,1.9,3.3c1.1,0.6,1.9,0.1,1.9-1.1s-0.9-2.7-1.9-3.3
	C681.7,252.2,680.9,252.7,680.9,253.9z"/>
<path class="st31" d="M680.3,253.6c0-1.6,1.1-2.3,2.5-1.5c1.4,0.8,2.5,2.8,2.5,4.4s-1.1,2.3-2.5,1.5
	C681.4,257.2,680.3,255.2,680.3,253.6z M681.5,254.3c0,0.8,0.6,1.9,1.3,2.3s1.3,0.1,1.3-0.8s-0.6-1.9-1.3-2.3
	S681.5,253.5,681.5,254.3z"/>
<path class="st4" d="M664.7,230.2c0,1.2,0.9,2.7,1.9,3.3c1.1,0.6,1.9,0.1,1.9-1.1s-0.9-2.7-1.9-3.3
	C665.5,228.5,664.7,229,664.7,230.2z"/>
<path class="st31" d="M664,229.9c0-1.6,1.1-2.3,2.5-1.5c1.4,0.8,2.5,2.8,2.5,4.4s-1.1,2.3-2.5,1.5C665.2,233.5,664,231.5,664,229.9z
	 M665.3,230.6c0,0.8,0.6,1.9,1.3,2.3s1.3,0.1,1.3-0.8s-0.6-1.9-1.3-2.3S665.3,229.7,665.3,230.6z"/>
<path class="st4" d="M649.6,211.6c0,1.2,0.9,2.7,1.9,3.3c1.1,0.6,1.9,0.1,1.9-1.1s-0.9-2.7-1.9-3.3
	C650.4,209.9,649.6,210.4,649.6,211.6z"/>
<path class="st31" d="M649,211.3c0-1.6,1.1-2.3,2.5-1.5c1.4,0.8,2.5,2.8,2.5,4.4s-1.1,2.3-2.5,1.5C650.1,214.9,649,212.9,649,211.3z
	 M650.2,212c0,0.8,0.6,1.9,1.3,2.3s1.3,0.1,1.3-0.8s-0.6-1.9-1.3-2.3S650.2,211.2,650.2,212z"/>
<path class="st4" d="M633.6,211c0,1.2,0.9,2.7,1.9,3.3c1.1,0.6,1.9,0.1,1.9-1.1s-0.9-2.7-1.9-3.3C634.5,209.3,633.6,209.8,633.6,211
	z"/>
<path class="st31" d="M633,210.7c0-1.6,1.1-2.3,2.5-1.5c1.4,0.8,2.5,2.8,2.5,4.4s-1.1,2.3-2.5,1.5C634.2,214.3,633,212.3,633,210.7z
	 M634.2,211.4c0,0.8,0.6,1.9,1.3,2.3s1.3,0.1,1.3-0.8s-0.6-1.9-1.3-2.3S634.2,210.6,634.2,211.4z"/>
<path class="st4" d="M618.2,219.5c0,1.2,0.9,2.7,1.9,3.3c1.1,0.6,1.9,0.1,1.9-1.1s-0.9-2.7-1.9-3.3
	C619.1,217.8,618.2,218.3,618.2,219.5z"/>
<path class="st31" d="M617.6,219.1c0-1.6,1.1-2.3,2.5-1.5c1.4,0.8,2.5,2.8,2.5,4.4s-1.1,2.3-2.5,1.5
	C618.7,222.7,617.6,220.8,617.6,219.1z M618.8,219.9c0,0.8,0.6,1.9,1.3,2.3s1.3,0.1,1.3-0.8s-0.6-1.9-1.3-2.3S618.8,219,618.8,219.9
	z"/>
<path class="st4" d="M602.2,200.5c0,1.2,0.9,2.7,1.9,3.3c1.1,0.6,1.9,0.1,1.9-1.1s-0.9-2.7-1.9-3.3
	C603,198.8,602.2,199.3,602.2,200.5z"/>
<path class="st31" d="M601.6,200.1c0-1.6,1.1-2.3,2.5-1.5c1.4,0.8,2.5,2.8,2.5,4.4s-1.1,2.3-2.5,1.5
	C602.7,203.7,601.6,201.8,601.6,200.1z M602.8,200.8c0,0.8,0.6,1.9,1.3,2.3s1.3,0.1,1.3-0.8s-0.6-1.9-1.3-2.3S602.8,200,602.8,200.8
	z"/>
<path class="st4" d="M585.8,196.5c0,1.2,0.9,2.7,1.9,3.3c1.1,0.6,1.9,0.1,1.9-1.1s-0.9-2.7-1.9-3.3
	C586.7,194.7,585.8,195.2,585.8,196.5z"/>
<path class="st31" d="M585.2,196.1c0-1.6,1.1-2.3,2.5-1.5c1.4,0.8,2.5,2.8,2.5,4.4s-1.1,2.3-2.5,1.5
	C586.4,199.7,585.2,197.7,585.2,196.1z M586.5,196.8c0,0.8,0.6,1.9,1.3,2.3s1.3,0.1,1.3-0.8s-0.6-1.9-1.3-2.3S586.5,196,586.5,196.8
	z"/>
<path class="st4" d="M570.6,175c0,1.2,0.9,2.7,1.9,3.3c1.1,0.6,1.9,0.1,1.9-1.1s-0.9-2.7-1.9-3.3C571.5,173.3,570.6,173.8,570.6,175
	z"/>
<path class="st31" d="M570,174.6c0-1.6,1.1-2.3,2.5-1.5c1.4,0.8,2.5,2.8,2.5,4.4s-1.1,2.3-2.5,1.5C571.1,178.2,570,176.3,570,174.6z
	 M571.2,175.4c0,0.8,0.6,1.9,1.3,2.3s1.3,0.1,1.3-0.8s-0.6-1.9-1.3-2.3S571.2,174.5,571.2,175.4z"/>
<path class="st4" d="M554.7,158.4c0,1.2,0.9,2.7,1.9,3.3c1.1,0.6,1.9,0.1,1.9-1.1s-0.9-2.7-1.9-3.3
	C555.5,156.7,554.7,157.2,554.7,158.4z"/>
<path class="st31" d="M554.1,158c0-1.6,1.1-2.3,2.5-1.5c1.4,0.8,2.5,2.8,2.5,4.4s-1.1,2.3-2.5,1.5
	C555.2,161.6,554.1,159.6,554.1,158z M555.3,158.7c0,0.8,0.6,1.9,1.3,2.3s1.3,0.1,1.3-0.8s-0.6-1.9-1.3-2.3S555.3,157.9,555.3,158.7
	z"/>
<path class="st19" d="M796.2,206L513.1,42.6c-2.1-1.2-4.8,0.3-4.8,2.8v206.2c0,2.5,1.3,4.8,3.5,6l285.6,164.9
	c1.5,0.9,3.3-0.2,3.3-1.9V213.9C800.8,210.7,799,207.6,796.2,206L796.2,206z M798.9,420.5c0,0.2-0.2,0.4-0.4,0.4c-0.1,0-0.1,0-0.2,0
	L512.7,255.9c-1.6-0.9-2.5-2.6-2.5-4.4V45.3c0-0.8,0.7-1.3,1.3-1.3c0.2,0,0.5,0.1,0.7,0.2l283.1,163.4c2.2,1.3,3.6,3.7,3.6,6.3
	L798.9,420.5L798.9,420.5z"/>
<path class="st32" d="M818.1,458.8h-20.3v8.8L504.3,298.1l-13.4-8L297.1,402v-3.8h-20.8v15.9h0c0,2.8,1.6,5.5,5,7.4l300.8,173.7
	c7.5,4.3,20.6,3.8,29.2-1.2l200.5-116.2c3.8-2.2,6.1-6.2,6.1-10.6L818.1,458.8L818.1,458.8z"/>
<path class="st33" d="M818.1,458.8L504.3,277.5l-13.4-8L283.5,389.3c-8.6,5-9.6,12.5-2.1,16.9l300.8,173.7
	c7.5,4.3,20.6,3.8,29.2-1.2L818.1,458.8z"/>
<path class="st34" d="M698.3,404.9l-141.6-81.7c-2.5-1.4-2.2-4,0.7-5.6l8.1-4.9l150.6,87l-8.1,4.9
	C705.1,406.2,700.8,406.4,698.3,404.9z"/>
<path class="st35" d="M490.4,505.4l-84.2-48.6c-2.5-1.4-2.2-4,0.7-5.6L454,424c2.9-1.7,7.2-1.8,9.7-0.4l84.2,48.6
	c2.5,1.4,2.2,4-0.7,5.6L500.1,505C497.2,506.7,492.9,506.9,490.4,505.4z"/>
<path class="st36" d="M406.2,454.7L454,427c2.7-1.5,7-1.5,9.7,0l83.6,48.2c0.7,0.4,1.2,0.8,1.5,1.3c1.3-1.5,0.9-3.3-1.2-4.6
	L464,423.8c-2.7-1.5-7-1.5-9.7,0l-47.8,27.6c-2,1.2-2.5,2.9-1.5,4.3C405.3,455.3,405.7,455,406.2,454.7L406.2,454.7z"/>
<path class="st37" d="M652.4,515.4L388.9,363.2c-2.5-1.4-2.2-4,0.7-5.6l93.2-53.8c2.9-1.7,7.2-1.9,9.7-0.4l263.5,152.2
	c2.5,1.4,2.2,4-0.7,5.6L662.2,515C659.3,516.7,654.9,516.9,652.4,515.4L652.4,515.4z"/>
<path class="st38" d="M492.8,309.2L755.7,461c2.7-1.5,2.7-4.1,0-5.6L492.8,303.6c-2.7-1.5-7-1.5-9.7,0l-93.9,54.2
	c-2.7,1.5-2.7,4.1,0,5.6l93.9-54.2C485.8,307.7,490.2,307.7,492.8,309.2L492.8,309.2z"/>
<polygon class="st39" points="599.6,390.5 479.2,321 479.2,318.8 488.9,315.4 609.3,382.7 609.3,384.9 "/>
<polygon class="st39" points="460.9,354 441.4,342.8 441.4,340.6 451.2,337.2 470.6,346.2 470.6,348.4 "/>
<polygon class="st39" points="695.7,489.6 475.4,362.4 475.5,360.2 485.2,356.8 705.4,481.8 705.4,484 "/>
<polygon class="st39" points="643.2,481.1 422.5,353.7 422.6,351.5 432.3,348.1 652.9,473.3 652.9,475.5 "/>
<polygon class="st39" points="676.8,500.5 658.2,489.7 658.2,487.6 667.9,484.1 686.5,492.7 686.5,494.9 "/>
<polygon class="st39" points="421.5,374.9 403.7,364.6 403.7,362.4 413.3,359 431.2,367.1 431.2,369.3 "/>
<polygon class="st39" points="447.4,389.9 429.6,379.6 429.6,377.4 439.3,374 457.1,382.1 457.1,384.3 "/>
<polygon class="st39" points="599.4,477.6 458.1,396.1 458.2,393.9 467.8,390.5 609.1,469.8 609.1,472 "/>
<polygon class="st39" points="666.5,429.1 613.1,398.3 613.1,396.1 622.8,392.6 676.2,421.3 676.2,423.5 "/>
<polygon class="st39" points="733.5,467.8 680,436.9 680,434.7 689.7,431.3 743.2,460 743.2,462.2 "/>
<polygon class="st39" points="657.9,511.4 612,484.9 612,482.7 621.7,479.3 667.6,503.6 667.6,505.8 "/>
<polygon class="st39" points="637.4,422.9 627.7,426.3 627.7,428.5 714.6,478.7 724.3,473.1 724.3,470.9 "/>
<polygon class="st39" points="623.8,415.1 623.8,412.9 470.3,326.4 460.6,329.9 460.6,332 614.1,420.7 "/>
<polygon class="st20" points="599.6,388.3 479.2,318.8 488.9,313.2 609.3,382.7 "/>
<polygon class="st20" points="460.9,351.8 441.4,340.6 451.2,335 470.6,346.2 "/>
<polygon class="st20" points="695.7,487.4 475.4,360.2 485.2,354.6 705.4,481.8 "/>
<polygon class="st20" points="643.2,478.9 422.5,351.5 432.3,345.9 652.9,473.3 "/>
<polygon class="st20" points="676.8,498.3 658.2,487.5 667.9,481.9 686.5,492.7 "/>
<polygon class="st20" points="421.5,372.7 403.7,362.4 413.4,356.8 431.2,367.1 "/>
<polygon class="st20" points="447.4,387.7 429.6,377.4 439.3,371.8 457.1,382.1 "/>
<polygon class="st20" points="599.4,475.4 458.1,393.9 467.8,388.3 609.1,469.8 "/>
<polygon class="st20" points="666.5,426.9 613.1,396.1 622.8,390.5 676.2,421.3 "/>
<polygon class="st20" points="733.5,465.6 680,434.7 689.7,429.1 743.2,460 "/>
<polygon class="st20" points="657.9,509.2 612,482.7 621.7,477.1 667.6,503.6 "/>
<polygon class="st20" points="637.4,420.7 627.7,426.3 714.6,476.5 724.3,470.9 "/>
<polygon class="st20" points="623.8,412.9 470.3,324.2 460.6,329.9 614.1,418.5 "/>
<polygon class="st40" points="673.7,553.8 660.3,561.6 660.3,554.8 673.7,547 "/>
<polygon class="st41" points="671.4,548.4 671.4,552.9 660.3,559.4 660.3,561.6 673.7,553.8 673.7,547 "/>
<polygon class="st40" points="652.8,565.5 639.3,573.3 639.3,566.5 652.8,558.7 "/>
<polygon class="st41" points="650.5,560.1 650.5,564.6 639.3,571 639.3,573.3 652.8,565.5 652.8,558.7 "/>
<path class="st40" d="M810.7,472.6c-1,1.6-3.3,3-5.2,3s-2.7-1.3-1.7-3s3.3-3,5.2-3S811.7,471,810.7,472.6z"/>
<path class="st41" d="M809.3,469.7c0.4,0.5,0.4,1.3-0.1,2.2c-1,1.6-3.3,3-5.2,3c-0.1,0-0.2,0-0.3,0c0.3,0.5,1,0.7,1.8,0.7
	c1.9,0,4.2-1.3,5.2-3C811.6,471.1,811,469.8,809.3,469.7L809.3,469.7z"/>
<path class="st42" d="M715.6,399.5l-7.6,4.5c-2.9,1.7-7.2,1.9-9.7,0.4l-141.6-81.7c-0.9-0.5-1.4-1.1-1.6-1.8c0,0.9,0.5,1.7,1.7,2.4
	l141.6,81.7c2.5,1.4,6.9,1.3,9.7-0.4l8.1-4.8L715.6,399.5L715.6,399.5z"/>
<path class="st43" d="M803.7,193.8L505.3,21.5c-4.6-2.7-8.7-2.5-11.4-0.1c2.6-1.5,6.2-1.3,10.1,1l298.4,172.3
	c7.9,4.6,14.4,15.8,14.4,24.9v238.5l1.2,0.7V218.6C818.1,209.5,811.6,198.3,803.7,193.8L803.7,193.8z"/>
<path class="st44" d="M611.4,576.8c-8.7,5-21.7,5.5-29.2,1.2L281.4,404.3c-3-1.8-4.7-4-5-6.5c-0.5,3.1,1.2,6.1,5,8.3l300.8,173.7
	c7.5,4.3,20.6,3.8,29.2-1.2l206.7-119.8l-1.6-0.9L611.4,576.8L611.4,576.8z"/>
<ellipse class="st4" cx="693.4" cy="644.1" rx="89.3" ry="51.5"/>
<ellipse class="st45" cx="693.4" cy="642.3" rx="83.3" ry="47.2"/>
<ellipse class="st46" cx="693.4" cy="643.6" rx="51.4" ry="29.7"/>
<path class="st47" d="M732.3,522.7c-21.5-12.4-56.3-12.4-77.8,0s-21.5,32.5,0,44.9c21.5,12.4,56.3,12.4,77.8,0
	S753.8,535.1,732.3,522.7z M727.1,564.6c-18.6,10.8-48.8,10.8-67.4,0c-18.6-10.8-18.6-28.2,0-38.9s48.8-10.7,67.4,0
	C745.7,536.5,745.7,553.9,727.1,564.6z"/>
<ellipse class="st48" cx="693.4" cy="545.2" rx="49.2" ry="28.4"/>
<path class="st49" d="M732.3,567.6c-21.5,12.4-56.3,12.4-77.8,0c-9.7-5.6-15-12.8-16-20.1h0c0,0,4.6,50.9,19.9,90.7h69.9
	c14.5-37.5,19.3-85,19.8-90.2C747.1,555.1,741.8,562.1,732.3,567.6L732.3,567.6z"/>
<ellipse class="st48" cx="693.4" cy="635.4" rx="35.2" ry="20.3"/>
<path class="st50" d="M748.3,542c0.7,9-4.7,18.2-16.1,25c-21.5,13-56.4,13-77.9,0c-9.4-5.7-14.7-12.9-15.9-20.3
	c0.6,8,6,15.8,16.1,21.9c21.5,13,56.4,13,77.9,0C744.5,561.3,749.8,551.5,748.3,542z"/>
<path class="st51" d="M719.1,647c-14.2,8.2-37.2,8.2-51.4,0c-4.5-2.6-7.6-5.7-9.2-9c1,4.3,4.3,8.5,10,11.8c13.8,8,36.1,8,49.8,0
	c5.8-3.3,9.1-7.5,10-11.8C726.7,641.3,723.6,644.4,719.1,647L719.1,647z"/>
<path class="st52" d="M728.2,553.6c-19.2-11.1-50.4-11.1-69.6,0c-3.1,1.8-5.7,3.8-7.8,5.8c2.1,2.1,4.7,4,7.8,5.8
	c19.2,11.1,50.4,11.1,69.6,0c3.1-1.8,5.7-3.8,7.8-5.8C733.9,557.3,731.3,555.4,728.2,553.6z"/>
<path class="st53" d="M756.5,677.9c-34.9,20.1-91.4,20.1-126.2,0c-16.8-9.7-25.5-22.4-26.1-35.1c-0.6,13.6,8.1,27.4,26.1,37.8
	c34.9,20.1,91.4,20.1,126.2,0c18-10.4,26.7-24.2,26.1-37.8C782.1,655.5,773.4,668.2,756.5,677.9L756.5,677.9z"/>
<polygon class="st54" points="670.5,637.9 671.2,637.5 670.6,635.1 668.8,635.5 "/>
<path class="st55" d="M662,610.3c-0.3,0-0.5-0.2-0.5-0.5l-0.3-30.1c-0.1-6.6,2.3-10.7,6.6-11.3c0.3,0,0.5,0.2,0.6,0.4
	s-0.2,0.5-0.4,0.6c-3.7,0.5-5.8,4.2-5.7,10.3l0.3,30.1C662.5,610.1,662.2,610.3,662,610.3L662,610.3L662,610.3z"/>
<polygon class="st55" points="651.3,597.2 650.6,597.5 651.3,598.6 651.3,626.1 671.2,637.5 671.2,608.6 "/>
<polygon class="st56" points="670.5,637.9 650.6,626.4 650.6,597.5 670.5,609 "/>
<path class="st57" d="M729.7,629.4l-0.5-3.3c8.3,3,18-1.4,22.5-10.2c1.7-3.3,4.3-10.3,2.2-19.1c-0.8-3.6-3.5-9-7.4-12.4
	c-3.5-3-7.1-3.8-10.4-2.1l-1.8-3.3c5.1-2.6,9.8,0.1,12.9,2.8c4.9,4.3,8.2,10.9,9.3,15.5c2.4,10-0.5,17.6-2.3,21.2
	C749.3,628.2,739,632.7,729.7,629.4L729.7,629.4z"/>
<path class="st57" d="M734.4,579.2c0,0-1.7,1.2-5.2,3l7.4,0.7c0,0,4.6,0.9,8,5.2s9.6,20.2,4.9,31.7c0,0,11.2-10.5,4-27.3
	C746.3,575.7,734.4,579.2,734.4,579.2L734.4,579.2z"/>
<path class="st57" d="M729.2,626.2c0,0-2.9,2-5.2,3c0,0,7.7,4.1,17.3-2C741.4,627.2,732.4,629.3,729.2,626.2L729.2,626.2z"/>
<path class="st58" d="M724.5,632.5l-0.5-3.3c8.3,3,18-1.4,22.5-10.2c1.7-3.3,4.3-10.3,2.2-19.1c-0.8-3.6-3.5-9-7.4-12.4
	c-3.5-3-7.1-3.8-10.4-2.1l-1.8-3.3c5.1-2.6,9.8,0.1,12.9,2.8c4.9,4.3,8.2,10.9,9.3,15.5c2.4,10-0.5,17.6-2.3,21.2
	C744,631.2,733.7,635.7,724.5,632.5L724.5,632.5z"/>
<path class="st59" d="M407.2,640.6l94-54.2c2.8-1.6,2.5-4.5-0.8-6.3L326.7,479.8c-3.2-1.9-8.2-2.1-11-0.5l-94,54.2
	c-2.8,1.6-2.5,4.5,0.8,6.3l173.6,100.2C399.4,642,404.4,642.2,407.2,640.6L407.2,640.6z"/>
<path class="st22" d="M269.8,517.7l18.4-10.6c0.5-0.3,0.4-0.8-0.1-1.1l0,0c-0.5-0.3-1.4-0.3-1.9-0.1l-18.4,10.6
	c-0.5,0.3-0.4,0.8,0.1,1.1l0,0C268.4,518,269.3,518,269.8,517.7z"/>
<polygon class="st22" points="381.9,630.3 484.1,570.6 338.7,486.7 236.5,546.3 "/>
<path class="st60" d="M438.8,614l16.2-9.4c0.5-0.3,0.5-0.8-0.2-1.2l-5.5-3.2c-0.6-0.4-1.5-0.4-2.1-0.1l-16.2,9.4
	c-0.5,0.3-0.5,0.8,0.2,1.2l5.5,3.2C437.3,614.3,438.3,614.3,438.8,614z"/>
<polygon class="st61" points="281.9,566.8 373.7,513.8 337.9,493.1 246,546.1 "/>
<polygon class="st22" points="350.7,526.9 362.5,520.1 344.6,509.7 332.8,516.5 "/>
<polygon class="st62" points="331.2,538.1 343,531.3 312.7,513.8 300.9,520.6 "/>
<polygon class="st22" points="311.7,549.4 323.5,542.5 301,529.5 289.2,536.4 "/>
<polygon class="st62" points="292.2,560.6 304.1,553.8 292.7,547.2 280.9,554 "/>
<polygon class="st61" points="336.4,598.2 428.2,545.2 379.1,516.9 287.3,569.9 "/>
<polygon class="st61" points="382.1,624.6 473.9,571.6 433.6,548.3 341.7,601.3 "/>
<polygon class="st4" points="338.5,588.3 410.5,546.7 408.1,545.3 336,586.9 "/>
<polygon class="st63" points="338.4,588.3 366,572.3 363.7,570.9 336,586.9 "/>
<path class="st63" d="M362.5,572.9c1.2,0.7,3.3,0.7,4.5,0s1.2-1.9,0-2.6s-3.3-0.7-4.5,0S361.3,572.2,362.5,572.9z"/>
<path class="st4" d="M359.6,560.3l3.3-9.7c0.2-0.5-0.5-0.9-1.3-0.8l-16.8,1.9c-0.9,0.1-1.2,0.7-0.6,1.1l13.5,7.8
	C358.4,561,359.5,560.8,359.6,560.3L359.6,560.3z"/>
<path class="st63" d="M385.4,616l-2.3-1.3l71.7-41.3l2.3,1.3L385.4,616z M429.5,577.7l-55.2,31.9l2.3,1.3l55.2-31.9L429.5,577.7z
	 M367.7,605.8l70.8-40.9l-2.3-1.3l-70.8,40.9L367.7,605.8z M358.9,600.7l34.3-19.8l-2.3-1.3l-34.3,19.8L358.9,600.7z"/>
<path class="st64" d="M222.6,538l173.6,100.2c3.2,1.9,8.2,2.1,11,0.5l94-54.2c0.9-0.5,1.4-1.1,1.7-1.8c0.5,1.4,0,2.8-1.7,3.7
	l-94,54.2c-2.8,1.6-7.7,1.4-11-0.5L222.6,539.9c-2.2-1.3-3.1-3-2.5-4.5C220.5,536.3,221.3,537.2,222.6,538L222.6,538z"/>
<path class="st65" d="M455,604.6L455,604.6c0,0-0.1-0.1-0.2-0.1l-5.5-3.2c-0.6-0.4-1.5-0.4-2.1-0.1l-16.2,9.3
	c-0.5-0.3-0.5-0.8,0-1.1l16.2-9.4c0.5-0.3,1.5-0.3,2.1,0.1l5.5,3.2C455.5,603.8,455.5,604.3,455,604.6L455,604.6z"/>
<path class="st66" d="M288.2,507c-0.1-0.1-0.1-0.1-0.2-0.2c-0.5-0.3-1.4-0.3-1.9-0.1l-18.4,10.6c0,0,0,0-0.1,0.1
	c-0.3-0.3-0.3-0.7,0.1-0.9l18.4-10.6c0.5-0.3,1.3-0.2,1.9,0.1C288.5,506.3,288.6,506.7,288.2,507L288.2,507z"/>
<polygon class="st67" points="483.3,570.1 484.1,570.6 381.9,630.3 381.1,629.8 "/>
<polygon class="st67" points="237.4,546.8 236.5,546.3 338.7,486.7 339.6,487.2 "/>
<path class="st67" d="M407.2,640.6c-0.6,0.4-1.4,0.6-2.2,0.8v9.3c0.8-0.2,1.5-0.5,2.2-0.8l94-54.2c1.3-0.7,1.9-1.8,1.9-2.8h0v-9.3h0
	c0,1.1-0.6,2.1-1.9,2.9L407.2,640.6z"/>
<path class="st67" d="M222.6,549.2l173.6,100.2c1,0.6,2.1,1,3.2,1.2v-9.3c-1.2-0.3-2.3-0.7-3.2-1.2L222.6,539.9
	c-1.6-0.9-2.5-2.1-2.7-3.2v8.7C219.8,546.7,220.7,548.1,222.6,549.2z"/>
<path class="st59" d="M399.4,641.4v9.3c1.8,0.4,3.9,0.4,5.6,0v-9.3C403.3,641.8,401.3,641.8,399.4,641.4z"/>
</svg>
