<svg xmlns="http://www.w3.org/2000/svg" xmlns:xlink="http://www.w3.org/1999/xlink" width="687.365" height="618.006" viewBox="0 0 687.365 618.006">
  <defs>
    <radialGradient id="radial-gradient" cx="0.225" cy="0.5" r="0.628" gradientTransform="translate(0 -0.044) scale(1 1.088)" gradientUnits="objectBoundingBox">
      <stop offset="0" stop-color="#c1dbfe"/>
      <stop offset="1" stop-color="#286fd1"/>
    </radialGradient>
  </defs>
  <g id="Login-bg-tablet" fill="url(#radial-gradient)">
    <path d="M13.253,0H674.112c7.32,0,13.253,8.466,13.253,18.91V599.1c0,10.444-5.934,18.91-13.253,18.91H13.253C5.934,618.006,0,609.54,0,599.1V18.91C0,8.466,5.934,0,13.253,0Z" stroke="none"/>
    <path d="M 13.2532958984375 6 C 9.82940673828125 6 5.99993896484375 11.52099609375 5.99993896484375 18.90972900390625 L 5.99993896484375 599.0963745117188 C 5.99993896484375 606.4852294921875 9.82940673828125 612.0062255859375 13.2532958984375 612.0062255859375 L 674.111572265625 612.0062255859375 C 677.5355224609375 612.0062255859375 681.3649291992188 606.4852294921875 681.3649291992188 599.0963745117188 L 681.3649291992188 18.90972900390625 C 681.3649291992188 11.52099609375 677.5355224609375 6 674.111572265625 6 L 13.2532958984375 6 M 13.2532958984375 0 L 674.111572265625 0 C 681.4313354492188 0 687.3649291992188 8.4661865234375 687.3649291992188 18.90972900390625 L 687.3649291992188 599.0963745117188 C 687.3649291992188 609.5400390625 681.4313354492188 618.0062255859375 674.111572265625 618.0062255859375 L 13.2532958984375 618.0062255859375 C 5.93365478515625 618.0062255859375 -6.103515625e-05 609.5400390625 -6.103515625e-05 599.0963745117188 L -6.103515625e-05 18.90972900390625 C -6.103515625e-05 8.4661865234375 5.93365478515625 0 13.2532958984375 0 Z" stroke="none" fill="rgba(202,213,237,0.18)"/>
  </g>
</svg>
