<svg xmlns="http://www.w3.org/2000/svg" width="779.579" height="719" viewBox="0 0 779.579 719">
  <g id="Subtraction_5" data-name="Subtraction 5" transform="translate(-2835.817 2370.596)" fill="#fff">
    <path d="M3593.4-1651.6H2835.817A437.788,437.788,0,0,0,3042.8-1958.705c24.663-155.717-36.706-313.544-160.158-411.891H3593.4a21.856,21.856,0,0,1,15.557,6.444,21.855,21.855,0,0,1,6.444,15.556v675a21.854,21.854,0,0,1-6.444,15.556A21.857,21.857,0,0,1,3593.4-1651.6Z" stroke="none"/>
    <path d="M 3593.395263671875 -1658.596435546875 C 3597.402099609375 -1658.596435546875 3601.169189453125 -1660.156616210938 3604.00244140625 -1662.98974609375 C 3606.83544921875 -1665.822509765625 3608.395751953125 -1669.589233398438 3608.395751953125 -1673.595825195313 L 3608.395751953125 -2348.59619140625 C 3608.395751953125 -2352.602783203125 3606.83544921875 -2356.36962890625 3604.002197265625 -2359.202880859375 C 3601.1689453125 -2362.0361328125 3597.402099609375 -2363.596435546875 3593.395263671875 -2363.596435546875 L 2901.978271484375 -2363.596435546875 C 3017.342041015625 -2263.129638671875 3073.751220703125 -2109.38134765625 3049.713134765625 -1957.610473632813 C 3030.354248046875 -1835.383911132813 2961.60791015625 -1727.666625976563 2859.7470703125 -1658.596435546875 L 3593.395263671875 -1658.596435546875 M 3593.395263671875 -1651.596435546875 L 2835.816650390625 -1651.596435546875 C 2947.06103515625 -1718.62548828125 3022.50341796875 -1830.561767578125 3042.79931640625 -1958.705444335938 C 3067.46240234375 -2114.42236328125 3006.093505859375 -2272.249755859375 2882.6416015625 -2370.596435546875 L 3593.395263671875 -2370.596435546875 C 3599.271728515625 -2370.596435546875 3604.79638671875 -2368.30810546875 3608.951904296875 -2364.152587890625 C 3613.107421875 -2359.997314453125 3615.395751953125 -2354.47265625 3615.395751953125 -2348.59619140625 L 3615.395751953125 -1673.595825195313 C 3615.395751953125 -1667.719482421875 3613.107421875 -1662.19482421875 3608.951904296875 -1658.039794921875 C 3604.796630859375 -1653.884643554688 3599.271728515625 -1651.596435546875 3593.395263671875 -1651.596435546875 Z" stroke="none" fill="rgba(183,208,255,0.35)"/>
  </g>
</svg>
