<svg xmlns="http://www.w3.org/2000/svg" width="410.194" height="244.482" viewBox="0 0 410.194 244.482">
  <g id="Group_17" data-name="Group 17" transform="translate(-168.978 -979.444)">
    <path id="Path_7" data-name="Path 7" d="M373.569,983.163c41.341,8.783,76.239,33.208,98.374,58.975,22.3,26.2,31.837,53.734,26.334,78.53-5.554,25.037-24.96,44.643-50.271,62.2-25.448,17.136-56.8,32.224-89.383,38.38-63.672,14.195-118.843-28.8-126.671-110.831C223.962,1028.834,289.249,962.821,373.569,983.163Z" transform="translate(-36.136 0)" fill="#eaf4fe"/>
    <g id="Group_3" data-name="Group 3" transform="translate(221.729 1026.155)">
      <g id="Group_1" data-name="Group 1" transform="translate(0 0)">
        <path id="Path_8" data-name="Path 8" d="M307.78,1105.655s1.886-5.768-.26-11.081c-.778-1.924-3.735-4.592-5.737-3.783s-2.626,3.906-1.5,6.7C302.426,1102.81,307.78,1105.655,307.78,1105.655Z" transform="translate(-297.554 -1090.641)" fill="#c5e1f9"/>
        <path id="Path_9" data-name="Path 9" d="M307.707,1138.986s-2.592-4.631-7.237-6.311c-1.685-.606-5.121-.2-5.771,1.609s.957,4.043,3.408,4.925C302.755,1140.89,307.707,1138.986,307.707,1138.986Z" transform="translate(-294.553 -1114.866)" fill="#c5e1f9"/>
        <path id="Path_10" data-name="Path 10" d="M319.7,1167.388s-4.252-3.171-9.179-2.808c-1.788.133-4.752,1.911-4.612,3.825s2.526,3.3,5.123,3.105C315.956,1171.149,319.7,1167.388,319.7,1167.388Z" transform="translate(-301.135 -1133.504)" fill="#c5e1f9"/>
        <path id="Path_11" data-name="Path 11" d="M326.424,1132a17.234,17.234,0,0,0,7.172-6.059c.954-1.515,1.525-4.812.2-5.643s-3.618.41-5.005,2.612A17.256,17.256,0,0,0,326.424,1132Z" transform="translate(-313.031 -1107.686)" fill="#c5e1f9"/>
        <path id="Path_12" data-name="Path 12" d="M337.216,1155.532a16.63,16.63,0,0,0,7.31-5.971c.956-1.516,1.465-4.85.062-5.736s-3.757.327-5.145,2.531A16.643,16.643,0,0,0,337.216,1155.532Z" transform="translate(-319.281 -1121.316)" fill="#c5e1f9"/>
        <path id="Path_13" data-name="Path 13" d="M357.558,1188.482s4.174-.984,6.183-4.179c.731-1.153.849-3.872-.556-4.755s-3.471-.133-4.531,1.551C356.647,1184.294,357.558,1188.482,357.558,1188.482Z" transform="translate(-330.971 -1141.984)" fill="#c5e1f9"/>
        <path id="Path_14" data-name="Path 14" d="M341.128,1197.828a13.347,13.347,0,0,0-7.058-3.029c-1.448-.108-4.032.813-4.136,2.187s1.655,2.619,3.764,2.778A13.342,13.342,0,0,0,341.128,1197.828Z" transform="translate(-315.069 -1151.04)" fill="#c5e1f9"/>
      </g>
      <g id="Group_2" data-name="Group 2" transform="translate(8.803 12.108)">
        <path id="Path_15" data-name="Path 15" d="M356.606,1209.857a5.138,5.138,0,0,1-1.788,1.175l-.312-.957.158.474-.16-.474c.093-.032,2.233-.792,3.225-4.053,1.109-3.656.345-8.843-2.277-15.414-3.6-9.013-10.634-20.392-20.913-33.813-11.944-15.594-15.257-25.766-17.456-32.5-.562-1.72-1.048-3.214-1.574-4.434l.921-.4c.549,1.262,1.042,2.771,1.61,4.52,2.171,6.67,5.458,16.743,17.3,32.2,22.886,29.882,25.323,43.786,23.335,50.189A7.976,7.976,0,0,1,356.606,1209.857Z" transform="translate(-315.509 -1119.466)" fill="#c5e1f9"/>
      </g>
    </g>
    <path id="Path_16" data-name="Path 16" d="M381.8,1257.581c15.628-13.13,2.424-16.148-12.979-14.725,6.869-9.117,1.678-16.833-17.36-24.317-8.546-3.361-18.441-.175-27.932,5.97-8.8-15.955-19.891-26.433-31.33-19.232-9.456,5.951-16.3,12.752-20.369,19.726q-4.713-1.671-10.1-3.022c-7.815-1.947-13.324.555-17.051,5.671-15.662-8.627-31.216-13.138-39.638-5.517-14.647,13.254-15.987,23.547-5.167,32.683-15.349,1.912-26.528,8.547-5.484,20.365-18.431-.652-31.327,2.621-22.65,14.357,19.349,26.175,101.631,23.77,161.928,5.869,38.457-5.647,70.033-16.429,75.243-31C412.746,1253.681,399.17,1253.593,381.8,1257.581Z" transform="translate(0 -129.624)" fill="#c5e1f9"/>
    <g id="Group_5" data-name="Group 5" transform="translate(466.225 1106.49)">
      <path id="Path_17" data-name="Path 17" d="M919.86,1288.242a74.866,74.866,0,0,0-43.276,54.819,74.692,74.692,0,0,0,112.946-49.9A74.873,74.873,0,0,0,919.86,1288.242Z" transform="translate(-876.584 -1281.881)" fill="#c5e1f9"/>
      <g id="Group_4" data-name="Group 4" transform="translate(4.128 2.789)">
        <line id="Line_3" data-name="Line 3" x1="99.758" y2="44.076" transform="translate(0 12.067)" fill="none" stroke="#fff" stroke-miterlimit="10" stroke-width="1.532"/>
        <line id="Line_4" data-name="Line 4" x2="16.739" y2="7.9" transform="translate(79.232 21.279)" fill="none" stroke="#fff" stroke-miterlimit="10" stroke-width="1.532"/>
        <line id="Line_5" data-name="Line 5" x2="20.631" y2="9.737" transform="translate(62.225 28.794)" fill="none" stroke="#fff" stroke-miterlimit="10" stroke-width="1.532"/>
        <line id="Line_6" data-name="Line 6" x2="34.488" y2="16.281" transform="translate(45.215 36.307)" fill="none" stroke="#fff" stroke-miterlimit="10" stroke-width="1.532"/>
        <line id="Line_7" data-name="Line 7" x2="33.548" y2="15.842" transform="translate(28.204 43.823)" fill="none" stroke="#fff" stroke-miterlimit="10" stroke-width="1.532"/>
        <line id="Line_8" data-name="Line 8" x2="18.683" y2="8.821" transform="translate(11.194 51.337)" fill="none" stroke="#fff" stroke-miterlimit="10" stroke-width="1.532"/>
        <line id="Line_9" data-name="Line 9" y1="17.694" x2="5.428" transform="translate(81.154 2.378)" fill="none" stroke="#fff" stroke-miterlimit="10" stroke-width="1.532"/>
        <line id="Line_10" data-name="Line 10" y1="27.588" x2="8.46" transform="translate(64.146)" fill="none" stroke="#fff" stroke-miterlimit="10" stroke-width="1.532"/>
        <line id="Line_11" data-name="Line 11" y1="34.531" x2="10.593" transform="translate(47.135 0.572)" fill="none" stroke="#fff" stroke-miterlimit="10" stroke-width="1.532"/>
        <line id="Line_12" data-name="Line 12" y1="35.473" x2="10.876" transform="translate(30.128 7.146)" fill="none" stroke="#fff" stroke-miterlimit="10" stroke-width="1.532"/>
        <line id="Line_13" data-name="Line 13" y1="30.473" x2="9.348" transform="translate(13.115 19.662)" fill="none" stroke="#fff" stroke-miterlimit="10" stroke-width="1.532"/>
      </g>
    </g>
    <g id="Group_7" data-name="Group 7" transform="translate(445.906 1070.964)">
      <path id="Path_18" data-name="Path 18" d="M842.7,1233.074a82.718,82.718,0,0,0-8.924,76.646,82.529,82.529,0,0,0,77.3-112.411A82.714,82.714,0,0,0,842.7,1233.074Z" transform="translate(-828.213 -1197.309)" fill="#c5e1f9"/>
      <g id="Group_6" data-name="Group 6" transform="translate(8.12 7.143)">
        <line id="Line_14" data-name="Line 14" x1="68.27" y2="99.284" transform="translate(0.019 1.473)" fill="none" stroke="#fff" stroke-miterlimit="10" stroke-width="1.692"/>
        <line id="Line_15" data-name="Line 15" y1="2.272" x2="20.32" transform="translate(54.329 19.763)" fill="none" stroke="#fff" stroke-miterlimit="10" stroke-width="1.692"/>
        <line id="Line_16" data-name="Line 16" y1="2.798" x2="25.049" transform="translate(42.686 36.164)" fill="none" stroke="#fff" stroke-miterlimit="10" stroke-width="1.692"/>
        <line id="Line_17" data-name="Line 17" y1="4.68" x2="41.874" transform="translate(31.045 51.211)" fill="none" stroke="#fff" stroke-miterlimit="10" stroke-width="1.692"/>
        <line id="Line_18" data-name="Line 18" y1="4.552" x2="40.739" transform="translate(19.404 68.272)" fill="none" stroke="#fff" stroke-miterlimit="10" stroke-width="1.692"/>
        <line id="Line_19" data-name="Line 19" y1="2.532" x2="22.684" transform="translate(7.761 87.218)" fill="none" stroke="#fff" stroke-miterlimit="10" stroke-width="1.692"/>
        <line id="Line_20" data-name="Line 20" x1="5.152" y1="19.787" transform="translate(50.284)" fill="none" stroke="#fff" stroke-miterlimit="10" stroke-width="1.692"/>
        <line id="Line_21" data-name="Line 21" x1="8.035" y1="30.856" transform="translate(35.761 5.864)" fill="none" stroke="#fff" stroke-miterlimit="10" stroke-width="1.692"/>
        <line id="Line_22" data-name="Line 22" x1="10.056" y1="38.62" transform="translate(22.096 15.027)" fill="none" stroke="#fff" stroke-miterlimit="10" stroke-width="1.692"/>
        <line id="Line_23" data-name="Line 23" x1="10.334" y1="39.669" transform="translate(10.182 30.906)" fill="none" stroke="#fff" stroke-miterlimit="10" stroke-width="1.692"/>
        <line id="Line_24" data-name="Line 24" x1="8.869" y1="34.075" transform="translate(0 53.429)" fill="none" stroke="#fff" stroke-miterlimit="10" stroke-width="1.692"/>
      </g>
    </g>
    <path id="Path_19" data-name="Path 19" d="M425.955,1418.185c-.124-.1-.249-.191-.375-.281.067-.023.132-.044.2-.071,1.734-.681,2.852-1.965,2.5-2.871s-2.05-1.089-3.781-.41a4.545,4.545,0,0,0-.429.191c.01-.072.026-.141.036-.21.279-1.841-.274-3.448-1.238-3.6s-1.966,1.228-2.246,3.07c-.023.157-.037.314-.052.466-.054-.044-.106-.092-.16-.134-1.453-1.162-3.124-1.49-3.736-.728s.081,2.319,1.537,3.479c.126.1.251.193.378.28-.066.022-.13.044-.194.07-1.735.679-2.854,1.962-2.5,2.868s2.048,1.092,3.777.412a3.3,3.3,0,0,0,.429-.192c-.011.073-.022.139-.034.212-.281,1.843.277,3.452,1.239,3.6s1.966-1.229,2.244-3.07c.026-.157.04-.312.051-.466.055.046.109.093.161.137,1.455,1.162,3.128,1.489,3.733.73S427.411,1419.345,425.955,1418.185Zm-4.15,1.254a1.824,1.824,0,1,1,2.079-1.527A1.825,1.825,0,0,1,421.806,1419.438Z" transform="translate(-143.153 -250.227)" fill="#fff"/>
    <g id="Group_9" data-name="Group 9" transform="translate(263.452 987.499)">
      <path id="Path_20" data-name="Path 20" d="M600.98,1087.285l-84.416-80.625a24.543,24.543,0,0,0-2.6-2.481l-.832-.79s-.031.012-.092.032a23.45,23.45,0,0,0-28.437,0l-.093-.032-.829.79a24.341,24.341,0,0,0-2.6,2.481l-84.418,80.625a9.525,9.525,0,0,0-2.79,6.757v95.4a14.312,14.312,0,0,0,14.311,14.312H589.462a14.314,14.314,0,0,0,14.311-14.312v-95.4A9.518,9.518,0,0,0,600.98,1087.285Z" transform="translate(-393.876 -998.619)" fill="#f3aa06"/>
      <path id="Path_21" data-name="Path 21" d="M625.555,1205.314a47.7,47.7,0,1,1-47.7-47.705A47.7,47.7,0,0,1,625.555,1205.314Z" transform="translate(-472.902 -1090.821)" fill="none" stroke="#2094f1" stroke-miterlimit="10" stroke-width="0.531"/>
      <path id="Path_22" data-name="Path 22" d="M609.219,1194.88V1047a14.313,14.313,0,0,0-14.312-14.311H442.254A14.312,14.312,0,0,0,427.943,1047V1194.88Z" transform="translate(-413.632 -1018.376)" fill="#ededed"/>
      <path id="Path_23" data-name="Path 23" d="M589.462,1335.466H408.187a14.312,14.312,0,0,1-14.311-14.311v-95.408Z" transform="translate(-393.876 -1130.336)" fill="#ffbf0d"/>
      <path id="Path_24" data-name="Path 24" d="M427.943,1335.466H609.219a14.314,14.314,0,0,0,14.311-14.311v-95.408Z" transform="translate(-413.632 -1130.336)" fill="#fece40"/>
      <path id="Path_25" data-name="Path 25" d="M594.906,1032.688H442.254A14.312,14.312,0,0,0,427.943,1047v52.474H609.219V1047A14.313,14.313,0,0,0,594.906,1032.688Z" transform="translate(-413.632 -1018.376)" fill="#e2e2e2"/>
      <path id="Path_26" data-name="Path 26" d="M621.956,1103.257a52.651,52.651,0,1,0-16.463,55.406l-6.158-7.29a42.755,42.755,0,0,1-15.429,8.349A43.139,43.139,0,1,1,612.817,1106c1.417,4.709,1.892,14.4,1.892,14.4v9.387a6.047,6.047,0,0,1-12.094,0l-.084-9.944a30.713,30.713,0,0,0-.652-7.653,30.972,30.972,0,0,0-36.86-23.713,30.985,30.985,0,0,0-23.719,36.847,30.968,30.968,0,0,0,36.856,23.721,30.8,30.8,0,0,0,17.46-10.766,15.571,15.571,0,0,0,28.632-8.492v-9.944S623.578,1108.682,621.956,1103.257Zm-45.82,36.467a21.221,21.221,0,0,1-4.566.494,21.562,21.562,0,0,1-20.945-16.908,21.448,21.448,0,0,1,16.415-25.508,21.454,21.454,0,0,1,25.51,16.415A21.461,21.461,0,0,1,576.136,1139.724Z" transform="translate(-466.315 -1037.517)" fill="#0561fc"/>
      <g id="Group_8" data-name="Group 8" transform="translate(52.493 28.176)">
        <path id="Path_27" data-name="Path 27" d="M632.011,1142.677a30.972,30.972,0,0,0-36.86-23.713,30.947,30.947,0,0,0-24.407,30.131H580.3a21.36,21.36,0,0,1,16.869-20.812,21.454,21.454,0,0,1,25.51,16.415,21.129,21.129,0,0,1,.486,4.4h9.472A30.224,30.224,0,0,0,632.011,1142.677Z" transform="translate(-548.939 -1096.176)" fill="#0450cf"/>
        <path id="Path_28" data-name="Path 28" d="M621.986,1103.257a52.687,52.687,0,0,0-103.148,15.356h9.545A43.144,43.144,0,0,1,612.847,1106c1.04,3.461,1.569,9.594,1.78,12.612h9.565C623.973,1115.63,623.292,1107.627,621.986,1103.257Z" transform="translate(-518.837 -1065.693)" fill="#0450cf"/>
      </g>
    </g>
    <g id="Group_14" data-name="Group 14" transform="translate(178.81 1114.81)">
      <g id="Group_13" data-name="Group 13" transform="translate(0 60.909)">
        <g id="Group_12" data-name="Group 12">
          <path id="Path_29" data-name="Path 29" d="M233.134,1460.213l13.106-7.937-3.633-5.593-14.575,9.887Z" transform="translate(-213.058 -1446.682)" fill="#e9d6b8"/>
          <g id="Group_11" data-name="Group 11" transform="translate(0 7.997)">
            <path id="Path_30" data-name="Path 30" d="M193.65,1468c-.775.456-1.267,2.189-1.267,2.189s8.464,5.5,11.695,6.263a16.6,16.6,0,0,0,3.965.106c.258-.012.957-.522,1.211-.541.471-.033.478.42.883.38a11.721,11.721,0,0,0,1.845-.258c2.849-3.72,2.633-5.9,2.633-5.9s-4.5.288-3.569-.5c2-1.691-1.994-4.734-3.219-3.868C202.937,1469.335,195.9,1466.684,193.65,1468Z" transform="translate(-192.383 -1465.72)" fill="#2b83fd"/>
            <path id="Path_31" data-name="Path 31" d="M192.951,1472.941c2.589,1.743,8.042,5.368,9.211,5.709,4.781,1.4,8.551.412,11.041-.108a19.647,19.647,0,0,1-1.221,1.789,11.746,11.746,0,0,1-1.845.258c-.4.039-.412-.414-.883-.381-.254.02-.954.529-1.211.541a16.617,16.617,0,0,1-3.965-.106c-3.231-.767-11.695-6.263-11.695-6.263A6.421,6.421,0,0,1,192.951,1472.941Z" transform="translate(-192.383 -1469.907)" fill="#c5e1f9"/>
            <g id="Group_10" data-name="Group 10" transform="translate(7.65 1.195)">
              <path id="Path_32" data-name="Path 32" d="M210.62,1469.8c-.123.143.2.409.691.631a17.818,17.818,0,0,1,2.911,1.621c.458.317.908.462,1.019.3s-.168-.569-.623-.876a17.918,17.918,0,0,0-2.885-1.581C211.24,1469.684,210.736,1469.661,210.62,1469.8Z" transform="translate(-210.593 -1469.231)" fill="#c5e1f9"/>
              <path id="Path_33" data-name="Path 33" d="M215.922,1469.141c-.112.145.19.456.662.708a18.49,18.49,0,0,1,2.754,1.843c.43.347.858.517.962.35s-.151-.614-.578-.951a17.933,17.933,0,0,0-2.736-1.8C216.517,1469.047,216.036,1469,215.922,1469.141Z" transform="translate(-213.67 -1468.852)" fill="#c5e1f9"/>
              <path id="Path_34" data-name="Path 34" d="M221,1468.645c-.112.155.176.493.624.786a18.59,18.59,0,0,1,2.6,2.045c.406.381.807.575.909.394s-.127-.65-.528-1.025a17.991,17.991,0,0,0-2.586-2C221.571,1468.564,221.11,1468.487,221,1468.645Z" transform="translate(-216.614 -1468.564)" fill="#c5e1f9"/>
            </g>
          </g>
        </g>
      </g>
      <path id="Path_35" data-name="Path 35" d="M309.813,1406.216c-.246.082-26.1-30.511-30.1-30.185s-5.725.409-7.934,3.354-9,16.933-10.8,18.978a66.684,66.684,0,0,0-4.827,7.2l13.578-3.926,17.67-4.008Z" transform="translate(-229.364 -1344.8)" fill="#163f59"/>
      <path id="Path_36" data-name="Path 36" d="M287.239,1423.713s-17.913-10.8-21.186-11.7-8.1-5.563-11.86-1.882-19.552,16.278-19.552,16.278l-8.528,6.567s7.178,6.994,7.913,6.994,16.564-9.938,21.35-13.067c1.173-.767,26.686,12.7,32.024,13.619s11.226.461,15.459-1.472,6.442-7.545,6.442-7.545S293.888,1422.729,287.239,1423.713Z" transform="translate(-211.944 -1363.769)" fill="#0059b6"/>
      <path id="Path_37" data-name="Path 37" d="M385.5,1350.137s9.408,7.444,10.471,9a27.394,27.394,0,0,1,3.355,9.817c.327,3.435-3.273,18.977-3.355,19.387s-4.745,13.742-4.745,13.742-5.643.818-6.216.736-10.577-4.064-13.58-6.3c-2.147-1.6-7.2-7.935-7.2-7.935s1.634-8.589,1.554-10.225,0-5.235-.409-6.217-.818-9.57-.082-10.061,3.6-7.69,4.008-7.69S385.5,1350.137,385.5,1350.137Z" transform="translate(-292.041 -1329.784)" fill="#9ac7f7"/>
      <path id="Path_38" data-name="Path 38" d="M274.458,1378.093s2.534,3.273,2.78,3.6,1.064.409,1.146.081a3.226,3.226,0,0,0-.327-2.781C277.238,1377.439,274.538,1377.6,274.458,1378.093Z" transform="translate(-239.98 -1345.798)" fill="#9ac7f7"/>
      <path id="Path_39" data-name="Path 39" d="M249.964,1395.995,248.8,1399a5.8,5.8,0,0,0-.491,1.78c.06.491.921,1.043.921,1.043s1.9-4.969,1.654-5.276A2.647,2.647,0,0,0,249.964,1395.995Z" transform="translate(-224.812 -1356.378)" fill="#ec9568"/>
      <path id="Path_40" data-name="Path 40" d="M249.31,1393.635l-1.288,3.19.123,1.288,1.41-2.331S250.047,1393.389,249.31,1393.635Z" transform="translate(-224.649 -1354.999)" fill="#f7b68b"/>
      <path id="Path_41" data-name="Path 41" d="M249.6,1394.8l-1.288,3.19.121,1.288,1.412-2.331S250.337,1394.557,249.6,1394.8Z" transform="translate(-224.819 -1355.677)" fill="#ec9568"/>
      <path id="Path_42" data-name="Path 42" d="M261.885,1372.92l-3.19,1.349-7.608,7.362a6.925,6.925,0,0,0,.485,1.114,5.373,5.373,0,0,0,1.111,1.462c1.1.982,2.086,1.472,2.576,1.35s1.842-.613,1.842-.613a18.6,18.6,0,0,0-.861,2.7c-.245,1.288-.245,2.454.246,2.944a1.129,1.129,0,0,0,1.226.124,8.94,8.94,0,0,1,.615-3.559,43.545,43.545,0,0,1,1.963-3.926s.489-3.436.489-3.8,1.966-1.471,2.946-1.839S264.953,1372.92,261.885,1372.92Z" transform="translate(-226.427 -1342.997)" fill="#f7b68b"/>
      <path id="Path_43" data-name="Path 43" d="M249.524,1395.41l-1.166,3.007a5.848,5.848,0,0,0-.492,1.778c.063.491.921,1.043.921,1.043s1.9-4.97,1.658-5.276A2.646,2.646,0,0,0,249.524,1395.41Z" transform="translate(-224.556 -1356.039)" fill="#f7b68b"/>
      <path id="Path_44" data-name="Path 44" d="M250.252,1396.434l-1.165,3.006a5.831,5.831,0,0,0-.492,1.778c.063.492.92,1.044.92,1.044s1.534-4.643,1.289-4.949A7.485,7.485,0,0,1,250.252,1396.434Z" transform="translate(-224.979 -1356.633)" fill="#ec9568"/>
      <path id="Path_45" data-name="Path 45" d="M249.179,1401.819c-.061.614.245,2.7.245,3.006s.061.552.308.491,2.268-4.54,2.268-5.89,0-1.963-.429-2.331a1.353,1.353,0,0,0-.8-.368Z" transform="translate(-225.316 -1356.803)" fill="#f7b68b"/>
      <path id="Path_46" data-name="Path 46" d="M250.288,1404.708c-.078.612.172,2.705.161,3.012s.047.553.294.5,2.393-4.476,2.43-5.825.054-1.963-.365-2.342a1.355,1.355,0,0,0-.788-.39Z" transform="translate(-225.955 -1358.505)" fill="#ec9568"/>
      <path id="Path_47" data-name="Path 47" d="M255.5,1400.863l-2.474,3.764-.92,2.76s-.449,2.147-1.023,2.147-.57-2.024-.57-2.024l.653-2.966a45.978,45.978,0,0,0,1.553-4.418C252.633,1399.881,255.5,1400.863,255.5,1400.863Z" transform="translate(-226.091 -1358.752)" fill="#f7b68b"/>
      <path id="Path_48" data-name="Path 48" d="M339.659,1354.615c-1.309.164-18.406,1.881-18.406,1.881l-8.834-.082.571,5.481s-.654.491-.571.9,4.908,3.927,4.908,3.927l19.06.654Z" transform="translate(-261.991 -1332.381)" fill="#7eb3ff"/>
      <path id="Path_49" data-name="Path 49" d="M276.791,1365.012a3.447,3.447,0,0,1,2.046,2.618c.49,2.126.9,3.435.9,3.435l9.161-3.6,3.19-1.064s3.355-.655,3.028-3.6c-.237-2.135-3.028-3.437-3.354-3.519s-12.68,3.682-12.68,3.682Z" transform="translate(-241.333 -1335.089)" fill="#7eb3ff"/>
      <path id="Path_50" data-name="Path 50" d="M392.222,1337.219a22.659,22.659,0,0,0,1.474,3.845c.573.819-2.7,9.08-5.153,10.716s-2.536,2.618-3.435,1.8-.575-1.718-.819-3.6.082-2.045-.654-3.027S390.833,1333.293,392.222,1337.219Z" transform="translate(-303.267 -1321.857)" fill="#f7b68b"/>
      <path id="Path_51" data-name="Path 51" d="M386.422,1355.852l3.356-1.636s3.762-3.926,4.416-6.218,1.227-3.925.9-4.743-.736-1.882-.736-1.882,1.309.082,1.718.573a28.418,28.418,0,0,1,2.372,4.09c.244.735-3.517,9.979-3.6,10.715s-1.391-.163-2.455-.572-2.126-.9-2.126-.9-2.782,1.227-3.108,1.391S386.422,1355.852,386.422,1355.852Z" transform="translate(-304.911 -1324.702)" fill="#7eb3ff"/>
      <path id="Path_52" data-name="Path 52" d="M378.443,1365.435s1.309.736,1.553,1.718.656,3.027.656,3.027,1.225-.573,1.143-1.227-.245-4.99-.49-4.99A30.825,30.825,0,0,0,378.443,1365.435Z" transform="translate(-300.284 -1337.803)" fill="#7eb3ff"/>
      <path id="Path_53" data-name="Path 53" d="M390.178,1346.8c0,1.964-1.227,3.764-1.472,5.482s-2.291,1.636-4.09,2.045a2.5,2.5,0,0,1-.323.051.5.5,0,0,0-.005-.051c-.245-1.882.081-2.045-.654-3.027-.391-.518,1.642-4.306,3.851-7.181C389.236,1343.471,390.178,1344.955,390.178,1346.8Z" transform="translate(-303.267 -1326.205)" fill="#ec9568"/>
      <path id="Path_54" data-name="Path 54" d="M358.118,1324.333a12.3,12.3,0,0,0,1.064,6.052c1.473,3.764,1.881,1.882,1.962,3.682s-.489,2.862.328,3.027,1.227.491,2.207,2.045.9,3.19,3.682,2.044a7.766,7.766,0,0,0,4.5-3.68c1.227-1.8,3.109-4.99,3.19-6.545s2.126.573,1.8-3.191.081-5.562-4.582-5.479S358.118,1323.433,358.118,1324.333Z" transform="translate(-288.466 -1313.633)" fill="#f7b68b"/>
      <path id="Path_55" data-name="Path 55" d="M375.055,1317.95s2.289-6.872-.083-9.817-3.6-4.252-3.679-1.717,2.452,4.253,1.963.327-2.209-6.135-4.663-4.5-4.662,5.072-2.126,3.517,4.581-4.989.327-3.845-7.282,1.964-7.036,3.845,4.418-3.435,1.8-2.944-10.144,1.473-7.855,5.645-1.226,4.99,3.435,4.335,5.89.409,6.545-1.308,1.063-1.555.081-.819-.408,3.19.245,4.171,2.128,1.473,2.209.164,1.157,2.5,1.88,3.517c.41.573,1.309-.491,1.309-.491a7.112,7.112,0,0,1-.326-2.045c1.436-2.152,3.109-4.254,4.09-2.617,1.39,2.314.41,3.19.572,4.417S375.055,1317.95,375.055,1317.95Z" transform="translate(-285.689 -1301.687)" fill="#003e99"/>
      <path id="Path_56" data-name="Path 56" d="M349.515,1417.708a5.849,5.849,0,0,1-.329,2.372,10.472,10.472,0,0,1-2.289,1.8s10.141,6.872,10.387,7.035,18.408,5.317,18.408,5.317a13.629,13.629,0,0,0,.244-4.662c-.408-1.718-4.909-7.853-4.909-7.853s-5.725.246-6.216.163-6.054-1.636-6.79-1.717S349.515,1417.708,349.515,1417.708Z" transform="translate(-281.99 -1368.97)" fill="#7eb3ff"/>
      <path id="Path_57" data-name="Path 57" d="M415.6,1373.885c-.239-.1-4.744.818-6.87,3.026a11.721,11.721,0,0,0-3.354,6.218c-.165,1.554-1.229,13.252-1.229,13.5s2.947,10.879,2.947,10.879,2.615,2.291,4.5-1.88,8.181-15.87,8.425-19.469S420.259,1375.766,415.6,1373.885Z" transform="translate(-315.187 -1343.552)" fill="#7eb3ff"/>
      <path id="Path_58" data-name="Path 58" d="M314.05,1400.586a.615.615,0,0,0,.423.244h4.255c.135,0,.165-.109.066-.244l-5.379-7.363a.615.615,0,0,0-.425-.245h-4.254c-.135,0-.165.11-.066.245Z" transform="translate(-259.787 -1354.628)" fill="#c5e1f9"/>
      <path id="Path_59" data-name="Path 59" d="M329.618,1406.99a18.99,18.99,0,0,1-2.782-2.618c-1.718-1.881-1.473-2.454-2.21-2.7s-2.125-.573-2.944-.818-1.309.491-2.044.736a2.513,2.513,0,0,1-2.045,0,12.2,12.2,0,0,1-2.127-1.063c-.408-.163-1.066-.9-1.637-1.145s-1.554-.328-1.146.737l.408,1.063s-.408-.573-.408-.083a25.785,25.785,0,0,0,1.391,3.027c.491,1.227-.49.9,2.046,1.881s8.589,4.5,9.817,4.908,3.026,1.8,3.435-.49A12.146,12.146,0,0,0,329.618,1406.99Z" transform="translate(-262.092 -1358.253)" fill="#f0bf97"/>
    </g>
    <g id="Group_16" data-name="Group 16" transform="translate(446.607 1022.163)">
      <path id="Path_60" data-name="Path 60" d="M844.4,1485.785c-.356.467-.188,1.751-.188,1.751s5.759,1.028,7.654.582a9.473,9.473,0,0,0,2.144-1.084c.133-.083.4-.612.526-.695.244-.158.349.127.557-.014a6.534,6.534,0,0,0,.927-.7c.693-3.182.086-4.5.086-4.5s-4.827-2.19-5.831-.856C847.909,1483.427,845.182,1484.756,844.4,1485.785Z" transform="translate(-838.167 -1312.357)" fill="#161711"/>
      <path id="Path_61" data-name="Path 61" d="M864.37,1366.307s-1.858,16.395-2.018,23.564c-.117,5.406-.956,18.8-2.357,24.509-.825,3.355-9.38.929-9.38.929s2.459-39.983,2-45.546S853.408,1362.534,864.37,1366.307Z" transform="translate(-841.906 -1245.335)" fill="#003e99"/>
      <path id="Path_62" data-name="Path 62" d="M902.484,1100.3s3.318-2.7,3.457-5.6,2.557-4.424-.829-7.258-4.839-1.313-3.664.069,5.668,1.037,4.147-2c-2.2-4.393-7.187-6.082-7.394-1.935s1.657,4.286,1.45,1.866-1.866-4.976-3.387-3.594a1.63,1.63,0,0,0,.622,2.9c.761.138-.622-3.94-3.317-3.595s-5.806,1.591-5.184,5.737,1.59,1.865,1.658.483-2.626-3.387-3.04-.483a14.864,14.864,0,0,0,.344,6.635c.554,2.281,3.112,5.461,5.945,4.286S902.484,1100.3,902.484,1100.3Z" transform="translate(-862.881 -1081.138)" fill="#212957"/>
      <path id="Path_63" data-name="Path 63" d="M916.2,1276.5s-.277,13.637-1.659,21.906-3.87,17.553-3.732,18.423-2.213,2.321-6.5,1.887-5.76-2.9-5.76-2.9-1.29-29.884-.737-34.091S907.626,1272,916.2,1276.5Z" transform="translate(-869.196 -1193.459)" fill="#003e99"/>
      <path id="Path_64" data-name="Path 64" d="M855.787,1275.374c-.393.131-.9,28.059-.759,30.963s.207,11.058.207,11.058a2.626,2.626,0,0,0,3.18,1.8,58.132,58.132,0,0,0,8.017-2.488s7.878-29.028,8.846-35.8S856.616,1275.1,855.787,1275.374Z" transform="translate(-844.451 -1193.659)" fill="#003e99"/>
      <path id="Path_65" data-name="Path 65" d="M892.1,1156.215s4.977,1.382,6.774.691.552,4.7,2.073,12.855,6.22,31.1,6.083,34.835c-.106,2.846-4.231,4.406-9,4.986a38.284,38.284,0,0,1-4.542.267c-6.36,0-8.017.276-6.635-6.5S892.1,1156.215,892.1,1156.215Z" transform="translate(-862.653 -1124.677)" fill="#0561fc"/>
      <path id="Path_66" data-name="Path 66" d="M899.756,1477.983l.13,4.679,4.629.754s.365-.6.754-.538c.331.055.654.767,1.1.839.975.162,2.056.334,2.486.407l9.293,1.513s.366-.921.163-1.291a4.548,4.548,0,0,0-1.321-.84c-2.285-1.061-8.784-4.274-9.6-6.754C906.394,1473.736,899.756,1477.983,899.756,1477.983Z" transform="translate(-870.404 -1309.937)" fill="#161711"/>
      <path id="Path_67" data-name="Path 67" d="M905.8,1366.814s.076-6.077-6.457-5.61c-2.362.171-1.578,51.646-1.578,51.646l9.769-2.449,3.367-45.823Z" transform="translate(-869.179 -1243.54)" fill="#003e99"/>
      <path id="Path_68" data-name="Path 68" d="M863.676,1135.811c-.554.276-14.375,5.53-14.375,5.53s3.317,2.211,3.178,10.782-.691,22.393-1.243,26.816-1.8,14.376-1.8,14.376,17.409,8.155,22.256,8.155a9.25,9.25,0,0,0-.14-1.935s.968-46.583,1.245-49.486-4.976-10.229-5.667-11.474S863.676,1135.811,863.676,1135.811Z" transform="translate(-841.144 -1112.844)" fill="#eaf4fe"/>
      <path id="Path_69" data-name="Path 69" d="M885,1130.219c-.139.415,2.074,6.774,3.455,8.293s-3.317,3.318-3.317,3.318l-3.594-8.986Z" transform="translate(-859.844 -1109.601)" fill="#c5e1f9"/>
      <path id="Path_70" data-name="Path 70" d="M838.039,1148.975a29.534,29.534,0,0,0-6.359,12.3c-1.521,7.051-1.8,9.815-1.8,11.2s.139,3.455.139,3.455l1.244,5.806s1.245-7.05,5.252-7.879,5.116-1.521,5.116-1.521.414-14.79-.277-17.556A17.669,17.669,0,0,0,838.039,1148.975Z" transform="translate(-829.882 -1120.478)" fill="#c5e1f9"/>
      <path id="Path_71" data-name="Path 71" d="M915.622,1141.405l9.121,5.944s1.383,19.905,1.245,27.369.69,27.231.69,27.231l-6.772,3.456s-4.7-35.8-4.7-36.493-3.6-16.172-2.627-17.969a17.79,17.79,0,0,0,1.935-4.424C914.653,1145.552,915.622,1141.405,915.622,1141.405Z" transform="translate(-877.744 -1116.088)" fill="#eaf4fe"/>
      <path id="Path_72" data-name="Path 72" d="M918.309,1138.444l1.1,4.424-.414,4.7-1.658-2.9L916.1,1146.6S915.958,1140.794,918.309,1138.444Z" transform="translate(-879.879 -1114.371)" fill="#c5e1f9"/>
      <path id="Path_73" data-name="Path 73" d="M941.089,1156.215s4.7,10.228,5.8,18.384.692,9.952.692,9.952v1.521s-6.082,1.659-6.22,2.074,0-20.735-.277-23.5-.968-6.359-.968-6.359" transform="translate(-893.812 -1124.677)" fill="#c5e1f9"/>
      <g id="Group_15" data-name="Group 15" transform="translate(47.553 60.263)">
        <path id="Path_74" data-name="Path 74" d="M952.2,1309.814l-2.418.69-2.523-.208a.917.917,0,0,1,.759-1.105c.933-.139,1.348-.208,1.936-.242.486-.029,2.005-.38,2.178-.311S952.2,1309.814,952.2,1309.814Z" transform="translate(-945.499 -1273.329)" fill="#e9ab86"/>
        <path id="Path_75" data-name="Path 75" d="M953.244,1307.245l-2.436.629-2.518-.273a.92.92,0,0,1,.791-1.085c.936-.115,1.351-.172,1.939-.192.486-.016,2.014-.328,2.184-.255S953.244,1307.245,953.244,1307.245Z" transform="translate(-946.098 -1271.838)" fill="#e9ab86"/>
        <path id="Path_76" data-name="Path 76" d="M955.382,1304.614l-2.435.627-2.518-.273a.919.919,0,0,1,.789-1.086c.936-.113,1.354-.173,1.942-.192.485-.016,2.013-.328,2.184-.255S955.382,1304.614,955.382,1304.614Z" transform="translate(-947.339 -1270.311)" fill="#e9ab86"/>
        <path id="Path_77" data-name="Path 77" d="M943.084,1227.8a47.671,47.671,0,0,0,2.072,12.995,59.254,59.254,0,0,1,2.351,8.43s3.04.554,3.456-.275.139-3.042.139-4.424.275-17.141-2.213-19.353S943.084,1227.8,943.084,1227.8Z" transform="translate(-943.084 -1224.596)" fill="#f0bf97"/>
        <path id="Path_78" data-name="Path 78" d="M954.286,1281.306c.417.324,2.592,6.739,2.7,7.567s-2.109,4.6-2.316,5.012-2.766,1.384-3.077,1.417c-.656.069-2.281,0-2.281,0s-.275-.83,1.453-1.141a11.611,11.611,0,0,1,1.244-.173l1.487-1.831.068-2.143s-1.451-3.109-.829-4.147S953.353,1280.58,954.286,1281.306Z" transform="translate(-946.685 -1257.436)" fill="#f0bf97"/>
        <path id="Path_79" data-name="Path 79" d="M952.532,1281.937a13.135,13.135,0,0,0-.933,4.943c.208,1.762.347,3.731.347,3.835a11.2,11.2,0,0,0,.1,2.764.848.848,0,0,0,1.243.415,3.186,3.186,0,0,0,.588-2.038c0-.8-.276-3.7.311-3.457s.518-.967.864-2.211.829-3.006.656-3.524S953.5,1280.763,952.532,1281.937Z" transform="translate(-948.006 -1257.583)" fill="#f0bf97"/>
      </g>
      <path id="Path_80" data-name="Path 80" d="M895.856,1139.977s-2.972-.829-4.01-4.975-2.833-5.737-2.351-7.465.208-3.042.831-2.351,3.455,7.327,6.5,7.258a8.519,8.519,0,0,0,4.423-1.037s.277,1.383.414,2.626.138,5.806-.829,6.014A36.682,36.682,0,0,1,895.856,1139.977Z" transform="translate(-864.407 -1106.573)" fill="#f0bf97"/>
      <path id="Path_81" data-name="Path 81" d="M900.993,1130.663c-.415.138-1.452,2.42-2.419,2.765s-2.281.552-3.8-1.521-2.627-3.111-3.18-5.322-.413-4.907.139-5.529.345-2.834,3.386.069S900.993,1130.663,900.993,1130.663Z" transform="translate(-865.466 -1103.48)" fill="#e9ab86"/>
      <path id="Path_82" data-name="Path 82" d="M895.8,1106.761a8.359,8.359,0,0,1-1.8,2.073c-1.106.759-1.8,1.244-1.936,2.626s2.35,9.607,4.425,11.542a4.269,4.269,0,0,0,4.283,1.107c.346,0,4.77-6.152,5.738-9.263s1.589-6.289.414-6.911S899.051,1104.687,895.8,1106.761Z" transform="translate(-865.943 -1095.542)" fill="#f0bf97"/>
      <path id="Path_83" data-name="Path 83" d="M889.111,1111.823s.069-2.972-.829-3.455-1.8-1.244-1.8-.069a11.254,11.254,0,0,0,1.175,4.769c.76,1.245.207,1.866.968,2.073S889.041,1112.86,889.111,1111.823Z" transform="translate(-862.708 -1096.527)" fill="#f0bf97"/>
      <path id="Path_84" data-name="Path 84" d="M888.595,1192.015c.277-.145,2.5-2.122,3.121-2.45.588-.311,3.18-1.83,3.836-1.623a8.855,8.855,0,0,0,1.357.38s1.325.7,1.246,1.017c-.173.691-3.084.019-2.7,1.34C895.8,1191.876,888.595,1192.015,888.595,1192.015Z" transform="translate(-863.931 -1143.065)" fill="#f0bf97"/>
      <path id="Path_85" data-name="Path 85" d="M910.451,1190.665a1.547,1.547,0,0,1-1.333.977h-5.371a.662.662,0,0,1-.62-.977l2.961-8.139a1.55,1.55,0,0,1,1.332-.976h5.373a.662.662,0,0,1,.62.976Z" transform="translate(-872.322 -1139.369)" fill="#212957"/>
      <path id="Path_86" data-name="Path 86" d="M907.013,1201.2s6.67-.31,6.947-.31,1.071.241.381.725a16.446,16.446,0,0,1-4.493,1.382,28.491,28.491,0,0,1-3.455.208Z" transform="translate(-874.252 -1150.583)" fill="#e9ab86"/>
      <path id="Path_87" data-name="Path 87" d="M907.6,1206.979s2.161-.559,2.42-.657c.553-.208,3.7-1.728,1.279-1.66s-3.077.449-3.629,1.485S907.6,1206.979,907.6,1206.979Z" transform="translate(-874.839 -1152.772)" fill="#e9ab86"/>
      <path id="Path_88" data-name="Path 88" d="M838.841,1197.936s-3.664,2.66-4.078,3.732c-.8,2.059-1.658,3.94-1.245,5.529s.761,2.972,2.005,2.9,20.6-9.537,21.841-10.229,4.423-.276,4.423-.276l2.765-.276c.691-.069.9-1.659.967-2.281s-2.073-5.322-3.454-5.46-4.908,1.729-7.879,2.972C853.369,1194.891,840.293,1197.867,838.841,1197.936Z" transform="translate(-831.929 -1145.18)" fill="#f0bf97"/>
      <path id="Path_89" data-name="Path 89" d="M904.53,1193.46s4.155-.574,5.114-.692c1.419-.171,2.006.277,2.074.692s.07.449-1.174.691a53.84,53.84,0,0,1-5.322,1.175C904.253,1195.327,904.53,1193.46,904.53,1193.46Z" transform="translate(-873.151 -1145.853)" fill="#f0bf97"/>
      <path id="Path_90" data-name="Path 90" d="M905.649,1197.652s4.113-.415,5.6-.484a8.619,8.619,0,0,1,2.246.138c.258.172.934.414.519.967s-6.981,1.383-7.672,1.522" transform="translate(-873.821 -1148.421)" fill="#f0bf97"/>
    </g>
  </g>
</svg>
