<?xml version="1.0" encoding="utf-8"?>
<!-- Generator: Adobe Illustrator 25.2.1, SVG Export Plug-In . SVG Version: 6.00 Build 0)  -->
<svg version="1.1" id="Layer_1" xmlns="http://www.w3.org/2000/svg" xmlns:xlink="http://www.w3.org/1999/xlink" x="0px" y="0px"
	 viewBox="0 0 626 691.4" style="enable-background:new 0 0 626 691.4;" xml:space="preserve">
<style type="text/css">
	.st0{fill:url(#SVGID_1_);}
	.st1{fill:url(#SVGID_2_);}
	.st2{fill:#FFFFFF;}
</style>
<g id="tablet-form" transform="translate(-390 -181)">
	<g id="Login-bg-tablet" transform="translate(390 181)">
		
			<radialGradient id="SVGID_1_" cx="-643.8832" cy="885.8356" r="0.628" gradientTransform="matrix(4.208897e-14 687.365 672.3948 -4.117231e-14 -595317.5625 442737.4062)" gradientUnits="userSpaceOnUse">
			<stop  offset="0" style="stop-color:#C1DBFE"/>
			<stop  offset="1" style="stop-color:#286FD1"/>
		</radialGradient>
		<path class="st0" d="M622.7,13.3v660.9c0,7.3-8.5,13.3-18.9,13.3H23.6c-10.4,0-18.9-5.9-18.9-13.3V13.3C4.7,5.9,13.1,0,23.6,0
			h580.2C614.2,0,622.7,5.9,622.7,13.3z"/>
		
			<radialGradient id="SVGID_2_" cx="122.6571" cy="345.6808" r="429.2386" gradientTransform="matrix(6.123234e-17 1 -1 6.123234e-17 659.3652 32)" gradientUnits="userSpaceOnUse">
			<stop  offset="0" style="stop-color:#C1DBFE"/>
			<stop  offset="1" style="stop-color:#286FD1"/>
		</radialGradient>
		<path class="st1" d="M616.7,13.3c0-3.4-5.5-7.3-12.9-7.3H23.6c-7.4,0-12.9,3.8-12.9,7.3v660.9c0,3.4,5.5,7.3,12.9,7.3h580.2
			c7.4,0,12.9-3.8,12.9-7.3V13.3 M622.7,13.3v660.9c0,7.3-8.5,13.3-18.9,13.3H23.6c-10.4,0-18.9-5.9-18.9-13.3V13.3
			C4.7,5.9,13.1,0,23.6,0h580.2C614.2,0,622.7,5.9,622.7,13.3z"/>
	</g>
	<g id="bottom-form-tablet" transform="translate(471.366 181.003)">
		<g id="bottom-form-tablet-2" transform="translate(-0.001 0)">
			<path class="st2" d="M-76.7,669.4v-588c57.6,87,153.8,146.1,264,162c133.8,19.3,269.5-28.7,354-125.3v551.4c0,12.2-9.8,22-22,22
				h-574C-66.8,691.4-76.7,681.5-76.7,669.4L-76.7,669.4z"/>
			<path class="st2" d="M-69.7,669.4c0,4,1.6,7.8,4.4,10.6c2.8,2.8,6.6,4.4,10.6,4.4h574c4,0,7.8-1.6,10.6-4.4
				c2.8-2.8,4.4-6.6,4.4-10.6V135.9c-86.6,89.4-218.2,133-348,114.3c-104.3-15-196.4-68.1-256-146.9V669.4 M-76.7,669.4v-588
				c57.6,87,153.8,146.1,264,162c133.8,19.3,269.5-28.7,354-125.3v551.4c0,5.9-2.3,11.4-6.4,15.6c-4.2,4.2-9.7,6.4-15.6,6.4h-574
				c-5.9,0-11.4-2.3-15.6-6.4S-76.7,675.2-76.7,669.4z"/>
		</g>
	</g>
</g>
</svg>
